G04 #@! TF.GenerationSoftware,KiCad,Pcbnew,5.1.2-f72e74a~84~ubuntu18.04.1*
G04 #@! TF.CreationDate,2019-06-25T00:33:59+02:00*
G04 #@! TF.ProjectId,invaders,696e7661-6465-4727-932e-6b696361645f,rev?*
G04 #@! TF.SameCoordinates,Original*
G04 #@! TF.FileFunction,Paste,Bot*
G04 #@! TF.FilePolarity,Positive*
%FSLAX46Y46*%
G04 Gerber Fmt 4.6, Leading zero omitted, Abs format (unit mm)*
G04 Created by KiCad (PCBNEW 5.1.2-f72e74a~84~ubuntu18.04.1) date 2019-06-25 00:33:59*
%MOMM*%
%LPD*%
G04 APERTURE LIST*
%ADD10C,0.100000*%
%ADD11C,1.425000*%
%ADD12C,1.150000*%
%ADD13R,1.100000X1.100000*%
%ADD14R,1.900000X1.500000*%
%ADD15R,1.350000X0.400000*%
%ADD16R,1.560000X0.650000*%
%ADD17R,0.650000X0.400000*%
G04 APERTURE END LIST*
D10*
G36*
X72659504Y-114061204D02*
G01*
X72683773Y-114064804D01*
X72707571Y-114070765D01*
X72730671Y-114079030D01*
X72752849Y-114089520D01*
X72773893Y-114102133D01*
X72793598Y-114116747D01*
X72811777Y-114133223D01*
X72828253Y-114151402D01*
X72842867Y-114171107D01*
X72855480Y-114192151D01*
X72865970Y-114214329D01*
X72874235Y-114237429D01*
X72880196Y-114261227D01*
X72883796Y-114285496D01*
X72885000Y-114310000D01*
X72885000Y-115560000D01*
X72883796Y-115584504D01*
X72880196Y-115608773D01*
X72874235Y-115632571D01*
X72865970Y-115655671D01*
X72855480Y-115677849D01*
X72842867Y-115698893D01*
X72828253Y-115718598D01*
X72811777Y-115736777D01*
X72793598Y-115753253D01*
X72773893Y-115767867D01*
X72752849Y-115780480D01*
X72730671Y-115790970D01*
X72707571Y-115799235D01*
X72683773Y-115805196D01*
X72659504Y-115808796D01*
X72635000Y-115810000D01*
X71710000Y-115810000D01*
X71685496Y-115808796D01*
X71661227Y-115805196D01*
X71637429Y-115799235D01*
X71614329Y-115790970D01*
X71592151Y-115780480D01*
X71571107Y-115767867D01*
X71551402Y-115753253D01*
X71533223Y-115736777D01*
X71516747Y-115718598D01*
X71502133Y-115698893D01*
X71489520Y-115677849D01*
X71479030Y-115655671D01*
X71470765Y-115632571D01*
X71464804Y-115608773D01*
X71461204Y-115584504D01*
X71460000Y-115560000D01*
X71460000Y-114310000D01*
X71461204Y-114285496D01*
X71464804Y-114261227D01*
X71470765Y-114237429D01*
X71479030Y-114214329D01*
X71489520Y-114192151D01*
X71502133Y-114171107D01*
X71516747Y-114151402D01*
X71533223Y-114133223D01*
X71551402Y-114116747D01*
X71571107Y-114102133D01*
X71592151Y-114089520D01*
X71614329Y-114079030D01*
X71637429Y-114070765D01*
X71661227Y-114064804D01*
X71685496Y-114061204D01*
X71710000Y-114060000D01*
X72635000Y-114060000D01*
X72659504Y-114061204D01*
X72659504Y-114061204D01*
G37*
D11*
X72172500Y-114935000D03*
D10*
G36*
X75634504Y-114061204D02*
G01*
X75658773Y-114064804D01*
X75682571Y-114070765D01*
X75705671Y-114079030D01*
X75727849Y-114089520D01*
X75748893Y-114102133D01*
X75768598Y-114116747D01*
X75786777Y-114133223D01*
X75803253Y-114151402D01*
X75817867Y-114171107D01*
X75830480Y-114192151D01*
X75840970Y-114214329D01*
X75849235Y-114237429D01*
X75855196Y-114261227D01*
X75858796Y-114285496D01*
X75860000Y-114310000D01*
X75860000Y-115560000D01*
X75858796Y-115584504D01*
X75855196Y-115608773D01*
X75849235Y-115632571D01*
X75840970Y-115655671D01*
X75830480Y-115677849D01*
X75817867Y-115698893D01*
X75803253Y-115718598D01*
X75786777Y-115736777D01*
X75768598Y-115753253D01*
X75748893Y-115767867D01*
X75727849Y-115780480D01*
X75705671Y-115790970D01*
X75682571Y-115799235D01*
X75658773Y-115805196D01*
X75634504Y-115808796D01*
X75610000Y-115810000D01*
X74685000Y-115810000D01*
X74660496Y-115808796D01*
X74636227Y-115805196D01*
X74612429Y-115799235D01*
X74589329Y-115790970D01*
X74567151Y-115780480D01*
X74546107Y-115767867D01*
X74526402Y-115753253D01*
X74508223Y-115736777D01*
X74491747Y-115718598D01*
X74477133Y-115698893D01*
X74464520Y-115677849D01*
X74454030Y-115655671D01*
X74445765Y-115632571D01*
X74439804Y-115608773D01*
X74436204Y-115584504D01*
X74435000Y-115560000D01*
X74435000Y-114310000D01*
X74436204Y-114285496D01*
X74439804Y-114261227D01*
X74445765Y-114237429D01*
X74454030Y-114214329D01*
X74464520Y-114192151D01*
X74477133Y-114171107D01*
X74491747Y-114151402D01*
X74508223Y-114133223D01*
X74526402Y-114116747D01*
X74546107Y-114102133D01*
X74567151Y-114089520D01*
X74589329Y-114079030D01*
X74612429Y-114070765D01*
X74636227Y-114064804D01*
X74660496Y-114061204D01*
X74685000Y-114060000D01*
X75610000Y-114060000D01*
X75634504Y-114061204D01*
X75634504Y-114061204D01*
G37*
D11*
X75147500Y-114935000D03*
D10*
G36*
X65244505Y-116656204D02*
G01*
X65268773Y-116659804D01*
X65292572Y-116665765D01*
X65315671Y-116674030D01*
X65337850Y-116684520D01*
X65358893Y-116697132D01*
X65378599Y-116711747D01*
X65396777Y-116728223D01*
X65413253Y-116746401D01*
X65427868Y-116766107D01*
X65440480Y-116787150D01*
X65450970Y-116809329D01*
X65459235Y-116832428D01*
X65465196Y-116856227D01*
X65468796Y-116880495D01*
X65470000Y-116904999D01*
X65470000Y-117555001D01*
X65468796Y-117579505D01*
X65465196Y-117603773D01*
X65459235Y-117627572D01*
X65450970Y-117650671D01*
X65440480Y-117672850D01*
X65427868Y-117693893D01*
X65413253Y-117713599D01*
X65396777Y-117731777D01*
X65378599Y-117748253D01*
X65358893Y-117762868D01*
X65337850Y-117775480D01*
X65315671Y-117785970D01*
X65292572Y-117794235D01*
X65268773Y-117800196D01*
X65244505Y-117803796D01*
X65220001Y-117805000D01*
X64319999Y-117805000D01*
X64295495Y-117803796D01*
X64271227Y-117800196D01*
X64247428Y-117794235D01*
X64224329Y-117785970D01*
X64202150Y-117775480D01*
X64181107Y-117762868D01*
X64161401Y-117748253D01*
X64143223Y-117731777D01*
X64126747Y-117713599D01*
X64112132Y-117693893D01*
X64099520Y-117672850D01*
X64089030Y-117650671D01*
X64080765Y-117627572D01*
X64074804Y-117603773D01*
X64071204Y-117579505D01*
X64070000Y-117555001D01*
X64070000Y-116904999D01*
X64071204Y-116880495D01*
X64074804Y-116856227D01*
X64080765Y-116832428D01*
X64089030Y-116809329D01*
X64099520Y-116787150D01*
X64112132Y-116766107D01*
X64126747Y-116746401D01*
X64143223Y-116728223D01*
X64161401Y-116711747D01*
X64181107Y-116697132D01*
X64202150Y-116684520D01*
X64224329Y-116674030D01*
X64247428Y-116665765D01*
X64271227Y-116659804D01*
X64295495Y-116656204D01*
X64319999Y-116655000D01*
X65220001Y-116655000D01*
X65244505Y-116656204D01*
X65244505Y-116656204D01*
G37*
D12*
X64770000Y-117230000D03*
D10*
G36*
X65244505Y-114606204D02*
G01*
X65268773Y-114609804D01*
X65292572Y-114615765D01*
X65315671Y-114624030D01*
X65337850Y-114634520D01*
X65358893Y-114647132D01*
X65378599Y-114661747D01*
X65396777Y-114678223D01*
X65413253Y-114696401D01*
X65427868Y-114716107D01*
X65440480Y-114737150D01*
X65450970Y-114759329D01*
X65459235Y-114782428D01*
X65465196Y-114806227D01*
X65468796Y-114830495D01*
X65470000Y-114854999D01*
X65470000Y-115505001D01*
X65468796Y-115529505D01*
X65465196Y-115553773D01*
X65459235Y-115577572D01*
X65450970Y-115600671D01*
X65440480Y-115622850D01*
X65427868Y-115643893D01*
X65413253Y-115663599D01*
X65396777Y-115681777D01*
X65378599Y-115698253D01*
X65358893Y-115712868D01*
X65337850Y-115725480D01*
X65315671Y-115735970D01*
X65292572Y-115744235D01*
X65268773Y-115750196D01*
X65244505Y-115753796D01*
X65220001Y-115755000D01*
X64319999Y-115755000D01*
X64295495Y-115753796D01*
X64271227Y-115750196D01*
X64247428Y-115744235D01*
X64224329Y-115735970D01*
X64202150Y-115725480D01*
X64181107Y-115712868D01*
X64161401Y-115698253D01*
X64143223Y-115681777D01*
X64126747Y-115663599D01*
X64112132Y-115643893D01*
X64099520Y-115622850D01*
X64089030Y-115600671D01*
X64080765Y-115577572D01*
X64074804Y-115553773D01*
X64071204Y-115529505D01*
X64070000Y-115505001D01*
X64070000Y-114854999D01*
X64071204Y-114830495D01*
X64074804Y-114806227D01*
X64080765Y-114782428D01*
X64089030Y-114759329D01*
X64099520Y-114737150D01*
X64112132Y-114716107D01*
X64126747Y-114696401D01*
X64143223Y-114678223D01*
X64161401Y-114661747D01*
X64181107Y-114647132D01*
X64202150Y-114634520D01*
X64224329Y-114624030D01*
X64247428Y-114615765D01*
X64271227Y-114609804D01*
X64295495Y-114606204D01*
X64319999Y-114605000D01*
X65220001Y-114605000D01*
X65244505Y-114606204D01*
X65244505Y-114606204D01*
G37*
D12*
X64770000Y-115180000D03*
D10*
G36*
X89512505Y-100901204D02*
G01*
X89536773Y-100904804D01*
X89560572Y-100910765D01*
X89583671Y-100919030D01*
X89605850Y-100929520D01*
X89626893Y-100942132D01*
X89646599Y-100956747D01*
X89664777Y-100973223D01*
X89681253Y-100991401D01*
X89695868Y-101011107D01*
X89708480Y-101032150D01*
X89718970Y-101054329D01*
X89727235Y-101077428D01*
X89733196Y-101101227D01*
X89736796Y-101125495D01*
X89738000Y-101149999D01*
X89738000Y-102050001D01*
X89736796Y-102074505D01*
X89733196Y-102098773D01*
X89727235Y-102122572D01*
X89718970Y-102145671D01*
X89708480Y-102167850D01*
X89695868Y-102188893D01*
X89681253Y-102208599D01*
X89664777Y-102226777D01*
X89646599Y-102243253D01*
X89626893Y-102257868D01*
X89605850Y-102270480D01*
X89583671Y-102280970D01*
X89560572Y-102289235D01*
X89536773Y-102295196D01*
X89512505Y-102298796D01*
X89488001Y-102300000D01*
X88837999Y-102300000D01*
X88813495Y-102298796D01*
X88789227Y-102295196D01*
X88765428Y-102289235D01*
X88742329Y-102280970D01*
X88720150Y-102270480D01*
X88699107Y-102257868D01*
X88679401Y-102243253D01*
X88661223Y-102226777D01*
X88644747Y-102208599D01*
X88630132Y-102188893D01*
X88617520Y-102167850D01*
X88607030Y-102145671D01*
X88598765Y-102122572D01*
X88592804Y-102098773D01*
X88589204Y-102074505D01*
X88588000Y-102050001D01*
X88588000Y-101149999D01*
X88589204Y-101125495D01*
X88592804Y-101101227D01*
X88598765Y-101077428D01*
X88607030Y-101054329D01*
X88617520Y-101032150D01*
X88630132Y-101011107D01*
X88644747Y-100991401D01*
X88661223Y-100973223D01*
X88679401Y-100956747D01*
X88699107Y-100942132D01*
X88720150Y-100929520D01*
X88742329Y-100919030D01*
X88765428Y-100910765D01*
X88789227Y-100904804D01*
X88813495Y-100901204D01*
X88837999Y-100900000D01*
X89488001Y-100900000D01*
X89512505Y-100901204D01*
X89512505Y-100901204D01*
G37*
D12*
X89163000Y-101600000D03*
D10*
G36*
X87462505Y-100901204D02*
G01*
X87486773Y-100904804D01*
X87510572Y-100910765D01*
X87533671Y-100919030D01*
X87555850Y-100929520D01*
X87576893Y-100942132D01*
X87596599Y-100956747D01*
X87614777Y-100973223D01*
X87631253Y-100991401D01*
X87645868Y-101011107D01*
X87658480Y-101032150D01*
X87668970Y-101054329D01*
X87677235Y-101077428D01*
X87683196Y-101101227D01*
X87686796Y-101125495D01*
X87688000Y-101149999D01*
X87688000Y-102050001D01*
X87686796Y-102074505D01*
X87683196Y-102098773D01*
X87677235Y-102122572D01*
X87668970Y-102145671D01*
X87658480Y-102167850D01*
X87645868Y-102188893D01*
X87631253Y-102208599D01*
X87614777Y-102226777D01*
X87596599Y-102243253D01*
X87576893Y-102257868D01*
X87555850Y-102270480D01*
X87533671Y-102280970D01*
X87510572Y-102289235D01*
X87486773Y-102295196D01*
X87462505Y-102298796D01*
X87438001Y-102300000D01*
X86787999Y-102300000D01*
X86763495Y-102298796D01*
X86739227Y-102295196D01*
X86715428Y-102289235D01*
X86692329Y-102280970D01*
X86670150Y-102270480D01*
X86649107Y-102257868D01*
X86629401Y-102243253D01*
X86611223Y-102226777D01*
X86594747Y-102208599D01*
X86580132Y-102188893D01*
X86567520Y-102167850D01*
X86557030Y-102145671D01*
X86548765Y-102122572D01*
X86542804Y-102098773D01*
X86539204Y-102074505D01*
X86538000Y-102050001D01*
X86538000Y-101149999D01*
X86539204Y-101125495D01*
X86542804Y-101101227D01*
X86548765Y-101077428D01*
X86557030Y-101054329D01*
X86567520Y-101032150D01*
X86580132Y-101011107D01*
X86594747Y-100991401D01*
X86611223Y-100973223D01*
X86629401Y-100956747D01*
X86649107Y-100942132D01*
X86670150Y-100929520D01*
X86692329Y-100919030D01*
X86715428Y-100910765D01*
X86739227Y-100904804D01*
X86763495Y-100901204D01*
X86787999Y-100900000D01*
X87438001Y-100900000D01*
X87462505Y-100901204D01*
X87462505Y-100901204D01*
G37*
D12*
X87113000Y-101600000D03*
D10*
G36*
X133364504Y-117816204D02*
G01*
X133388773Y-117819804D01*
X133412571Y-117825765D01*
X133435671Y-117834030D01*
X133457849Y-117844520D01*
X133478893Y-117857133D01*
X133498598Y-117871747D01*
X133516777Y-117888223D01*
X133533253Y-117906402D01*
X133547867Y-117926107D01*
X133560480Y-117947151D01*
X133570970Y-117969329D01*
X133579235Y-117992429D01*
X133585196Y-118016227D01*
X133588796Y-118040496D01*
X133590000Y-118065000D01*
X133590000Y-118990000D01*
X133588796Y-119014504D01*
X133585196Y-119038773D01*
X133579235Y-119062571D01*
X133570970Y-119085671D01*
X133560480Y-119107849D01*
X133547867Y-119128893D01*
X133533253Y-119148598D01*
X133516777Y-119166777D01*
X133498598Y-119183253D01*
X133478893Y-119197867D01*
X133457849Y-119210480D01*
X133435671Y-119220970D01*
X133412571Y-119229235D01*
X133388773Y-119235196D01*
X133364504Y-119238796D01*
X133340000Y-119240000D01*
X132090000Y-119240000D01*
X132065496Y-119238796D01*
X132041227Y-119235196D01*
X132017429Y-119229235D01*
X131994329Y-119220970D01*
X131972151Y-119210480D01*
X131951107Y-119197867D01*
X131931402Y-119183253D01*
X131913223Y-119166777D01*
X131896747Y-119148598D01*
X131882133Y-119128893D01*
X131869520Y-119107849D01*
X131859030Y-119085671D01*
X131850765Y-119062571D01*
X131844804Y-119038773D01*
X131841204Y-119014504D01*
X131840000Y-118990000D01*
X131840000Y-118065000D01*
X131841204Y-118040496D01*
X131844804Y-118016227D01*
X131850765Y-117992429D01*
X131859030Y-117969329D01*
X131869520Y-117947151D01*
X131882133Y-117926107D01*
X131896747Y-117906402D01*
X131913223Y-117888223D01*
X131931402Y-117871747D01*
X131951107Y-117857133D01*
X131972151Y-117844520D01*
X131994329Y-117834030D01*
X132017429Y-117825765D01*
X132041227Y-117819804D01*
X132065496Y-117816204D01*
X132090000Y-117815000D01*
X133340000Y-117815000D01*
X133364504Y-117816204D01*
X133364504Y-117816204D01*
G37*
D11*
X132715000Y-118527500D03*
D10*
G36*
X133364504Y-120791204D02*
G01*
X133388773Y-120794804D01*
X133412571Y-120800765D01*
X133435671Y-120809030D01*
X133457849Y-120819520D01*
X133478893Y-120832133D01*
X133498598Y-120846747D01*
X133516777Y-120863223D01*
X133533253Y-120881402D01*
X133547867Y-120901107D01*
X133560480Y-120922151D01*
X133570970Y-120944329D01*
X133579235Y-120967429D01*
X133585196Y-120991227D01*
X133588796Y-121015496D01*
X133590000Y-121040000D01*
X133590000Y-121965000D01*
X133588796Y-121989504D01*
X133585196Y-122013773D01*
X133579235Y-122037571D01*
X133570970Y-122060671D01*
X133560480Y-122082849D01*
X133547867Y-122103893D01*
X133533253Y-122123598D01*
X133516777Y-122141777D01*
X133498598Y-122158253D01*
X133478893Y-122172867D01*
X133457849Y-122185480D01*
X133435671Y-122195970D01*
X133412571Y-122204235D01*
X133388773Y-122210196D01*
X133364504Y-122213796D01*
X133340000Y-122215000D01*
X132090000Y-122215000D01*
X132065496Y-122213796D01*
X132041227Y-122210196D01*
X132017429Y-122204235D01*
X131994329Y-122195970D01*
X131972151Y-122185480D01*
X131951107Y-122172867D01*
X131931402Y-122158253D01*
X131913223Y-122141777D01*
X131896747Y-122123598D01*
X131882133Y-122103893D01*
X131869520Y-122082849D01*
X131859030Y-122060671D01*
X131850765Y-122037571D01*
X131844804Y-122013773D01*
X131841204Y-121989504D01*
X131840000Y-121965000D01*
X131840000Y-121040000D01*
X131841204Y-121015496D01*
X131844804Y-120991227D01*
X131850765Y-120967429D01*
X131859030Y-120944329D01*
X131869520Y-120922151D01*
X131882133Y-120901107D01*
X131896747Y-120881402D01*
X131913223Y-120863223D01*
X131931402Y-120846747D01*
X131951107Y-120832133D01*
X131972151Y-120819520D01*
X131994329Y-120809030D01*
X132017429Y-120800765D01*
X132041227Y-120794804D01*
X132065496Y-120791204D01*
X132090000Y-120790000D01*
X133340000Y-120790000D01*
X133364504Y-120791204D01*
X133364504Y-120791204D01*
G37*
D11*
X132715000Y-121502500D03*
D10*
G36*
X115004504Y-85486204D02*
G01*
X115028773Y-85489804D01*
X115052571Y-85495765D01*
X115075671Y-85504030D01*
X115097849Y-85514520D01*
X115118893Y-85527133D01*
X115138598Y-85541747D01*
X115156777Y-85558223D01*
X115173253Y-85576402D01*
X115187867Y-85596107D01*
X115200480Y-85617151D01*
X115210970Y-85639329D01*
X115219235Y-85662429D01*
X115225196Y-85686227D01*
X115228796Y-85710496D01*
X115230000Y-85735000D01*
X115230000Y-86985000D01*
X115228796Y-87009504D01*
X115225196Y-87033773D01*
X115219235Y-87057571D01*
X115210970Y-87080671D01*
X115200480Y-87102849D01*
X115187867Y-87123893D01*
X115173253Y-87143598D01*
X115156777Y-87161777D01*
X115138598Y-87178253D01*
X115118893Y-87192867D01*
X115097849Y-87205480D01*
X115075671Y-87215970D01*
X115052571Y-87224235D01*
X115028773Y-87230196D01*
X115004504Y-87233796D01*
X114980000Y-87235000D01*
X114055000Y-87235000D01*
X114030496Y-87233796D01*
X114006227Y-87230196D01*
X113982429Y-87224235D01*
X113959329Y-87215970D01*
X113937151Y-87205480D01*
X113916107Y-87192867D01*
X113896402Y-87178253D01*
X113878223Y-87161777D01*
X113861747Y-87143598D01*
X113847133Y-87123893D01*
X113834520Y-87102849D01*
X113824030Y-87080671D01*
X113815765Y-87057571D01*
X113809804Y-87033773D01*
X113806204Y-87009504D01*
X113805000Y-86985000D01*
X113805000Y-85735000D01*
X113806204Y-85710496D01*
X113809804Y-85686227D01*
X113815765Y-85662429D01*
X113824030Y-85639329D01*
X113834520Y-85617151D01*
X113847133Y-85596107D01*
X113861747Y-85576402D01*
X113878223Y-85558223D01*
X113896402Y-85541747D01*
X113916107Y-85527133D01*
X113937151Y-85514520D01*
X113959329Y-85504030D01*
X113982429Y-85495765D01*
X114006227Y-85489804D01*
X114030496Y-85486204D01*
X114055000Y-85485000D01*
X114980000Y-85485000D01*
X115004504Y-85486204D01*
X115004504Y-85486204D01*
G37*
D11*
X114517500Y-86360000D03*
D10*
G36*
X112029504Y-85486204D02*
G01*
X112053773Y-85489804D01*
X112077571Y-85495765D01*
X112100671Y-85504030D01*
X112122849Y-85514520D01*
X112143893Y-85527133D01*
X112163598Y-85541747D01*
X112181777Y-85558223D01*
X112198253Y-85576402D01*
X112212867Y-85596107D01*
X112225480Y-85617151D01*
X112235970Y-85639329D01*
X112244235Y-85662429D01*
X112250196Y-85686227D01*
X112253796Y-85710496D01*
X112255000Y-85735000D01*
X112255000Y-86985000D01*
X112253796Y-87009504D01*
X112250196Y-87033773D01*
X112244235Y-87057571D01*
X112235970Y-87080671D01*
X112225480Y-87102849D01*
X112212867Y-87123893D01*
X112198253Y-87143598D01*
X112181777Y-87161777D01*
X112163598Y-87178253D01*
X112143893Y-87192867D01*
X112122849Y-87205480D01*
X112100671Y-87215970D01*
X112077571Y-87224235D01*
X112053773Y-87230196D01*
X112029504Y-87233796D01*
X112005000Y-87235000D01*
X111080000Y-87235000D01*
X111055496Y-87233796D01*
X111031227Y-87230196D01*
X111007429Y-87224235D01*
X110984329Y-87215970D01*
X110962151Y-87205480D01*
X110941107Y-87192867D01*
X110921402Y-87178253D01*
X110903223Y-87161777D01*
X110886747Y-87143598D01*
X110872133Y-87123893D01*
X110859520Y-87102849D01*
X110849030Y-87080671D01*
X110840765Y-87057571D01*
X110834804Y-87033773D01*
X110831204Y-87009504D01*
X110830000Y-86985000D01*
X110830000Y-85735000D01*
X110831204Y-85710496D01*
X110834804Y-85686227D01*
X110840765Y-85662429D01*
X110849030Y-85639329D01*
X110859520Y-85617151D01*
X110872133Y-85596107D01*
X110886747Y-85576402D01*
X110903223Y-85558223D01*
X110921402Y-85541747D01*
X110941107Y-85527133D01*
X110962151Y-85514520D01*
X110984329Y-85504030D01*
X111007429Y-85495765D01*
X111031227Y-85489804D01*
X111055496Y-85486204D01*
X111080000Y-85485000D01*
X112005000Y-85485000D01*
X112029504Y-85486204D01*
X112029504Y-85486204D01*
G37*
D11*
X111542500Y-86360000D03*
D10*
G36*
X51069504Y-85486204D02*
G01*
X51093773Y-85489804D01*
X51117571Y-85495765D01*
X51140671Y-85504030D01*
X51162849Y-85514520D01*
X51183893Y-85527133D01*
X51203598Y-85541747D01*
X51221777Y-85558223D01*
X51238253Y-85576402D01*
X51252867Y-85596107D01*
X51265480Y-85617151D01*
X51275970Y-85639329D01*
X51284235Y-85662429D01*
X51290196Y-85686227D01*
X51293796Y-85710496D01*
X51295000Y-85735000D01*
X51295000Y-86985000D01*
X51293796Y-87009504D01*
X51290196Y-87033773D01*
X51284235Y-87057571D01*
X51275970Y-87080671D01*
X51265480Y-87102849D01*
X51252867Y-87123893D01*
X51238253Y-87143598D01*
X51221777Y-87161777D01*
X51203598Y-87178253D01*
X51183893Y-87192867D01*
X51162849Y-87205480D01*
X51140671Y-87215970D01*
X51117571Y-87224235D01*
X51093773Y-87230196D01*
X51069504Y-87233796D01*
X51045000Y-87235000D01*
X50120000Y-87235000D01*
X50095496Y-87233796D01*
X50071227Y-87230196D01*
X50047429Y-87224235D01*
X50024329Y-87215970D01*
X50002151Y-87205480D01*
X49981107Y-87192867D01*
X49961402Y-87178253D01*
X49943223Y-87161777D01*
X49926747Y-87143598D01*
X49912133Y-87123893D01*
X49899520Y-87102849D01*
X49889030Y-87080671D01*
X49880765Y-87057571D01*
X49874804Y-87033773D01*
X49871204Y-87009504D01*
X49870000Y-86985000D01*
X49870000Y-85735000D01*
X49871204Y-85710496D01*
X49874804Y-85686227D01*
X49880765Y-85662429D01*
X49889030Y-85639329D01*
X49899520Y-85617151D01*
X49912133Y-85596107D01*
X49926747Y-85576402D01*
X49943223Y-85558223D01*
X49961402Y-85541747D01*
X49981107Y-85527133D01*
X50002151Y-85514520D01*
X50024329Y-85504030D01*
X50047429Y-85495765D01*
X50071227Y-85489804D01*
X50095496Y-85486204D01*
X50120000Y-85485000D01*
X51045000Y-85485000D01*
X51069504Y-85486204D01*
X51069504Y-85486204D01*
G37*
D11*
X50582500Y-86360000D03*
D10*
G36*
X54044504Y-85486204D02*
G01*
X54068773Y-85489804D01*
X54092571Y-85495765D01*
X54115671Y-85504030D01*
X54137849Y-85514520D01*
X54158893Y-85527133D01*
X54178598Y-85541747D01*
X54196777Y-85558223D01*
X54213253Y-85576402D01*
X54227867Y-85596107D01*
X54240480Y-85617151D01*
X54250970Y-85639329D01*
X54259235Y-85662429D01*
X54265196Y-85686227D01*
X54268796Y-85710496D01*
X54270000Y-85735000D01*
X54270000Y-86985000D01*
X54268796Y-87009504D01*
X54265196Y-87033773D01*
X54259235Y-87057571D01*
X54250970Y-87080671D01*
X54240480Y-87102849D01*
X54227867Y-87123893D01*
X54213253Y-87143598D01*
X54196777Y-87161777D01*
X54178598Y-87178253D01*
X54158893Y-87192867D01*
X54137849Y-87205480D01*
X54115671Y-87215970D01*
X54092571Y-87224235D01*
X54068773Y-87230196D01*
X54044504Y-87233796D01*
X54020000Y-87235000D01*
X53095000Y-87235000D01*
X53070496Y-87233796D01*
X53046227Y-87230196D01*
X53022429Y-87224235D01*
X52999329Y-87215970D01*
X52977151Y-87205480D01*
X52956107Y-87192867D01*
X52936402Y-87178253D01*
X52918223Y-87161777D01*
X52901747Y-87143598D01*
X52887133Y-87123893D01*
X52874520Y-87102849D01*
X52864030Y-87080671D01*
X52855765Y-87057571D01*
X52849804Y-87033773D01*
X52846204Y-87009504D01*
X52845000Y-86985000D01*
X52845000Y-85735000D01*
X52846204Y-85710496D01*
X52849804Y-85686227D01*
X52855765Y-85662429D01*
X52864030Y-85639329D01*
X52874520Y-85617151D01*
X52887133Y-85596107D01*
X52901747Y-85576402D01*
X52918223Y-85558223D01*
X52936402Y-85541747D01*
X52956107Y-85527133D01*
X52977151Y-85514520D01*
X52999329Y-85504030D01*
X53022429Y-85495765D01*
X53046227Y-85489804D01*
X53070496Y-85486204D01*
X53095000Y-85485000D01*
X54020000Y-85485000D01*
X54044504Y-85486204D01*
X54044504Y-85486204D01*
G37*
D11*
X53557500Y-86360000D03*
D10*
G36*
X86219505Y-113601204D02*
G01*
X86243773Y-113604804D01*
X86267572Y-113610765D01*
X86290671Y-113619030D01*
X86312850Y-113629520D01*
X86333893Y-113642132D01*
X86353599Y-113656747D01*
X86371777Y-113673223D01*
X86388253Y-113691401D01*
X86402868Y-113711107D01*
X86415480Y-113732150D01*
X86425970Y-113754329D01*
X86434235Y-113777428D01*
X86440196Y-113801227D01*
X86443796Y-113825495D01*
X86445000Y-113849999D01*
X86445000Y-114750001D01*
X86443796Y-114774505D01*
X86440196Y-114798773D01*
X86434235Y-114822572D01*
X86425970Y-114845671D01*
X86415480Y-114867850D01*
X86402868Y-114888893D01*
X86388253Y-114908599D01*
X86371777Y-114926777D01*
X86353599Y-114943253D01*
X86333893Y-114957868D01*
X86312850Y-114970480D01*
X86290671Y-114980970D01*
X86267572Y-114989235D01*
X86243773Y-114995196D01*
X86219505Y-114998796D01*
X86195001Y-115000000D01*
X85544999Y-115000000D01*
X85520495Y-114998796D01*
X85496227Y-114995196D01*
X85472428Y-114989235D01*
X85449329Y-114980970D01*
X85427150Y-114970480D01*
X85406107Y-114957868D01*
X85386401Y-114943253D01*
X85368223Y-114926777D01*
X85351747Y-114908599D01*
X85337132Y-114888893D01*
X85324520Y-114867850D01*
X85314030Y-114845671D01*
X85305765Y-114822572D01*
X85299804Y-114798773D01*
X85296204Y-114774505D01*
X85295000Y-114750001D01*
X85295000Y-113849999D01*
X85296204Y-113825495D01*
X85299804Y-113801227D01*
X85305765Y-113777428D01*
X85314030Y-113754329D01*
X85324520Y-113732150D01*
X85337132Y-113711107D01*
X85351747Y-113691401D01*
X85368223Y-113673223D01*
X85386401Y-113656747D01*
X85406107Y-113642132D01*
X85427150Y-113629520D01*
X85449329Y-113619030D01*
X85472428Y-113610765D01*
X85496227Y-113604804D01*
X85520495Y-113601204D01*
X85544999Y-113600000D01*
X86195001Y-113600000D01*
X86219505Y-113601204D01*
X86219505Y-113601204D01*
G37*
D12*
X85870000Y-114300000D03*
D10*
G36*
X84169505Y-113601204D02*
G01*
X84193773Y-113604804D01*
X84217572Y-113610765D01*
X84240671Y-113619030D01*
X84262850Y-113629520D01*
X84283893Y-113642132D01*
X84303599Y-113656747D01*
X84321777Y-113673223D01*
X84338253Y-113691401D01*
X84352868Y-113711107D01*
X84365480Y-113732150D01*
X84375970Y-113754329D01*
X84384235Y-113777428D01*
X84390196Y-113801227D01*
X84393796Y-113825495D01*
X84395000Y-113849999D01*
X84395000Y-114750001D01*
X84393796Y-114774505D01*
X84390196Y-114798773D01*
X84384235Y-114822572D01*
X84375970Y-114845671D01*
X84365480Y-114867850D01*
X84352868Y-114888893D01*
X84338253Y-114908599D01*
X84321777Y-114926777D01*
X84303599Y-114943253D01*
X84283893Y-114957868D01*
X84262850Y-114970480D01*
X84240671Y-114980970D01*
X84217572Y-114989235D01*
X84193773Y-114995196D01*
X84169505Y-114998796D01*
X84145001Y-115000000D01*
X83494999Y-115000000D01*
X83470495Y-114998796D01*
X83446227Y-114995196D01*
X83422428Y-114989235D01*
X83399329Y-114980970D01*
X83377150Y-114970480D01*
X83356107Y-114957868D01*
X83336401Y-114943253D01*
X83318223Y-114926777D01*
X83301747Y-114908599D01*
X83287132Y-114888893D01*
X83274520Y-114867850D01*
X83264030Y-114845671D01*
X83255765Y-114822572D01*
X83249804Y-114798773D01*
X83246204Y-114774505D01*
X83245000Y-114750001D01*
X83245000Y-113849999D01*
X83246204Y-113825495D01*
X83249804Y-113801227D01*
X83255765Y-113777428D01*
X83264030Y-113754329D01*
X83274520Y-113732150D01*
X83287132Y-113711107D01*
X83301747Y-113691401D01*
X83318223Y-113673223D01*
X83336401Y-113656747D01*
X83356107Y-113642132D01*
X83377150Y-113629520D01*
X83399329Y-113619030D01*
X83422428Y-113610765D01*
X83446227Y-113604804D01*
X83470495Y-113601204D01*
X83494999Y-113600000D01*
X84145001Y-113600000D01*
X84169505Y-113601204D01*
X84169505Y-113601204D01*
G37*
D12*
X83820000Y-114300000D03*
D10*
G36*
X47210505Y-128204204D02*
G01*
X47234773Y-128207804D01*
X47258572Y-128213765D01*
X47281671Y-128222030D01*
X47303850Y-128232520D01*
X47324893Y-128245132D01*
X47344599Y-128259747D01*
X47362777Y-128276223D01*
X47379253Y-128294401D01*
X47393868Y-128314107D01*
X47406480Y-128335150D01*
X47416970Y-128357329D01*
X47425235Y-128380428D01*
X47431196Y-128404227D01*
X47434796Y-128428495D01*
X47436000Y-128452999D01*
X47436000Y-129103001D01*
X47434796Y-129127505D01*
X47431196Y-129151773D01*
X47425235Y-129175572D01*
X47416970Y-129198671D01*
X47406480Y-129220850D01*
X47393868Y-129241893D01*
X47379253Y-129261599D01*
X47362777Y-129279777D01*
X47344599Y-129296253D01*
X47324893Y-129310868D01*
X47303850Y-129323480D01*
X47281671Y-129333970D01*
X47258572Y-129342235D01*
X47234773Y-129348196D01*
X47210505Y-129351796D01*
X47186001Y-129353000D01*
X46285999Y-129353000D01*
X46261495Y-129351796D01*
X46237227Y-129348196D01*
X46213428Y-129342235D01*
X46190329Y-129333970D01*
X46168150Y-129323480D01*
X46147107Y-129310868D01*
X46127401Y-129296253D01*
X46109223Y-129279777D01*
X46092747Y-129261599D01*
X46078132Y-129241893D01*
X46065520Y-129220850D01*
X46055030Y-129198671D01*
X46046765Y-129175572D01*
X46040804Y-129151773D01*
X46037204Y-129127505D01*
X46036000Y-129103001D01*
X46036000Y-128452999D01*
X46037204Y-128428495D01*
X46040804Y-128404227D01*
X46046765Y-128380428D01*
X46055030Y-128357329D01*
X46065520Y-128335150D01*
X46078132Y-128314107D01*
X46092747Y-128294401D01*
X46109223Y-128276223D01*
X46127401Y-128259747D01*
X46147107Y-128245132D01*
X46168150Y-128232520D01*
X46190329Y-128222030D01*
X46213428Y-128213765D01*
X46237227Y-128207804D01*
X46261495Y-128204204D01*
X46285999Y-128203000D01*
X47186001Y-128203000D01*
X47210505Y-128204204D01*
X47210505Y-128204204D01*
G37*
D12*
X46736000Y-128778000D03*
D10*
G36*
X47210505Y-130254204D02*
G01*
X47234773Y-130257804D01*
X47258572Y-130263765D01*
X47281671Y-130272030D01*
X47303850Y-130282520D01*
X47324893Y-130295132D01*
X47344599Y-130309747D01*
X47362777Y-130326223D01*
X47379253Y-130344401D01*
X47393868Y-130364107D01*
X47406480Y-130385150D01*
X47416970Y-130407329D01*
X47425235Y-130430428D01*
X47431196Y-130454227D01*
X47434796Y-130478495D01*
X47436000Y-130502999D01*
X47436000Y-131153001D01*
X47434796Y-131177505D01*
X47431196Y-131201773D01*
X47425235Y-131225572D01*
X47416970Y-131248671D01*
X47406480Y-131270850D01*
X47393868Y-131291893D01*
X47379253Y-131311599D01*
X47362777Y-131329777D01*
X47344599Y-131346253D01*
X47324893Y-131360868D01*
X47303850Y-131373480D01*
X47281671Y-131383970D01*
X47258572Y-131392235D01*
X47234773Y-131398196D01*
X47210505Y-131401796D01*
X47186001Y-131403000D01*
X46285999Y-131403000D01*
X46261495Y-131401796D01*
X46237227Y-131398196D01*
X46213428Y-131392235D01*
X46190329Y-131383970D01*
X46168150Y-131373480D01*
X46147107Y-131360868D01*
X46127401Y-131346253D01*
X46109223Y-131329777D01*
X46092747Y-131311599D01*
X46078132Y-131291893D01*
X46065520Y-131270850D01*
X46055030Y-131248671D01*
X46046765Y-131225572D01*
X46040804Y-131201773D01*
X46037204Y-131177505D01*
X46036000Y-131153001D01*
X46036000Y-130502999D01*
X46037204Y-130478495D01*
X46040804Y-130454227D01*
X46046765Y-130430428D01*
X46055030Y-130407329D01*
X46065520Y-130385150D01*
X46078132Y-130364107D01*
X46092747Y-130344401D01*
X46109223Y-130326223D01*
X46127401Y-130309747D01*
X46147107Y-130295132D01*
X46168150Y-130282520D01*
X46190329Y-130272030D01*
X46213428Y-130263765D01*
X46237227Y-130257804D01*
X46261495Y-130254204D01*
X46285999Y-130253000D01*
X47186001Y-130253000D01*
X47210505Y-130254204D01*
X47210505Y-130254204D01*
G37*
D12*
X46736000Y-130828000D03*
D10*
G36*
X78064505Y-113601204D02*
G01*
X78088773Y-113604804D01*
X78112572Y-113610765D01*
X78135671Y-113619030D01*
X78157850Y-113629520D01*
X78178893Y-113642132D01*
X78198599Y-113656747D01*
X78216777Y-113673223D01*
X78233253Y-113691401D01*
X78247868Y-113711107D01*
X78260480Y-113732150D01*
X78270970Y-113754329D01*
X78279235Y-113777428D01*
X78285196Y-113801227D01*
X78288796Y-113825495D01*
X78290000Y-113849999D01*
X78290000Y-114750001D01*
X78288796Y-114774505D01*
X78285196Y-114798773D01*
X78279235Y-114822572D01*
X78270970Y-114845671D01*
X78260480Y-114867850D01*
X78247868Y-114888893D01*
X78233253Y-114908599D01*
X78216777Y-114926777D01*
X78198599Y-114943253D01*
X78178893Y-114957868D01*
X78157850Y-114970480D01*
X78135671Y-114980970D01*
X78112572Y-114989235D01*
X78088773Y-114995196D01*
X78064505Y-114998796D01*
X78040001Y-115000000D01*
X77389999Y-115000000D01*
X77365495Y-114998796D01*
X77341227Y-114995196D01*
X77317428Y-114989235D01*
X77294329Y-114980970D01*
X77272150Y-114970480D01*
X77251107Y-114957868D01*
X77231401Y-114943253D01*
X77213223Y-114926777D01*
X77196747Y-114908599D01*
X77182132Y-114888893D01*
X77169520Y-114867850D01*
X77159030Y-114845671D01*
X77150765Y-114822572D01*
X77144804Y-114798773D01*
X77141204Y-114774505D01*
X77140000Y-114750001D01*
X77140000Y-113849999D01*
X77141204Y-113825495D01*
X77144804Y-113801227D01*
X77150765Y-113777428D01*
X77159030Y-113754329D01*
X77169520Y-113732150D01*
X77182132Y-113711107D01*
X77196747Y-113691401D01*
X77213223Y-113673223D01*
X77231401Y-113656747D01*
X77251107Y-113642132D01*
X77272150Y-113629520D01*
X77294329Y-113619030D01*
X77317428Y-113610765D01*
X77341227Y-113604804D01*
X77365495Y-113601204D01*
X77389999Y-113600000D01*
X78040001Y-113600000D01*
X78064505Y-113601204D01*
X78064505Y-113601204D01*
G37*
D12*
X77715000Y-114300000D03*
D10*
G36*
X80114505Y-113601204D02*
G01*
X80138773Y-113604804D01*
X80162572Y-113610765D01*
X80185671Y-113619030D01*
X80207850Y-113629520D01*
X80228893Y-113642132D01*
X80248599Y-113656747D01*
X80266777Y-113673223D01*
X80283253Y-113691401D01*
X80297868Y-113711107D01*
X80310480Y-113732150D01*
X80320970Y-113754329D01*
X80329235Y-113777428D01*
X80335196Y-113801227D01*
X80338796Y-113825495D01*
X80340000Y-113849999D01*
X80340000Y-114750001D01*
X80338796Y-114774505D01*
X80335196Y-114798773D01*
X80329235Y-114822572D01*
X80320970Y-114845671D01*
X80310480Y-114867850D01*
X80297868Y-114888893D01*
X80283253Y-114908599D01*
X80266777Y-114926777D01*
X80248599Y-114943253D01*
X80228893Y-114957868D01*
X80207850Y-114970480D01*
X80185671Y-114980970D01*
X80162572Y-114989235D01*
X80138773Y-114995196D01*
X80114505Y-114998796D01*
X80090001Y-115000000D01*
X79439999Y-115000000D01*
X79415495Y-114998796D01*
X79391227Y-114995196D01*
X79367428Y-114989235D01*
X79344329Y-114980970D01*
X79322150Y-114970480D01*
X79301107Y-114957868D01*
X79281401Y-114943253D01*
X79263223Y-114926777D01*
X79246747Y-114908599D01*
X79232132Y-114888893D01*
X79219520Y-114867850D01*
X79209030Y-114845671D01*
X79200765Y-114822572D01*
X79194804Y-114798773D01*
X79191204Y-114774505D01*
X79190000Y-114750001D01*
X79190000Y-113849999D01*
X79191204Y-113825495D01*
X79194804Y-113801227D01*
X79200765Y-113777428D01*
X79209030Y-113754329D01*
X79219520Y-113732150D01*
X79232132Y-113711107D01*
X79246747Y-113691401D01*
X79263223Y-113673223D01*
X79281401Y-113656747D01*
X79301107Y-113642132D01*
X79322150Y-113629520D01*
X79344329Y-113619030D01*
X79367428Y-113610765D01*
X79391227Y-113604804D01*
X79415495Y-113601204D01*
X79439999Y-113600000D01*
X80090001Y-113600000D01*
X80114505Y-113601204D01*
X80114505Y-113601204D01*
G37*
D12*
X79765000Y-114300000D03*
D10*
G36*
X41379505Y-119316204D02*
G01*
X41403773Y-119319804D01*
X41427572Y-119325765D01*
X41450671Y-119334030D01*
X41472850Y-119344520D01*
X41493893Y-119357132D01*
X41513599Y-119371747D01*
X41531777Y-119388223D01*
X41548253Y-119406401D01*
X41562868Y-119426107D01*
X41575480Y-119447150D01*
X41585970Y-119469329D01*
X41594235Y-119492428D01*
X41600196Y-119516227D01*
X41603796Y-119540495D01*
X41605000Y-119564999D01*
X41605000Y-120465001D01*
X41603796Y-120489505D01*
X41600196Y-120513773D01*
X41594235Y-120537572D01*
X41585970Y-120560671D01*
X41575480Y-120582850D01*
X41562868Y-120603893D01*
X41548253Y-120623599D01*
X41531777Y-120641777D01*
X41513599Y-120658253D01*
X41493893Y-120672868D01*
X41472850Y-120685480D01*
X41450671Y-120695970D01*
X41427572Y-120704235D01*
X41403773Y-120710196D01*
X41379505Y-120713796D01*
X41355001Y-120715000D01*
X40704999Y-120715000D01*
X40680495Y-120713796D01*
X40656227Y-120710196D01*
X40632428Y-120704235D01*
X40609329Y-120695970D01*
X40587150Y-120685480D01*
X40566107Y-120672868D01*
X40546401Y-120658253D01*
X40528223Y-120641777D01*
X40511747Y-120623599D01*
X40497132Y-120603893D01*
X40484520Y-120582850D01*
X40474030Y-120560671D01*
X40465765Y-120537572D01*
X40459804Y-120513773D01*
X40456204Y-120489505D01*
X40455000Y-120465001D01*
X40455000Y-119564999D01*
X40456204Y-119540495D01*
X40459804Y-119516227D01*
X40465765Y-119492428D01*
X40474030Y-119469329D01*
X40484520Y-119447150D01*
X40497132Y-119426107D01*
X40511747Y-119406401D01*
X40528223Y-119388223D01*
X40546401Y-119371747D01*
X40566107Y-119357132D01*
X40587150Y-119344520D01*
X40609329Y-119334030D01*
X40632428Y-119325765D01*
X40656227Y-119319804D01*
X40680495Y-119316204D01*
X40704999Y-119315000D01*
X41355001Y-119315000D01*
X41379505Y-119316204D01*
X41379505Y-119316204D01*
G37*
D12*
X41030000Y-120015000D03*
D10*
G36*
X39329505Y-119316204D02*
G01*
X39353773Y-119319804D01*
X39377572Y-119325765D01*
X39400671Y-119334030D01*
X39422850Y-119344520D01*
X39443893Y-119357132D01*
X39463599Y-119371747D01*
X39481777Y-119388223D01*
X39498253Y-119406401D01*
X39512868Y-119426107D01*
X39525480Y-119447150D01*
X39535970Y-119469329D01*
X39544235Y-119492428D01*
X39550196Y-119516227D01*
X39553796Y-119540495D01*
X39555000Y-119564999D01*
X39555000Y-120465001D01*
X39553796Y-120489505D01*
X39550196Y-120513773D01*
X39544235Y-120537572D01*
X39535970Y-120560671D01*
X39525480Y-120582850D01*
X39512868Y-120603893D01*
X39498253Y-120623599D01*
X39481777Y-120641777D01*
X39463599Y-120658253D01*
X39443893Y-120672868D01*
X39422850Y-120685480D01*
X39400671Y-120695970D01*
X39377572Y-120704235D01*
X39353773Y-120710196D01*
X39329505Y-120713796D01*
X39305001Y-120715000D01*
X38654999Y-120715000D01*
X38630495Y-120713796D01*
X38606227Y-120710196D01*
X38582428Y-120704235D01*
X38559329Y-120695970D01*
X38537150Y-120685480D01*
X38516107Y-120672868D01*
X38496401Y-120658253D01*
X38478223Y-120641777D01*
X38461747Y-120623599D01*
X38447132Y-120603893D01*
X38434520Y-120582850D01*
X38424030Y-120560671D01*
X38415765Y-120537572D01*
X38409804Y-120513773D01*
X38406204Y-120489505D01*
X38405000Y-120465001D01*
X38405000Y-119564999D01*
X38406204Y-119540495D01*
X38409804Y-119516227D01*
X38415765Y-119492428D01*
X38424030Y-119469329D01*
X38434520Y-119447150D01*
X38447132Y-119426107D01*
X38461747Y-119406401D01*
X38478223Y-119388223D01*
X38496401Y-119371747D01*
X38516107Y-119357132D01*
X38537150Y-119344520D01*
X38559329Y-119334030D01*
X38582428Y-119325765D01*
X38606227Y-119319804D01*
X38630495Y-119316204D01*
X38654999Y-119315000D01*
X39305001Y-119315000D01*
X39329505Y-119316204D01*
X39329505Y-119316204D01*
G37*
D12*
X38980000Y-120015000D03*
D10*
G36*
X82019505Y-100901204D02*
G01*
X82043773Y-100904804D01*
X82067572Y-100910765D01*
X82090671Y-100919030D01*
X82112850Y-100929520D01*
X82133893Y-100942132D01*
X82153599Y-100956747D01*
X82171777Y-100973223D01*
X82188253Y-100991401D01*
X82202868Y-101011107D01*
X82215480Y-101032150D01*
X82225970Y-101054329D01*
X82234235Y-101077428D01*
X82240196Y-101101227D01*
X82243796Y-101125495D01*
X82245000Y-101149999D01*
X82245000Y-102050001D01*
X82243796Y-102074505D01*
X82240196Y-102098773D01*
X82234235Y-102122572D01*
X82225970Y-102145671D01*
X82215480Y-102167850D01*
X82202868Y-102188893D01*
X82188253Y-102208599D01*
X82171777Y-102226777D01*
X82153599Y-102243253D01*
X82133893Y-102257868D01*
X82112850Y-102270480D01*
X82090671Y-102280970D01*
X82067572Y-102289235D01*
X82043773Y-102295196D01*
X82019505Y-102298796D01*
X81995001Y-102300000D01*
X81344999Y-102300000D01*
X81320495Y-102298796D01*
X81296227Y-102295196D01*
X81272428Y-102289235D01*
X81249329Y-102280970D01*
X81227150Y-102270480D01*
X81206107Y-102257868D01*
X81186401Y-102243253D01*
X81168223Y-102226777D01*
X81151747Y-102208599D01*
X81137132Y-102188893D01*
X81124520Y-102167850D01*
X81114030Y-102145671D01*
X81105765Y-102122572D01*
X81099804Y-102098773D01*
X81096204Y-102074505D01*
X81095000Y-102050001D01*
X81095000Y-101149999D01*
X81096204Y-101125495D01*
X81099804Y-101101227D01*
X81105765Y-101077428D01*
X81114030Y-101054329D01*
X81124520Y-101032150D01*
X81137132Y-101011107D01*
X81151747Y-100991401D01*
X81168223Y-100973223D01*
X81186401Y-100956747D01*
X81206107Y-100942132D01*
X81227150Y-100929520D01*
X81249329Y-100919030D01*
X81272428Y-100910765D01*
X81296227Y-100904804D01*
X81320495Y-100901204D01*
X81344999Y-100900000D01*
X81995001Y-100900000D01*
X82019505Y-100901204D01*
X82019505Y-100901204D01*
G37*
D12*
X81670000Y-101600000D03*
D10*
G36*
X79969505Y-100901204D02*
G01*
X79993773Y-100904804D01*
X80017572Y-100910765D01*
X80040671Y-100919030D01*
X80062850Y-100929520D01*
X80083893Y-100942132D01*
X80103599Y-100956747D01*
X80121777Y-100973223D01*
X80138253Y-100991401D01*
X80152868Y-101011107D01*
X80165480Y-101032150D01*
X80175970Y-101054329D01*
X80184235Y-101077428D01*
X80190196Y-101101227D01*
X80193796Y-101125495D01*
X80195000Y-101149999D01*
X80195000Y-102050001D01*
X80193796Y-102074505D01*
X80190196Y-102098773D01*
X80184235Y-102122572D01*
X80175970Y-102145671D01*
X80165480Y-102167850D01*
X80152868Y-102188893D01*
X80138253Y-102208599D01*
X80121777Y-102226777D01*
X80103599Y-102243253D01*
X80083893Y-102257868D01*
X80062850Y-102270480D01*
X80040671Y-102280970D01*
X80017572Y-102289235D01*
X79993773Y-102295196D01*
X79969505Y-102298796D01*
X79945001Y-102300000D01*
X79294999Y-102300000D01*
X79270495Y-102298796D01*
X79246227Y-102295196D01*
X79222428Y-102289235D01*
X79199329Y-102280970D01*
X79177150Y-102270480D01*
X79156107Y-102257868D01*
X79136401Y-102243253D01*
X79118223Y-102226777D01*
X79101747Y-102208599D01*
X79087132Y-102188893D01*
X79074520Y-102167850D01*
X79064030Y-102145671D01*
X79055765Y-102122572D01*
X79049804Y-102098773D01*
X79046204Y-102074505D01*
X79045000Y-102050001D01*
X79045000Y-101149999D01*
X79046204Y-101125495D01*
X79049804Y-101101227D01*
X79055765Y-101077428D01*
X79064030Y-101054329D01*
X79074520Y-101032150D01*
X79087132Y-101011107D01*
X79101747Y-100991401D01*
X79118223Y-100973223D01*
X79136401Y-100956747D01*
X79156107Y-100942132D01*
X79177150Y-100929520D01*
X79199329Y-100919030D01*
X79222428Y-100910765D01*
X79246227Y-100904804D01*
X79270495Y-100901204D01*
X79294999Y-100900000D01*
X79945001Y-100900000D01*
X79969505Y-100901204D01*
X79969505Y-100901204D01*
G37*
D12*
X79620000Y-101600000D03*
D10*
G36*
X103464505Y-116141204D02*
G01*
X103488773Y-116144804D01*
X103512572Y-116150765D01*
X103535671Y-116159030D01*
X103557850Y-116169520D01*
X103578893Y-116182132D01*
X103598599Y-116196747D01*
X103616777Y-116213223D01*
X103633253Y-116231401D01*
X103647868Y-116251107D01*
X103660480Y-116272150D01*
X103670970Y-116294329D01*
X103679235Y-116317428D01*
X103685196Y-116341227D01*
X103688796Y-116365495D01*
X103690000Y-116389999D01*
X103690000Y-117290001D01*
X103688796Y-117314505D01*
X103685196Y-117338773D01*
X103679235Y-117362572D01*
X103670970Y-117385671D01*
X103660480Y-117407850D01*
X103647868Y-117428893D01*
X103633253Y-117448599D01*
X103616777Y-117466777D01*
X103598599Y-117483253D01*
X103578893Y-117497868D01*
X103557850Y-117510480D01*
X103535671Y-117520970D01*
X103512572Y-117529235D01*
X103488773Y-117535196D01*
X103464505Y-117538796D01*
X103440001Y-117540000D01*
X102789999Y-117540000D01*
X102765495Y-117538796D01*
X102741227Y-117535196D01*
X102717428Y-117529235D01*
X102694329Y-117520970D01*
X102672150Y-117510480D01*
X102651107Y-117497868D01*
X102631401Y-117483253D01*
X102613223Y-117466777D01*
X102596747Y-117448599D01*
X102582132Y-117428893D01*
X102569520Y-117407850D01*
X102559030Y-117385671D01*
X102550765Y-117362572D01*
X102544804Y-117338773D01*
X102541204Y-117314505D01*
X102540000Y-117290001D01*
X102540000Y-116389999D01*
X102541204Y-116365495D01*
X102544804Y-116341227D01*
X102550765Y-116317428D01*
X102559030Y-116294329D01*
X102569520Y-116272150D01*
X102582132Y-116251107D01*
X102596747Y-116231401D01*
X102613223Y-116213223D01*
X102631401Y-116196747D01*
X102651107Y-116182132D01*
X102672150Y-116169520D01*
X102694329Y-116159030D01*
X102717428Y-116150765D01*
X102741227Y-116144804D01*
X102765495Y-116141204D01*
X102789999Y-116140000D01*
X103440001Y-116140000D01*
X103464505Y-116141204D01*
X103464505Y-116141204D01*
G37*
D12*
X103115000Y-116840000D03*
D10*
G36*
X105514505Y-116141204D02*
G01*
X105538773Y-116144804D01*
X105562572Y-116150765D01*
X105585671Y-116159030D01*
X105607850Y-116169520D01*
X105628893Y-116182132D01*
X105648599Y-116196747D01*
X105666777Y-116213223D01*
X105683253Y-116231401D01*
X105697868Y-116251107D01*
X105710480Y-116272150D01*
X105720970Y-116294329D01*
X105729235Y-116317428D01*
X105735196Y-116341227D01*
X105738796Y-116365495D01*
X105740000Y-116389999D01*
X105740000Y-117290001D01*
X105738796Y-117314505D01*
X105735196Y-117338773D01*
X105729235Y-117362572D01*
X105720970Y-117385671D01*
X105710480Y-117407850D01*
X105697868Y-117428893D01*
X105683253Y-117448599D01*
X105666777Y-117466777D01*
X105648599Y-117483253D01*
X105628893Y-117497868D01*
X105607850Y-117510480D01*
X105585671Y-117520970D01*
X105562572Y-117529235D01*
X105538773Y-117535196D01*
X105514505Y-117538796D01*
X105490001Y-117540000D01*
X104839999Y-117540000D01*
X104815495Y-117538796D01*
X104791227Y-117535196D01*
X104767428Y-117529235D01*
X104744329Y-117520970D01*
X104722150Y-117510480D01*
X104701107Y-117497868D01*
X104681401Y-117483253D01*
X104663223Y-117466777D01*
X104646747Y-117448599D01*
X104632132Y-117428893D01*
X104619520Y-117407850D01*
X104609030Y-117385671D01*
X104600765Y-117362572D01*
X104594804Y-117338773D01*
X104591204Y-117314505D01*
X104590000Y-117290001D01*
X104590000Y-116389999D01*
X104591204Y-116365495D01*
X104594804Y-116341227D01*
X104600765Y-116317428D01*
X104609030Y-116294329D01*
X104619520Y-116272150D01*
X104632132Y-116251107D01*
X104646747Y-116231401D01*
X104663223Y-116213223D01*
X104681401Y-116196747D01*
X104701107Y-116182132D01*
X104722150Y-116169520D01*
X104744329Y-116159030D01*
X104767428Y-116150765D01*
X104791227Y-116144804D01*
X104815495Y-116141204D01*
X104839999Y-116140000D01*
X105490001Y-116140000D01*
X105514505Y-116141204D01*
X105514505Y-116141204D01*
G37*
D12*
X105165000Y-116840000D03*
D10*
G36*
X56149504Y-102631204D02*
G01*
X56173773Y-102634804D01*
X56197571Y-102640765D01*
X56220671Y-102649030D01*
X56242849Y-102659520D01*
X56263893Y-102672133D01*
X56283598Y-102686747D01*
X56301777Y-102703223D01*
X56318253Y-102721402D01*
X56332867Y-102741107D01*
X56345480Y-102762151D01*
X56355970Y-102784329D01*
X56364235Y-102807429D01*
X56370196Y-102831227D01*
X56373796Y-102855496D01*
X56375000Y-102880000D01*
X56375000Y-104130000D01*
X56373796Y-104154504D01*
X56370196Y-104178773D01*
X56364235Y-104202571D01*
X56355970Y-104225671D01*
X56345480Y-104247849D01*
X56332867Y-104268893D01*
X56318253Y-104288598D01*
X56301777Y-104306777D01*
X56283598Y-104323253D01*
X56263893Y-104337867D01*
X56242849Y-104350480D01*
X56220671Y-104360970D01*
X56197571Y-104369235D01*
X56173773Y-104375196D01*
X56149504Y-104378796D01*
X56125000Y-104380000D01*
X55200000Y-104380000D01*
X55175496Y-104378796D01*
X55151227Y-104375196D01*
X55127429Y-104369235D01*
X55104329Y-104360970D01*
X55082151Y-104350480D01*
X55061107Y-104337867D01*
X55041402Y-104323253D01*
X55023223Y-104306777D01*
X55006747Y-104288598D01*
X54992133Y-104268893D01*
X54979520Y-104247849D01*
X54969030Y-104225671D01*
X54960765Y-104202571D01*
X54954804Y-104178773D01*
X54951204Y-104154504D01*
X54950000Y-104130000D01*
X54950000Y-102880000D01*
X54951204Y-102855496D01*
X54954804Y-102831227D01*
X54960765Y-102807429D01*
X54969030Y-102784329D01*
X54979520Y-102762151D01*
X54992133Y-102741107D01*
X55006747Y-102721402D01*
X55023223Y-102703223D01*
X55041402Y-102686747D01*
X55061107Y-102672133D01*
X55082151Y-102659520D01*
X55104329Y-102649030D01*
X55127429Y-102640765D01*
X55151227Y-102634804D01*
X55175496Y-102631204D01*
X55200000Y-102630000D01*
X56125000Y-102630000D01*
X56149504Y-102631204D01*
X56149504Y-102631204D01*
G37*
D11*
X55662500Y-103505000D03*
D10*
G36*
X59124504Y-102631204D02*
G01*
X59148773Y-102634804D01*
X59172571Y-102640765D01*
X59195671Y-102649030D01*
X59217849Y-102659520D01*
X59238893Y-102672133D01*
X59258598Y-102686747D01*
X59276777Y-102703223D01*
X59293253Y-102721402D01*
X59307867Y-102741107D01*
X59320480Y-102762151D01*
X59330970Y-102784329D01*
X59339235Y-102807429D01*
X59345196Y-102831227D01*
X59348796Y-102855496D01*
X59350000Y-102880000D01*
X59350000Y-104130000D01*
X59348796Y-104154504D01*
X59345196Y-104178773D01*
X59339235Y-104202571D01*
X59330970Y-104225671D01*
X59320480Y-104247849D01*
X59307867Y-104268893D01*
X59293253Y-104288598D01*
X59276777Y-104306777D01*
X59258598Y-104323253D01*
X59238893Y-104337867D01*
X59217849Y-104350480D01*
X59195671Y-104360970D01*
X59172571Y-104369235D01*
X59148773Y-104375196D01*
X59124504Y-104378796D01*
X59100000Y-104380000D01*
X58175000Y-104380000D01*
X58150496Y-104378796D01*
X58126227Y-104375196D01*
X58102429Y-104369235D01*
X58079329Y-104360970D01*
X58057151Y-104350480D01*
X58036107Y-104337867D01*
X58016402Y-104323253D01*
X57998223Y-104306777D01*
X57981747Y-104288598D01*
X57967133Y-104268893D01*
X57954520Y-104247849D01*
X57944030Y-104225671D01*
X57935765Y-104202571D01*
X57929804Y-104178773D01*
X57926204Y-104154504D01*
X57925000Y-104130000D01*
X57925000Y-102880000D01*
X57926204Y-102855496D01*
X57929804Y-102831227D01*
X57935765Y-102807429D01*
X57944030Y-102784329D01*
X57954520Y-102762151D01*
X57967133Y-102741107D01*
X57981747Y-102721402D01*
X57998223Y-102703223D01*
X58016402Y-102686747D01*
X58036107Y-102672133D01*
X58057151Y-102659520D01*
X58079329Y-102649030D01*
X58102429Y-102640765D01*
X58126227Y-102634804D01*
X58150496Y-102631204D01*
X58175000Y-102630000D01*
X59100000Y-102630000D01*
X59124504Y-102631204D01*
X59124504Y-102631204D01*
G37*
D11*
X58637500Y-103505000D03*
D13*
X54610000Y-88770000D03*
X54610000Y-91570000D03*
D10*
G36*
X59124504Y-105171204D02*
G01*
X59148773Y-105174804D01*
X59172571Y-105180765D01*
X59195671Y-105189030D01*
X59217849Y-105199520D01*
X59238893Y-105212133D01*
X59258598Y-105226747D01*
X59276777Y-105243223D01*
X59293253Y-105261402D01*
X59307867Y-105281107D01*
X59320480Y-105302151D01*
X59330970Y-105324329D01*
X59339235Y-105347429D01*
X59345196Y-105371227D01*
X59348796Y-105395496D01*
X59350000Y-105420000D01*
X59350000Y-106670000D01*
X59348796Y-106694504D01*
X59345196Y-106718773D01*
X59339235Y-106742571D01*
X59330970Y-106765671D01*
X59320480Y-106787849D01*
X59307867Y-106808893D01*
X59293253Y-106828598D01*
X59276777Y-106846777D01*
X59258598Y-106863253D01*
X59238893Y-106877867D01*
X59217849Y-106890480D01*
X59195671Y-106900970D01*
X59172571Y-106909235D01*
X59148773Y-106915196D01*
X59124504Y-106918796D01*
X59100000Y-106920000D01*
X58175000Y-106920000D01*
X58150496Y-106918796D01*
X58126227Y-106915196D01*
X58102429Y-106909235D01*
X58079329Y-106900970D01*
X58057151Y-106890480D01*
X58036107Y-106877867D01*
X58016402Y-106863253D01*
X57998223Y-106846777D01*
X57981747Y-106828598D01*
X57967133Y-106808893D01*
X57954520Y-106787849D01*
X57944030Y-106765671D01*
X57935765Y-106742571D01*
X57929804Y-106718773D01*
X57926204Y-106694504D01*
X57925000Y-106670000D01*
X57925000Y-105420000D01*
X57926204Y-105395496D01*
X57929804Y-105371227D01*
X57935765Y-105347429D01*
X57944030Y-105324329D01*
X57954520Y-105302151D01*
X57967133Y-105281107D01*
X57981747Y-105261402D01*
X57998223Y-105243223D01*
X58016402Y-105226747D01*
X58036107Y-105212133D01*
X58057151Y-105199520D01*
X58079329Y-105189030D01*
X58102429Y-105180765D01*
X58126227Y-105174804D01*
X58150496Y-105171204D01*
X58175000Y-105170000D01*
X59100000Y-105170000D01*
X59124504Y-105171204D01*
X59124504Y-105171204D01*
G37*
D11*
X58637500Y-106045000D03*
D10*
G36*
X56149504Y-105171204D02*
G01*
X56173773Y-105174804D01*
X56197571Y-105180765D01*
X56220671Y-105189030D01*
X56242849Y-105199520D01*
X56263893Y-105212133D01*
X56283598Y-105226747D01*
X56301777Y-105243223D01*
X56318253Y-105261402D01*
X56332867Y-105281107D01*
X56345480Y-105302151D01*
X56355970Y-105324329D01*
X56364235Y-105347429D01*
X56370196Y-105371227D01*
X56373796Y-105395496D01*
X56375000Y-105420000D01*
X56375000Y-106670000D01*
X56373796Y-106694504D01*
X56370196Y-106718773D01*
X56364235Y-106742571D01*
X56355970Y-106765671D01*
X56345480Y-106787849D01*
X56332867Y-106808893D01*
X56318253Y-106828598D01*
X56301777Y-106846777D01*
X56283598Y-106863253D01*
X56263893Y-106877867D01*
X56242849Y-106890480D01*
X56220671Y-106900970D01*
X56197571Y-106909235D01*
X56173773Y-106915196D01*
X56149504Y-106918796D01*
X56125000Y-106920000D01*
X55200000Y-106920000D01*
X55175496Y-106918796D01*
X55151227Y-106915196D01*
X55127429Y-106909235D01*
X55104329Y-106900970D01*
X55082151Y-106890480D01*
X55061107Y-106877867D01*
X55041402Y-106863253D01*
X55023223Y-106846777D01*
X55006747Y-106828598D01*
X54992133Y-106808893D01*
X54979520Y-106787849D01*
X54969030Y-106765671D01*
X54960765Y-106742571D01*
X54954804Y-106718773D01*
X54951204Y-106694504D01*
X54950000Y-106670000D01*
X54950000Y-105420000D01*
X54951204Y-105395496D01*
X54954804Y-105371227D01*
X54960765Y-105347429D01*
X54969030Y-105324329D01*
X54979520Y-105302151D01*
X54992133Y-105281107D01*
X55006747Y-105261402D01*
X55023223Y-105243223D01*
X55041402Y-105226747D01*
X55061107Y-105212133D01*
X55082151Y-105199520D01*
X55104329Y-105189030D01*
X55127429Y-105180765D01*
X55151227Y-105174804D01*
X55175496Y-105171204D01*
X55200000Y-105170000D01*
X56125000Y-105170000D01*
X56149504Y-105171204D01*
X56149504Y-105171204D01*
G37*
D11*
X55662500Y-106045000D03*
D10*
G36*
X62059504Y-94956204D02*
G01*
X62083773Y-94959804D01*
X62107571Y-94965765D01*
X62130671Y-94974030D01*
X62152849Y-94984520D01*
X62173893Y-94997133D01*
X62193598Y-95011747D01*
X62211777Y-95028223D01*
X62228253Y-95046402D01*
X62242867Y-95066107D01*
X62255480Y-95087151D01*
X62265970Y-95109329D01*
X62274235Y-95132429D01*
X62280196Y-95156227D01*
X62283796Y-95180496D01*
X62285000Y-95205000D01*
X62285000Y-96130000D01*
X62283796Y-96154504D01*
X62280196Y-96178773D01*
X62274235Y-96202571D01*
X62265970Y-96225671D01*
X62255480Y-96247849D01*
X62242867Y-96268893D01*
X62228253Y-96288598D01*
X62211777Y-96306777D01*
X62193598Y-96323253D01*
X62173893Y-96337867D01*
X62152849Y-96350480D01*
X62130671Y-96360970D01*
X62107571Y-96369235D01*
X62083773Y-96375196D01*
X62059504Y-96378796D01*
X62035000Y-96380000D01*
X59885000Y-96380000D01*
X59860496Y-96378796D01*
X59836227Y-96375196D01*
X59812429Y-96369235D01*
X59789329Y-96360970D01*
X59767151Y-96350480D01*
X59746107Y-96337867D01*
X59726402Y-96323253D01*
X59708223Y-96306777D01*
X59691747Y-96288598D01*
X59677133Y-96268893D01*
X59664520Y-96247849D01*
X59654030Y-96225671D01*
X59645765Y-96202571D01*
X59639804Y-96178773D01*
X59636204Y-96154504D01*
X59635000Y-96130000D01*
X59635000Y-95205000D01*
X59636204Y-95180496D01*
X59639804Y-95156227D01*
X59645765Y-95132429D01*
X59654030Y-95109329D01*
X59664520Y-95087151D01*
X59677133Y-95066107D01*
X59691747Y-95046402D01*
X59708223Y-95028223D01*
X59726402Y-95011747D01*
X59746107Y-94997133D01*
X59767151Y-94984520D01*
X59789329Y-94974030D01*
X59812429Y-94965765D01*
X59836227Y-94959804D01*
X59860496Y-94956204D01*
X59885000Y-94955000D01*
X62035000Y-94955000D01*
X62059504Y-94956204D01*
X62059504Y-94956204D01*
G37*
D11*
X60960000Y-95667500D03*
D10*
G36*
X62059504Y-97931204D02*
G01*
X62083773Y-97934804D01*
X62107571Y-97940765D01*
X62130671Y-97949030D01*
X62152849Y-97959520D01*
X62173893Y-97972133D01*
X62193598Y-97986747D01*
X62211777Y-98003223D01*
X62228253Y-98021402D01*
X62242867Y-98041107D01*
X62255480Y-98062151D01*
X62265970Y-98084329D01*
X62274235Y-98107429D01*
X62280196Y-98131227D01*
X62283796Y-98155496D01*
X62285000Y-98180000D01*
X62285000Y-99105000D01*
X62283796Y-99129504D01*
X62280196Y-99153773D01*
X62274235Y-99177571D01*
X62265970Y-99200671D01*
X62255480Y-99222849D01*
X62242867Y-99243893D01*
X62228253Y-99263598D01*
X62211777Y-99281777D01*
X62193598Y-99298253D01*
X62173893Y-99312867D01*
X62152849Y-99325480D01*
X62130671Y-99335970D01*
X62107571Y-99344235D01*
X62083773Y-99350196D01*
X62059504Y-99353796D01*
X62035000Y-99355000D01*
X59885000Y-99355000D01*
X59860496Y-99353796D01*
X59836227Y-99350196D01*
X59812429Y-99344235D01*
X59789329Y-99335970D01*
X59767151Y-99325480D01*
X59746107Y-99312867D01*
X59726402Y-99298253D01*
X59708223Y-99281777D01*
X59691747Y-99263598D01*
X59677133Y-99243893D01*
X59664520Y-99222849D01*
X59654030Y-99200671D01*
X59645765Y-99177571D01*
X59639804Y-99153773D01*
X59636204Y-99129504D01*
X59635000Y-99105000D01*
X59635000Y-98180000D01*
X59636204Y-98155496D01*
X59639804Y-98131227D01*
X59645765Y-98107429D01*
X59654030Y-98084329D01*
X59664520Y-98062151D01*
X59677133Y-98041107D01*
X59691747Y-98021402D01*
X59708223Y-98003223D01*
X59726402Y-97986747D01*
X59746107Y-97972133D01*
X59767151Y-97959520D01*
X59789329Y-97949030D01*
X59812429Y-97940765D01*
X59836227Y-97934804D01*
X59860496Y-97931204D01*
X59885000Y-97930000D01*
X62035000Y-97930000D01*
X62059504Y-97931204D01*
X62059504Y-97931204D01*
G37*
D11*
X60960000Y-98642500D03*
D10*
G36*
X85702505Y-100901204D02*
G01*
X85726773Y-100904804D01*
X85750572Y-100910765D01*
X85773671Y-100919030D01*
X85795850Y-100929520D01*
X85816893Y-100942132D01*
X85836599Y-100956747D01*
X85854777Y-100973223D01*
X85871253Y-100991401D01*
X85885868Y-101011107D01*
X85898480Y-101032150D01*
X85908970Y-101054329D01*
X85917235Y-101077428D01*
X85923196Y-101101227D01*
X85926796Y-101125495D01*
X85928000Y-101149999D01*
X85928000Y-102050001D01*
X85926796Y-102074505D01*
X85923196Y-102098773D01*
X85917235Y-102122572D01*
X85908970Y-102145671D01*
X85898480Y-102167850D01*
X85885868Y-102188893D01*
X85871253Y-102208599D01*
X85854777Y-102226777D01*
X85836599Y-102243253D01*
X85816893Y-102257868D01*
X85795850Y-102270480D01*
X85773671Y-102280970D01*
X85750572Y-102289235D01*
X85726773Y-102295196D01*
X85702505Y-102298796D01*
X85678001Y-102300000D01*
X85027999Y-102300000D01*
X85003495Y-102298796D01*
X84979227Y-102295196D01*
X84955428Y-102289235D01*
X84932329Y-102280970D01*
X84910150Y-102270480D01*
X84889107Y-102257868D01*
X84869401Y-102243253D01*
X84851223Y-102226777D01*
X84834747Y-102208599D01*
X84820132Y-102188893D01*
X84807520Y-102167850D01*
X84797030Y-102145671D01*
X84788765Y-102122572D01*
X84782804Y-102098773D01*
X84779204Y-102074505D01*
X84778000Y-102050001D01*
X84778000Y-101149999D01*
X84779204Y-101125495D01*
X84782804Y-101101227D01*
X84788765Y-101077428D01*
X84797030Y-101054329D01*
X84807520Y-101032150D01*
X84820132Y-101011107D01*
X84834747Y-100991401D01*
X84851223Y-100973223D01*
X84869401Y-100956747D01*
X84889107Y-100942132D01*
X84910150Y-100929520D01*
X84932329Y-100919030D01*
X84955428Y-100910765D01*
X84979227Y-100904804D01*
X85003495Y-100901204D01*
X85027999Y-100900000D01*
X85678001Y-100900000D01*
X85702505Y-100901204D01*
X85702505Y-100901204D01*
G37*
D12*
X85353000Y-101600000D03*
D10*
G36*
X83652505Y-100901204D02*
G01*
X83676773Y-100904804D01*
X83700572Y-100910765D01*
X83723671Y-100919030D01*
X83745850Y-100929520D01*
X83766893Y-100942132D01*
X83786599Y-100956747D01*
X83804777Y-100973223D01*
X83821253Y-100991401D01*
X83835868Y-101011107D01*
X83848480Y-101032150D01*
X83858970Y-101054329D01*
X83867235Y-101077428D01*
X83873196Y-101101227D01*
X83876796Y-101125495D01*
X83878000Y-101149999D01*
X83878000Y-102050001D01*
X83876796Y-102074505D01*
X83873196Y-102098773D01*
X83867235Y-102122572D01*
X83858970Y-102145671D01*
X83848480Y-102167850D01*
X83835868Y-102188893D01*
X83821253Y-102208599D01*
X83804777Y-102226777D01*
X83786599Y-102243253D01*
X83766893Y-102257868D01*
X83745850Y-102270480D01*
X83723671Y-102280970D01*
X83700572Y-102289235D01*
X83676773Y-102295196D01*
X83652505Y-102298796D01*
X83628001Y-102300000D01*
X82977999Y-102300000D01*
X82953495Y-102298796D01*
X82929227Y-102295196D01*
X82905428Y-102289235D01*
X82882329Y-102280970D01*
X82860150Y-102270480D01*
X82839107Y-102257868D01*
X82819401Y-102243253D01*
X82801223Y-102226777D01*
X82784747Y-102208599D01*
X82770132Y-102188893D01*
X82757520Y-102167850D01*
X82747030Y-102145671D01*
X82738765Y-102122572D01*
X82732804Y-102098773D01*
X82729204Y-102074505D01*
X82728000Y-102050001D01*
X82728000Y-101149999D01*
X82729204Y-101125495D01*
X82732804Y-101101227D01*
X82738765Y-101077428D01*
X82747030Y-101054329D01*
X82757520Y-101032150D01*
X82770132Y-101011107D01*
X82784747Y-100991401D01*
X82801223Y-100973223D01*
X82819401Y-100956747D01*
X82839107Y-100942132D01*
X82860150Y-100929520D01*
X82882329Y-100919030D01*
X82905428Y-100910765D01*
X82929227Y-100904804D01*
X82953495Y-100901204D01*
X82977999Y-100900000D01*
X83628001Y-100900000D01*
X83652505Y-100901204D01*
X83652505Y-100901204D01*
G37*
D12*
X83303000Y-101600000D03*
D10*
G36*
X82619504Y-98821204D02*
G01*
X82643773Y-98824804D01*
X82667571Y-98830765D01*
X82690671Y-98839030D01*
X82712849Y-98849520D01*
X82733893Y-98862133D01*
X82753598Y-98876747D01*
X82771777Y-98893223D01*
X82788253Y-98911402D01*
X82802867Y-98931107D01*
X82815480Y-98952151D01*
X82825970Y-98974329D01*
X82834235Y-98997429D01*
X82840196Y-99021227D01*
X82843796Y-99045496D01*
X82845000Y-99070000D01*
X82845000Y-100320000D01*
X82843796Y-100344504D01*
X82840196Y-100368773D01*
X82834235Y-100392571D01*
X82825970Y-100415671D01*
X82815480Y-100437849D01*
X82802867Y-100458893D01*
X82788253Y-100478598D01*
X82771777Y-100496777D01*
X82753598Y-100513253D01*
X82733893Y-100527867D01*
X82712849Y-100540480D01*
X82690671Y-100550970D01*
X82667571Y-100559235D01*
X82643773Y-100565196D01*
X82619504Y-100568796D01*
X82595000Y-100570000D01*
X81670000Y-100570000D01*
X81645496Y-100568796D01*
X81621227Y-100565196D01*
X81597429Y-100559235D01*
X81574329Y-100550970D01*
X81552151Y-100540480D01*
X81531107Y-100527867D01*
X81511402Y-100513253D01*
X81493223Y-100496777D01*
X81476747Y-100478598D01*
X81462133Y-100458893D01*
X81449520Y-100437849D01*
X81439030Y-100415671D01*
X81430765Y-100392571D01*
X81424804Y-100368773D01*
X81421204Y-100344504D01*
X81420000Y-100320000D01*
X81420000Y-99070000D01*
X81421204Y-99045496D01*
X81424804Y-99021227D01*
X81430765Y-98997429D01*
X81439030Y-98974329D01*
X81449520Y-98952151D01*
X81462133Y-98931107D01*
X81476747Y-98911402D01*
X81493223Y-98893223D01*
X81511402Y-98876747D01*
X81531107Y-98862133D01*
X81552151Y-98849520D01*
X81574329Y-98839030D01*
X81597429Y-98830765D01*
X81621227Y-98824804D01*
X81645496Y-98821204D01*
X81670000Y-98820000D01*
X82595000Y-98820000D01*
X82619504Y-98821204D01*
X82619504Y-98821204D01*
G37*
D11*
X82132500Y-99695000D03*
D10*
G36*
X79644504Y-98821204D02*
G01*
X79668773Y-98824804D01*
X79692571Y-98830765D01*
X79715671Y-98839030D01*
X79737849Y-98849520D01*
X79758893Y-98862133D01*
X79778598Y-98876747D01*
X79796777Y-98893223D01*
X79813253Y-98911402D01*
X79827867Y-98931107D01*
X79840480Y-98952151D01*
X79850970Y-98974329D01*
X79859235Y-98997429D01*
X79865196Y-99021227D01*
X79868796Y-99045496D01*
X79870000Y-99070000D01*
X79870000Y-100320000D01*
X79868796Y-100344504D01*
X79865196Y-100368773D01*
X79859235Y-100392571D01*
X79850970Y-100415671D01*
X79840480Y-100437849D01*
X79827867Y-100458893D01*
X79813253Y-100478598D01*
X79796777Y-100496777D01*
X79778598Y-100513253D01*
X79758893Y-100527867D01*
X79737849Y-100540480D01*
X79715671Y-100550970D01*
X79692571Y-100559235D01*
X79668773Y-100565196D01*
X79644504Y-100568796D01*
X79620000Y-100570000D01*
X78695000Y-100570000D01*
X78670496Y-100568796D01*
X78646227Y-100565196D01*
X78622429Y-100559235D01*
X78599329Y-100550970D01*
X78577151Y-100540480D01*
X78556107Y-100527867D01*
X78536402Y-100513253D01*
X78518223Y-100496777D01*
X78501747Y-100478598D01*
X78487133Y-100458893D01*
X78474520Y-100437849D01*
X78464030Y-100415671D01*
X78455765Y-100392571D01*
X78449804Y-100368773D01*
X78446204Y-100344504D01*
X78445000Y-100320000D01*
X78445000Y-99070000D01*
X78446204Y-99045496D01*
X78449804Y-99021227D01*
X78455765Y-98997429D01*
X78464030Y-98974329D01*
X78474520Y-98952151D01*
X78487133Y-98931107D01*
X78501747Y-98911402D01*
X78518223Y-98893223D01*
X78536402Y-98876747D01*
X78556107Y-98862133D01*
X78577151Y-98849520D01*
X78599329Y-98839030D01*
X78622429Y-98830765D01*
X78646227Y-98824804D01*
X78670496Y-98821204D01*
X78695000Y-98820000D01*
X79620000Y-98820000D01*
X79644504Y-98821204D01*
X79644504Y-98821204D01*
G37*
D11*
X79157500Y-99695000D03*
D10*
G36*
X56529504Y-110631204D02*
G01*
X56553773Y-110634804D01*
X56577571Y-110640765D01*
X56600671Y-110649030D01*
X56622849Y-110659520D01*
X56643893Y-110672133D01*
X56663598Y-110686747D01*
X56681777Y-110703223D01*
X56698253Y-110721402D01*
X56712867Y-110741107D01*
X56725480Y-110762151D01*
X56735970Y-110784329D01*
X56744235Y-110807429D01*
X56750196Y-110831227D01*
X56753796Y-110855496D01*
X56755000Y-110880000D01*
X56755000Y-111805000D01*
X56753796Y-111829504D01*
X56750196Y-111853773D01*
X56744235Y-111877571D01*
X56735970Y-111900671D01*
X56725480Y-111922849D01*
X56712867Y-111943893D01*
X56698253Y-111963598D01*
X56681777Y-111981777D01*
X56663598Y-111998253D01*
X56643893Y-112012867D01*
X56622849Y-112025480D01*
X56600671Y-112035970D01*
X56577571Y-112044235D01*
X56553773Y-112050196D01*
X56529504Y-112053796D01*
X56505000Y-112055000D01*
X55255000Y-112055000D01*
X55230496Y-112053796D01*
X55206227Y-112050196D01*
X55182429Y-112044235D01*
X55159329Y-112035970D01*
X55137151Y-112025480D01*
X55116107Y-112012867D01*
X55096402Y-111998253D01*
X55078223Y-111981777D01*
X55061747Y-111963598D01*
X55047133Y-111943893D01*
X55034520Y-111922849D01*
X55024030Y-111900671D01*
X55015765Y-111877571D01*
X55009804Y-111853773D01*
X55006204Y-111829504D01*
X55005000Y-111805000D01*
X55005000Y-110880000D01*
X55006204Y-110855496D01*
X55009804Y-110831227D01*
X55015765Y-110807429D01*
X55024030Y-110784329D01*
X55034520Y-110762151D01*
X55047133Y-110741107D01*
X55061747Y-110721402D01*
X55078223Y-110703223D01*
X55096402Y-110686747D01*
X55116107Y-110672133D01*
X55137151Y-110659520D01*
X55159329Y-110649030D01*
X55182429Y-110640765D01*
X55206227Y-110634804D01*
X55230496Y-110631204D01*
X55255000Y-110630000D01*
X56505000Y-110630000D01*
X56529504Y-110631204D01*
X56529504Y-110631204D01*
G37*
D11*
X55880000Y-111342500D03*
D10*
G36*
X56529504Y-107656204D02*
G01*
X56553773Y-107659804D01*
X56577571Y-107665765D01*
X56600671Y-107674030D01*
X56622849Y-107684520D01*
X56643893Y-107697133D01*
X56663598Y-107711747D01*
X56681777Y-107728223D01*
X56698253Y-107746402D01*
X56712867Y-107766107D01*
X56725480Y-107787151D01*
X56735970Y-107809329D01*
X56744235Y-107832429D01*
X56750196Y-107856227D01*
X56753796Y-107880496D01*
X56755000Y-107905000D01*
X56755000Y-108830000D01*
X56753796Y-108854504D01*
X56750196Y-108878773D01*
X56744235Y-108902571D01*
X56735970Y-108925671D01*
X56725480Y-108947849D01*
X56712867Y-108968893D01*
X56698253Y-108988598D01*
X56681777Y-109006777D01*
X56663598Y-109023253D01*
X56643893Y-109037867D01*
X56622849Y-109050480D01*
X56600671Y-109060970D01*
X56577571Y-109069235D01*
X56553773Y-109075196D01*
X56529504Y-109078796D01*
X56505000Y-109080000D01*
X55255000Y-109080000D01*
X55230496Y-109078796D01*
X55206227Y-109075196D01*
X55182429Y-109069235D01*
X55159329Y-109060970D01*
X55137151Y-109050480D01*
X55116107Y-109037867D01*
X55096402Y-109023253D01*
X55078223Y-109006777D01*
X55061747Y-108988598D01*
X55047133Y-108968893D01*
X55034520Y-108947849D01*
X55024030Y-108925671D01*
X55015765Y-108902571D01*
X55009804Y-108878773D01*
X55006204Y-108854504D01*
X55005000Y-108830000D01*
X55005000Y-107905000D01*
X55006204Y-107880496D01*
X55009804Y-107856227D01*
X55015765Y-107832429D01*
X55024030Y-107809329D01*
X55034520Y-107787151D01*
X55047133Y-107766107D01*
X55061747Y-107746402D01*
X55078223Y-107728223D01*
X55096402Y-107711747D01*
X55116107Y-107697133D01*
X55137151Y-107684520D01*
X55159329Y-107674030D01*
X55182429Y-107665765D01*
X55206227Y-107659804D01*
X55230496Y-107656204D01*
X55255000Y-107655000D01*
X56505000Y-107655000D01*
X56529504Y-107656204D01*
X56529504Y-107656204D01*
G37*
D11*
X55880000Y-108367500D03*
D10*
G36*
X56149504Y-100091204D02*
G01*
X56173773Y-100094804D01*
X56197571Y-100100765D01*
X56220671Y-100109030D01*
X56242849Y-100119520D01*
X56263893Y-100132133D01*
X56283598Y-100146747D01*
X56301777Y-100163223D01*
X56318253Y-100181402D01*
X56332867Y-100201107D01*
X56345480Y-100222151D01*
X56355970Y-100244329D01*
X56364235Y-100267429D01*
X56370196Y-100291227D01*
X56373796Y-100315496D01*
X56375000Y-100340000D01*
X56375000Y-101590000D01*
X56373796Y-101614504D01*
X56370196Y-101638773D01*
X56364235Y-101662571D01*
X56355970Y-101685671D01*
X56345480Y-101707849D01*
X56332867Y-101728893D01*
X56318253Y-101748598D01*
X56301777Y-101766777D01*
X56283598Y-101783253D01*
X56263893Y-101797867D01*
X56242849Y-101810480D01*
X56220671Y-101820970D01*
X56197571Y-101829235D01*
X56173773Y-101835196D01*
X56149504Y-101838796D01*
X56125000Y-101840000D01*
X55200000Y-101840000D01*
X55175496Y-101838796D01*
X55151227Y-101835196D01*
X55127429Y-101829235D01*
X55104329Y-101820970D01*
X55082151Y-101810480D01*
X55061107Y-101797867D01*
X55041402Y-101783253D01*
X55023223Y-101766777D01*
X55006747Y-101748598D01*
X54992133Y-101728893D01*
X54979520Y-101707849D01*
X54969030Y-101685671D01*
X54960765Y-101662571D01*
X54954804Y-101638773D01*
X54951204Y-101614504D01*
X54950000Y-101590000D01*
X54950000Y-100340000D01*
X54951204Y-100315496D01*
X54954804Y-100291227D01*
X54960765Y-100267429D01*
X54969030Y-100244329D01*
X54979520Y-100222151D01*
X54992133Y-100201107D01*
X55006747Y-100181402D01*
X55023223Y-100163223D01*
X55041402Y-100146747D01*
X55061107Y-100132133D01*
X55082151Y-100119520D01*
X55104329Y-100109030D01*
X55127429Y-100100765D01*
X55151227Y-100094804D01*
X55175496Y-100091204D01*
X55200000Y-100090000D01*
X56125000Y-100090000D01*
X56149504Y-100091204D01*
X56149504Y-100091204D01*
G37*
D11*
X55662500Y-100965000D03*
D10*
G36*
X59124504Y-100091204D02*
G01*
X59148773Y-100094804D01*
X59172571Y-100100765D01*
X59195671Y-100109030D01*
X59217849Y-100119520D01*
X59238893Y-100132133D01*
X59258598Y-100146747D01*
X59276777Y-100163223D01*
X59293253Y-100181402D01*
X59307867Y-100201107D01*
X59320480Y-100222151D01*
X59330970Y-100244329D01*
X59339235Y-100267429D01*
X59345196Y-100291227D01*
X59348796Y-100315496D01*
X59350000Y-100340000D01*
X59350000Y-101590000D01*
X59348796Y-101614504D01*
X59345196Y-101638773D01*
X59339235Y-101662571D01*
X59330970Y-101685671D01*
X59320480Y-101707849D01*
X59307867Y-101728893D01*
X59293253Y-101748598D01*
X59276777Y-101766777D01*
X59258598Y-101783253D01*
X59238893Y-101797867D01*
X59217849Y-101810480D01*
X59195671Y-101820970D01*
X59172571Y-101829235D01*
X59148773Y-101835196D01*
X59124504Y-101838796D01*
X59100000Y-101840000D01*
X58175000Y-101840000D01*
X58150496Y-101838796D01*
X58126227Y-101835196D01*
X58102429Y-101829235D01*
X58079329Y-101820970D01*
X58057151Y-101810480D01*
X58036107Y-101797867D01*
X58016402Y-101783253D01*
X57998223Y-101766777D01*
X57981747Y-101748598D01*
X57967133Y-101728893D01*
X57954520Y-101707849D01*
X57944030Y-101685671D01*
X57935765Y-101662571D01*
X57929804Y-101638773D01*
X57926204Y-101614504D01*
X57925000Y-101590000D01*
X57925000Y-100340000D01*
X57926204Y-100315496D01*
X57929804Y-100291227D01*
X57935765Y-100267429D01*
X57944030Y-100244329D01*
X57954520Y-100222151D01*
X57967133Y-100201107D01*
X57981747Y-100181402D01*
X57998223Y-100163223D01*
X58016402Y-100146747D01*
X58036107Y-100132133D01*
X58057151Y-100119520D01*
X58079329Y-100109030D01*
X58102429Y-100100765D01*
X58126227Y-100094804D01*
X58150496Y-100091204D01*
X58175000Y-100090000D01*
X59100000Y-100090000D01*
X59124504Y-100091204D01*
X59124504Y-100091204D01*
G37*
D11*
X58637500Y-100965000D03*
D14*
X60927500Y-89170000D03*
D15*
X58227500Y-90170000D03*
X58227500Y-90820000D03*
X58227500Y-91470000D03*
X58227500Y-88870000D03*
X58227500Y-89520000D03*
D14*
X60927500Y-91170000D03*
D10*
G36*
X65039504Y-95646204D02*
G01*
X65063773Y-95649804D01*
X65087571Y-95655765D01*
X65110671Y-95664030D01*
X65132849Y-95674520D01*
X65153893Y-95687133D01*
X65173598Y-95701747D01*
X65191777Y-95718223D01*
X65208253Y-95736402D01*
X65222867Y-95756107D01*
X65235480Y-95777151D01*
X65245970Y-95799329D01*
X65254235Y-95822429D01*
X65260196Y-95846227D01*
X65263796Y-95870496D01*
X65265000Y-95895000D01*
X65265000Y-97145000D01*
X65263796Y-97169504D01*
X65260196Y-97193773D01*
X65254235Y-97217571D01*
X65245970Y-97240671D01*
X65235480Y-97262849D01*
X65222867Y-97283893D01*
X65208253Y-97303598D01*
X65191777Y-97321777D01*
X65173598Y-97338253D01*
X65153893Y-97352867D01*
X65132849Y-97365480D01*
X65110671Y-97375970D01*
X65087571Y-97384235D01*
X65063773Y-97390196D01*
X65039504Y-97393796D01*
X65015000Y-97395000D01*
X64090000Y-97395000D01*
X64065496Y-97393796D01*
X64041227Y-97390196D01*
X64017429Y-97384235D01*
X63994329Y-97375970D01*
X63972151Y-97365480D01*
X63951107Y-97352867D01*
X63931402Y-97338253D01*
X63913223Y-97321777D01*
X63896747Y-97303598D01*
X63882133Y-97283893D01*
X63869520Y-97262849D01*
X63859030Y-97240671D01*
X63850765Y-97217571D01*
X63844804Y-97193773D01*
X63841204Y-97169504D01*
X63840000Y-97145000D01*
X63840000Y-95895000D01*
X63841204Y-95870496D01*
X63844804Y-95846227D01*
X63850765Y-95822429D01*
X63859030Y-95799329D01*
X63869520Y-95777151D01*
X63882133Y-95756107D01*
X63896747Y-95736402D01*
X63913223Y-95718223D01*
X63931402Y-95701747D01*
X63951107Y-95687133D01*
X63972151Y-95674520D01*
X63994329Y-95664030D01*
X64017429Y-95655765D01*
X64041227Y-95649804D01*
X64065496Y-95646204D01*
X64090000Y-95645000D01*
X65015000Y-95645000D01*
X65039504Y-95646204D01*
X65039504Y-95646204D01*
G37*
D11*
X64552500Y-96520000D03*
D10*
G36*
X68014504Y-95646204D02*
G01*
X68038773Y-95649804D01*
X68062571Y-95655765D01*
X68085671Y-95664030D01*
X68107849Y-95674520D01*
X68128893Y-95687133D01*
X68148598Y-95701747D01*
X68166777Y-95718223D01*
X68183253Y-95736402D01*
X68197867Y-95756107D01*
X68210480Y-95777151D01*
X68220970Y-95799329D01*
X68229235Y-95822429D01*
X68235196Y-95846227D01*
X68238796Y-95870496D01*
X68240000Y-95895000D01*
X68240000Y-97145000D01*
X68238796Y-97169504D01*
X68235196Y-97193773D01*
X68229235Y-97217571D01*
X68220970Y-97240671D01*
X68210480Y-97262849D01*
X68197867Y-97283893D01*
X68183253Y-97303598D01*
X68166777Y-97321777D01*
X68148598Y-97338253D01*
X68128893Y-97352867D01*
X68107849Y-97365480D01*
X68085671Y-97375970D01*
X68062571Y-97384235D01*
X68038773Y-97390196D01*
X68014504Y-97393796D01*
X67990000Y-97395000D01*
X67065000Y-97395000D01*
X67040496Y-97393796D01*
X67016227Y-97390196D01*
X66992429Y-97384235D01*
X66969329Y-97375970D01*
X66947151Y-97365480D01*
X66926107Y-97352867D01*
X66906402Y-97338253D01*
X66888223Y-97321777D01*
X66871747Y-97303598D01*
X66857133Y-97283893D01*
X66844520Y-97262849D01*
X66834030Y-97240671D01*
X66825765Y-97217571D01*
X66819804Y-97193773D01*
X66816204Y-97169504D01*
X66815000Y-97145000D01*
X66815000Y-95895000D01*
X66816204Y-95870496D01*
X66819804Y-95846227D01*
X66825765Y-95822429D01*
X66834030Y-95799329D01*
X66844520Y-95777151D01*
X66857133Y-95756107D01*
X66871747Y-95736402D01*
X66888223Y-95718223D01*
X66906402Y-95701747D01*
X66926107Y-95687133D01*
X66947151Y-95674520D01*
X66969329Y-95664030D01*
X66992429Y-95655765D01*
X67016227Y-95649804D01*
X67040496Y-95646204D01*
X67065000Y-95645000D01*
X67990000Y-95645000D01*
X68014504Y-95646204D01*
X68014504Y-95646204D01*
G37*
D11*
X67527500Y-96520000D03*
D16*
X49450000Y-98110000D03*
X49450000Y-100010000D03*
X52150000Y-100010000D03*
X52150000Y-99060000D03*
X52150000Y-98110000D03*
D17*
X56200000Y-97140000D03*
X56200000Y-98440000D03*
X58100000Y-97790000D03*
X56200000Y-97790000D03*
X58100000Y-98440000D03*
X58100000Y-97140000D03*
D10*
G36*
X48329504Y-110251204D02*
G01*
X48353773Y-110254804D01*
X48377571Y-110260765D01*
X48400671Y-110269030D01*
X48422849Y-110279520D01*
X48443893Y-110292133D01*
X48463598Y-110306747D01*
X48481777Y-110323223D01*
X48498253Y-110341402D01*
X48512867Y-110361107D01*
X48525480Y-110382151D01*
X48535970Y-110404329D01*
X48544235Y-110427429D01*
X48550196Y-110451227D01*
X48553796Y-110475496D01*
X48555000Y-110500000D01*
X48555000Y-111750000D01*
X48553796Y-111774504D01*
X48550196Y-111798773D01*
X48544235Y-111822571D01*
X48535970Y-111845671D01*
X48525480Y-111867849D01*
X48512867Y-111888893D01*
X48498253Y-111908598D01*
X48481777Y-111926777D01*
X48463598Y-111943253D01*
X48443893Y-111957867D01*
X48422849Y-111970480D01*
X48400671Y-111980970D01*
X48377571Y-111989235D01*
X48353773Y-111995196D01*
X48329504Y-111998796D01*
X48305000Y-112000000D01*
X47380000Y-112000000D01*
X47355496Y-111998796D01*
X47331227Y-111995196D01*
X47307429Y-111989235D01*
X47284329Y-111980970D01*
X47262151Y-111970480D01*
X47241107Y-111957867D01*
X47221402Y-111943253D01*
X47203223Y-111926777D01*
X47186747Y-111908598D01*
X47172133Y-111888893D01*
X47159520Y-111867849D01*
X47149030Y-111845671D01*
X47140765Y-111822571D01*
X47134804Y-111798773D01*
X47131204Y-111774504D01*
X47130000Y-111750000D01*
X47130000Y-110500000D01*
X47131204Y-110475496D01*
X47134804Y-110451227D01*
X47140765Y-110427429D01*
X47149030Y-110404329D01*
X47159520Y-110382151D01*
X47172133Y-110361107D01*
X47186747Y-110341402D01*
X47203223Y-110323223D01*
X47221402Y-110306747D01*
X47241107Y-110292133D01*
X47262151Y-110279520D01*
X47284329Y-110269030D01*
X47307429Y-110260765D01*
X47331227Y-110254804D01*
X47355496Y-110251204D01*
X47380000Y-110250000D01*
X48305000Y-110250000D01*
X48329504Y-110251204D01*
X48329504Y-110251204D01*
G37*
D11*
X47842500Y-111125000D03*
D10*
G36*
X45354504Y-110251204D02*
G01*
X45378773Y-110254804D01*
X45402571Y-110260765D01*
X45425671Y-110269030D01*
X45447849Y-110279520D01*
X45468893Y-110292133D01*
X45488598Y-110306747D01*
X45506777Y-110323223D01*
X45523253Y-110341402D01*
X45537867Y-110361107D01*
X45550480Y-110382151D01*
X45560970Y-110404329D01*
X45569235Y-110427429D01*
X45575196Y-110451227D01*
X45578796Y-110475496D01*
X45580000Y-110500000D01*
X45580000Y-111750000D01*
X45578796Y-111774504D01*
X45575196Y-111798773D01*
X45569235Y-111822571D01*
X45560970Y-111845671D01*
X45550480Y-111867849D01*
X45537867Y-111888893D01*
X45523253Y-111908598D01*
X45506777Y-111926777D01*
X45488598Y-111943253D01*
X45468893Y-111957867D01*
X45447849Y-111970480D01*
X45425671Y-111980970D01*
X45402571Y-111989235D01*
X45378773Y-111995196D01*
X45354504Y-111998796D01*
X45330000Y-112000000D01*
X44405000Y-112000000D01*
X44380496Y-111998796D01*
X44356227Y-111995196D01*
X44332429Y-111989235D01*
X44309329Y-111980970D01*
X44287151Y-111970480D01*
X44266107Y-111957867D01*
X44246402Y-111943253D01*
X44228223Y-111926777D01*
X44211747Y-111908598D01*
X44197133Y-111888893D01*
X44184520Y-111867849D01*
X44174030Y-111845671D01*
X44165765Y-111822571D01*
X44159804Y-111798773D01*
X44156204Y-111774504D01*
X44155000Y-111750000D01*
X44155000Y-110500000D01*
X44156204Y-110475496D01*
X44159804Y-110451227D01*
X44165765Y-110427429D01*
X44174030Y-110404329D01*
X44184520Y-110382151D01*
X44197133Y-110361107D01*
X44211747Y-110341402D01*
X44228223Y-110323223D01*
X44246402Y-110306747D01*
X44266107Y-110292133D01*
X44287151Y-110279520D01*
X44309329Y-110269030D01*
X44332429Y-110260765D01*
X44356227Y-110254804D01*
X44380496Y-110251204D01*
X44405000Y-110250000D01*
X45330000Y-110250000D01*
X45354504Y-110251204D01*
X45354504Y-110251204D01*
G37*
D11*
X44867500Y-111125000D03*
D10*
G36*
X51069504Y-111521204D02*
G01*
X51093773Y-111524804D01*
X51117571Y-111530765D01*
X51140671Y-111539030D01*
X51162849Y-111549520D01*
X51183893Y-111562133D01*
X51203598Y-111576747D01*
X51221777Y-111593223D01*
X51238253Y-111611402D01*
X51252867Y-111631107D01*
X51265480Y-111652151D01*
X51275970Y-111674329D01*
X51284235Y-111697429D01*
X51290196Y-111721227D01*
X51293796Y-111745496D01*
X51295000Y-111770000D01*
X51295000Y-113020000D01*
X51293796Y-113044504D01*
X51290196Y-113068773D01*
X51284235Y-113092571D01*
X51275970Y-113115671D01*
X51265480Y-113137849D01*
X51252867Y-113158893D01*
X51238253Y-113178598D01*
X51221777Y-113196777D01*
X51203598Y-113213253D01*
X51183893Y-113227867D01*
X51162849Y-113240480D01*
X51140671Y-113250970D01*
X51117571Y-113259235D01*
X51093773Y-113265196D01*
X51069504Y-113268796D01*
X51045000Y-113270000D01*
X50120000Y-113270000D01*
X50095496Y-113268796D01*
X50071227Y-113265196D01*
X50047429Y-113259235D01*
X50024329Y-113250970D01*
X50002151Y-113240480D01*
X49981107Y-113227867D01*
X49961402Y-113213253D01*
X49943223Y-113196777D01*
X49926747Y-113178598D01*
X49912133Y-113158893D01*
X49899520Y-113137849D01*
X49889030Y-113115671D01*
X49880765Y-113092571D01*
X49874804Y-113068773D01*
X49871204Y-113044504D01*
X49870000Y-113020000D01*
X49870000Y-111770000D01*
X49871204Y-111745496D01*
X49874804Y-111721227D01*
X49880765Y-111697429D01*
X49889030Y-111674329D01*
X49899520Y-111652151D01*
X49912133Y-111631107D01*
X49926747Y-111611402D01*
X49943223Y-111593223D01*
X49961402Y-111576747D01*
X49981107Y-111562133D01*
X50002151Y-111549520D01*
X50024329Y-111539030D01*
X50047429Y-111530765D01*
X50071227Y-111524804D01*
X50095496Y-111521204D01*
X50120000Y-111520000D01*
X51045000Y-111520000D01*
X51069504Y-111521204D01*
X51069504Y-111521204D01*
G37*
D11*
X50582500Y-112395000D03*
D10*
G36*
X54044504Y-111521204D02*
G01*
X54068773Y-111524804D01*
X54092571Y-111530765D01*
X54115671Y-111539030D01*
X54137849Y-111549520D01*
X54158893Y-111562133D01*
X54178598Y-111576747D01*
X54196777Y-111593223D01*
X54213253Y-111611402D01*
X54227867Y-111631107D01*
X54240480Y-111652151D01*
X54250970Y-111674329D01*
X54259235Y-111697429D01*
X54265196Y-111721227D01*
X54268796Y-111745496D01*
X54270000Y-111770000D01*
X54270000Y-113020000D01*
X54268796Y-113044504D01*
X54265196Y-113068773D01*
X54259235Y-113092571D01*
X54250970Y-113115671D01*
X54240480Y-113137849D01*
X54227867Y-113158893D01*
X54213253Y-113178598D01*
X54196777Y-113196777D01*
X54178598Y-113213253D01*
X54158893Y-113227867D01*
X54137849Y-113240480D01*
X54115671Y-113250970D01*
X54092571Y-113259235D01*
X54068773Y-113265196D01*
X54044504Y-113268796D01*
X54020000Y-113270000D01*
X53095000Y-113270000D01*
X53070496Y-113268796D01*
X53046227Y-113265196D01*
X53022429Y-113259235D01*
X52999329Y-113250970D01*
X52977151Y-113240480D01*
X52956107Y-113227867D01*
X52936402Y-113213253D01*
X52918223Y-113196777D01*
X52901747Y-113178598D01*
X52887133Y-113158893D01*
X52874520Y-113137849D01*
X52864030Y-113115671D01*
X52855765Y-113092571D01*
X52849804Y-113068773D01*
X52846204Y-113044504D01*
X52845000Y-113020000D01*
X52845000Y-111770000D01*
X52846204Y-111745496D01*
X52849804Y-111721227D01*
X52855765Y-111697429D01*
X52864030Y-111674329D01*
X52874520Y-111652151D01*
X52887133Y-111631107D01*
X52901747Y-111611402D01*
X52918223Y-111593223D01*
X52936402Y-111576747D01*
X52956107Y-111562133D01*
X52977151Y-111549520D01*
X52999329Y-111539030D01*
X53022429Y-111530765D01*
X53046227Y-111524804D01*
X53070496Y-111521204D01*
X53095000Y-111520000D01*
X54020000Y-111520000D01*
X54044504Y-111521204D01*
X54044504Y-111521204D01*
G37*
D11*
X53557500Y-112395000D03*
D10*
G36*
X47639504Y-96861204D02*
G01*
X47663773Y-96864804D01*
X47687571Y-96870765D01*
X47710671Y-96879030D01*
X47732849Y-96889520D01*
X47753893Y-96902133D01*
X47773598Y-96916747D01*
X47791777Y-96933223D01*
X47808253Y-96951402D01*
X47822867Y-96971107D01*
X47835480Y-96992151D01*
X47845970Y-97014329D01*
X47854235Y-97037429D01*
X47860196Y-97061227D01*
X47863796Y-97085496D01*
X47865000Y-97110000D01*
X47865000Y-98035000D01*
X47863796Y-98059504D01*
X47860196Y-98083773D01*
X47854235Y-98107571D01*
X47845970Y-98130671D01*
X47835480Y-98152849D01*
X47822867Y-98173893D01*
X47808253Y-98193598D01*
X47791777Y-98211777D01*
X47773598Y-98228253D01*
X47753893Y-98242867D01*
X47732849Y-98255480D01*
X47710671Y-98265970D01*
X47687571Y-98274235D01*
X47663773Y-98280196D01*
X47639504Y-98283796D01*
X47615000Y-98285000D01*
X46365000Y-98285000D01*
X46340496Y-98283796D01*
X46316227Y-98280196D01*
X46292429Y-98274235D01*
X46269329Y-98265970D01*
X46247151Y-98255480D01*
X46226107Y-98242867D01*
X46206402Y-98228253D01*
X46188223Y-98211777D01*
X46171747Y-98193598D01*
X46157133Y-98173893D01*
X46144520Y-98152849D01*
X46134030Y-98130671D01*
X46125765Y-98107571D01*
X46119804Y-98083773D01*
X46116204Y-98059504D01*
X46115000Y-98035000D01*
X46115000Y-97110000D01*
X46116204Y-97085496D01*
X46119804Y-97061227D01*
X46125765Y-97037429D01*
X46134030Y-97014329D01*
X46144520Y-96992151D01*
X46157133Y-96971107D01*
X46171747Y-96951402D01*
X46188223Y-96933223D01*
X46206402Y-96916747D01*
X46226107Y-96902133D01*
X46247151Y-96889520D01*
X46269329Y-96879030D01*
X46292429Y-96870765D01*
X46316227Y-96864804D01*
X46340496Y-96861204D01*
X46365000Y-96860000D01*
X47615000Y-96860000D01*
X47639504Y-96861204D01*
X47639504Y-96861204D01*
G37*
D11*
X46990000Y-97572500D03*
D10*
G36*
X47639504Y-99836204D02*
G01*
X47663773Y-99839804D01*
X47687571Y-99845765D01*
X47710671Y-99854030D01*
X47732849Y-99864520D01*
X47753893Y-99877133D01*
X47773598Y-99891747D01*
X47791777Y-99908223D01*
X47808253Y-99926402D01*
X47822867Y-99946107D01*
X47835480Y-99967151D01*
X47845970Y-99989329D01*
X47854235Y-100012429D01*
X47860196Y-100036227D01*
X47863796Y-100060496D01*
X47865000Y-100085000D01*
X47865000Y-101010000D01*
X47863796Y-101034504D01*
X47860196Y-101058773D01*
X47854235Y-101082571D01*
X47845970Y-101105671D01*
X47835480Y-101127849D01*
X47822867Y-101148893D01*
X47808253Y-101168598D01*
X47791777Y-101186777D01*
X47773598Y-101203253D01*
X47753893Y-101217867D01*
X47732849Y-101230480D01*
X47710671Y-101240970D01*
X47687571Y-101249235D01*
X47663773Y-101255196D01*
X47639504Y-101258796D01*
X47615000Y-101260000D01*
X46365000Y-101260000D01*
X46340496Y-101258796D01*
X46316227Y-101255196D01*
X46292429Y-101249235D01*
X46269329Y-101240970D01*
X46247151Y-101230480D01*
X46226107Y-101217867D01*
X46206402Y-101203253D01*
X46188223Y-101186777D01*
X46171747Y-101168598D01*
X46157133Y-101148893D01*
X46144520Y-101127849D01*
X46134030Y-101105671D01*
X46125765Y-101082571D01*
X46119804Y-101058773D01*
X46116204Y-101034504D01*
X46115000Y-101010000D01*
X46115000Y-100085000D01*
X46116204Y-100060496D01*
X46119804Y-100036227D01*
X46125765Y-100012429D01*
X46134030Y-99989329D01*
X46144520Y-99967151D01*
X46157133Y-99946107D01*
X46171747Y-99926402D01*
X46188223Y-99908223D01*
X46206402Y-99891747D01*
X46226107Y-99877133D01*
X46247151Y-99864520D01*
X46269329Y-99854030D01*
X46292429Y-99845765D01*
X46316227Y-99839804D01*
X46340496Y-99836204D01*
X46365000Y-99835000D01*
X47615000Y-99835000D01*
X47639504Y-99836204D01*
X47639504Y-99836204D01*
G37*
D11*
X46990000Y-100547500D03*
D10*
G36*
X73094504Y-95646204D02*
G01*
X73118773Y-95649804D01*
X73142571Y-95655765D01*
X73165671Y-95664030D01*
X73187849Y-95674520D01*
X73208893Y-95687133D01*
X73228598Y-95701747D01*
X73246777Y-95718223D01*
X73263253Y-95736402D01*
X73277867Y-95756107D01*
X73290480Y-95777151D01*
X73300970Y-95799329D01*
X73309235Y-95822429D01*
X73315196Y-95846227D01*
X73318796Y-95870496D01*
X73320000Y-95895000D01*
X73320000Y-97145000D01*
X73318796Y-97169504D01*
X73315196Y-97193773D01*
X73309235Y-97217571D01*
X73300970Y-97240671D01*
X73290480Y-97262849D01*
X73277867Y-97283893D01*
X73263253Y-97303598D01*
X73246777Y-97321777D01*
X73228598Y-97338253D01*
X73208893Y-97352867D01*
X73187849Y-97365480D01*
X73165671Y-97375970D01*
X73142571Y-97384235D01*
X73118773Y-97390196D01*
X73094504Y-97393796D01*
X73070000Y-97395000D01*
X72145000Y-97395000D01*
X72120496Y-97393796D01*
X72096227Y-97390196D01*
X72072429Y-97384235D01*
X72049329Y-97375970D01*
X72027151Y-97365480D01*
X72006107Y-97352867D01*
X71986402Y-97338253D01*
X71968223Y-97321777D01*
X71951747Y-97303598D01*
X71937133Y-97283893D01*
X71924520Y-97262849D01*
X71914030Y-97240671D01*
X71905765Y-97217571D01*
X71899804Y-97193773D01*
X71896204Y-97169504D01*
X71895000Y-97145000D01*
X71895000Y-95895000D01*
X71896204Y-95870496D01*
X71899804Y-95846227D01*
X71905765Y-95822429D01*
X71914030Y-95799329D01*
X71924520Y-95777151D01*
X71937133Y-95756107D01*
X71951747Y-95736402D01*
X71968223Y-95718223D01*
X71986402Y-95701747D01*
X72006107Y-95687133D01*
X72027151Y-95674520D01*
X72049329Y-95664030D01*
X72072429Y-95655765D01*
X72096227Y-95649804D01*
X72120496Y-95646204D01*
X72145000Y-95645000D01*
X73070000Y-95645000D01*
X73094504Y-95646204D01*
X73094504Y-95646204D01*
G37*
D11*
X72607500Y-96520000D03*
D10*
G36*
X70119504Y-95646204D02*
G01*
X70143773Y-95649804D01*
X70167571Y-95655765D01*
X70190671Y-95664030D01*
X70212849Y-95674520D01*
X70233893Y-95687133D01*
X70253598Y-95701747D01*
X70271777Y-95718223D01*
X70288253Y-95736402D01*
X70302867Y-95756107D01*
X70315480Y-95777151D01*
X70325970Y-95799329D01*
X70334235Y-95822429D01*
X70340196Y-95846227D01*
X70343796Y-95870496D01*
X70345000Y-95895000D01*
X70345000Y-97145000D01*
X70343796Y-97169504D01*
X70340196Y-97193773D01*
X70334235Y-97217571D01*
X70325970Y-97240671D01*
X70315480Y-97262849D01*
X70302867Y-97283893D01*
X70288253Y-97303598D01*
X70271777Y-97321777D01*
X70253598Y-97338253D01*
X70233893Y-97352867D01*
X70212849Y-97365480D01*
X70190671Y-97375970D01*
X70167571Y-97384235D01*
X70143773Y-97390196D01*
X70119504Y-97393796D01*
X70095000Y-97395000D01*
X69170000Y-97395000D01*
X69145496Y-97393796D01*
X69121227Y-97390196D01*
X69097429Y-97384235D01*
X69074329Y-97375970D01*
X69052151Y-97365480D01*
X69031107Y-97352867D01*
X69011402Y-97338253D01*
X68993223Y-97321777D01*
X68976747Y-97303598D01*
X68962133Y-97283893D01*
X68949520Y-97262849D01*
X68939030Y-97240671D01*
X68930765Y-97217571D01*
X68924804Y-97193773D01*
X68921204Y-97169504D01*
X68920000Y-97145000D01*
X68920000Y-95895000D01*
X68921204Y-95870496D01*
X68924804Y-95846227D01*
X68930765Y-95822429D01*
X68939030Y-95799329D01*
X68949520Y-95777151D01*
X68962133Y-95756107D01*
X68976747Y-95736402D01*
X68993223Y-95718223D01*
X69011402Y-95701747D01*
X69031107Y-95687133D01*
X69052151Y-95674520D01*
X69074329Y-95664030D01*
X69097429Y-95655765D01*
X69121227Y-95649804D01*
X69145496Y-95646204D01*
X69170000Y-95645000D01*
X70095000Y-95645000D01*
X70119504Y-95646204D01*
X70119504Y-95646204D01*
G37*
D11*
X69632500Y-96520000D03*
D10*
G36*
X101614504Y-113371204D02*
G01*
X101638773Y-113374804D01*
X101662571Y-113380765D01*
X101685671Y-113389030D01*
X101707849Y-113399520D01*
X101728893Y-113412133D01*
X101748598Y-113426747D01*
X101766777Y-113443223D01*
X101783253Y-113461402D01*
X101797867Y-113481107D01*
X101810480Y-113502151D01*
X101820970Y-113524329D01*
X101829235Y-113547429D01*
X101835196Y-113571227D01*
X101838796Y-113595496D01*
X101840000Y-113620000D01*
X101840000Y-114545000D01*
X101838796Y-114569504D01*
X101835196Y-114593773D01*
X101829235Y-114617571D01*
X101820970Y-114640671D01*
X101810480Y-114662849D01*
X101797867Y-114683893D01*
X101783253Y-114703598D01*
X101766777Y-114721777D01*
X101748598Y-114738253D01*
X101728893Y-114752867D01*
X101707849Y-114765480D01*
X101685671Y-114775970D01*
X101662571Y-114784235D01*
X101638773Y-114790196D01*
X101614504Y-114793796D01*
X101590000Y-114795000D01*
X100340000Y-114795000D01*
X100315496Y-114793796D01*
X100291227Y-114790196D01*
X100267429Y-114784235D01*
X100244329Y-114775970D01*
X100222151Y-114765480D01*
X100201107Y-114752867D01*
X100181402Y-114738253D01*
X100163223Y-114721777D01*
X100146747Y-114703598D01*
X100132133Y-114683893D01*
X100119520Y-114662849D01*
X100109030Y-114640671D01*
X100100765Y-114617571D01*
X100094804Y-114593773D01*
X100091204Y-114569504D01*
X100090000Y-114545000D01*
X100090000Y-113620000D01*
X100091204Y-113595496D01*
X100094804Y-113571227D01*
X100100765Y-113547429D01*
X100109030Y-113524329D01*
X100119520Y-113502151D01*
X100132133Y-113481107D01*
X100146747Y-113461402D01*
X100163223Y-113443223D01*
X100181402Y-113426747D01*
X100201107Y-113412133D01*
X100222151Y-113399520D01*
X100244329Y-113389030D01*
X100267429Y-113380765D01*
X100291227Y-113374804D01*
X100315496Y-113371204D01*
X100340000Y-113370000D01*
X101590000Y-113370000D01*
X101614504Y-113371204D01*
X101614504Y-113371204D01*
G37*
D11*
X100965000Y-114082500D03*
D10*
G36*
X101614504Y-116346204D02*
G01*
X101638773Y-116349804D01*
X101662571Y-116355765D01*
X101685671Y-116364030D01*
X101707849Y-116374520D01*
X101728893Y-116387133D01*
X101748598Y-116401747D01*
X101766777Y-116418223D01*
X101783253Y-116436402D01*
X101797867Y-116456107D01*
X101810480Y-116477151D01*
X101820970Y-116499329D01*
X101829235Y-116522429D01*
X101835196Y-116546227D01*
X101838796Y-116570496D01*
X101840000Y-116595000D01*
X101840000Y-117520000D01*
X101838796Y-117544504D01*
X101835196Y-117568773D01*
X101829235Y-117592571D01*
X101820970Y-117615671D01*
X101810480Y-117637849D01*
X101797867Y-117658893D01*
X101783253Y-117678598D01*
X101766777Y-117696777D01*
X101748598Y-117713253D01*
X101728893Y-117727867D01*
X101707849Y-117740480D01*
X101685671Y-117750970D01*
X101662571Y-117759235D01*
X101638773Y-117765196D01*
X101614504Y-117768796D01*
X101590000Y-117770000D01*
X100340000Y-117770000D01*
X100315496Y-117768796D01*
X100291227Y-117765196D01*
X100267429Y-117759235D01*
X100244329Y-117750970D01*
X100222151Y-117740480D01*
X100201107Y-117727867D01*
X100181402Y-117713253D01*
X100163223Y-117696777D01*
X100146747Y-117678598D01*
X100132133Y-117658893D01*
X100119520Y-117637849D01*
X100109030Y-117615671D01*
X100100765Y-117592571D01*
X100094804Y-117568773D01*
X100091204Y-117544504D01*
X100090000Y-117520000D01*
X100090000Y-116595000D01*
X100091204Y-116570496D01*
X100094804Y-116546227D01*
X100100765Y-116522429D01*
X100109030Y-116499329D01*
X100119520Y-116477151D01*
X100132133Y-116456107D01*
X100146747Y-116436402D01*
X100163223Y-116418223D01*
X100181402Y-116401747D01*
X100201107Y-116387133D01*
X100222151Y-116374520D01*
X100244329Y-116364030D01*
X100267429Y-116355765D01*
X100291227Y-116349804D01*
X100315496Y-116346204D01*
X100340000Y-116345000D01*
X101590000Y-116345000D01*
X101614504Y-116346204D01*
X101614504Y-116346204D01*
G37*
D11*
X100965000Y-117057500D03*
M02*
