G04 #@! TF.GenerationSoftware,KiCad,Pcbnew,5.1.2-f72e74a~84~ubuntu18.04.1*
G04 #@! TF.CreationDate,2019-06-25T00:33:59+02:00*
G04 #@! TF.ProjectId,invaders,696e7661-6465-4727-932e-6b696361645f,rev?*
G04 #@! TF.SameCoordinates,Original*
G04 #@! TF.FileFunction,Profile,NP*
%FSLAX46Y46*%
G04 Gerber Fmt 4.6, Leading zero omitted, Abs format (unit mm)*
G04 Created by KiCad (PCBNEW 5.1.2-f72e74a~84~ubuntu18.04.1) date 2019-06-25 00:33:59*
%MOMM*%
%LPD*%
G04 APERTURE LIST*
%ADD10C,0.150000*%
G04 APERTURE END LIST*
D10*
X38100000Y-158750000D02*
X25400000Y-158750000D01*
X31750000Y-152400000D02*
X38100000Y-152400000D01*
X133350000Y-152400000D02*
X127000000Y-152400000D01*
X133350000Y-158750000D02*
X127000000Y-158750000D01*
X57150000Y-152400000D02*
X57150000Y-158750000D01*
X63500000Y-152400000D02*
X57150000Y-152400000D01*
X107950000Y-158750000D02*
X101600000Y-158750000D01*
X107950000Y-152400000D02*
X107950000Y-158750000D01*
X101600000Y-152400000D02*
X107950000Y-152400000D01*
X139700000Y-152400000D02*
X139700000Y-158750000D01*
X146050000Y-152400000D02*
X139700000Y-152400000D01*
X146050000Y-146050000D02*
X146050000Y-152400000D01*
X127000000Y-146050000D02*
X120650000Y-146050000D01*
X133350000Y-146050000D02*
X133350000Y-152400000D01*
X133350000Y-158750000D02*
X139700000Y-158750000D01*
X127000000Y-152400000D02*
X127000000Y-158750000D01*
X120650000Y-158750000D02*
X120650000Y-165100000D01*
X101600000Y-165100000D02*
X107950000Y-165100000D01*
X101600000Y-146050000D02*
X95250000Y-146050000D01*
X101600000Y-158750000D02*
X95250000Y-158750000D01*
X57150000Y-158750000D02*
X69850000Y-158750000D01*
X63500000Y-165100000D02*
X69850000Y-165100000D01*
X44450000Y-158750000D02*
X44450000Y-165100000D01*
X44450000Y-146050000D02*
X44450000Y-158750000D01*
X31750000Y-146050000D02*
X44450000Y-146050000D01*
X31750000Y-152400000D02*
X31750000Y-146050000D01*
X44450000Y-76200000D02*
X44450000Y-82550000D01*
X63500000Y-88900000D02*
X63500000Y-82550000D01*
X101600000Y-88900000D02*
X101600000Y-82550000D01*
X120650000Y-76200000D02*
X120650000Y-82550000D01*
X101600000Y-146050000D02*
X101600000Y-152400000D01*
X88900000Y-146050000D02*
X95250000Y-146050000D01*
X88900000Y-152400000D02*
X88900000Y-146050000D01*
X76200000Y-152400000D02*
X88900000Y-152400000D01*
X76200000Y-146050000D02*
X76200000Y-152400000D01*
X63500000Y-146050000D02*
X76200000Y-146050000D01*
X63500000Y-152400000D02*
X63500000Y-146050000D01*
X69850000Y-165100000D02*
X69850000Y-158750000D01*
X57150000Y-165100000D02*
X63500000Y-165100000D01*
X44450000Y-165100000D02*
X57150000Y-165100000D01*
X38100000Y-158750000D02*
X38100000Y-152400000D01*
X101600000Y-95250000D02*
X82550000Y-95250000D01*
X101600000Y-88900000D02*
X101600000Y-95250000D01*
X107950000Y-82550000D02*
X101600000Y-82550000D01*
X107950000Y-76200000D02*
X107950000Y-82550000D01*
X120650000Y-76200000D02*
X107950000Y-76200000D01*
X120650000Y-88900000D02*
X120650000Y-82550000D01*
X114300000Y-88900000D02*
X120650000Y-88900000D01*
X63500000Y-95250000D02*
X82550000Y-95250000D01*
X63500000Y-88900000D02*
X63500000Y-95250000D01*
X57150000Y-82550000D02*
X63500000Y-82550000D01*
X57150000Y-76200000D02*
X57150000Y-82550000D01*
X44450000Y-76200000D02*
X57150000Y-76200000D01*
X44450000Y-88900000D02*
X44450000Y-82550000D01*
X50800000Y-88900000D02*
X44450000Y-88900000D01*
X95250000Y-165100000D02*
X101600000Y-165100000D01*
X114300000Y-95250000D02*
X114300000Y-88900000D01*
X120650000Y-95250000D02*
X114300000Y-95250000D01*
X120650000Y-101600000D02*
X120650000Y-95250000D01*
X133350000Y-101600000D02*
X120650000Y-101600000D01*
X133350000Y-107950000D02*
X133350000Y-101600000D01*
X139700000Y-107950000D02*
X133350000Y-107950000D01*
X139700000Y-114300000D02*
X139700000Y-107950000D01*
X146050000Y-114300000D02*
X139700000Y-114300000D01*
X146050000Y-139700000D02*
X146050000Y-114300000D01*
X146050000Y-146050000D02*
X146050000Y-139700000D01*
X127000000Y-146050000D02*
X133350000Y-146050000D01*
X120650000Y-152400000D02*
X120650000Y-146050000D01*
X120650000Y-158750000D02*
X120650000Y-152400000D01*
X120650000Y-158750000D02*
X120650000Y-158750000D01*
X107950000Y-165100000D02*
X120650000Y-165100000D01*
X95250000Y-158750000D02*
X95250000Y-165100000D01*
X25400000Y-152400000D02*
X25400000Y-158750000D01*
X19050000Y-152400000D02*
X25400000Y-152400000D01*
X19050000Y-114300000D02*
X19050000Y-152400000D01*
X25400000Y-114300000D02*
X19050000Y-114300000D01*
X25400000Y-107950000D02*
X25400000Y-114300000D01*
X31750000Y-107950000D02*
X25400000Y-107950000D01*
X31750000Y-101600000D02*
X31750000Y-107950000D01*
X44450000Y-101600000D02*
X31750000Y-101600000D01*
X44450000Y-95250000D02*
X44450000Y-101600000D01*
X50800000Y-95250000D02*
X44450000Y-95250000D01*
X50800000Y-88900000D02*
X50800000Y-95250000D01*
M02*
