G04 #@! TF.GenerationSoftware,KiCad,Pcbnew,5.1.2-f72e74a~84~ubuntu18.04.1*
G04 #@! TF.CreationDate,2019-06-25T00:33:59+02:00*
G04 #@! TF.ProjectId,invaders,696e7661-6465-4727-932e-6b696361645f,rev?*
G04 #@! TF.SameCoordinates,Original*
G04 #@! TF.FileFunction,Legend,Top*
G04 #@! TF.FilePolarity,Positive*
%FSLAX46Y46*%
G04 Gerber Fmt 4.6, Leading zero omitted, Abs format (unit mm)*
G04 Created by KiCad (PCBNEW 5.1.2-f72e74a~84~ubuntu18.04.1) date 2019-06-25 00:33:59*
%MOMM*%
%LPD*%
G04 APERTURE LIST*
%ADD10C,0.120000*%
%ADD11C,0.150000*%
%ADD12C,0.101600*%
%ADD13C,0.250000*%
G04 APERTURE END LIST*
D10*
X87676020Y-118170000D02*
X87676020Y-115510000D01*
X79996020Y-118170000D02*
X87676020Y-118170000D01*
X79996020Y-115510000D02*
X87676020Y-115510000D01*
X79996020Y-118170000D02*
X79996020Y-115510000D01*
X78726020Y-118170000D02*
X77396020Y-118170000D01*
X77396020Y-118170000D02*
X77396020Y-116840000D01*
D11*
X66740000Y-112854100D02*
X100240000Y-112854100D01*
X100240000Y-112854100D02*
X100240000Y-139854100D01*
X100240000Y-139854100D02*
X66240000Y-139854100D01*
X66240000Y-139854100D02*
X65740000Y-139854100D01*
X65740000Y-139854100D02*
X65740000Y-112854100D01*
X65740000Y-112854100D02*
X66740000Y-112854100D01*
X104800000Y-105960000D02*
X60300000Y-105960000D01*
X104800000Y-142960000D02*
X104800000Y-105960000D01*
X60300000Y-142960000D02*
X104800000Y-142960000D01*
X60300000Y-105960000D02*
X60300000Y-142960000D01*
X46482000Y-102018000D02*
X46482000Y-145018000D01*
X46482000Y-145018000D02*
X118482000Y-145018000D01*
X118482000Y-145018000D02*
X118482000Y-102018000D01*
X118482000Y-102018000D02*
X46482000Y-102018000D01*
X124994214Y-122580000D02*
G75*
G03X124994214Y-122580000I-1414214J0D01*
G01*
X125494214Y-143080000D02*
G75*
G03X125494214Y-143080000I-1414214J0D01*
G01*
X122580000Y-126080000D02*
X126080000Y-122580000D01*
X122580000Y-138080000D02*
X126080000Y-141580000D01*
X141580000Y-138080000D02*
X138080000Y-141580000D01*
X138080000Y-122580000D02*
X141580000Y-126080000D01*
X138080000Y-122580000D02*
X126080000Y-122580000D01*
X122580000Y-126080000D02*
X122580000Y-138080000D01*
X138080000Y-141580000D02*
X126080000Y-141580000D01*
X141580000Y-126080000D02*
X141580000Y-138080000D01*
D10*
X112093084Y-86362049D02*
X114963937Y-83491195D01*
X110487951Y-84756916D02*
X112093084Y-86362049D01*
X113358805Y-81886063D02*
X110487951Y-84756916D01*
X54612049Y-84756916D02*
X51741195Y-81886063D01*
X53006916Y-86362049D02*
X54612049Y-84756916D01*
X50136063Y-83491195D02*
X53006916Y-86362049D01*
X32210000Y-122790000D02*
X30710000Y-122790000D01*
X28210000Y-124040000D02*
X28210000Y-128540000D01*
X30710000Y-129790000D02*
X32210000Y-129790000D01*
X34710000Y-128540000D02*
X34710000Y-124040000D01*
X32210000Y-132950000D02*
X30710000Y-132950000D01*
X28210000Y-134200000D02*
X28210000Y-138700000D01*
X30710000Y-139950000D02*
X32210000Y-139950000D01*
X34710000Y-138700000D02*
X34710000Y-134200000D01*
X141430000Y-127870000D02*
X139930000Y-127870000D01*
X137430000Y-129120000D02*
X137430000Y-133620000D01*
X139930000Y-134870000D02*
X141430000Y-134870000D01*
X143930000Y-133620000D02*
X143930000Y-129120000D01*
X39830000Y-127870000D02*
X38330000Y-127870000D01*
X35830000Y-129120000D02*
X35830000Y-133620000D01*
X38330000Y-134870000D02*
X39830000Y-134870000D01*
X42330000Y-133620000D02*
X42330000Y-129120000D01*
X24590000Y-127870000D02*
X23090000Y-127870000D01*
X20590000Y-129120000D02*
X20590000Y-133620000D01*
X23090000Y-134870000D02*
X24590000Y-134870000D01*
X27090000Y-133620000D02*
X27090000Y-129120000D01*
X133810000Y-132950000D02*
X132310000Y-132950000D01*
X129810000Y-134200000D02*
X129810000Y-138700000D01*
X132310000Y-139950000D02*
X133810000Y-139950000D01*
X136310000Y-138700000D02*
X136310000Y-134200000D01*
D12*
X75385307Y-118103235D02*
X75385307Y-117979864D01*
X75416150Y-117918178D01*
X75477835Y-117856492D01*
X75601207Y-117825650D01*
X75817107Y-117825650D01*
X75940478Y-117856492D01*
X76002164Y-117918178D01*
X76033007Y-117979864D01*
X76033007Y-118103235D01*
X76002164Y-118164921D01*
X75940478Y-118226607D01*
X75817107Y-118257450D01*
X75601207Y-118257450D01*
X75477835Y-118226607D01*
X75416150Y-118164921D01*
X75385307Y-118103235D01*
X76033007Y-117239635D02*
X76033007Y-117548064D01*
X75385307Y-117548064D01*
X75693735Y-117023735D02*
X75693735Y-116807835D01*
X76033007Y-116715307D02*
X76033007Y-117023735D01*
X75385307Y-117023735D01*
X75385307Y-116715307D01*
X76033007Y-116437721D02*
X75385307Y-116437721D01*
X75385307Y-116283507D01*
X75416150Y-116190978D01*
X75477835Y-116129292D01*
X75539521Y-116098450D01*
X75662892Y-116067607D01*
X75755421Y-116067607D01*
X75878792Y-116098450D01*
X75940478Y-116129292D01*
X76002164Y-116190978D01*
X76033007Y-116283507D01*
X76033007Y-116437721D01*
X76033007Y-115450750D02*
X76033007Y-115820864D01*
X76033007Y-115635807D02*
X75385307Y-115635807D01*
X75477835Y-115697492D01*
X75539521Y-115759178D01*
X75570364Y-115820864D01*
D13*
X58692857Y-113364761D02*
X59073809Y-113364761D01*
X59264285Y-113460000D01*
X59454761Y-113650476D01*
X59550000Y-114031428D01*
X59550000Y-114698095D01*
X59454761Y-115079047D01*
X59264285Y-115269523D01*
X59073809Y-115364761D01*
X58692857Y-115364761D01*
X58502380Y-115269523D01*
X58311904Y-115079047D01*
X58216666Y-114698095D01*
X58216666Y-114031428D01*
X58311904Y-113650476D01*
X58502380Y-113460000D01*
X58692857Y-113364761D01*
X61359523Y-115364761D02*
X60407142Y-115364761D01*
X60407142Y-113364761D01*
X62026190Y-114317142D02*
X62692857Y-114317142D01*
X62978571Y-115364761D02*
X62026190Y-115364761D01*
X62026190Y-113364761D01*
X62978571Y-113364761D01*
X63835714Y-115364761D02*
X63835714Y-113364761D01*
X64311904Y-113364761D01*
X64597619Y-113460000D01*
X64788095Y-113650476D01*
X64883333Y-113840952D01*
X64978571Y-114221904D01*
X64978571Y-114507619D01*
X64883333Y-114888571D01*
X64788095Y-115079047D01*
X64597619Y-115269523D01*
X64311904Y-115364761D01*
X63835714Y-115364761D01*
X65645238Y-113364761D02*
X66883333Y-113364761D01*
X66216666Y-114126666D01*
X66502380Y-114126666D01*
X66692857Y-114221904D01*
X66788095Y-114317142D01*
X66883333Y-114507619D01*
X66883333Y-114983809D01*
X66788095Y-115174285D01*
X66692857Y-115269523D01*
X66502380Y-115364761D01*
X65930952Y-115364761D01*
X65740476Y-115269523D01*
X65645238Y-115174285D01*
D12*
X47010864Y-113945307D02*
X47134235Y-113945307D01*
X47195921Y-113976150D01*
X47257607Y-114037835D01*
X47288450Y-114161207D01*
X47288450Y-114377107D01*
X47257607Y-114500478D01*
X47195921Y-114562164D01*
X47134235Y-114593007D01*
X47010864Y-114593007D01*
X46949178Y-114562164D01*
X46887492Y-114500478D01*
X46856650Y-114377107D01*
X46856650Y-114161207D01*
X46887492Y-114037835D01*
X46949178Y-113976150D01*
X47010864Y-113945307D01*
X47874464Y-114593007D02*
X47566035Y-114593007D01*
X47566035Y-113945307D01*
X48090364Y-114253735D02*
X48306264Y-114253735D01*
X48398792Y-114593007D02*
X48090364Y-114593007D01*
X48090364Y-113945307D01*
X48398792Y-113945307D01*
X48676378Y-114593007D02*
X48676378Y-113945307D01*
X48830592Y-113945307D01*
X48923121Y-113976150D01*
X48984807Y-114037835D01*
X49015650Y-114099521D01*
X49046492Y-114222892D01*
X49046492Y-114315421D01*
X49015650Y-114438792D01*
X48984807Y-114500478D01*
X48923121Y-114562164D01*
X48830592Y-114593007D01*
X48676378Y-114593007D01*
X49293235Y-114006992D02*
X49324078Y-113976150D01*
X49385764Y-113945307D01*
X49539978Y-113945307D01*
X49601664Y-113976150D01*
X49632507Y-114006992D01*
X49663350Y-114068678D01*
X49663350Y-114130364D01*
X49632507Y-114222892D01*
X49262392Y-114593007D01*
X49663350Y-114593007D01*
D11*
X131032380Y-132889523D02*
X131746666Y-132889523D01*
X131889523Y-132937142D01*
X131984761Y-133032380D01*
X132032380Y-133175238D01*
X132032380Y-133270476D01*
X131984761Y-132460952D02*
X132032380Y-132318095D01*
X132032380Y-132080000D01*
X131984761Y-131984761D01*
X131937142Y-131937142D01*
X131841904Y-131889523D01*
X131746666Y-131889523D01*
X131651428Y-131937142D01*
X131603809Y-131984761D01*
X131556190Y-132080000D01*
X131508571Y-132270476D01*
X131460952Y-132365714D01*
X131413333Y-132413333D01*
X131318095Y-132460952D01*
X131222857Y-132460952D01*
X131127619Y-132413333D01*
X131080000Y-132365714D01*
X131032380Y-132270476D01*
X131032380Y-132032380D01*
X131080000Y-131889523D01*
X132032380Y-130937142D02*
X132032380Y-131508571D01*
X132032380Y-131222857D02*
X131032380Y-131222857D01*
X131175238Y-131318095D01*
X131270476Y-131413333D01*
X131318095Y-131508571D01*
D12*
X112484770Y-83689144D02*
X112942763Y-83231151D01*
X113051809Y-83340197D01*
X113095427Y-83427434D01*
X113095427Y-83514671D01*
X113073618Y-83580098D01*
X113008190Y-83689144D01*
X112942763Y-83754572D01*
X112833717Y-83820000D01*
X112768289Y-83841809D01*
X112681052Y-83841809D01*
X112593816Y-83798190D01*
X112484770Y-83689144D01*
X113597039Y-83885427D02*
X113509802Y-83798190D01*
X113444374Y-83776381D01*
X113400756Y-83776381D01*
X113291710Y-83798190D01*
X113182664Y-83863618D01*
X113008190Y-84038091D01*
X112986381Y-84103519D01*
X112986381Y-84147137D01*
X113008190Y-84212565D01*
X113095427Y-84299802D01*
X113160855Y-84321611D01*
X113204473Y-84321611D01*
X113269901Y-84299802D01*
X113378947Y-84190756D01*
X113400756Y-84125328D01*
X113400756Y-84081710D01*
X113378947Y-84016282D01*
X113291710Y-83929045D01*
X113226282Y-83907236D01*
X113182664Y-83907236D01*
X113117236Y-83929045D01*
X51939144Y-84365229D02*
X51481151Y-83907236D01*
X51590197Y-83798190D01*
X51677434Y-83754572D01*
X51764671Y-83754572D01*
X51830098Y-83776381D01*
X51939144Y-83841809D01*
X52004572Y-83907236D01*
X52069999Y-84016282D01*
X52091809Y-84081710D01*
X52091809Y-84168947D01*
X52048190Y-84256183D01*
X51939144Y-84365229D01*
X51895526Y-83492862D02*
X52200855Y-83187533D01*
X52462565Y-83841809D01*
X30251400Y-126627164D02*
X30343928Y-126658007D01*
X30498142Y-126658007D01*
X30559828Y-126627164D01*
X30590671Y-126596321D01*
X30621514Y-126534635D01*
X30621514Y-126472950D01*
X30590671Y-126411264D01*
X30559828Y-126380421D01*
X30498142Y-126349578D01*
X30374771Y-126318735D01*
X30313085Y-126287892D01*
X30282242Y-126257050D01*
X30251400Y-126195364D01*
X30251400Y-126133678D01*
X30282242Y-126071992D01*
X30313085Y-126041150D01*
X30374771Y-126010307D01*
X30528985Y-126010307D01*
X30621514Y-126041150D01*
X30837414Y-126010307D02*
X30991628Y-126658007D01*
X31115000Y-126195364D01*
X31238371Y-126658007D01*
X31392585Y-126010307D01*
X31916914Y-126226207D02*
X31916914Y-126658007D01*
X31762700Y-125979464D02*
X31608485Y-126442107D01*
X32009442Y-126442107D01*
X30251400Y-136787164D02*
X30343928Y-136818007D01*
X30498142Y-136818007D01*
X30559828Y-136787164D01*
X30590671Y-136756321D01*
X30621514Y-136694635D01*
X30621514Y-136632950D01*
X30590671Y-136571264D01*
X30559828Y-136540421D01*
X30498142Y-136509578D01*
X30374771Y-136478735D01*
X30313085Y-136447892D01*
X30282242Y-136417050D01*
X30251400Y-136355364D01*
X30251400Y-136293678D01*
X30282242Y-136231992D01*
X30313085Y-136201150D01*
X30374771Y-136170307D01*
X30528985Y-136170307D01*
X30621514Y-136201150D01*
X30837414Y-136170307D02*
X30991628Y-136818007D01*
X31115000Y-136355364D01*
X31238371Y-136818007D01*
X31392585Y-136170307D01*
X31947757Y-136170307D02*
X31639328Y-136170307D01*
X31608485Y-136478735D01*
X31639328Y-136447892D01*
X31701014Y-136417050D01*
X31855228Y-136417050D01*
X31916914Y-136447892D01*
X31947757Y-136478735D01*
X31978600Y-136540421D01*
X31978600Y-136694635D01*
X31947757Y-136756321D01*
X31916914Y-136787164D01*
X31855228Y-136818007D01*
X31701014Y-136818007D01*
X31639328Y-136787164D01*
X31608485Y-136756321D01*
X140106400Y-131707164D02*
X140198928Y-131738007D01*
X140353142Y-131738007D01*
X140414828Y-131707164D01*
X140445671Y-131676321D01*
X140476514Y-131614635D01*
X140476514Y-131552950D01*
X140445671Y-131491264D01*
X140414828Y-131460421D01*
X140353142Y-131429578D01*
X140229771Y-131398735D01*
X140168085Y-131367892D01*
X140137242Y-131337050D01*
X140106400Y-131275364D01*
X140106400Y-131213678D01*
X140137242Y-131151992D01*
X140168085Y-131121150D01*
X140229771Y-131090307D01*
X140383985Y-131090307D01*
X140476514Y-131121150D01*
X140692414Y-131090307D02*
X140846628Y-131738007D01*
X140970000Y-131275364D01*
X141093371Y-131738007D01*
X141247585Y-131090307D01*
X141586857Y-131367892D02*
X141525171Y-131337050D01*
X141494328Y-131306207D01*
X141463485Y-131244521D01*
X141463485Y-131213678D01*
X141494328Y-131151992D01*
X141525171Y-131121150D01*
X141586857Y-131090307D01*
X141710228Y-131090307D01*
X141771914Y-131121150D01*
X141802757Y-131151992D01*
X141833600Y-131213678D01*
X141833600Y-131244521D01*
X141802757Y-131306207D01*
X141771914Y-131337050D01*
X141710228Y-131367892D01*
X141586857Y-131367892D01*
X141525171Y-131398735D01*
X141494328Y-131429578D01*
X141463485Y-131491264D01*
X141463485Y-131614635D01*
X141494328Y-131676321D01*
X141525171Y-131707164D01*
X141586857Y-131738007D01*
X141710228Y-131738007D01*
X141771914Y-131707164D01*
X141802757Y-131676321D01*
X141833600Y-131614635D01*
X141833600Y-131491264D01*
X141802757Y-131429578D01*
X141771914Y-131398735D01*
X141710228Y-131367892D01*
X37871400Y-131707164D02*
X37963928Y-131738007D01*
X38118142Y-131738007D01*
X38179828Y-131707164D01*
X38210671Y-131676321D01*
X38241514Y-131614635D01*
X38241514Y-131552950D01*
X38210671Y-131491264D01*
X38179828Y-131460421D01*
X38118142Y-131429578D01*
X37994771Y-131398735D01*
X37933085Y-131367892D01*
X37902242Y-131337050D01*
X37871400Y-131275364D01*
X37871400Y-131213678D01*
X37902242Y-131151992D01*
X37933085Y-131121150D01*
X37994771Y-131090307D01*
X38148985Y-131090307D01*
X38241514Y-131121150D01*
X38457414Y-131090307D02*
X38611628Y-131738007D01*
X38735000Y-131275364D01*
X38858371Y-131738007D01*
X39012585Y-131090307D01*
X39228485Y-131151992D02*
X39259328Y-131121150D01*
X39321014Y-131090307D01*
X39475228Y-131090307D01*
X39536914Y-131121150D01*
X39567757Y-131151992D01*
X39598600Y-131213678D01*
X39598600Y-131275364D01*
X39567757Y-131367892D01*
X39197642Y-131738007D01*
X39598600Y-131738007D01*
X22631400Y-131707164D02*
X22723928Y-131738007D01*
X22878142Y-131738007D01*
X22939828Y-131707164D01*
X22970671Y-131676321D01*
X23001514Y-131614635D01*
X23001514Y-131552950D01*
X22970671Y-131491264D01*
X22939828Y-131460421D01*
X22878142Y-131429578D01*
X22754771Y-131398735D01*
X22693085Y-131367892D01*
X22662242Y-131337050D01*
X22631400Y-131275364D01*
X22631400Y-131213678D01*
X22662242Y-131151992D01*
X22693085Y-131121150D01*
X22754771Y-131090307D01*
X22908985Y-131090307D01*
X23001514Y-131121150D01*
X23217414Y-131090307D02*
X23371628Y-131738007D01*
X23495000Y-131275364D01*
X23618371Y-131738007D01*
X23772585Y-131090307D01*
X24296914Y-131090307D02*
X24173542Y-131090307D01*
X24111857Y-131121150D01*
X24081014Y-131151992D01*
X24019328Y-131244521D01*
X23988485Y-131367892D01*
X23988485Y-131614635D01*
X24019328Y-131676321D01*
X24050171Y-131707164D01*
X24111857Y-131738007D01*
X24235228Y-131738007D01*
X24296914Y-131707164D01*
X24327757Y-131676321D01*
X24358600Y-131614635D01*
X24358600Y-131460421D01*
X24327757Y-131398735D01*
X24296914Y-131367892D01*
X24235228Y-131337050D01*
X24111857Y-131337050D01*
X24050171Y-131367892D01*
X24019328Y-131398735D01*
X23988485Y-131460421D01*
X132486400Y-136787164D02*
X132578928Y-136818007D01*
X132733142Y-136818007D01*
X132794828Y-136787164D01*
X132825671Y-136756321D01*
X132856514Y-136694635D01*
X132856514Y-136632950D01*
X132825671Y-136571264D01*
X132794828Y-136540421D01*
X132733142Y-136509578D01*
X132609771Y-136478735D01*
X132548085Y-136447892D01*
X132517242Y-136417050D01*
X132486400Y-136355364D01*
X132486400Y-136293678D01*
X132517242Y-136231992D01*
X132548085Y-136201150D01*
X132609771Y-136170307D01*
X132763985Y-136170307D01*
X132856514Y-136201150D01*
X133072414Y-136170307D02*
X133226628Y-136818007D01*
X133350000Y-136355364D01*
X133473371Y-136818007D01*
X133627585Y-136170307D01*
X133905171Y-136818007D02*
X134028542Y-136818007D01*
X134090228Y-136787164D01*
X134121071Y-136756321D01*
X134182757Y-136663792D01*
X134213600Y-136540421D01*
X134213600Y-136293678D01*
X134182757Y-136231992D01*
X134151914Y-136201150D01*
X134090228Y-136170307D01*
X133966857Y-136170307D01*
X133905171Y-136201150D01*
X133874328Y-136231992D01*
X133843485Y-136293678D01*
X133843485Y-136447892D01*
X133874328Y-136509578D01*
X133905171Y-136540421D01*
X133966857Y-136571264D01*
X134090228Y-136571264D01*
X134151914Y-136540421D01*
X134182757Y-136509578D01*
X134213600Y-136447892D01*
M02*
