G04 #@! TF.GenerationSoftware,KiCad,Pcbnew,5.1.2-f72e74a~84~ubuntu18.04.1*
G04 #@! TF.CreationDate,2019-06-25T00:33:59+02:00*
G04 #@! TF.ProjectId,invaders,696e7661-6465-4727-932e-6b696361645f,rev?*
G04 #@! TF.SameCoordinates,Original*
G04 #@! TF.FileFunction,Legend,Bot*
G04 #@! TF.FilePolarity,Positive*
%FSLAX46Y46*%
G04 Gerber Fmt 4.6, Leading zero omitted, Abs format (unit mm)*
G04 Created by KiCad (PCBNEW 5.1.2-f72e74a~84~ubuntu18.04.1) date 2019-06-25 00:33:59*
%MOMM*%
%LPD*%
G04 APERTURE LIST*
%ADD10C,0.127000*%
%ADD11C,0.150000*%
%ADD12C,0.300000*%
%ADD13C,0.120000*%
%ADD14C,0.101600*%
G04 APERTURE END LIST*
D10*
X65063007Y-119250278D02*
X65063007Y-118880164D01*
X65063007Y-119065221D02*
X64415307Y-119065221D01*
X64507835Y-119003535D01*
X64569521Y-118941850D01*
X64600364Y-118880164D01*
X65001321Y-119527864D02*
X65032164Y-119558707D01*
X65063007Y-119527864D01*
X65032164Y-119497021D01*
X65001321Y-119527864D01*
X65063007Y-119527864D01*
X64415307Y-120144721D02*
X64415307Y-119836292D01*
X64723735Y-119805450D01*
X64692892Y-119836292D01*
X64662050Y-119897978D01*
X64662050Y-120052192D01*
X64692892Y-120113878D01*
X64723735Y-120144721D01*
X64785421Y-120175564D01*
X64939635Y-120175564D01*
X65001321Y-120144721D01*
X65032164Y-120113878D01*
X65063007Y-120052192D01*
X65063007Y-119897978D01*
X65032164Y-119836292D01*
X65001321Y-119805450D01*
X64415307Y-120422307D02*
X64538678Y-120422307D01*
X64415307Y-120669050D02*
X64538678Y-120669050D01*
X65063007Y-121810235D02*
X64754578Y-121594335D01*
X65063007Y-121440121D02*
X64415307Y-121440121D01*
X64415307Y-121686864D01*
X64446150Y-121748550D01*
X64476992Y-121779392D01*
X64538678Y-121810235D01*
X64631207Y-121810235D01*
X64692892Y-121779392D01*
X64723735Y-121748550D01*
X64754578Y-121686864D01*
X64754578Y-121440121D01*
X64446150Y-122427092D02*
X64415307Y-122365407D01*
X64415307Y-122272878D01*
X64446150Y-122180350D01*
X64507835Y-122118664D01*
X64569521Y-122087821D01*
X64692892Y-122056978D01*
X64785421Y-122056978D01*
X64908792Y-122087821D01*
X64970478Y-122118664D01*
X65032164Y-122180350D01*
X65063007Y-122272878D01*
X65063007Y-122334564D01*
X65032164Y-122427092D01*
X65001321Y-122457935D01*
X64785421Y-122457935D01*
X64785421Y-122334564D01*
X64723735Y-122951421D02*
X64754578Y-123043950D01*
X64785421Y-123074792D01*
X64847107Y-123105635D01*
X64939635Y-123105635D01*
X65001321Y-123074792D01*
X65032164Y-123043950D01*
X65063007Y-122982264D01*
X65063007Y-122735521D01*
X64415307Y-122735521D01*
X64415307Y-122951421D01*
X64446150Y-123013107D01*
X64476992Y-123043950D01*
X64538678Y-123074792D01*
X64600364Y-123074792D01*
X64662050Y-123043950D01*
X64692892Y-123013107D01*
X64723735Y-122951421D01*
X64723735Y-122735521D01*
X65032164Y-123845864D02*
X65063007Y-123938392D01*
X65063007Y-124092607D01*
X65032164Y-124154292D01*
X65001321Y-124185135D01*
X64939635Y-124215978D01*
X64877950Y-124215978D01*
X64816264Y-124185135D01*
X64785421Y-124154292D01*
X64754578Y-124092607D01*
X64723735Y-123969235D01*
X64692892Y-123907550D01*
X64662050Y-123876707D01*
X64600364Y-123845864D01*
X64538678Y-123845864D01*
X64476992Y-123876707D01*
X64446150Y-123907550D01*
X64415307Y-123969235D01*
X64415307Y-124123450D01*
X64446150Y-124215978D01*
X65063007Y-124493564D02*
X64415307Y-124493564D01*
X64415307Y-124740307D01*
X64446150Y-124801992D01*
X64476992Y-124832835D01*
X64538678Y-124863678D01*
X64631207Y-124863678D01*
X64692892Y-124832835D01*
X64723735Y-124801992D01*
X64754578Y-124740307D01*
X64754578Y-124493564D01*
X65063007Y-125141264D02*
X64415307Y-125141264D01*
X64415307Y-126066550D02*
X64415307Y-126189921D01*
X64446150Y-126251607D01*
X64507835Y-126313292D01*
X64631207Y-126344135D01*
X64847107Y-126344135D01*
X64970478Y-126313292D01*
X65032164Y-126251607D01*
X65063007Y-126189921D01*
X65063007Y-126066550D01*
X65032164Y-126004864D01*
X64970478Y-125943178D01*
X64847107Y-125912335D01*
X64631207Y-125912335D01*
X64507835Y-125943178D01*
X64446150Y-126004864D01*
X64415307Y-126066550D01*
X65063007Y-126930150D02*
X65063007Y-126621721D01*
X64415307Y-126621721D01*
X64723735Y-127146050D02*
X64723735Y-127361950D01*
X65063007Y-127454478D02*
X65063007Y-127146050D01*
X64415307Y-127146050D01*
X64415307Y-127454478D01*
X65063007Y-127732064D02*
X64415307Y-127732064D01*
X64415307Y-127886278D01*
X64446150Y-127978807D01*
X64507835Y-128040492D01*
X64569521Y-128071335D01*
X64692892Y-128102178D01*
X64785421Y-128102178D01*
X64908792Y-128071335D01*
X64970478Y-128040492D01*
X65032164Y-127978807D01*
X65063007Y-127886278D01*
X65063007Y-127732064D01*
X65063007Y-128873250D02*
X64415307Y-128873250D01*
X64415307Y-129119992D01*
X64446150Y-129181678D01*
X64476992Y-129212521D01*
X64538678Y-129243364D01*
X64631207Y-129243364D01*
X64692892Y-129212521D01*
X64723735Y-129181678D01*
X64754578Y-129119992D01*
X64754578Y-128873250D01*
X65063007Y-129798535D02*
X64723735Y-129798535D01*
X64662050Y-129767692D01*
X64631207Y-129706007D01*
X64631207Y-129582635D01*
X64662050Y-129520950D01*
X65032164Y-129798535D02*
X65063007Y-129736850D01*
X65063007Y-129582635D01*
X65032164Y-129520950D01*
X64970478Y-129490107D01*
X64908792Y-129490107D01*
X64847107Y-129520950D01*
X64816264Y-129582635D01*
X64816264Y-129736850D01*
X64785421Y-129798535D01*
X64631207Y-130106964D02*
X65063007Y-130106964D01*
X64692892Y-130106964D02*
X64662050Y-130137807D01*
X64631207Y-130199492D01*
X64631207Y-130292021D01*
X64662050Y-130353707D01*
X64723735Y-130384550D01*
X65063007Y-130384550D01*
X65032164Y-130939721D02*
X65063007Y-130878035D01*
X65063007Y-130754664D01*
X65032164Y-130692978D01*
X64970478Y-130662135D01*
X64723735Y-130662135D01*
X64662050Y-130692978D01*
X64631207Y-130754664D01*
X64631207Y-130878035D01*
X64662050Y-130939721D01*
X64723735Y-130970564D01*
X64785421Y-130970564D01*
X64847107Y-130662135D01*
X65063007Y-131340678D02*
X65032164Y-131278992D01*
X64970478Y-131248150D01*
X64415307Y-131248150D01*
X61006264Y-115885685D02*
X61006264Y-116379171D01*
X61253007Y-116132428D02*
X60759521Y-116132428D01*
X60605307Y-116996028D02*
X60605307Y-116687600D01*
X60913735Y-116656757D01*
X60882892Y-116687600D01*
X60852050Y-116749285D01*
X60852050Y-116903500D01*
X60882892Y-116965185D01*
X60913735Y-116996028D01*
X60975421Y-117026871D01*
X61129635Y-117026871D01*
X61191321Y-116996028D01*
X61222164Y-116965185D01*
X61253007Y-116903500D01*
X61253007Y-116749285D01*
X61222164Y-116687600D01*
X61191321Y-116656757D01*
X60605307Y-117211928D02*
X61253007Y-117427828D01*
X60605307Y-117643728D01*
X60636150Y-119185871D02*
X60605307Y-119124185D01*
X60605307Y-119031657D01*
X60636150Y-118939128D01*
X60697835Y-118877442D01*
X60759521Y-118846600D01*
X60882892Y-118815757D01*
X60975421Y-118815757D01*
X61098792Y-118846600D01*
X61160478Y-118877442D01*
X61222164Y-118939128D01*
X61253007Y-119031657D01*
X61253007Y-119093342D01*
X61222164Y-119185871D01*
X61191321Y-119216714D01*
X60975421Y-119216714D01*
X60975421Y-119093342D01*
X61253007Y-119494300D02*
X60605307Y-119494300D01*
X61253007Y-119864414D01*
X60605307Y-119864414D01*
X61253007Y-120172842D02*
X60605307Y-120172842D01*
X60605307Y-120327057D01*
X60636150Y-120419585D01*
X60697835Y-120481271D01*
X60759521Y-120512114D01*
X60882892Y-120542957D01*
X60975421Y-120542957D01*
X61098792Y-120512114D01*
X61160478Y-120481271D01*
X61222164Y-120419585D01*
X61253007Y-120327057D01*
X61253007Y-120172842D01*
X61191321Y-122177628D02*
X61222164Y-122146785D01*
X61253007Y-122054257D01*
X61253007Y-121992571D01*
X61222164Y-121900042D01*
X61160478Y-121838357D01*
X61098792Y-121807514D01*
X60975421Y-121776671D01*
X60882892Y-121776671D01*
X60759521Y-121807514D01*
X60697835Y-121838357D01*
X60636150Y-121900042D01*
X60605307Y-121992571D01*
X60605307Y-122054257D01*
X60636150Y-122146785D01*
X60666992Y-122177628D01*
X61222164Y-122424371D02*
X61253007Y-122516900D01*
X61253007Y-122671114D01*
X61222164Y-122732800D01*
X61191321Y-122763642D01*
X61129635Y-122794485D01*
X61067950Y-122794485D01*
X61006264Y-122763642D01*
X60975421Y-122732800D01*
X60944578Y-122671114D01*
X60913735Y-122547742D01*
X60882892Y-122486057D01*
X60852050Y-122455214D01*
X60790364Y-122424371D01*
X60728678Y-122424371D01*
X60666992Y-122455214D01*
X60636150Y-122486057D01*
X60605307Y-122547742D01*
X60605307Y-122701957D01*
X60636150Y-122794485D01*
X61222164Y-124028200D02*
X61253007Y-124120728D01*
X61253007Y-124274942D01*
X61222164Y-124336628D01*
X61191321Y-124367471D01*
X61129635Y-124398314D01*
X61067950Y-124398314D01*
X61006264Y-124367471D01*
X60975421Y-124336628D01*
X60944578Y-124274942D01*
X60913735Y-124151571D01*
X60882892Y-124089885D01*
X60852050Y-124059042D01*
X60790364Y-124028200D01*
X60728678Y-124028200D01*
X60666992Y-124059042D01*
X60636150Y-124089885D01*
X60605307Y-124151571D01*
X60605307Y-124305785D01*
X60636150Y-124398314D01*
X61191321Y-125046014D02*
X61222164Y-125015171D01*
X61253007Y-124922642D01*
X61253007Y-124860957D01*
X61222164Y-124768428D01*
X61160478Y-124706742D01*
X61098792Y-124675900D01*
X60975421Y-124645057D01*
X60882892Y-124645057D01*
X60759521Y-124675900D01*
X60697835Y-124706742D01*
X60636150Y-124768428D01*
X60605307Y-124860957D01*
X60605307Y-124922642D01*
X60636150Y-125015171D01*
X60666992Y-125046014D01*
X61253007Y-125323600D02*
X60605307Y-125323600D01*
X61253007Y-125693714D02*
X60882892Y-125416128D01*
X60605307Y-125693714D02*
X60975421Y-125323600D01*
X61253007Y-126464785D02*
X60605307Y-126464785D01*
X61067950Y-126680685D01*
X60605307Y-126896585D01*
X61253007Y-126896585D01*
X60605307Y-127328385D02*
X60605307Y-127451757D01*
X60636150Y-127513442D01*
X60697835Y-127575128D01*
X60821207Y-127605971D01*
X61037107Y-127605971D01*
X61160478Y-127575128D01*
X61222164Y-127513442D01*
X61253007Y-127451757D01*
X61253007Y-127328385D01*
X61222164Y-127266700D01*
X61160478Y-127205014D01*
X61037107Y-127174171D01*
X60821207Y-127174171D01*
X60697835Y-127205014D01*
X60636150Y-127266700D01*
X60605307Y-127328385D01*
X61222164Y-127852714D02*
X61253007Y-127945242D01*
X61253007Y-128099457D01*
X61222164Y-128161142D01*
X61191321Y-128191985D01*
X61129635Y-128222828D01*
X61067950Y-128222828D01*
X61006264Y-128191985D01*
X60975421Y-128161142D01*
X60944578Y-128099457D01*
X60913735Y-127976085D01*
X60882892Y-127914400D01*
X60852050Y-127883557D01*
X60790364Y-127852714D01*
X60728678Y-127852714D01*
X60666992Y-127883557D01*
X60636150Y-127914400D01*
X60605307Y-127976085D01*
X60605307Y-128130300D01*
X60636150Y-128222828D01*
X61253007Y-128500414D02*
X60605307Y-128500414D01*
X61253007Y-129302328D02*
X60605307Y-129302328D01*
X60605307Y-129456542D01*
X60636150Y-129549071D01*
X60697835Y-129610757D01*
X60759521Y-129641600D01*
X60882892Y-129672442D01*
X60975421Y-129672442D01*
X61098792Y-129641600D01*
X61160478Y-129610757D01*
X61222164Y-129549071D01*
X61253007Y-129456542D01*
X61253007Y-129302328D01*
X61191321Y-130320142D02*
X61222164Y-130289300D01*
X61253007Y-130196771D01*
X61253007Y-130135085D01*
X61222164Y-130042557D01*
X61160478Y-129980871D01*
X61098792Y-129950028D01*
X60975421Y-129919185D01*
X60882892Y-129919185D01*
X60759521Y-129950028D01*
X60697835Y-129980871D01*
X60636150Y-130042557D01*
X60605307Y-130135085D01*
X60605307Y-130196771D01*
X60636150Y-130289300D01*
X60666992Y-130320142D01*
X60328556Y-131430485D02*
X60328556Y-132078185D01*
X61253007Y-131954814D02*
X60944578Y-131738914D01*
X61253007Y-131584700D02*
X60605307Y-131584700D01*
X60605307Y-131831442D01*
X60636150Y-131893128D01*
X60666992Y-131923971D01*
X60728678Y-131954814D01*
X60821207Y-131954814D01*
X60882892Y-131923971D01*
X60913735Y-131893128D01*
X60944578Y-131831442D01*
X60944578Y-131584700D01*
X60328556Y-132078185D02*
X60328556Y-132695042D01*
X61222164Y-132201557D02*
X61253007Y-132294085D01*
X61253007Y-132448300D01*
X61222164Y-132509985D01*
X61191321Y-132540828D01*
X61129635Y-132571671D01*
X61067950Y-132571671D01*
X61006264Y-132540828D01*
X60975421Y-132509985D01*
X60944578Y-132448300D01*
X60913735Y-132324928D01*
X60882892Y-132263242D01*
X60852050Y-132232400D01*
X60790364Y-132201557D01*
X60728678Y-132201557D01*
X60666992Y-132232400D01*
X60636150Y-132263242D01*
X60605307Y-132324928D01*
X60605307Y-132479142D01*
X60636150Y-132571671D01*
X60328556Y-132695042D02*
X60328556Y-133188528D01*
X60605307Y-132756728D02*
X60605307Y-133126842D01*
X61253007Y-132941785D02*
X60605307Y-132941785D01*
X92781664Y-145203182D02*
X92781664Y-144555482D01*
X92504078Y-145203182D02*
X92504078Y-144863910D01*
X92534921Y-144802225D01*
X92596607Y-144771382D01*
X92689135Y-144771382D01*
X92750821Y-144802225D01*
X92781664Y-144833067D01*
X92288178Y-144771382D02*
X92041435Y-144771382D01*
X92195650Y-144555482D02*
X92195650Y-145110653D01*
X92164807Y-145172339D01*
X92103121Y-145203182D01*
X92041435Y-145203182D01*
X91918064Y-144771382D02*
X91671321Y-144771382D01*
X91825535Y-144555482D02*
X91825535Y-145110653D01*
X91794692Y-145172339D01*
X91733007Y-145203182D01*
X91671321Y-145203182D01*
X91455421Y-144771382D02*
X91455421Y-145419082D01*
X91455421Y-144802225D02*
X91393735Y-144771382D01*
X91270364Y-144771382D01*
X91208678Y-144802225D01*
X91177835Y-144833067D01*
X91146992Y-144894753D01*
X91146992Y-145079810D01*
X91177835Y-145141496D01*
X91208678Y-145172339D01*
X91270364Y-145203182D01*
X91393735Y-145203182D01*
X91455421Y-145172339D01*
X90900250Y-145172339D02*
X90838564Y-145203182D01*
X90715192Y-145203182D01*
X90653507Y-145172339D01*
X90622664Y-145110653D01*
X90622664Y-145079810D01*
X90653507Y-145018125D01*
X90715192Y-144987282D01*
X90807721Y-144987282D01*
X90869407Y-144956439D01*
X90900250Y-144894753D01*
X90900250Y-144863910D01*
X90869407Y-144802225D01*
X90807721Y-144771382D01*
X90715192Y-144771382D01*
X90653507Y-144802225D01*
X90345078Y-145141496D02*
X90314235Y-145172339D01*
X90345078Y-145203182D01*
X90375921Y-145172339D01*
X90345078Y-145141496D01*
X90345078Y-145203182D01*
X90345078Y-144802225D02*
X90314235Y-144833067D01*
X90345078Y-144863910D01*
X90375921Y-144833067D01*
X90345078Y-144802225D01*
X90345078Y-144863910D01*
X89574007Y-144524639D02*
X90129178Y-145357396D01*
X88895464Y-144524639D02*
X89450635Y-145357396D01*
X88401978Y-144771382D02*
X88401978Y-145295710D01*
X88432821Y-145357396D01*
X88463664Y-145388239D01*
X88525350Y-145419082D01*
X88617878Y-145419082D01*
X88679564Y-145388239D01*
X88401978Y-145172339D02*
X88463664Y-145203182D01*
X88587035Y-145203182D01*
X88648721Y-145172339D01*
X88679564Y-145141496D01*
X88710407Y-145079810D01*
X88710407Y-144894753D01*
X88679564Y-144833067D01*
X88648721Y-144802225D01*
X88587035Y-144771382D01*
X88463664Y-144771382D01*
X88401978Y-144802225D01*
X88093550Y-145203182D02*
X88093550Y-144771382D01*
X88093550Y-144555482D02*
X88124392Y-144586325D01*
X88093550Y-144617167D01*
X88062707Y-144586325D01*
X88093550Y-144555482D01*
X88093550Y-144617167D01*
X87877650Y-144771382D02*
X87630907Y-144771382D01*
X87785121Y-144555482D02*
X87785121Y-145110653D01*
X87754278Y-145172339D01*
X87692592Y-145203182D01*
X87630907Y-145203182D01*
X87415007Y-145203182D02*
X87415007Y-144555482D01*
X87137421Y-145203182D02*
X87137421Y-144863910D01*
X87168264Y-144802225D01*
X87229950Y-144771382D01*
X87322478Y-144771382D01*
X87384164Y-144802225D01*
X87415007Y-144833067D01*
X86551407Y-144771382D02*
X86551407Y-145203182D01*
X86828992Y-144771382D02*
X86828992Y-145110653D01*
X86798150Y-145172339D01*
X86736464Y-145203182D01*
X86643935Y-145203182D01*
X86582250Y-145172339D01*
X86551407Y-145141496D01*
X86242978Y-145203182D02*
X86242978Y-144555482D01*
X86242978Y-144802225D02*
X86181292Y-144771382D01*
X86057921Y-144771382D01*
X85996235Y-144802225D01*
X85965392Y-144833067D01*
X85934550Y-144894753D01*
X85934550Y-145079810D01*
X85965392Y-145141496D01*
X85996235Y-145172339D01*
X86057921Y-145203182D01*
X86181292Y-145203182D01*
X86242978Y-145172339D01*
X85656964Y-145141496D02*
X85626121Y-145172339D01*
X85656964Y-145203182D01*
X85687807Y-145172339D01*
X85656964Y-145141496D01*
X85656964Y-145203182D01*
X85070950Y-145172339D02*
X85132635Y-145203182D01*
X85256007Y-145203182D01*
X85317692Y-145172339D01*
X85348535Y-145141496D01*
X85379378Y-145079810D01*
X85379378Y-144894753D01*
X85348535Y-144833067D01*
X85317692Y-144802225D01*
X85256007Y-144771382D01*
X85132635Y-144771382D01*
X85070950Y-144802225D01*
X84700835Y-145203182D02*
X84762521Y-145172339D01*
X84793364Y-145141496D01*
X84824207Y-145079810D01*
X84824207Y-144894753D01*
X84793364Y-144833067D01*
X84762521Y-144802225D01*
X84700835Y-144771382D01*
X84608307Y-144771382D01*
X84546621Y-144802225D01*
X84515778Y-144833067D01*
X84484935Y-144894753D01*
X84484935Y-145079810D01*
X84515778Y-145141496D01*
X84546621Y-145172339D01*
X84608307Y-145203182D01*
X84700835Y-145203182D01*
X84207350Y-145203182D02*
X84207350Y-144771382D01*
X84207350Y-144833067D02*
X84176507Y-144802225D01*
X84114821Y-144771382D01*
X84022292Y-144771382D01*
X83960607Y-144802225D01*
X83929764Y-144863910D01*
X83929764Y-145203182D01*
X83929764Y-144863910D02*
X83898921Y-144802225D01*
X83837235Y-144771382D01*
X83744707Y-144771382D01*
X83683021Y-144802225D01*
X83652178Y-144863910D01*
X83652178Y-145203182D01*
X82881107Y-144524639D02*
X83436278Y-145357396D01*
X82387621Y-145203182D02*
X82387621Y-144863910D01*
X82418464Y-144802225D01*
X82480150Y-144771382D01*
X82603521Y-144771382D01*
X82665207Y-144802225D01*
X82387621Y-145172339D02*
X82449307Y-145203182D01*
X82603521Y-145203182D01*
X82665207Y-145172339D01*
X82696050Y-145110653D01*
X82696050Y-145048967D01*
X82665207Y-144987282D01*
X82603521Y-144956439D01*
X82449307Y-144956439D01*
X82387621Y-144925596D01*
X82079192Y-144771382D02*
X82079192Y-145203182D01*
X82079192Y-144833067D02*
X82048350Y-144802225D01*
X81986664Y-144771382D01*
X81894135Y-144771382D01*
X81832450Y-144802225D01*
X81801607Y-144863910D01*
X81801607Y-145203182D01*
X81554864Y-144771382D02*
X81400650Y-145203182D01*
X81246435Y-144771382D02*
X81400650Y-145203182D01*
X81462335Y-145357396D01*
X81493178Y-145388239D01*
X81554864Y-145419082D01*
X80722107Y-145203182D02*
X80722107Y-144863910D01*
X80752950Y-144802225D01*
X80814635Y-144771382D01*
X80938007Y-144771382D01*
X80999692Y-144802225D01*
X80722107Y-145172339D02*
X80783792Y-145203182D01*
X80938007Y-145203182D01*
X80999692Y-145172339D01*
X81030535Y-145110653D01*
X81030535Y-145048967D01*
X80999692Y-144987282D01*
X80938007Y-144956439D01*
X80783792Y-144956439D01*
X80722107Y-144925596D01*
X80413678Y-145203182D02*
X80413678Y-144555482D01*
X80136092Y-145203182D02*
X80136092Y-144863910D01*
X80166935Y-144802225D01*
X80228621Y-144771382D01*
X80321150Y-144771382D01*
X80382835Y-144802225D01*
X80413678Y-144833067D01*
X79580921Y-145172339D02*
X79642607Y-145203182D01*
X79765978Y-145203182D01*
X79827664Y-145172339D01*
X79858507Y-145110653D01*
X79858507Y-144863910D01*
X79827664Y-144802225D01*
X79765978Y-144771382D01*
X79642607Y-144771382D01*
X79580921Y-144802225D01*
X79550078Y-144863910D01*
X79550078Y-144925596D01*
X79858507Y-144987282D01*
X79179964Y-145203182D02*
X79241650Y-145172339D01*
X79272492Y-145110653D01*
X79272492Y-144555482D01*
X78686478Y-145172339D02*
X78748164Y-145203182D01*
X78871535Y-145203182D01*
X78933221Y-145172339D01*
X78964064Y-145110653D01*
X78964064Y-144863910D01*
X78933221Y-144802225D01*
X78871535Y-144771382D01*
X78748164Y-144771382D01*
X78686478Y-144802225D01*
X78655635Y-144863910D01*
X78655635Y-144925596D01*
X78964064Y-144987282D01*
X78378050Y-144771382D02*
X78378050Y-145203182D01*
X78378050Y-144833067D02*
X78347207Y-144802225D01*
X78285521Y-144771382D01*
X78192992Y-144771382D01*
X78131307Y-144802225D01*
X78100464Y-144863910D01*
X78100464Y-145203182D01*
X77545292Y-145172339D02*
X77606978Y-145203182D01*
X77730350Y-145203182D01*
X77792035Y-145172339D01*
X77822878Y-145110653D01*
X77822878Y-144863910D01*
X77792035Y-144802225D01*
X77730350Y-144771382D01*
X77606978Y-144771382D01*
X77545292Y-144802225D01*
X77514450Y-144863910D01*
X77514450Y-144925596D01*
X77822878Y-144987282D01*
X76774221Y-144524639D02*
X77329392Y-145357396D01*
X76558321Y-145203182D02*
X76558321Y-144771382D01*
X76558321Y-144555482D02*
X76589164Y-144586325D01*
X76558321Y-144617167D01*
X76527478Y-144586325D01*
X76558321Y-144555482D01*
X76558321Y-144617167D01*
X76249892Y-144771382D02*
X76249892Y-145203182D01*
X76249892Y-144833067D02*
X76219050Y-144802225D01*
X76157364Y-144771382D01*
X76064835Y-144771382D01*
X76003150Y-144802225D01*
X75972307Y-144863910D01*
X75972307Y-145203182D01*
X75725564Y-144771382D02*
X75571350Y-145203182D01*
X75417135Y-144771382D01*
X74892807Y-145203182D02*
X74892807Y-144863910D01*
X74923650Y-144802225D01*
X74985335Y-144771382D01*
X75108707Y-144771382D01*
X75170392Y-144802225D01*
X74892807Y-145172339D02*
X74954492Y-145203182D01*
X75108707Y-145203182D01*
X75170392Y-145172339D01*
X75201235Y-145110653D01*
X75201235Y-145048967D01*
X75170392Y-144987282D01*
X75108707Y-144956439D01*
X74954492Y-144956439D01*
X74892807Y-144925596D01*
X74306792Y-145203182D02*
X74306792Y-144555482D01*
X74306792Y-145172339D02*
X74368478Y-145203182D01*
X74491850Y-145203182D01*
X74553535Y-145172339D01*
X74584378Y-145141496D01*
X74615221Y-145079810D01*
X74615221Y-144894753D01*
X74584378Y-144833067D01*
X74553535Y-144802225D01*
X74491850Y-144771382D01*
X74368478Y-144771382D01*
X74306792Y-144802225D01*
X73751621Y-145172339D02*
X73813307Y-145203182D01*
X73936678Y-145203182D01*
X73998364Y-145172339D01*
X74029207Y-145110653D01*
X74029207Y-144863910D01*
X73998364Y-144802225D01*
X73936678Y-144771382D01*
X73813307Y-144771382D01*
X73751621Y-144802225D01*
X73720778Y-144863910D01*
X73720778Y-144925596D01*
X74029207Y-144987282D01*
X73443192Y-145203182D02*
X73443192Y-144771382D01*
X73443192Y-144894753D02*
X73412350Y-144833067D01*
X73381507Y-144802225D01*
X73319821Y-144771382D01*
X73258135Y-144771382D01*
X73073078Y-145172339D02*
X73011392Y-145203182D01*
X72888021Y-145203182D01*
X72826335Y-145172339D01*
X72795492Y-145110653D01*
X72795492Y-145079810D01*
X72826335Y-145018125D01*
X72888021Y-144987282D01*
X72980550Y-144987282D01*
X73042235Y-144956439D01*
X73073078Y-144894753D01*
X73073078Y-144863910D01*
X73042235Y-144802225D01*
X72980550Y-144771382D01*
X72888021Y-144771382D01*
X72826335Y-144802225D01*
X87600064Y-147400282D02*
X87600064Y-146752582D01*
X87322478Y-147400282D02*
X87322478Y-147061010D01*
X87353321Y-146999325D01*
X87415007Y-146968482D01*
X87507535Y-146968482D01*
X87569221Y-146999325D01*
X87600064Y-147030167D01*
X86736464Y-147400282D02*
X86736464Y-147061010D01*
X86767307Y-146999325D01*
X86828992Y-146968482D01*
X86952364Y-146968482D01*
X87014050Y-146999325D01*
X86736464Y-147369439D02*
X86798150Y-147400282D01*
X86952364Y-147400282D01*
X87014050Y-147369439D01*
X87044892Y-147307753D01*
X87044892Y-147246067D01*
X87014050Y-147184382D01*
X86952364Y-147153539D01*
X86798150Y-147153539D01*
X86736464Y-147122696D01*
X86428035Y-146968482D02*
X86428035Y-147400282D01*
X86428035Y-147030167D02*
X86397192Y-146999325D01*
X86335507Y-146968482D01*
X86242978Y-146968482D01*
X86181292Y-146999325D01*
X86150450Y-147061010D01*
X86150450Y-147400282D01*
X85564435Y-147400282D02*
X85564435Y-146752582D01*
X85564435Y-147369439D02*
X85626121Y-147400282D01*
X85749492Y-147400282D01*
X85811178Y-147369439D01*
X85842021Y-147338596D01*
X85872864Y-147276910D01*
X85872864Y-147091853D01*
X85842021Y-147030167D01*
X85811178Y-146999325D01*
X85749492Y-146968482D01*
X85626121Y-146968482D01*
X85564435Y-146999325D01*
X84762521Y-147400282D02*
X84762521Y-146968482D01*
X84762521Y-146752582D02*
X84793364Y-146783425D01*
X84762521Y-146814267D01*
X84731678Y-146783425D01*
X84762521Y-146752582D01*
X84762521Y-146814267D01*
X84454092Y-146968482D02*
X84454092Y-147400282D01*
X84454092Y-147030167D02*
X84423250Y-146999325D01*
X84361564Y-146968482D01*
X84269035Y-146968482D01*
X84207350Y-146999325D01*
X84176507Y-147061010D01*
X84176507Y-147400282D01*
X83929764Y-146968482D02*
X83775550Y-147400282D01*
X83621335Y-146968482D01*
X83097007Y-147400282D02*
X83097007Y-147061010D01*
X83127850Y-146999325D01*
X83189535Y-146968482D01*
X83312907Y-146968482D01*
X83374592Y-146999325D01*
X83097007Y-147369439D02*
X83158692Y-147400282D01*
X83312907Y-147400282D01*
X83374592Y-147369439D01*
X83405435Y-147307753D01*
X83405435Y-147246067D01*
X83374592Y-147184382D01*
X83312907Y-147153539D01*
X83158692Y-147153539D01*
X83097007Y-147122696D01*
X82510992Y-147400282D02*
X82510992Y-146752582D01*
X82510992Y-147369439D02*
X82572678Y-147400282D01*
X82696050Y-147400282D01*
X82757735Y-147369439D01*
X82788578Y-147338596D01*
X82819421Y-147276910D01*
X82819421Y-147091853D01*
X82788578Y-147030167D01*
X82757735Y-146999325D01*
X82696050Y-146968482D01*
X82572678Y-146968482D01*
X82510992Y-146999325D01*
X81955821Y-147369439D02*
X82017507Y-147400282D01*
X82140878Y-147400282D01*
X82202564Y-147369439D01*
X82233407Y-147307753D01*
X82233407Y-147061010D01*
X82202564Y-146999325D01*
X82140878Y-146968482D01*
X82017507Y-146968482D01*
X81955821Y-146999325D01*
X81924978Y-147061010D01*
X81924978Y-147122696D01*
X82233407Y-147184382D01*
X81647392Y-147400282D02*
X81647392Y-146968482D01*
X81647392Y-147091853D02*
X81616550Y-147030167D01*
X81585707Y-146999325D01*
X81524021Y-146968482D01*
X81462335Y-146968482D01*
X81277278Y-147369439D02*
X81215592Y-147400282D01*
X81092221Y-147400282D01*
X81030535Y-147369439D01*
X80999692Y-147307753D01*
X80999692Y-147276910D01*
X81030535Y-147215225D01*
X81092221Y-147184382D01*
X81184750Y-147184382D01*
X81246435Y-147153539D01*
X81277278Y-147091853D01*
X81277278Y-147061010D01*
X81246435Y-146999325D01*
X81184750Y-146968482D01*
X81092221Y-146968482D01*
X81030535Y-146999325D01*
X79796821Y-146968482D02*
X79642607Y-147400282D01*
X79488392Y-146968482D01*
X79118278Y-146752582D02*
X79056592Y-146752582D01*
X78994907Y-146783425D01*
X78964064Y-146814267D01*
X78933221Y-146875953D01*
X78902378Y-146999325D01*
X78902378Y-147153539D01*
X78933221Y-147276910D01*
X78964064Y-147338596D01*
X78994907Y-147369439D01*
X79056592Y-147400282D01*
X79118278Y-147400282D01*
X79179964Y-147369439D01*
X79210807Y-147338596D01*
X79241650Y-147276910D01*
X79272492Y-147153539D01*
X79272492Y-146999325D01*
X79241650Y-146875953D01*
X79210807Y-146814267D01*
X79179964Y-146783425D01*
X79118278Y-146752582D01*
X78624792Y-147338596D02*
X78593950Y-147369439D01*
X78624792Y-147400282D01*
X78655635Y-147369439D01*
X78624792Y-147338596D01*
X78624792Y-147400282D01*
X77977092Y-147400282D02*
X78347207Y-147400282D01*
X78162150Y-147400282D02*
X78162150Y-146752582D01*
X78223835Y-146845110D01*
X78285521Y-146906796D01*
X78347207Y-146937639D01*
X87415007Y-148005346D02*
X87476692Y-147974503D01*
X87600064Y-147974503D01*
X87661750Y-148005346D01*
X87723435Y-148067032D01*
X87754278Y-148128717D01*
X87754278Y-148252089D01*
X87723435Y-148313775D01*
X87661750Y-148375460D01*
X87600064Y-148406303D01*
X87476692Y-148406303D01*
X87415007Y-148375460D01*
X87538378Y-147758603D02*
X87692592Y-147789446D01*
X87846807Y-147881975D01*
X87939335Y-148036189D01*
X87970178Y-148190403D01*
X87939335Y-148344617D01*
X87846807Y-148498832D01*
X87692592Y-148591360D01*
X87538378Y-148622203D01*
X87384164Y-148591360D01*
X87229950Y-148498832D01*
X87137421Y-148344617D01*
X87106578Y-148190403D01*
X87137421Y-148036189D01*
X87229950Y-147881975D01*
X87384164Y-147789446D01*
X87538378Y-147758603D01*
X86366350Y-147912817D02*
X86335507Y-147881975D01*
X86273821Y-147851132D01*
X86119607Y-147851132D01*
X86057921Y-147881975D01*
X86027078Y-147912817D01*
X85996235Y-147974503D01*
X85996235Y-148036189D01*
X86027078Y-148128717D01*
X86397192Y-148498832D01*
X85996235Y-148498832D01*
X85595278Y-147851132D02*
X85533592Y-147851132D01*
X85471907Y-147881975D01*
X85441064Y-147912817D01*
X85410221Y-147974503D01*
X85379378Y-148097875D01*
X85379378Y-148252089D01*
X85410221Y-148375460D01*
X85441064Y-148437146D01*
X85471907Y-148467989D01*
X85533592Y-148498832D01*
X85595278Y-148498832D01*
X85656964Y-148467989D01*
X85687807Y-148437146D01*
X85718650Y-148375460D01*
X85749492Y-148252089D01*
X85749492Y-148097875D01*
X85718650Y-147974503D01*
X85687807Y-147912817D01*
X85656964Y-147881975D01*
X85595278Y-147851132D01*
X84762521Y-148498832D02*
X85132635Y-148498832D01*
X84947578Y-148498832D02*
X84947578Y-147851132D01*
X85009264Y-147943660D01*
X85070950Y-148005346D01*
X85132635Y-148036189D01*
X84454092Y-148498832D02*
X84330721Y-148498832D01*
X84269035Y-148467989D01*
X84238192Y-148437146D01*
X84176507Y-148344617D01*
X84145664Y-148221246D01*
X84145664Y-147974503D01*
X84176507Y-147912817D01*
X84207350Y-147881975D01*
X84269035Y-147851132D01*
X84392407Y-147851132D01*
X84454092Y-147881975D01*
X84484935Y-147912817D01*
X84515778Y-147974503D01*
X84515778Y-148128717D01*
X84484935Y-148190403D01*
X84454092Y-148221246D01*
X84392407Y-148252089D01*
X84269035Y-148252089D01*
X84207350Y-148221246D01*
X84176507Y-148190403D01*
X84145664Y-148128717D01*
X83097007Y-148498832D02*
X83097007Y-148159560D01*
X83127850Y-148097875D01*
X83189535Y-148067032D01*
X83312907Y-148067032D01*
X83374592Y-148097875D01*
X83097007Y-148467989D02*
X83158692Y-148498832D01*
X83312907Y-148498832D01*
X83374592Y-148467989D01*
X83405435Y-148406303D01*
X83405435Y-148344617D01*
X83374592Y-148282932D01*
X83312907Y-148252089D01*
X83158692Y-148252089D01*
X83097007Y-148221246D01*
X82788578Y-148437146D02*
X82757735Y-148467989D01*
X82788578Y-148498832D01*
X82819421Y-148467989D01*
X82788578Y-148437146D01*
X82788578Y-148498832D01*
X82480150Y-148498832D02*
X82480150Y-147851132D01*
X82202564Y-148498832D02*
X82202564Y-148159560D01*
X82233407Y-148097875D01*
X82295092Y-148067032D01*
X82387621Y-148067032D01*
X82449307Y-148097875D01*
X82480150Y-148128717D01*
X81894135Y-148437146D02*
X81863292Y-148467989D01*
X81894135Y-148498832D01*
X81924978Y-148467989D01*
X81894135Y-148437146D01*
X81894135Y-148498832D01*
X81616550Y-148467989D02*
X81554864Y-148498832D01*
X81431492Y-148498832D01*
X81369807Y-148467989D01*
X81338964Y-148406303D01*
X81338964Y-148375460D01*
X81369807Y-148313775D01*
X81431492Y-148282932D01*
X81524021Y-148282932D01*
X81585707Y-148252089D01*
X81616550Y-148190403D01*
X81616550Y-148159560D01*
X81585707Y-148097875D01*
X81524021Y-148067032D01*
X81431492Y-148067032D01*
X81369807Y-148097875D01*
X81061378Y-148437146D02*
X81030535Y-148467989D01*
X81061378Y-148498832D01*
X81092221Y-148467989D01*
X81061378Y-148437146D01*
X81061378Y-148498832D01*
X80259464Y-148498832D02*
X80259464Y-147851132D01*
X80259464Y-148097875D02*
X80197778Y-148067032D01*
X80074407Y-148067032D01*
X80012721Y-148097875D01*
X79981878Y-148128717D01*
X79951035Y-148190403D01*
X79951035Y-148375460D01*
X79981878Y-148437146D01*
X80012721Y-148467989D01*
X80074407Y-148498832D01*
X80197778Y-148498832D01*
X80259464Y-148467989D01*
X79395864Y-148498832D02*
X79395864Y-148159560D01*
X79426707Y-148097875D01*
X79488392Y-148067032D01*
X79611764Y-148067032D01*
X79673450Y-148097875D01*
X79395864Y-148467989D02*
X79457550Y-148498832D01*
X79611764Y-148498832D01*
X79673450Y-148467989D01*
X79704292Y-148406303D01*
X79704292Y-148344617D01*
X79673450Y-148282932D01*
X79611764Y-148252089D01*
X79457550Y-148252089D01*
X79395864Y-148221246D01*
X78809850Y-148067032D02*
X78809850Y-148591360D01*
X78840692Y-148653046D01*
X78871535Y-148683889D01*
X78933221Y-148714732D01*
X79025750Y-148714732D01*
X79087435Y-148683889D01*
X78809850Y-148467989D02*
X78871535Y-148498832D01*
X78994907Y-148498832D01*
X79056592Y-148467989D01*
X79087435Y-148437146D01*
X79118278Y-148375460D01*
X79118278Y-148190403D01*
X79087435Y-148128717D01*
X79056592Y-148097875D01*
X78994907Y-148067032D01*
X78871535Y-148067032D01*
X78809850Y-148097875D01*
X78223835Y-148067032D02*
X78223835Y-148591360D01*
X78254678Y-148653046D01*
X78285521Y-148683889D01*
X78347207Y-148714732D01*
X78439735Y-148714732D01*
X78501421Y-148683889D01*
X78223835Y-148467989D02*
X78285521Y-148498832D01*
X78408892Y-148498832D01*
X78470578Y-148467989D01*
X78501421Y-148437146D01*
X78532264Y-148375460D01*
X78532264Y-148190403D01*
X78501421Y-148128717D01*
X78470578Y-148097875D01*
X78408892Y-148067032D01*
X78285521Y-148067032D01*
X78223835Y-148097875D01*
X77668664Y-148467989D02*
X77730350Y-148498832D01*
X77853721Y-148498832D01*
X77915407Y-148467989D01*
X77946250Y-148406303D01*
X77946250Y-148159560D01*
X77915407Y-148097875D01*
X77853721Y-148067032D01*
X77730350Y-148067032D01*
X77668664Y-148097875D01*
X77637821Y-148159560D01*
X77637821Y-148221246D01*
X77946250Y-148282932D01*
D11*
X59944000Y-107442000D02*
X59944000Y-104902000D01*
X54356000Y-107442000D02*
X59944000Y-107442000D01*
X54356000Y-109728000D02*
X54356000Y-107442000D01*
X43434000Y-109728000D02*
X54356000Y-109728000D01*
X43434000Y-105918000D02*
X43434000Y-109728000D01*
X51054000Y-105918000D02*
X43434000Y-105918000D01*
X51054000Y-104902000D02*
X51054000Y-105918000D01*
X59944000Y-104902000D02*
X51054000Y-104902000D01*
X53340000Y-87884000D02*
X53340000Y-96012000D01*
X55880000Y-87884000D02*
X53340000Y-87884000D01*
X55880000Y-94742000D02*
X55880000Y-87884000D01*
X45720000Y-96012000D02*
X53340000Y-96012000D01*
X45720000Y-101600000D02*
X45720000Y-96012000D01*
X53340000Y-101600000D02*
X45720000Y-101600000D01*
X53340000Y-99822000D02*
X53340000Y-101600000D01*
X63246000Y-99822000D02*
X53340000Y-99822000D01*
X63246000Y-94742000D02*
X63246000Y-99822000D01*
X55880000Y-94742000D02*
X63246000Y-94742000D01*
D10*
X79622650Y-109073950D02*
X79314221Y-109073950D01*
X79684335Y-109259007D02*
X79468435Y-108611307D01*
X79252535Y-109259007D01*
X79129164Y-108611307D02*
X78759050Y-108611307D01*
X78944107Y-109259007D02*
X78944107Y-108611307D01*
X78543150Y-109259007D02*
X78543150Y-108827207D01*
X78543150Y-108888892D02*
X78512307Y-108858050D01*
X78450621Y-108827207D01*
X78358092Y-108827207D01*
X78296407Y-108858050D01*
X78265564Y-108919735D01*
X78265564Y-109259007D01*
X78265564Y-108919735D02*
X78234721Y-108858050D01*
X78173035Y-108827207D01*
X78080507Y-108827207D01*
X78018821Y-108858050D01*
X77987978Y-108919735D01*
X77987978Y-109259007D01*
X77432807Y-109228164D02*
X77494492Y-109259007D01*
X77617864Y-109259007D01*
X77679550Y-109228164D01*
X77710392Y-109166478D01*
X77710392Y-108919735D01*
X77679550Y-108858050D01*
X77617864Y-108827207D01*
X77494492Y-108827207D01*
X77432807Y-108858050D01*
X77401964Y-108919735D01*
X77401964Y-108981421D01*
X77710392Y-109043107D01*
X76846792Y-108827207D02*
X76846792Y-109351535D01*
X76877635Y-109413221D01*
X76908478Y-109444064D01*
X76970164Y-109474907D01*
X77062692Y-109474907D01*
X77124378Y-109444064D01*
X76846792Y-109228164D02*
X76908478Y-109259007D01*
X77031850Y-109259007D01*
X77093535Y-109228164D01*
X77124378Y-109197321D01*
X77155221Y-109135635D01*
X77155221Y-108950578D01*
X77124378Y-108888892D01*
X77093535Y-108858050D01*
X77031850Y-108827207D01*
X76908478Y-108827207D01*
X76846792Y-108858050D01*
X76260778Y-109259007D02*
X76260778Y-108919735D01*
X76291621Y-108858050D01*
X76353307Y-108827207D01*
X76476678Y-108827207D01*
X76538364Y-108858050D01*
X76260778Y-109228164D02*
X76322464Y-109259007D01*
X76476678Y-109259007D01*
X76538364Y-109228164D01*
X76569207Y-109166478D01*
X76569207Y-109104792D01*
X76538364Y-109043107D01*
X76476678Y-109012264D01*
X76322464Y-109012264D01*
X76260778Y-108981421D01*
X76014035Y-108611307D02*
X75613078Y-108611307D01*
X75828978Y-108858050D01*
X75736450Y-108858050D01*
X75674764Y-108888892D01*
X75643921Y-108919735D01*
X75613078Y-108981421D01*
X75613078Y-109135635D01*
X75643921Y-109197321D01*
X75674764Y-109228164D01*
X75736450Y-109259007D01*
X75921507Y-109259007D01*
X75983192Y-109228164D01*
X76014035Y-109197321D01*
X75366335Y-108672992D02*
X75335492Y-108642150D01*
X75273807Y-108611307D01*
X75119592Y-108611307D01*
X75057907Y-108642150D01*
X75027064Y-108672992D01*
X74996221Y-108734678D01*
X74996221Y-108796364D01*
X75027064Y-108888892D01*
X75397178Y-109259007D01*
X74996221Y-109259007D01*
X74626107Y-108888892D02*
X74687792Y-108858050D01*
X74718635Y-108827207D01*
X74749478Y-108765521D01*
X74749478Y-108734678D01*
X74718635Y-108672992D01*
X74687792Y-108642150D01*
X74626107Y-108611307D01*
X74502735Y-108611307D01*
X74441050Y-108642150D01*
X74410207Y-108672992D01*
X74379364Y-108734678D01*
X74379364Y-108765521D01*
X74410207Y-108827207D01*
X74441050Y-108858050D01*
X74502735Y-108888892D01*
X74626107Y-108888892D01*
X74687792Y-108919735D01*
X74718635Y-108950578D01*
X74749478Y-109012264D01*
X74749478Y-109135635D01*
X74718635Y-109197321D01*
X74687792Y-109228164D01*
X74626107Y-109259007D01*
X74502735Y-109259007D01*
X74441050Y-109228164D01*
X74410207Y-109197321D01*
X74379364Y-109135635D01*
X74379364Y-109012264D01*
X74410207Y-108950578D01*
X74441050Y-108919735D01*
X74502735Y-108888892D01*
X74101778Y-108827207D02*
X74101778Y-109474907D01*
X74101778Y-108858050D02*
X74040092Y-108827207D01*
X73916721Y-108827207D01*
X73855035Y-108858050D01*
X73824192Y-108888892D01*
X73793350Y-108950578D01*
X73793350Y-109135635D01*
X73824192Y-109197321D01*
X73855035Y-109228164D01*
X73916721Y-109259007D01*
X74040092Y-109259007D01*
X74101778Y-109228164D01*
X51776992Y-118139028D02*
X51746150Y-118169871D01*
X51715307Y-118231557D01*
X51715307Y-118385771D01*
X51746150Y-118447457D01*
X51776992Y-118478300D01*
X51838678Y-118509142D01*
X51900364Y-118509142D01*
X51992892Y-118478300D01*
X52363007Y-118108185D01*
X52363007Y-118509142D01*
X52301321Y-118786728D02*
X52332164Y-118817571D01*
X52363007Y-118786728D01*
X52332164Y-118755885D01*
X52301321Y-118786728D01*
X52363007Y-118786728D01*
X51931207Y-119372742D02*
X52363007Y-119372742D01*
X51684464Y-119218528D02*
X52147107Y-119064314D01*
X52147107Y-119465271D01*
X51776992Y-119681171D02*
X51746150Y-119712014D01*
X51715307Y-119773700D01*
X51715307Y-119927914D01*
X51746150Y-119989600D01*
X51776992Y-120020442D01*
X51838678Y-120051285D01*
X51900364Y-120051285D01*
X51992892Y-120020442D01*
X52363007Y-119650328D01*
X52363007Y-120051285D01*
X51715307Y-120298028D02*
X51838678Y-120298028D01*
X51715307Y-120544771D02*
X51838678Y-120544771D01*
X52332164Y-121285000D02*
X52363007Y-121377528D01*
X52363007Y-121531742D01*
X52332164Y-121593428D01*
X52301321Y-121624271D01*
X52239635Y-121655114D01*
X52177950Y-121655114D01*
X52116264Y-121624271D01*
X52085421Y-121593428D01*
X52054578Y-121531742D01*
X52023735Y-121408371D01*
X51992892Y-121346685D01*
X51962050Y-121315842D01*
X51900364Y-121285000D01*
X51838678Y-121285000D01*
X51776992Y-121315842D01*
X51746150Y-121346685D01*
X51715307Y-121408371D01*
X51715307Y-121562585D01*
X51746150Y-121655114D01*
X52363007Y-121932700D02*
X51715307Y-121932700D01*
X51715307Y-122179442D01*
X51746150Y-122241128D01*
X51776992Y-122271971D01*
X51838678Y-122302814D01*
X51931207Y-122302814D01*
X51992892Y-122271971D01*
X52023735Y-122241128D01*
X52054578Y-122179442D01*
X52054578Y-121932700D01*
X52363007Y-122580400D02*
X51715307Y-122580400D01*
X51715307Y-123505685D02*
X51715307Y-123629057D01*
X51746150Y-123690742D01*
X51807835Y-123752428D01*
X51931207Y-123783271D01*
X52147107Y-123783271D01*
X52270478Y-123752428D01*
X52332164Y-123690742D01*
X52363007Y-123629057D01*
X52363007Y-123505685D01*
X52332164Y-123444000D01*
X52270478Y-123382314D01*
X52147107Y-123351471D01*
X51931207Y-123351471D01*
X51807835Y-123382314D01*
X51746150Y-123444000D01*
X51715307Y-123505685D01*
X52363007Y-124369285D02*
X52363007Y-124060857D01*
X51715307Y-124060857D01*
X52023735Y-124585185D02*
X52023735Y-124801085D01*
X52363007Y-124893614D02*
X52363007Y-124585185D01*
X51715307Y-124585185D01*
X51715307Y-124893614D01*
X52363007Y-125171200D02*
X51715307Y-125171200D01*
X51715307Y-125325414D01*
X51746150Y-125417942D01*
X51807835Y-125479628D01*
X51869521Y-125510471D01*
X51992892Y-125541314D01*
X52085421Y-125541314D01*
X52208792Y-125510471D01*
X52270478Y-125479628D01*
X52332164Y-125417942D01*
X52363007Y-125325414D01*
X52363007Y-125171200D01*
X52363007Y-126312385D02*
X51715307Y-126312385D01*
X51715307Y-126559128D01*
X51746150Y-126620814D01*
X51776992Y-126651657D01*
X51838678Y-126682500D01*
X51931207Y-126682500D01*
X51992892Y-126651657D01*
X52023735Y-126620814D01*
X52054578Y-126559128D01*
X52054578Y-126312385D01*
X52363007Y-127237671D02*
X52023735Y-127237671D01*
X51962050Y-127206828D01*
X51931207Y-127145142D01*
X51931207Y-127021771D01*
X51962050Y-126960085D01*
X52332164Y-127237671D02*
X52363007Y-127175985D01*
X52363007Y-127021771D01*
X52332164Y-126960085D01*
X52270478Y-126929242D01*
X52208792Y-126929242D01*
X52147107Y-126960085D01*
X52116264Y-127021771D01*
X52116264Y-127175985D01*
X52085421Y-127237671D01*
X51931207Y-127546100D02*
X52363007Y-127546100D01*
X51992892Y-127546100D02*
X51962050Y-127576942D01*
X51931207Y-127638628D01*
X51931207Y-127731157D01*
X51962050Y-127792842D01*
X52023735Y-127823685D01*
X52363007Y-127823685D01*
X52332164Y-128378857D02*
X52363007Y-128317171D01*
X52363007Y-128193800D01*
X52332164Y-128132114D01*
X52270478Y-128101271D01*
X52023735Y-128101271D01*
X51962050Y-128132114D01*
X51931207Y-128193800D01*
X51931207Y-128317171D01*
X51962050Y-128378857D01*
X52023735Y-128409700D01*
X52085421Y-128409700D01*
X52147107Y-128101271D01*
X52363007Y-128779814D02*
X52332164Y-128718128D01*
X52270478Y-128687285D01*
X51715307Y-128687285D01*
X85997142Y-119165007D02*
X85997142Y-118517307D01*
X85719557Y-118578992D02*
X85688714Y-118548150D01*
X85627028Y-118517307D01*
X85472814Y-118517307D01*
X85411128Y-118548150D01*
X85380285Y-118578992D01*
X85349442Y-118640678D01*
X85349442Y-118702364D01*
X85380285Y-118794892D01*
X85750399Y-119165007D01*
X85349442Y-119165007D01*
X84701742Y-119103321D02*
X84732585Y-119134164D01*
X84825114Y-119165007D01*
X84886800Y-119165007D01*
X84979328Y-119134164D01*
X85041014Y-119072478D01*
X85071857Y-119010792D01*
X85102700Y-118887421D01*
X85102700Y-118794892D01*
X85071857Y-118671521D01*
X85041014Y-118609835D01*
X84979328Y-118548150D01*
X84886800Y-118517307D01*
X84825114Y-118517307D01*
X84732585Y-118548150D01*
X84701742Y-118578992D01*
X83807299Y-118517307D02*
X83683928Y-118517307D01*
X83622242Y-118548150D01*
X83560557Y-118609835D01*
X83529714Y-118733207D01*
X83529714Y-118949107D01*
X83560557Y-119072478D01*
X83622242Y-119134164D01*
X83683928Y-119165007D01*
X83807299Y-119165007D01*
X83868985Y-119134164D01*
X83930671Y-119072478D01*
X83961514Y-118949107D01*
X83961514Y-118733207D01*
X83930671Y-118609835D01*
X83868985Y-118548150D01*
X83807299Y-118517307D01*
X82943699Y-119165007D02*
X83252128Y-119165007D01*
X83252128Y-118517307D01*
X82727799Y-118825735D02*
X82511899Y-118825735D01*
X82419371Y-119165007D02*
X82727799Y-119165007D01*
X82727799Y-118517307D01*
X82419371Y-118517307D01*
X82141785Y-119165007D02*
X82141785Y-118517307D01*
X81987571Y-118517307D01*
X81895042Y-118548150D01*
X81833357Y-118609835D01*
X81802514Y-118671521D01*
X81771671Y-118794892D01*
X81771671Y-118887421D01*
X81802514Y-119010792D01*
X81833357Y-119072478D01*
X81895042Y-119134164D01*
X81987571Y-119165007D01*
X82141785Y-119165007D01*
X81000599Y-119165007D02*
X81000599Y-118517307D01*
X80753857Y-118517307D01*
X80692171Y-118548150D01*
X80661328Y-118578992D01*
X80630485Y-118640678D01*
X80630485Y-118733207D01*
X80661328Y-118794892D01*
X80692171Y-118825735D01*
X80753857Y-118856578D01*
X81000599Y-118856578D01*
X80075314Y-119165007D02*
X80075314Y-118825735D01*
X80106157Y-118764050D01*
X80167842Y-118733207D01*
X80291214Y-118733207D01*
X80352899Y-118764050D01*
X80075314Y-119134164D02*
X80136999Y-119165007D01*
X80291214Y-119165007D01*
X80352899Y-119134164D01*
X80383742Y-119072478D01*
X80383742Y-119010792D01*
X80352899Y-118949107D01*
X80291214Y-118918264D01*
X80136999Y-118918264D01*
X80075314Y-118887421D01*
X79766885Y-118733207D02*
X79766885Y-119165007D01*
X79766885Y-118794892D02*
X79736042Y-118764050D01*
X79674357Y-118733207D01*
X79581828Y-118733207D01*
X79520142Y-118764050D01*
X79489299Y-118825735D01*
X79489299Y-119165007D01*
X78934128Y-119134164D02*
X78995814Y-119165007D01*
X79119185Y-119165007D01*
X79180871Y-119134164D01*
X79211714Y-119072478D01*
X79211714Y-118825735D01*
X79180871Y-118764050D01*
X79119185Y-118733207D01*
X78995814Y-118733207D01*
X78934128Y-118764050D01*
X78903285Y-118825735D01*
X78903285Y-118887421D01*
X79211714Y-118949107D01*
X78533171Y-119165007D02*
X78594857Y-119134164D01*
X78625699Y-119072478D01*
X78625699Y-118517307D01*
X87191850Y-115832164D02*
X87099321Y-115863007D01*
X86945107Y-115863007D01*
X86883421Y-115832164D01*
X86852578Y-115801321D01*
X86821735Y-115739635D01*
X86821735Y-115677950D01*
X86852578Y-115616264D01*
X86883421Y-115585421D01*
X86945107Y-115554578D01*
X87068478Y-115523735D01*
X87130164Y-115492892D01*
X87161007Y-115462050D01*
X87191850Y-115400364D01*
X87191850Y-115338678D01*
X87161007Y-115276992D01*
X87130164Y-115246150D01*
X87068478Y-115215307D01*
X86914264Y-115215307D01*
X86821735Y-115246150D01*
X86544150Y-115863007D02*
X86544150Y-115215307D01*
X86389935Y-115215307D01*
X86297407Y-115246150D01*
X86235721Y-115307835D01*
X86204878Y-115369521D01*
X86174035Y-115492892D01*
X86174035Y-115585421D01*
X86204878Y-115708792D01*
X86235721Y-115770478D01*
X86297407Y-115832164D01*
X86389935Y-115863007D01*
X86544150Y-115863007D01*
X85927292Y-115677950D02*
X85618864Y-115677950D01*
X85988978Y-115863007D02*
X85773078Y-115215307D01*
X85557178Y-115863007D01*
X84385150Y-115832164D02*
X84292621Y-115863007D01*
X84138407Y-115863007D01*
X84076721Y-115832164D01*
X84045878Y-115801321D01*
X84015035Y-115739635D01*
X84015035Y-115677950D01*
X84045878Y-115616264D01*
X84076721Y-115585421D01*
X84138407Y-115554578D01*
X84261778Y-115523735D01*
X84323464Y-115492892D01*
X84354307Y-115462050D01*
X84385150Y-115400364D01*
X84385150Y-115338678D01*
X84354307Y-115276992D01*
X84323464Y-115246150D01*
X84261778Y-115215307D01*
X84107564Y-115215307D01*
X84015035Y-115246150D01*
X83367335Y-115801321D02*
X83398178Y-115832164D01*
X83490707Y-115863007D01*
X83552392Y-115863007D01*
X83644921Y-115832164D01*
X83706607Y-115770478D01*
X83737450Y-115708792D01*
X83768292Y-115585421D01*
X83768292Y-115492892D01*
X83737450Y-115369521D01*
X83706607Y-115307835D01*
X83644921Y-115246150D01*
X83552392Y-115215307D01*
X83490707Y-115215307D01*
X83398178Y-115246150D01*
X83367335Y-115276992D01*
X82781321Y-115863007D02*
X83089750Y-115863007D01*
X83089750Y-115215307D01*
X81732664Y-115246150D02*
X81794350Y-115215307D01*
X81886878Y-115215307D01*
X81979407Y-115246150D01*
X82041092Y-115307835D01*
X82071935Y-115369521D01*
X82102778Y-115492892D01*
X82102778Y-115585421D01*
X82071935Y-115708792D01*
X82041092Y-115770478D01*
X81979407Y-115832164D01*
X81886878Y-115863007D01*
X81825192Y-115863007D01*
X81732664Y-115832164D01*
X81701821Y-115801321D01*
X81701821Y-115585421D01*
X81825192Y-115585421D01*
X81424235Y-115863007D02*
X81424235Y-115215307D01*
X81054121Y-115863007D01*
X81054121Y-115215307D01*
X80745692Y-115863007D02*
X80745692Y-115215307D01*
X80591478Y-115215307D01*
X80498950Y-115246150D01*
X80437264Y-115307835D01*
X80406421Y-115369521D01*
X80375578Y-115492892D01*
X80375578Y-115585421D01*
X80406421Y-115708792D01*
X80437264Y-115770478D01*
X80498950Y-115832164D01*
X80591478Y-115863007D01*
X80745692Y-115863007D01*
X79604507Y-115616264D02*
X79111021Y-115616264D01*
X79357764Y-115863007D02*
X79357764Y-115369521D01*
X78494164Y-115215307D02*
X78802592Y-115215307D01*
X78833435Y-115523735D01*
X78802592Y-115492892D01*
X78740907Y-115462050D01*
X78586692Y-115462050D01*
X78525007Y-115492892D01*
X78494164Y-115523735D01*
X78463321Y-115585421D01*
X78463321Y-115739635D01*
X78494164Y-115801321D01*
X78525007Y-115832164D01*
X78586692Y-115863007D01*
X78740907Y-115863007D01*
X78802592Y-115832164D01*
X78833435Y-115801321D01*
X78278264Y-115215307D02*
X78062364Y-115863007D01*
X77846464Y-115215307D01*
X51031321Y-115620800D02*
X51062164Y-115589957D01*
X51093007Y-115497428D01*
X51093007Y-115435742D01*
X51062164Y-115343214D01*
X51000478Y-115281528D01*
X50938792Y-115250685D01*
X50815421Y-115219842D01*
X50722892Y-115219842D01*
X50599521Y-115250685D01*
X50537835Y-115281528D01*
X50476150Y-115343214D01*
X50445307Y-115435742D01*
X50445307Y-115497428D01*
X50476150Y-115589957D01*
X50506992Y-115620800D01*
X51062164Y-115867542D02*
X51093007Y-115960071D01*
X51093007Y-116114285D01*
X51062164Y-116175971D01*
X51031321Y-116206814D01*
X50969635Y-116237657D01*
X50907950Y-116237657D01*
X50846264Y-116206814D01*
X50815421Y-116175971D01*
X50784578Y-116114285D01*
X50753735Y-115990914D01*
X50722892Y-115929228D01*
X50692050Y-115898385D01*
X50630364Y-115867542D01*
X50568678Y-115867542D01*
X50506992Y-115898385D01*
X50476150Y-115929228D01*
X50445307Y-115990914D01*
X50445307Y-116145128D01*
X50476150Y-116237657D01*
X51093007Y-117502214D02*
X50445307Y-117502214D01*
X50445307Y-117656428D01*
X50476150Y-117748957D01*
X50537835Y-117810642D01*
X50599521Y-117841485D01*
X50722892Y-117872328D01*
X50815421Y-117872328D01*
X50938792Y-117841485D01*
X51000478Y-117810642D01*
X51062164Y-117748957D01*
X51093007Y-117656428D01*
X51093007Y-117502214D01*
X51031321Y-118520028D02*
X51062164Y-118489185D01*
X51093007Y-118396657D01*
X51093007Y-118334971D01*
X51062164Y-118242442D01*
X51000478Y-118180757D01*
X50938792Y-118149914D01*
X50815421Y-118119071D01*
X50722892Y-118119071D01*
X50599521Y-118149914D01*
X50537835Y-118180757D01*
X50476150Y-118242442D01*
X50445307Y-118334971D01*
X50445307Y-118396657D01*
X50476150Y-118489185D01*
X50506992Y-118520028D01*
X50168556Y-119630371D02*
X50168556Y-120278071D01*
X51093007Y-120154700D02*
X50784578Y-119938800D01*
X51093007Y-119784585D02*
X50445307Y-119784585D01*
X50445307Y-120031328D01*
X50476150Y-120093014D01*
X50506992Y-120123857D01*
X50568678Y-120154700D01*
X50661207Y-120154700D01*
X50722892Y-120123857D01*
X50753735Y-120093014D01*
X50784578Y-120031328D01*
X50784578Y-119784585D01*
X50168556Y-120278071D02*
X50168556Y-120894928D01*
X51062164Y-120401442D02*
X51093007Y-120493971D01*
X51093007Y-120648185D01*
X51062164Y-120709871D01*
X51031321Y-120740714D01*
X50969635Y-120771557D01*
X50907950Y-120771557D01*
X50846264Y-120740714D01*
X50815421Y-120709871D01*
X50784578Y-120648185D01*
X50753735Y-120524814D01*
X50722892Y-120463128D01*
X50692050Y-120432285D01*
X50630364Y-120401442D01*
X50568678Y-120401442D01*
X50506992Y-120432285D01*
X50476150Y-120463128D01*
X50445307Y-120524814D01*
X50445307Y-120679028D01*
X50476150Y-120771557D01*
X50168556Y-120894928D02*
X50168556Y-121388414D01*
X50445307Y-120956614D02*
X50445307Y-121326728D01*
X51093007Y-121141671D02*
X50445307Y-121141671D01*
X51093007Y-122529600D02*
X50445307Y-122529600D01*
X50907950Y-122745500D01*
X50445307Y-122961400D01*
X51093007Y-122961400D01*
X50445307Y-123393200D02*
X50445307Y-123516571D01*
X50476150Y-123578257D01*
X50537835Y-123639942D01*
X50661207Y-123670785D01*
X50877107Y-123670785D01*
X51000478Y-123639942D01*
X51062164Y-123578257D01*
X51093007Y-123516571D01*
X51093007Y-123393200D01*
X51062164Y-123331514D01*
X51000478Y-123269828D01*
X50877107Y-123238985D01*
X50661207Y-123238985D01*
X50537835Y-123269828D01*
X50476150Y-123331514D01*
X50445307Y-123393200D01*
X51062164Y-123917528D02*
X51093007Y-124010057D01*
X51093007Y-124164271D01*
X51062164Y-124225957D01*
X51031321Y-124256800D01*
X50969635Y-124287642D01*
X50907950Y-124287642D01*
X50846264Y-124256800D01*
X50815421Y-124225957D01*
X50784578Y-124164271D01*
X50753735Y-124040900D01*
X50722892Y-123979214D01*
X50692050Y-123948371D01*
X50630364Y-123917528D01*
X50568678Y-123917528D01*
X50506992Y-123948371D01*
X50476150Y-123979214D01*
X50445307Y-124040900D01*
X50445307Y-124195114D01*
X50476150Y-124287642D01*
X51093007Y-124565228D02*
X50445307Y-124565228D01*
X51062164Y-125336300D02*
X51093007Y-125428828D01*
X51093007Y-125583042D01*
X51062164Y-125644728D01*
X51031321Y-125675571D01*
X50969635Y-125706414D01*
X50907950Y-125706414D01*
X50846264Y-125675571D01*
X50815421Y-125644728D01*
X50784578Y-125583042D01*
X50753735Y-125459671D01*
X50722892Y-125397985D01*
X50692050Y-125367142D01*
X50630364Y-125336300D01*
X50568678Y-125336300D01*
X50506992Y-125367142D01*
X50476150Y-125397985D01*
X50445307Y-125459671D01*
X50445307Y-125613885D01*
X50476150Y-125706414D01*
X51031321Y-126354114D02*
X51062164Y-126323271D01*
X51093007Y-126230742D01*
X51093007Y-126169057D01*
X51062164Y-126076528D01*
X51000478Y-126014842D01*
X50938792Y-125984000D01*
X50815421Y-125953157D01*
X50722892Y-125953157D01*
X50599521Y-125984000D01*
X50537835Y-126014842D01*
X50476150Y-126076528D01*
X50445307Y-126169057D01*
X50445307Y-126230742D01*
X50476150Y-126323271D01*
X50506992Y-126354114D01*
X51093007Y-126631700D02*
X50445307Y-126631700D01*
X51093007Y-127001814D02*
X50722892Y-126724228D01*
X50445307Y-127001814D02*
X50815421Y-126631700D01*
X50846264Y-127772885D02*
X50846264Y-128266371D01*
X51093007Y-128019628D02*
X50599521Y-128019628D01*
X50445307Y-128883228D02*
X50445307Y-128574800D01*
X50753735Y-128543957D01*
X50722892Y-128574800D01*
X50692050Y-128636485D01*
X50692050Y-128790700D01*
X50722892Y-128852385D01*
X50753735Y-128883228D01*
X50815421Y-128914071D01*
X50969635Y-128914071D01*
X51031321Y-128883228D01*
X51062164Y-128852385D01*
X51093007Y-128790700D01*
X51093007Y-128636485D01*
X51062164Y-128574800D01*
X51031321Y-128543957D01*
X50445307Y-129099128D02*
X51093007Y-129315028D01*
X50445307Y-129530928D01*
X50476150Y-130579585D02*
X50445307Y-130517900D01*
X50445307Y-130425371D01*
X50476150Y-130332842D01*
X50537835Y-130271157D01*
X50599521Y-130240314D01*
X50722892Y-130209471D01*
X50815421Y-130209471D01*
X50938792Y-130240314D01*
X51000478Y-130271157D01*
X51062164Y-130332842D01*
X51093007Y-130425371D01*
X51093007Y-130487057D01*
X51062164Y-130579585D01*
X51031321Y-130610428D01*
X50815421Y-130610428D01*
X50815421Y-130487057D01*
X51093007Y-130888014D02*
X50445307Y-130888014D01*
X51093007Y-131258128D01*
X50445307Y-131258128D01*
X51093007Y-131566557D02*
X50445307Y-131566557D01*
X50445307Y-131720771D01*
X50476150Y-131813300D01*
X50537835Y-131874985D01*
X50599521Y-131905828D01*
X50722892Y-131936671D01*
X50815421Y-131936671D01*
X50938792Y-131905828D01*
X51000478Y-131874985D01*
X51062164Y-131813300D01*
X51093007Y-131720771D01*
X51093007Y-131566557D01*
D12*
X46037428Y-144125142D02*
X44894571Y-144125142D01*
X37401428Y-144125142D02*
X36258571Y-144125142D01*
X36830000Y-144696571D02*
X36830000Y-143553714D01*
X106354285Y-95293571D02*
X106354285Y-93793571D01*
X104782857Y-95150714D02*
X104854285Y-95222142D01*
X105068571Y-95293571D01*
X105211428Y-95293571D01*
X105425714Y-95222142D01*
X105568571Y-95079285D01*
X105640000Y-94936428D01*
X105711428Y-94650714D01*
X105711428Y-94436428D01*
X105640000Y-94150714D01*
X105568571Y-94007857D01*
X105425714Y-93865000D01*
X105211428Y-93793571D01*
X105068571Y-93793571D01*
X104854285Y-93865000D01*
X104782857Y-93936428D01*
X104211428Y-95222142D02*
X103997142Y-95293571D01*
X103640000Y-95293571D01*
X103497142Y-95222142D01*
X103425714Y-95150714D01*
X103354285Y-95007857D01*
X103354285Y-94865000D01*
X103425714Y-94722142D01*
X103497142Y-94650714D01*
X103640000Y-94579285D01*
X103925714Y-94507857D01*
X104068571Y-94436428D01*
X104140000Y-94365000D01*
X104211428Y-94222142D01*
X104211428Y-94079285D01*
X104140000Y-93936428D01*
X104068571Y-93865000D01*
X103925714Y-93793571D01*
X103568571Y-93793571D01*
X103354285Y-93865000D01*
X102711428Y-95293571D02*
X102711428Y-93793571D01*
X102140000Y-93793571D01*
X101997142Y-93865000D01*
X101925714Y-93936428D01*
X101854285Y-94079285D01*
X101854285Y-94293571D01*
X101925714Y-94436428D01*
X101997142Y-94507857D01*
X102140000Y-94579285D01*
X102711428Y-94579285D01*
D10*
X107550857Y-85483095D02*
X107550857Y-85966904D01*
X107792761Y-85725000D02*
X107308952Y-85725000D01*
X107157761Y-86571666D02*
X107157761Y-86269285D01*
X107460142Y-86239047D01*
X107429904Y-86269285D01*
X107399666Y-86329761D01*
X107399666Y-86480952D01*
X107429904Y-86541428D01*
X107460142Y-86571666D01*
X107520619Y-86601904D01*
X107671809Y-86601904D01*
X107732285Y-86571666D01*
X107762523Y-86541428D01*
X107792761Y-86480952D01*
X107792761Y-86329761D01*
X107762523Y-86269285D01*
X107732285Y-86239047D01*
X107157761Y-86783333D02*
X107792761Y-86995000D01*
X107157761Y-87206666D01*
X107792761Y-87902142D02*
X107157761Y-87902142D01*
X107611333Y-88113809D01*
X107157761Y-88325476D01*
X107792761Y-88325476D01*
X107157761Y-88748809D02*
X107157761Y-88869761D01*
X107188000Y-88930238D01*
X107248476Y-88990714D01*
X107369428Y-89020952D01*
X107581095Y-89020952D01*
X107702047Y-88990714D01*
X107762523Y-88930238D01*
X107792761Y-88869761D01*
X107792761Y-88748809D01*
X107762523Y-88688333D01*
X107702047Y-88627857D01*
X107581095Y-88597619D01*
X107369428Y-88597619D01*
X107248476Y-88627857D01*
X107188000Y-88688333D01*
X107157761Y-88748809D01*
X107762523Y-89262857D02*
X107792761Y-89353571D01*
X107792761Y-89504761D01*
X107762523Y-89565238D01*
X107732285Y-89595476D01*
X107671809Y-89625714D01*
X107611333Y-89625714D01*
X107550857Y-89595476D01*
X107520619Y-89565238D01*
X107490380Y-89504761D01*
X107460142Y-89383809D01*
X107429904Y-89323333D01*
X107399666Y-89293095D01*
X107339190Y-89262857D01*
X107278714Y-89262857D01*
X107218238Y-89293095D01*
X107188000Y-89323333D01*
X107157761Y-89383809D01*
X107157761Y-89535000D01*
X107188000Y-89625714D01*
X107792761Y-89897857D02*
X107157761Y-89897857D01*
X107188000Y-91016666D02*
X107157761Y-90956190D01*
X107157761Y-90865476D01*
X107188000Y-90774761D01*
X107248476Y-90714285D01*
X107308952Y-90684047D01*
X107429904Y-90653809D01*
X107520619Y-90653809D01*
X107641571Y-90684047D01*
X107702047Y-90714285D01*
X107762523Y-90774761D01*
X107792761Y-90865476D01*
X107792761Y-90925952D01*
X107762523Y-91016666D01*
X107732285Y-91046904D01*
X107520619Y-91046904D01*
X107520619Y-90925952D01*
X107792761Y-91319047D02*
X107157761Y-91319047D01*
X107792761Y-91681904D01*
X107157761Y-91681904D01*
X107792761Y-91984285D02*
X107157761Y-91984285D01*
X107157761Y-92135476D01*
X107188000Y-92226190D01*
X107248476Y-92286666D01*
X107308952Y-92316904D01*
X107429904Y-92347142D01*
X107520619Y-92347142D01*
X107641571Y-92316904D01*
X107702047Y-92286666D01*
X107762523Y-92226190D01*
X107792761Y-92135476D01*
X107792761Y-91984285D01*
X109951761Y-85286547D02*
X109316761Y-85286547D01*
X109770333Y-85498214D01*
X109316761Y-85709880D01*
X109951761Y-85709880D01*
X109951761Y-86012261D02*
X109316761Y-86012261D01*
X109921523Y-86284404D02*
X109951761Y-86375119D01*
X109951761Y-86526309D01*
X109921523Y-86586785D01*
X109891285Y-86617023D01*
X109830809Y-86647261D01*
X109770333Y-86647261D01*
X109709857Y-86617023D01*
X109679619Y-86586785D01*
X109649380Y-86526309D01*
X109619142Y-86405357D01*
X109588904Y-86344880D01*
X109558666Y-86314642D01*
X109498190Y-86284404D01*
X109437714Y-86284404D01*
X109377238Y-86314642D01*
X109347000Y-86344880D01*
X109316761Y-86405357D01*
X109316761Y-86556547D01*
X109347000Y-86647261D01*
X109316761Y-87040357D02*
X109316761Y-87161309D01*
X109347000Y-87221785D01*
X109407476Y-87282261D01*
X109528428Y-87312500D01*
X109740095Y-87312500D01*
X109861047Y-87282261D01*
X109921523Y-87221785D01*
X109951761Y-87161309D01*
X109951761Y-87040357D01*
X109921523Y-86979880D01*
X109861047Y-86919404D01*
X109740095Y-86889166D01*
X109528428Y-86889166D01*
X109407476Y-86919404D01*
X109347000Y-86979880D01*
X109316761Y-87040357D01*
X109921523Y-88038214D02*
X109951761Y-88128928D01*
X109951761Y-88280119D01*
X109921523Y-88340595D01*
X109891285Y-88370833D01*
X109830809Y-88401071D01*
X109770333Y-88401071D01*
X109709857Y-88370833D01*
X109679619Y-88340595D01*
X109649380Y-88280119D01*
X109619142Y-88159166D01*
X109588904Y-88098690D01*
X109558666Y-88068452D01*
X109498190Y-88038214D01*
X109437714Y-88038214D01*
X109377238Y-88068452D01*
X109347000Y-88098690D01*
X109316761Y-88159166D01*
X109316761Y-88310357D01*
X109347000Y-88401071D01*
X109891285Y-89036071D02*
X109921523Y-89005833D01*
X109951761Y-88915119D01*
X109951761Y-88854642D01*
X109921523Y-88763928D01*
X109861047Y-88703452D01*
X109800571Y-88673214D01*
X109679619Y-88642976D01*
X109588904Y-88642976D01*
X109467952Y-88673214D01*
X109407476Y-88703452D01*
X109347000Y-88763928D01*
X109316761Y-88854642D01*
X109316761Y-88915119D01*
X109347000Y-89005833D01*
X109377238Y-89036071D01*
X109951761Y-89308214D02*
X109316761Y-89308214D01*
X109951761Y-89671071D02*
X109588904Y-89398928D01*
X109316761Y-89671071D02*
X109679619Y-89308214D01*
X109042200Y-90275833D02*
X109042200Y-90910833D01*
X109951761Y-90789880D02*
X109649380Y-90578214D01*
X109951761Y-90427023D02*
X109316761Y-90427023D01*
X109316761Y-90668928D01*
X109347000Y-90729404D01*
X109377238Y-90759642D01*
X109437714Y-90789880D01*
X109528428Y-90789880D01*
X109588904Y-90759642D01*
X109619142Y-90729404D01*
X109649380Y-90668928D01*
X109649380Y-90427023D01*
X109042200Y-90910833D02*
X109042200Y-91485357D01*
X109619142Y-91062023D02*
X109619142Y-91273690D01*
X109951761Y-91364404D02*
X109951761Y-91062023D01*
X109316761Y-91062023D01*
X109316761Y-91364404D01*
X109042200Y-91485357D02*
X109042200Y-92090119D01*
X109921523Y-91606309D02*
X109951761Y-91697023D01*
X109951761Y-91848214D01*
X109921523Y-91908690D01*
X109891285Y-91938928D01*
X109830809Y-91969166D01*
X109770333Y-91969166D01*
X109709857Y-91938928D01*
X109679619Y-91908690D01*
X109649380Y-91848214D01*
X109619142Y-91727261D01*
X109588904Y-91666785D01*
X109558666Y-91636547D01*
X109498190Y-91606309D01*
X109437714Y-91606309D01*
X109377238Y-91636547D01*
X109347000Y-91666785D01*
X109316761Y-91727261D01*
X109316761Y-91878452D01*
X109347000Y-91969166D01*
X109042200Y-92090119D02*
X109042200Y-92664642D01*
X109619142Y-92241309D02*
X109619142Y-92452976D01*
X109951761Y-92543690D02*
X109951761Y-92241309D01*
X109316761Y-92241309D01*
X109316761Y-92543690D01*
X109042200Y-92664642D02*
X109042200Y-93148452D01*
X109316761Y-92725119D02*
X109316761Y-93087976D01*
X109951761Y-92906547D02*
X109316761Y-92906547D01*
D13*
X74262064Y-115845000D02*
X73057936Y-115845000D01*
X74262064Y-114025000D02*
X73057936Y-114025000D01*
X53420000Y-146480000D02*
X48220000Y-146480000D01*
X48220000Y-160480000D02*
X53420000Y-160480000D01*
X54170000Y-158430000D02*
X54170000Y-148530000D01*
X47470000Y-148530000D02*
X47470000Y-158430000D01*
X53820000Y-160780000D02*
X55120000Y-160780000D01*
X55120000Y-160780000D02*
X55120000Y-159480000D01*
X65480000Y-115943748D02*
X65480000Y-116466252D01*
X64060000Y-115943748D02*
X64060000Y-116466252D01*
X87876748Y-100890000D02*
X88399252Y-100890000D01*
X87876748Y-102310000D02*
X88399252Y-102310000D01*
X131805000Y-120617064D02*
X131805000Y-119412936D01*
X133625000Y-120617064D02*
X133625000Y-119412936D01*
X112427936Y-85450000D02*
X113632064Y-85450000D01*
X112427936Y-87270000D02*
X113632064Y-87270000D01*
X52672064Y-87270000D02*
X51467936Y-87270000D01*
X52672064Y-85450000D02*
X51467936Y-85450000D01*
X106740000Y-85030000D02*
X105410000Y-85030000D01*
X106740000Y-86360000D02*
X106740000Y-85030000D01*
X104140000Y-85030000D02*
X101540000Y-85030000D01*
X104140000Y-87630000D02*
X104140000Y-85030000D01*
X106740000Y-87630000D02*
X104140000Y-87630000D01*
X101540000Y-85030000D02*
X101540000Y-92770000D01*
X106740000Y-87630000D02*
X106740000Y-92770000D01*
X106740000Y-92770000D02*
X101540000Y-92770000D01*
X84583748Y-113590000D02*
X85106252Y-113590000D01*
X84583748Y-115010000D02*
X85106252Y-115010000D01*
X46026000Y-130064252D02*
X46026000Y-129541748D01*
X47446000Y-130064252D02*
X47446000Y-129541748D01*
X79001252Y-115010000D02*
X78478748Y-115010000D01*
X79001252Y-113590000D02*
X78478748Y-113590000D01*
X39743748Y-119305000D02*
X40266252Y-119305000D01*
X39743748Y-120725000D02*
X40266252Y-120725000D01*
X80383748Y-100890000D02*
X80906252Y-100890000D01*
X80383748Y-102310000D02*
X80906252Y-102310000D01*
X104401252Y-117550000D02*
X103878748Y-117550000D01*
X104401252Y-116130000D02*
X103878748Y-116130000D01*
X57752064Y-104415000D02*
X56547936Y-104415000D01*
X57752064Y-102595000D02*
X56547936Y-102595000D01*
X55610000Y-92370000D02*
X55610000Y-88520000D01*
X53610000Y-92370000D02*
X53610000Y-88520000D01*
X55610000Y-92370000D02*
X53610000Y-92370000D01*
X50835000Y-106480000D02*
X50835000Y-109420000D01*
X50595000Y-106480000D02*
X50595000Y-109420000D01*
X50715000Y-106480000D02*
X50715000Y-109420000D01*
X46175000Y-109420000D02*
X46175000Y-109290000D01*
X51615000Y-109420000D02*
X46175000Y-109420000D01*
X51615000Y-109290000D02*
X51615000Y-109420000D01*
X46175000Y-106480000D02*
X46175000Y-106610000D01*
X51615000Y-106480000D02*
X46175000Y-106480000D01*
X51615000Y-106610000D02*
X51615000Y-106480000D01*
X56547936Y-105135000D02*
X57752064Y-105135000D01*
X56547936Y-106955000D02*
X57752064Y-106955000D01*
X59600000Y-97757064D02*
X59600000Y-96552936D01*
X62320000Y-97757064D02*
X62320000Y-96552936D01*
X104140000Y-119380000D02*
X104140000Y-120650000D01*
X106680000Y-119380000D02*
X104140000Y-119380000D01*
X106680000Y-142240000D02*
X106680000Y-119380000D01*
X104140000Y-142240000D02*
X104140000Y-140970000D01*
X106680000Y-142240000D02*
X104140000Y-142240000D01*
X59690000Y-120650000D02*
X72390000Y-120650000D01*
X59690000Y-119380000D02*
X59690000Y-120650000D01*
X57150000Y-119380000D02*
X59690000Y-119380000D01*
X57150000Y-142240000D02*
X57150000Y-119380000D01*
X59690000Y-142240000D02*
X57150000Y-142240000D01*
X59690000Y-140970000D02*
X59690000Y-142240000D01*
X59690000Y-140970000D02*
X72390000Y-140970000D01*
X104140000Y-120650000D02*
X91440000Y-120650000D01*
X72390000Y-142240000D02*
X72390000Y-140970000D01*
X91440000Y-142240000D02*
X72390000Y-142240000D01*
X91440000Y-140970000D02*
X91440000Y-142240000D01*
X104140000Y-140970000D02*
X91440000Y-140970000D01*
X91440000Y-119380000D02*
X91440000Y-120650000D01*
X72390000Y-119380000D02*
X91440000Y-119380000D01*
X72390000Y-120650000D02*
X72390000Y-119380000D01*
X83820000Y-130556000D02*
X106680000Y-130556000D01*
X83820000Y-131064000D02*
X83820000Y-130556000D01*
X106680000Y-131064000D02*
X83820000Y-131064000D01*
X80010000Y-130556000D02*
X57150000Y-130556000D01*
X80010000Y-131064000D02*
X80010000Y-130556000D01*
X57150000Y-131064000D02*
X80010000Y-131064000D01*
X91440000Y-139700000D02*
X91440000Y-138430000D01*
X73660000Y-139700000D02*
X91440000Y-139700000D01*
X73660000Y-138430000D02*
X73660000Y-139700000D01*
X72390000Y-138430000D02*
X73660000Y-138430000D01*
X72390000Y-135890000D02*
X72390000Y-138430000D01*
X73660000Y-135890000D02*
X72390000Y-135890000D01*
X73660000Y-134620000D02*
X73660000Y-135890000D01*
X91440000Y-134620000D02*
X73660000Y-134620000D01*
X91440000Y-138430000D02*
X91440000Y-134620000D01*
X90170000Y-121920000D02*
X72390000Y-121920000D01*
X90170000Y-123190000D02*
X90170000Y-121920000D01*
X91440000Y-123190000D02*
X90170000Y-123190000D01*
X91440000Y-125730000D02*
X91440000Y-123190000D01*
X90170000Y-125730000D02*
X91440000Y-125730000D01*
X90170000Y-127000000D02*
X90170000Y-125730000D01*
X72390000Y-127000000D02*
X90170000Y-127000000D01*
X72390000Y-121920000D02*
X72390000Y-127000000D01*
X108920000Y-143210000D02*
X55720000Y-143210000D01*
X55720000Y-143210000D02*
X55720000Y-118410000D01*
X55720000Y-118410000D02*
X108920000Y-118410000D01*
X108920000Y-118410000D02*
X108920000Y-143210000D01*
X84066748Y-100890000D02*
X84589252Y-100890000D01*
X84066748Y-102310000D02*
X84589252Y-102310000D01*
X80042936Y-98785000D02*
X81247064Y-98785000D01*
X80042936Y-100605000D02*
X81247064Y-100605000D01*
X56790000Y-109252936D02*
X56790000Y-110457064D01*
X54970000Y-109252936D02*
X54970000Y-110457064D01*
X57752064Y-101875000D02*
X56547936Y-101875000D01*
X57752064Y-100055000D02*
X56547936Y-100055000D01*
X104109759Y-113279000D02*
X104109759Y-112649000D01*
X103794759Y-112964000D02*
X104424759Y-112964000D01*
X110536000Y-111527000D02*
X110536000Y-110723000D01*
X110496000Y-111758000D02*
X110496000Y-110492000D01*
X110456000Y-111927000D02*
X110456000Y-110323000D01*
X110416000Y-112065000D02*
X110416000Y-110185000D01*
X110376000Y-112184000D02*
X110376000Y-110066000D01*
X110336000Y-112290000D02*
X110336000Y-109960000D01*
X110296000Y-112387000D02*
X110296000Y-109863000D01*
X110256000Y-112475000D02*
X110256000Y-109775000D01*
X110216000Y-112557000D02*
X110216000Y-109693000D01*
X110176000Y-112634000D02*
X110176000Y-109616000D01*
X110136000Y-112706000D02*
X110136000Y-109544000D01*
X110096000Y-112775000D02*
X110096000Y-109475000D01*
X110056000Y-112839000D02*
X110056000Y-109411000D01*
X110016000Y-112901000D02*
X110016000Y-109349000D01*
X109976000Y-112959000D02*
X109976000Y-109291000D01*
X109936000Y-113015000D02*
X109936000Y-109235000D01*
X109896000Y-113069000D02*
X109896000Y-109181000D01*
X109856000Y-113120000D02*
X109856000Y-109130000D01*
X109816000Y-113169000D02*
X109816000Y-109081000D01*
X109776000Y-113217000D02*
X109776000Y-109033000D01*
X109736000Y-113262000D02*
X109736000Y-108988000D01*
X109696000Y-113307000D02*
X109696000Y-108943000D01*
X109656000Y-113349000D02*
X109656000Y-108901000D01*
X109616000Y-113390000D02*
X109616000Y-108860000D01*
X109576000Y-110085000D02*
X109576000Y-108820000D01*
X109576000Y-113430000D02*
X109576000Y-112165000D01*
X109536000Y-110085000D02*
X109536000Y-108782000D01*
X109536000Y-113468000D02*
X109536000Y-112165000D01*
X109496000Y-110085000D02*
X109496000Y-108745000D01*
X109496000Y-113505000D02*
X109496000Y-112165000D01*
X109456000Y-110085000D02*
X109456000Y-108709000D01*
X109456000Y-113541000D02*
X109456000Y-112165000D01*
X109416000Y-110085000D02*
X109416000Y-108675000D01*
X109416000Y-113575000D02*
X109416000Y-112165000D01*
X109376000Y-110085000D02*
X109376000Y-108641000D01*
X109376000Y-113609000D02*
X109376000Y-112165000D01*
X109336000Y-110085000D02*
X109336000Y-108609000D01*
X109336000Y-113641000D02*
X109336000Y-112165000D01*
X109296000Y-110085000D02*
X109296000Y-108577000D01*
X109296000Y-113673000D02*
X109296000Y-112165000D01*
X109256000Y-110085000D02*
X109256000Y-108547000D01*
X109256000Y-113703000D02*
X109256000Y-112165000D01*
X109216000Y-110085000D02*
X109216000Y-108518000D01*
X109216000Y-113732000D02*
X109216000Y-112165000D01*
X109176000Y-110085000D02*
X109176000Y-108489000D01*
X109176000Y-113761000D02*
X109176000Y-112165000D01*
X109136000Y-110085000D02*
X109136000Y-108461000D01*
X109136000Y-113789000D02*
X109136000Y-112165000D01*
X109096000Y-110085000D02*
X109096000Y-108435000D01*
X109096000Y-113815000D02*
X109096000Y-112165000D01*
X109056000Y-110085000D02*
X109056000Y-108409000D01*
X109056000Y-113841000D02*
X109056000Y-112165000D01*
X109016000Y-110085000D02*
X109016000Y-108383000D01*
X109016000Y-113867000D02*
X109016000Y-112165000D01*
X108976000Y-110085000D02*
X108976000Y-108359000D01*
X108976000Y-113891000D02*
X108976000Y-112165000D01*
X108936000Y-110085000D02*
X108936000Y-108335000D01*
X108936000Y-113915000D02*
X108936000Y-112165000D01*
X108896000Y-110085000D02*
X108896000Y-108313000D01*
X108896000Y-113937000D02*
X108896000Y-112165000D01*
X108856000Y-110085000D02*
X108856000Y-108291000D01*
X108856000Y-113959000D02*
X108856000Y-112165000D01*
X108816000Y-110085000D02*
X108816000Y-108269000D01*
X108816000Y-113981000D02*
X108816000Y-112165000D01*
X108776000Y-110085000D02*
X108776000Y-108249000D01*
X108776000Y-114001000D02*
X108776000Y-112165000D01*
X108736000Y-110085000D02*
X108736000Y-108229000D01*
X108736000Y-114021000D02*
X108736000Y-112165000D01*
X108696000Y-110085000D02*
X108696000Y-108209000D01*
X108696000Y-114041000D02*
X108696000Y-112165000D01*
X108656000Y-110085000D02*
X108656000Y-108191000D01*
X108656000Y-114059000D02*
X108656000Y-112165000D01*
X108616000Y-110085000D02*
X108616000Y-108173000D01*
X108616000Y-114077000D02*
X108616000Y-112165000D01*
X108576000Y-110085000D02*
X108576000Y-108155000D01*
X108576000Y-114095000D02*
X108576000Y-112165000D01*
X108536000Y-110085000D02*
X108536000Y-108139000D01*
X108536000Y-114111000D02*
X108536000Y-112165000D01*
X108496000Y-110085000D02*
X108496000Y-108123000D01*
X108496000Y-114127000D02*
X108496000Y-112165000D01*
X108456000Y-110085000D02*
X108456000Y-108107000D01*
X108456000Y-114143000D02*
X108456000Y-112165000D01*
X108416000Y-110085000D02*
X108416000Y-108092000D01*
X108416000Y-114158000D02*
X108416000Y-112165000D01*
X108376000Y-110085000D02*
X108376000Y-108078000D01*
X108376000Y-114172000D02*
X108376000Y-112165000D01*
X108336000Y-110085000D02*
X108336000Y-108064000D01*
X108336000Y-114186000D02*
X108336000Y-112165000D01*
X108296000Y-110085000D02*
X108296000Y-108051000D01*
X108296000Y-114199000D02*
X108296000Y-112165000D01*
X108256000Y-110085000D02*
X108256000Y-108039000D01*
X108256000Y-114211000D02*
X108256000Y-112165000D01*
X108216000Y-110085000D02*
X108216000Y-108027000D01*
X108216000Y-114223000D02*
X108216000Y-112165000D01*
X108176000Y-110085000D02*
X108176000Y-108015000D01*
X108176000Y-114235000D02*
X108176000Y-112165000D01*
X108136000Y-110085000D02*
X108136000Y-108004000D01*
X108136000Y-114246000D02*
X108136000Y-112165000D01*
X108096000Y-110085000D02*
X108096000Y-107994000D01*
X108096000Y-114256000D02*
X108096000Y-112165000D01*
X108056000Y-110085000D02*
X108056000Y-107984000D01*
X108056000Y-114266000D02*
X108056000Y-112165000D01*
X108016000Y-110085000D02*
X108016000Y-107975000D01*
X108016000Y-114275000D02*
X108016000Y-112165000D01*
X107975000Y-110085000D02*
X107975000Y-107966000D01*
X107975000Y-114284000D02*
X107975000Y-112165000D01*
X107935000Y-110085000D02*
X107935000Y-107958000D01*
X107935000Y-114292000D02*
X107935000Y-112165000D01*
X107895000Y-110085000D02*
X107895000Y-107950000D01*
X107895000Y-114300000D02*
X107895000Y-112165000D01*
X107855000Y-110085000D02*
X107855000Y-107943000D01*
X107855000Y-114307000D02*
X107855000Y-112165000D01*
X107815000Y-110085000D02*
X107815000Y-107936000D01*
X107815000Y-114314000D02*
X107815000Y-112165000D01*
X107775000Y-110085000D02*
X107775000Y-107930000D01*
X107775000Y-114320000D02*
X107775000Y-112165000D01*
X107735000Y-110085000D02*
X107735000Y-107924000D01*
X107735000Y-114326000D02*
X107735000Y-112165000D01*
X107695000Y-110085000D02*
X107695000Y-107919000D01*
X107695000Y-114331000D02*
X107695000Y-112165000D01*
X107655000Y-110085000D02*
X107655000Y-107914000D01*
X107655000Y-114336000D02*
X107655000Y-112165000D01*
X107615000Y-110085000D02*
X107615000Y-107910000D01*
X107615000Y-114340000D02*
X107615000Y-112165000D01*
X107575000Y-110085000D02*
X107575000Y-107907000D01*
X107575000Y-114343000D02*
X107575000Y-112165000D01*
X107535000Y-110085000D02*
X107535000Y-107903000D01*
X107535000Y-114347000D02*
X107535000Y-112165000D01*
X107495000Y-114349000D02*
X107495000Y-107901000D01*
X107455000Y-114352000D02*
X107455000Y-107898000D01*
X107415000Y-114353000D02*
X107415000Y-107897000D01*
X107375000Y-114355000D02*
X107375000Y-107895000D01*
X107335000Y-114355000D02*
X107335000Y-107895000D01*
X107295000Y-114355000D02*
X107295000Y-107895000D01*
X110565000Y-111125000D02*
G75*
G03X110565000Y-111125000I-3270000J0D01*
G01*
X57377500Y-88470000D02*
X57827500Y-88470000D01*
X57377500Y-88470000D02*
X57377500Y-88920000D01*
X57927500Y-94070000D02*
X57927500Y-93620000D01*
X59777500Y-94070000D02*
X57927500Y-94070000D01*
X62327500Y-86270000D02*
X62077500Y-86270000D01*
X62327500Y-94070000D02*
X62077500Y-94070000D01*
X59777500Y-86270000D02*
X57927500Y-86270000D01*
X57927500Y-86270000D02*
X57927500Y-86720000D01*
X68500000Y-97655000D02*
X64440000Y-97655000D01*
X68500000Y-95385000D02*
X68500000Y-97655000D01*
X64440000Y-95385000D02*
X68500000Y-95385000D01*
X49900000Y-97450000D02*
X52350000Y-97450000D01*
X51700000Y-100670000D02*
X49900000Y-100670000D01*
X43024000Y-138824000D02*
X43024000Y-137609000D01*
X42964000Y-142784000D02*
X42964000Y-145044000D01*
X42464000Y-142784000D02*
X42464000Y-145044000D01*
X39864000Y-141184000D02*
X38864000Y-141184000D01*
X39864000Y-142784000D02*
X39864000Y-141184000D01*
X38864000Y-142784000D02*
X39864000Y-142784000D01*
X38864000Y-141184000D02*
X38864000Y-142784000D01*
X42464000Y-141184000D02*
X43464000Y-141184000D01*
X42464000Y-142784000D02*
X42464000Y-141184000D01*
X43464000Y-142784000D02*
X42464000Y-142784000D01*
X43464000Y-141184000D02*
X43464000Y-142784000D01*
X38104000Y-138824000D02*
X39024000Y-138824000D01*
X44224000Y-138824000D02*
X43304000Y-138824000D01*
X40664000Y-140684000D02*
X40664000Y-145044000D01*
X41664000Y-140684000D02*
X40664000Y-140684000D01*
X41664000Y-145044000D02*
X41664000Y-140684000D01*
X39024000Y-138824000D02*
X39304000Y-138824000D01*
X39024000Y-137224000D02*
X39024000Y-138824000D01*
X38104000Y-137224000D02*
X39024000Y-137224000D01*
X38104000Y-145044000D02*
X38104000Y-137224000D01*
X44224000Y-145044000D02*
X38104000Y-145044000D01*
X44224000Y-137224000D02*
X44224000Y-145044000D01*
X43304000Y-137224000D02*
X44224000Y-137224000D01*
X43304000Y-138824000D02*
X43304000Y-137224000D01*
X43024000Y-138824000D02*
X43304000Y-138824000D01*
X57850000Y-98950000D02*
X56450000Y-98950000D01*
X56450000Y-96630000D02*
X58350000Y-96630000D01*
X45752936Y-110215000D02*
X46957064Y-110215000D01*
X45752936Y-112035000D02*
X46957064Y-112035000D01*
X52672064Y-113305000D02*
X51467936Y-113305000D01*
X52672064Y-111485000D02*
X51467936Y-111485000D01*
X46080000Y-99662064D02*
X46080000Y-98457936D01*
X47900000Y-99662064D02*
X47900000Y-98457936D01*
X70517936Y-95610000D02*
X71722064Y-95610000D01*
X70517936Y-97430000D02*
X71722064Y-97430000D01*
X100055000Y-116172064D02*
X100055000Y-114967936D01*
X101875000Y-116172064D02*
X101875000Y-114967936D01*
X92635000Y-95773000D02*
G75*
G02X92635000Y-100823000I0J-2525000D01*
G01*
X86235000Y-95773000D02*
G75*
G03X86235000Y-100823000I0J-2525000D01*
G01*
X86235000Y-95773000D02*
X92635000Y-95773000D01*
X86235000Y-100823000D02*
X92635000Y-100823000D01*
X122305000Y-115560000D02*
G75*
G03X122305000Y-115560000I-6100000J0D01*
G01*
X38910000Y-110725000D02*
X40410000Y-110725000D01*
X42910000Y-111975000D02*
X42910000Y-116475000D01*
X40410000Y-117725000D02*
X38910000Y-117725000D01*
X36410000Y-116475000D02*
X36410000Y-111975000D01*
X63380000Y-113090000D02*
X63380000Y-102810000D01*
X99180000Y-113090000D02*
X63380000Y-113090000D01*
X99180000Y-102810000D02*
X99180000Y-113090000D01*
X63380000Y-102810000D02*
X99180000Y-102810000D01*
X63440000Y-110600000D02*
X63440000Y-108950000D01*
X99120000Y-110600000D02*
X63440000Y-110600000D01*
X99120000Y-105300000D02*
X99120000Y-110600000D01*
X63440000Y-105300000D02*
X99120000Y-105300000D01*
X63440000Y-106950000D02*
X63440000Y-105300000D01*
X63440000Y-108950000D02*
G75*
G03X63440000Y-106950000I0J1000000D01*
G01*
X38820000Y-105110000D02*
X35420000Y-105110000D01*
X40460000Y-105110000D02*
X39920000Y-105110000D01*
X33260000Y-107940000D02*
X33260000Y-108450000D01*
X33780000Y-108450000D02*
X33260000Y-108450000D01*
X33780000Y-107940000D02*
X33780000Y-108450000D01*
X34320000Y-105110000D02*
X33780000Y-105110000D01*
X40980000Y-107940000D02*
X40980000Y-108450000D01*
X40460000Y-107940000D02*
X40460000Y-108450000D01*
X33780000Y-105110000D02*
X33780000Y-105340000D01*
X40980000Y-101440000D02*
X40980000Y-105340000D01*
X40980000Y-108450000D02*
X40460000Y-108450000D01*
X33260000Y-101440000D02*
X33260000Y-105340000D01*
X40980000Y-101440000D02*
X33260000Y-101440000D01*
X40460000Y-105110000D02*
X40460000Y-105340000D01*
X130260000Y-105110000D02*
X126860000Y-105110000D01*
X131900000Y-105110000D02*
X131360000Y-105110000D01*
X124700000Y-107940000D02*
X124700000Y-108450000D01*
X125220000Y-108450000D02*
X124700000Y-108450000D01*
X125220000Y-107940000D02*
X125220000Y-108450000D01*
X125760000Y-105110000D02*
X125220000Y-105110000D01*
X132420000Y-107940000D02*
X132420000Y-108450000D01*
X131900000Y-107940000D02*
X131900000Y-108450000D01*
X125220000Y-105110000D02*
X125220000Y-105340000D01*
X132420000Y-101440000D02*
X132420000Y-105340000D01*
X132420000Y-108450000D02*
X131900000Y-108450000D01*
X124700000Y-101440000D02*
X124700000Y-105340000D01*
X132420000Y-101440000D02*
X124700000Y-101440000D01*
X131900000Y-105110000D02*
X131900000Y-105340000D01*
D11*
X70937380Y-114768333D02*
X70461190Y-114435000D01*
X70937380Y-114196904D02*
X69937380Y-114196904D01*
X69937380Y-114577857D01*
X69985000Y-114673095D01*
X70032619Y-114720714D01*
X70127857Y-114768333D01*
X70270714Y-114768333D01*
X70365952Y-114720714D01*
X70413571Y-114673095D01*
X70461190Y-114577857D01*
X70461190Y-114196904D01*
X70937380Y-115244523D02*
X70937380Y-115435000D01*
X70889761Y-115530238D01*
X70842142Y-115577857D01*
X70699285Y-115673095D01*
X70508809Y-115720714D01*
X70127857Y-115720714D01*
X70032619Y-115673095D01*
X69985000Y-115625476D01*
X69937380Y-115530238D01*
X69937380Y-115339761D01*
X69985000Y-115244523D01*
X70032619Y-115196904D01*
X70127857Y-115149285D01*
X70365952Y-115149285D01*
X70461190Y-115196904D01*
X70508809Y-115244523D01*
X70556428Y-115339761D01*
X70556428Y-115530238D01*
X70508809Y-115625476D01*
X70461190Y-115673095D01*
X70365952Y-115720714D01*
X55424761Y-151670476D02*
X55472380Y-151813333D01*
X55472380Y-152051428D01*
X55424761Y-152146666D01*
X55377142Y-152194285D01*
X55281904Y-152241904D01*
X55186666Y-152241904D01*
X55091428Y-152194285D01*
X55043809Y-152146666D01*
X54996190Y-152051428D01*
X54948571Y-151860952D01*
X54900952Y-151765714D01*
X54853333Y-151718095D01*
X54758095Y-151670476D01*
X54662857Y-151670476D01*
X54567619Y-151718095D01*
X54520000Y-151765714D01*
X54472380Y-151860952D01*
X54472380Y-152099047D01*
X54520000Y-152241904D01*
X54472380Y-152575238D02*
X55472380Y-152813333D01*
X54758095Y-153003809D01*
X55472380Y-153194285D01*
X54472380Y-153432380D01*
X55472380Y-154337142D02*
X55472380Y-153765714D01*
X55472380Y-154051428D02*
X54472380Y-154051428D01*
X54615238Y-153956190D01*
X54710476Y-153860952D01*
X54758095Y-153765714D01*
X54472380Y-154956190D02*
X54472380Y-155051428D01*
X54520000Y-155146666D01*
X54567619Y-155194285D01*
X54662857Y-155241904D01*
X54853333Y-155289523D01*
X55091428Y-155289523D01*
X55281904Y-155241904D01*
X55377142Y-155194285D01*
X55424761Y-155146666D01*
X55472380Y-155051428D01*
X55472380Y-154956190D01*
X55424761Y-154860952D01*
X55377142Y-154813333D01*
X55281904Y-154765714D01*
X55091428Y-154718095D01*
X54853333Y-154718095D01*
X54662857Y-154765714D01*
X54567619Y-154813333D01*
X54520000Y-154860952D01*
X54472380Y-154956190D01*
D14*
X63351321Y-115788621D02*
X63382164Y-115757778D01*
X63413007Y-115665250D01*
X63413007Y-115603564D01*
X63382164Y-115511035D01*
X63320478Y-115449350D01*
X63258792Y-115418507D01*
X63135421Y-115387664D01*
X63042892Y-115387664D01*
X62919521Y-115418507D01*
X62857835Y-115449350D01*
X62796150Y-115511035D01*
X62765307Y-115603564D01*
X62765307Y-115665250D01*
X62796150Y-115757778D01*
X62826992Y-115788621D01*
X63413007Y-116405478D02*
X63413007Y-116035364D01*
X63413007Y-116220421D02*
X62765307Y-116220421D01*
X62857835Y-116158735D01*
X62919521Y-116097050D01*
X62950364Y-116035364D01*
X62981207Y-116960650D02*
X63413007Y-116960650D01*
X62734464Y-116806435D02*
X63197107Y-116652221D01*
X63197107Y-117053178D01*
X85829321Y-101183621D02*
X85860164Y-101152778D01*
X85891007Y-101060250D01*
X85891007Y-100998564D01*
X85860164Y-100906035D01*
X85798478Y-100844350D01*
X85736792Y-100813507D01*
X85613421Y-100782664D01*
X85520892Y-100782664D01*
X85397521Y-100813507D01*
X85335835Y-100844350D01*
X85274150Y-100906035D01*
X85243307Y-100998564D01*
X85243307Y-101060250D01*
X85274150Y-101152778D01*
X85304992Y-101183621D01*
X85891007Y-101800478D02*
X85891007Y-101430364D01*
X85891007Y-101615421D02*
X85243307Y-101615421D01*
X85335835Y-101553735D01*
X85397521Y-101492050D01*
X85428364Y-101430364D01*
X85891007Y-102417335D02*
X85891007Y-102047221D01*
X85891007Y-102232278D02*
X85243307Y-102232278D01*
X85335835Y-102170592D01*
X85397521Y-102108907D01*
X85428364Y-102047221D01*
X134828007Y-119907050D02*
X134519578Y-119691150D01*
X134828007Y-119536935D02*
X134180307Y-119536935D01*
X134180307Y-119783678D01*
X134211150Y-119845364D01*
X134241992Y-119876207D01*
X134303678Y-119907050D01*
X134396207Y-119907050D01*
X134457892Y-119876207D01*
X134488735Y-119845364D01*
X134519578Y-119783678D01*
X134519578Y-119536935D01*
X134457892Y-120277164D02*
X134427050Y-120215478D01*
X134396207Y-120184635D01*
X134334521Y-120153792D01*
X134303678Y-120153792D01*
X134241992Y-120184635D01*
X134211150Y-120215478D01*
X134180307Y-120277164D01*
X134180307Y-120400535D01*
X134211150Y-120462221D01*
X134241992Y-120493064D01*
X134303678Y-120523907D01*
X134334521Y-120523907D01*
X134396207Y-120493064D01*
X134427050Y-120462221D01*
X134457892Y-120400535D01*
X134457892Y-120277164D01*
X134488735Y-120215478D01*
X134519578Y-120184635D01*
X134581264Y-120153792D01*
X134704635Y-120153792D01*
X134766321Y-120184635D01*
X134797164Y-120215478D01*
X134828007Y-120277164D01*
X134828007Y-120400535D01*
X134797164Y-120462221D01*
X134766321Y-120493064D01*
X134704635Y-120523907D01*
X134581264Y-120523907D01*
X134519578Y-120493064D01*
X134488735Y-120462221D01*
X134457892Y-120400535D01*
X116117007Y-86252050D02*
X115808578Y-86036150D01*
X116117007Y-85881935D02*
X115469307Y-85881935D01*
X115469307Y-86128678D01*
X115500150Y-86190364D01*
X115530992Y-86221207D01*
X115592678Y-86252050D01*
X115685207Y-86252050D01*
X115746892Y-86221207D01*
X115777735Y-86190364D01*
X115808578Y-86128678D01*
X115808578Y-85881935D01*
X115469307Y-86838064D02*
X115469307Y-86529635D01*
X115777735Y-86498792D01*
X115746892Y-86529635D01*
X115716050Y-86591321D01*
X115716050Y-86745535D01*
X115746892Y-86807221D01*
X115777735Y-86838064D01*
X115839421Y-86868907D01*
X115993635Y-86868907D01*
X116055321Y-86838064D01*
X116086164Y-86807221D01*
X116117007Y-86745535D01*
X116117007Y-86591321D01*
X116086164Y-86529635D01*
X116055321Y-86498792D01*
X49569007Y-86506050D02*
X49260578Y-86290150D01*
X49569007Y-86135935D02*
X48921307Y-86135935D01*
X48921307Y-86382678D01*
X48952150Y-86444364D01*
X48982992Y-86475207D01*
X49044678Y-86506050D01*
X49137207Y-86506050D01*
X49198892Y-86475207D01*
X49229735Y-86444364D01*
X49260578Y-86382678D01*
X49260578Y-86135935D01*
X48921307Y-86721950D02*
X48921307Y-87153750D01*
X49569007Y-86876164D01*
X104355900Y-83675307D02*
X104355900Y-84137950D01*
X104386742Y-84230478D01*
X104448428Y-84292164D01*
X104540957Y-84323007D01*
X104602642Y-84323007D01*
X104078314Y-83736992D02*
X104047471Y-83706150D01*
X103985785Y-83675307D01*
X103831571Y-83675307D01*
X103769885Y-83706150D01*
X103739042Y-83736992D01*
X103708200Y-83798678D01*
X103708200Y-83860364D01*
X103739042Y-83952892D01*
X104109157Y-84323007D01*
X103708200Y-84323007D01*
X87353321Y-113883621D02*
X87384164Y-113852778D01*
X87415007Y-113760250D01*
X87415007Y-113698564D01*
X87384164Y-113606035D01*
X87322478Y-113544350D01*
X87260792Y-113513507D01*
X87137421Y-113482664D01*
X87044892Y-113482664D01*
X86921521Y-113513507D01*
X86859835Y-113544350D01*
X86798150Y-113606035D01*
X86767307Y-113698564D01*
X86767307Y-113760250D01*
X86798150Y-113852778D01*
X86828992Y-113883621D01*
X87415007Y-114500478D02*
X87415007Y-114130364D01*
X87415007Y-114315421D02*
X86767307Y-114315421D01*
X86859835Y-114253735D01*
X86921521Y-114192050D01*
X86952364Y-114130364D01*
X86767307Y-114716378D02*
X86767307Y-115117335D01*
X87014050Y-114901435D01*
X87014050Y-114993964D01*
X87044892Y-115055650D01*
X87075735Y-115086492D01*
X87137421Y-115117335D01*
X87291635Y-115117335D01*
X87353321Y-115086492D01*
X87384164Y-115055650D01*
X87415007Y-114993964D01*
X87415007Y-114808907D01*
X87384164Y-114747221D01*
X87353321Y-114716378D01*
X47152378Y-130034321D02*
X47183221Y-130065164D01*
X47275750Y-130096007D01*
X47337435Y-130096007D01*
X47429964Y-130065164D01*
X47491650Y-130003478D01*
X47522492Y-129941792D01*
X47553335Y-129818421D01*
X47553335Y-129725892D01*
X47522492Y-129602521D01*
X47491650Y-129540835D01*
X47429964Y-129479150D01*
X47337435Y-129448307D01*
X47275750Y-129448307D01*
X47183221Y-129479150D01*
X47152378Y-129509992D01*
X46535521Y-130096007D02*
X46905635Y-130096007D01*
X46720578Y-130096007D02*
X46720578Y-129448307D01*
X46782264Y-129540835D01*
X46843950Y-129602521D01*
X46905635Y-129633364D01*
X46288778Y-129509992D02*
X46257935Y-129479150D01*
X46196250Y-129448307D01*
X46042035Y-129448307D01*
X45980350Y-129479150D01*
X45949507Y-129509992D01*
X45918664Y-129571678D01*
X45918664Y-129633364D01*
X45949507Y-129725892D01*
X46319621Y-130096007D01*
X45918664Y-130096007D01*
X81511321Y-114192050D02*
X81542164Y-114161207D01*
X81573007Y-114068678D01*
X81573007Y-114006992D01*
X81542164Y-113914464D01*
X81480478Y-113852778D01*
X81418792Y-113821935D01*
X81295421Y-113791092D01*
X81202892Y-113791092D01*
X81079521Y-113821935D01*
X81017835Y-113852778D01*
X80956150Y-113914464D01*
X80925307Y-114006992D01*
X80925307Y-114068678D01*
X80956150Y-114161207D01*
X80986992Y-114192050D01*
X80925307Y-114407950D02*
X80925307Y-114808907D01*
X81172050Y-114593007D01*
X81172050Y-114685535D01*
X81202892Y-114747221D01*
X81233735Y-114778064D01*
X81295421Y-114808907D01*
X81449635Y-114808907D01*
X81511321Y-114778064D01*
X81542164Y-114747221D01*
X81573007Y-114685535D01*
X81573007Y-114500478D01*
X81542164Y-114438792D01*
X81511321Y-114407950D01*
X40112950Y-121896321D02*
X40143792Y-121927164D01*
X40236321Y-121958007D01*
X40298007Y-121958007D01*
X40390535Y-121927164D01*
X40452221Y-121865478D01*
X40483064Y-121803792D01*
X40513907Y-121680421D01*
X40513907Y-121587892D01*
X40483064Y-121464521D01*
X40452221Y-121402835D01*
X40390535Y-121341150D01*
X40298007Y-121310307D01*
X40236321Y-121310307D01*
X40143792Y-121341150D01*
X40112950Y-121371992D01*
X39866207Y-121371992D02*
X39835364Y-121341150D01*
X39773678Y-121310307D01*
X39619464Y-121310307D01*
X39557778Y-121341150D01*
X39526935Y-121371992D01*
X39496092Y-121433678D01*
X39496092Y-121495364D01*
X39526935Y-121587892D01*
X39897050Y-121958007D01*
X39496092Y-121958007D01*
X78971321Y-101492050D02*
X79002164Y-101461207D01*
X79033007Y-101368678D01*
X79033007Y-101306992D01*
X79002164Y-101214464D01*
X78940478Y-101152778D01*
X78878792Y-101121935D01*
X78755421Y-101091092D01*
X78662892Y-101091092D01*
X78539521Y-101121935D01*
X78477835Y-101152778D01*
X78416150Y-101214464D01*
X78385307Y-101306992D01*
X78385307Y-101368678D01*
X78416150Y-101461207D01*
X78446992Y-101492050D01*
X78601207Y-102047221D02*
X79033007Y-102047221D01*
X78354464Y-101893007D02*
X78817107Y-101738792D01*
X78817107Y-102139750D01*
X106657321Y-116732050D02*
X106688164Y-116701207D01*
X106719007Y-116608678D01*
X106719007Y-116546992D01*
X106688164Y-116454464D01*
X106626478Y-116392778D01*
X106564792Y-116361935D01*
X106441421Y-116331092D01*
X106348892Y-116331092D01*
X106225521Y-116361935D01*
X106163835Y-116392778D01*
X106102150Y-116454464D01*
X106071307Y-116546992D01*
X106071307Y-116608678D01*
X106102150Y-116701207D01*
X106132992Y-116732050D01*
X106071307Y-116947950D02*
X106071307Y-117379750D01*
X106719007Y-117102164D01*
X57381321Y-103397050D02*
X57412164Y-103366207D01*
X57443007Y-103273678D01*
X57443007Y-103211992D01*
X57412164Y-103119464D01*
X57350478Y-103057778D01*
X57288792Y-103026935D01*
X57165421Y-102996092D01*
X57072892Y-102996092D01*
X56949521Y-103026935D01*
X56887835Y-103057778D01*
X56826150Y-103119464D01*
X56795307Y-103211992D01*
X56795307Y-103273678D01*
X56826150Y-103366207D01*
X56856992Y-103397050D01*
X56795307Y-103952221D02*
X56795307Y-103828850D01*
X56826150Y-103767164D01*
X56856992Y-103736321D01*
X56949521Y-103674635D01*
X57072892Y-103643792D01*
X57319635Y-103643792D01*
X57381321Y-103674635D01*
X57412164Y-103705478D01*
X57443007Y-103767164D01*
X57443007Y-103890535D01*
X57412164Y-103952221D01*
X57381321Y-103983064D01*
X57319635Y-104013907D01*
X57165421Y-104013907D01*
X57103735Y-103983064D01*
X57072892Y-103952221D01*
X57042050Y-103890535D01*
X57042050Y-103767164D01*
X57072892Y-103705478D01*
X57103735Y-103674635D01*
X57165421Y-103643792D01*
X55088064Y-93257007D02*
X55088064Y-92609307D01*
X54933850Y-92609307D01*
X54841321Y-92640150D01*
X54779635Y-92701835D01*
X54748792Y-92763521D01*
X54717950Y-92886892D01*
X54717950Y-92979421D01*
X54748792Y-93102792D01*
X54779635Y-93164478D01*
X54841321Y-93226164D01*
X54933850Y-93257007D01*
X55088064Y-93257007D01*
X54502050Y-92609307D02*
X54101092Y-92609307D01*
X54316992Y-92856050D01*
X54224464Y-92856050D01*
X54162778Y-92886892D01*
X54131935Y-92917735D01*
X54101092Y-92979421D01*
X54101092Y-93133635D01*
X54131935Y-93195321D01*
X54162778Y-93226164D01*
X54224464Y-93257007D01*
X54409521Y-93257007D01*
X54471207Y-93226164D01*
X54502050Y-93195321D01*
X49373064Y-108243007D02*
X49373064Y-107595307D01*
X49218850Y-107595307D01*
X49126321Y-107626150D01*
X49064635Y-107687835D01*
X49033792Y-107749521D01*
X49002950Y-107872892D01*
X49002950Y-107965421D01*
X49033792Y-108088792D01*
X49064635Y-108150478D01*
X49126321Y-108212164D01*
X49218850Y-108243007D01*
X49373064Y-108243007D01*
X48447778Y-107811207D02*
X48447778Y-108243007D01*
X48601992Y-107564464D02*
X48756207Y-108027107D01*
X48355250Y-108027107D01*
D11*
X52966904Y-106302380D02*
X52966904Y-105302380D01*
X52395476Y-106302380D02*
X52824047Y-105730952D01*
X52395476Y-105302380D02*
X52966904Y-105873809D01*
D14*
X57103735Y-105829100D02*
X57103735Y-105613200D01*
X57443007Y-105613200D02*
X56795307Y-105613200D01*
X56795307Y-105921628D01*
X57443007Y-106507642D02*
X57443007Y-106137528D01*
X57443007Y-106322585D02*
X56795307Y-106322585D01*
X56887835Y-106260900D01*
X56949521Y-106199214D01*
X56980364Y-106137528D01*
X63031007Y-97047050D02*
X63031007Y-96738621D01*
X62383307Y-96738621D01*
X63031007Y-97602221D02*
X63031007Y-97232107D01*
X63031007Y-97417164D02*
X62383307Y-97417164D01*
X62475835Y-97355478D01*
X62537521Y-97293792D01*
X62568364Y-97232107D01*
X58928907Y-144113735D02*
X58836378Y-144144578D01*
X58805535Y-144175421D01*
X58774692Y-144237107D01*
X58774692Y-144329635D01*
X58805535Y-144391321D01*
X58836378Y-144422164D01*
X58898064Y-144453007D01*
X59144807Y-144453007D01*
X59144807Y-143805307D01*
X58928907Y-143805307D01*
X58867221Y-143836150D01*
X58836378Y-143866992D01*
X58805535Y-143928678D01*
X58805535Y-143990364D01*
X58836378Y-144052050D01*
X58867221Y-144082892D01*
X58928907Y-144113735D01*
X59144807Y-144113735D01*
X58589635Y-143805307D02*
X58219521Y-143805307D01*
X58404578Y-144453007D02*
X58404578Y-143805307D01*
X57664350Y-144453007D02*
X58034464Y-144453007D01*
X57849407Y-144453007D02*
X57849407Y-143805307D01*
X57911092Y-143897835D01*
X57972778Y-143959521D01*
X58034464Y-143990364D01*
D11*
X55181428Y-124567142D02*
X54038571Y-124567142D01*
X55181428Y-137267142D02*
X54038571Y-137267142D01*
X54610000Y-137838571D02*
X54610000Y-136695714D01*
X71691428Y-124567142D02*
X70548571Y-124567142D01*
X93281428Y-124567142D02*
X92138571Y-124567142D01*
X92710000Y-125138571D02*
X92710000Y-123995714D01*
X71691428Y-137267142D02*
X70548571Y-137267142D01*
X71120000Y-137838571D02*
X71120000Y-136695714D01*
X93281428Y-137267142D02*
X92138571Y-137267142D01*
D14*
X82019321Y-101183621D02*
X82050164Y-101152778D01*
X82081007Y-101060250D01*
X82081007Y-100998564D01*
X82050164Y-100906035D01*
X81988478Y-100844350D01*
X81926792Y-100813507D01*
X81803421Y-100782664D01*
X81710892Y-100782664D01*
X81587521Y-100813507D01*
X81525835Y-100844350D01*
X81464150Y-100906035D01*
X81433307Y-100998564D01*
X81433307Y-101060250D01*
X81464150Y-101152778D01*
X81494992Y-101183621D01*
X82081007Y-101800478D02*
X82081007Y-101430364D01*
X82081007Y-101615421D02*
X81433307Y-101615421D01*
X81525835Y-101553735D01*
X81587521Y-101492050D01*
X81618364Y-101430364D01*
X81433307Y-102201435D02*
X81433307Y-102263121D01*
X81464150Y-102324807D01*
X81494992Y-102355650D01*
X81556678Y-102386492D01*
X81680050Y-102417335D01*
X81834264Y-102417335D01*
X81957635Y-102386492D01*
X82019321Y-102355650D01*
X82050164Y-102324807D01*
X82081007Y-102263121D01*
X82081007Y-102201435D01*
X82050164Y-102139750D01*
X82019321Y-102108907D01*
X81957635Y-102078064D01*
X81834264Y-102047221D01*
X81680050Y-102047221D01*
X81556678Y-102078064D01*
X81494992Y-102108907D01*
X81464150Y-102139750D01*
X81433307Y-102201435D01*
X78336321Y-99587050D02*
X78367164Y-99556207D01*
X78398007Y-99463678D01*
X78398007Y-99401992D01*
X78367164Y-99309464D01*
X78305478Y-99247778D01*
X78243792Y-99216935D01*
X78120421Y-99186092D01*
X78027892Y-99186092D01*
X77904521Y-99216935D01*
X77842835Y-99247778D01*
X77781150Y-99309464D01*
X77750307Y-99401992D01*
X77750307Y-99463678D01*
X77781150Y-99556207D01*
X77811992Y-99587050D01*
X78398007Y-100203907D02*
X78398007Y-99833792D01*
X78398007Y-100018850D02*
X77750307Y-100018850D01*
X77842835Y-99957164D01*
X77904521Y-99895478D01*
X77935364Y-99833792D01*
X55987950Y-110086321D02*
X56018792Y-110117164D01*
X56111321Y-110148007D01*
X56173007Y-110148007D01*
X56265535Y-110117164D01*
X56327221Y-110055478D01*
X56358064Y-109993792D01*
X56388907Y-109870421D01*
X56388907Y-109777892D01*
X56358064Y-109654521D01*
X56327221Y-109592835D01*
X56265535Y-109531150D01*
X56173007Y-109500307D01*
X56111321Y-109500307D01*
X56018792Y-109531150D01*
X55987950Y-109561992D01*
X55617835Y-109777892D02*
X55679521Y-109747050D01*
X55710364Y-109716207D01*
X55741207Y-109654521D01*
X55741207Y-109623678D01*
X55710364Y-109561992D01*
X55679521Y-109531150D01*
X55617835Y-109500307D01*
X55494464Y-109500307D01*
X55432778Y-109531150D01*
X55401935Y-109561992D01*
X55371092Y-109623678D01*
X55371092Y-109654521D01*
X55401935Y-109716207D01*
X55432778Y-109747050D01*
X55494464Y-109777892D01*
X55617835Y-109777892D01*
X55679521Y-109808735D01*
X55710364Y-109839578D01*
X55741207Y-109901264D01*
X55741207Y-110024635D01*
X55710364Y-110086321D01*
X55679521Y-110117164D01*
X55617835Y-110148007D01*
X55494464Y-110148007D01*
X55432778Y-110117164D01*
X55401935Y-110086321D01*
X55371092Y-110024635D01*
X55371092Y-109901264D01*
X55401935Y-109839578D01*
X55432778Y-109808735D01*
X55494464Y-109777892D01*
X57381321Y-100857050D02*
X57412164Y-100826207D01*
X57443007Y-100733678D01*
X57443007Y-100671992D01*
X57412164Y-100579464D01*
X57350478Y-100517778D01*
X57288792Y-100486935D01*
X57165421Y-100456092D01*
X57072892Y-100456092D01*
X56949521Y-100486935D01*
X56887835Y-100517778D01*
X56826150Y-100579464D01*
X56795307Y-100671992D01*
X56795307Y-100733678D01*
X56826150Y-100826207D01*
X56856992Y-100857050D01*
X56795307Y-101443064D02*
X56795307Y-101134635D01*
X57103735Y-101103792D01*
X57072892Y-101134635D01*
X57042050Y-101196321D01*
X57042050Y-101350535D01*
X57072892Y-101412221D01*
X57103735Y-101443064D01*
X57165421Y-101473907D01*
X57319635Y-101473907D01*
X57381321Y-101443064D01*
X57412164Y-101412221D01*
X57443007Y-101350535D01*
X57443007Y-101196321D01*
X57412164Y-101134635D01*
X57381321Y-101103792D01*
X105009950Y-114531321D02*
X105040792Y-114562164D01*
X105133321Y-114593007D01*
X105195007Y-114593007D01*
X105287535Y-114562164D01*
X105349221Y-114500478D01*
X105380064Y-114438792D01*
X105410907Y-114315421D01*
X105410907Y-114222892D01*
X105380064Y-114099521D01*
X105349221Y-114037835D01*
X105287535Y-113976150D01*
X105195007Y-113945307D01*
X105133321Y-113945307D01*
X105040792Y-113976150D01*
X105009950Y-114006992D01*
X104701521Y-114593007D02*
X104578150Y-114593007D01*
X104516464Y-114562164D01*
X104485621Y-114531321D01*
X104423935Y-114438792D01*
X104393092Y-114315421D01*
X104393092Y-114068678D01*
X104423935Y-114006992D01*
X104454778Y-113976150D01*
X104516464Y-113945307D01*
X104639835Y-113945307D01*
X104701521Y-113976150D01*
X104732364Y-114006992D01*
X104763207Y-114068678D01*
X104763207Y-114222892D01*
X104732364Y-114284578D01*
X104701521Y-114315421D01*
X104639835Y-114346264D01*
X104516464Y-114346264D01*
X104454778Y-114315421D01*
X104423935Y-114284578D01*
X104393092Y-114222892D01*
X56222807Y-89954100D02*
X56685450Y-89954100D01*
X56777978Y-89923257D01*
X56839664Y-89861571D01*
X56870507Y-89769042D01*
X56870507Y-89707357D01*
X56870507Y-90601800D02*
X56870507Y-90231685D01*
X56870507Y-90416742D02*
X56222807Y-90416742D01*
X56315335Y-90355057D01*
X56377021Y-90293371D01*
X56407864Y-90231685D01*
X68423064Y-98591007D02*
X68423064Y-97943307D01*
X68268850Y-97943307D01*
X68176321Y-97974150D01*
X68114635Y-98035835D01*
X68083792Y-98097521D01*
X68052950Y-98220892D01*
X68052950Y-98313421D01*
X68083792Y-98436792D01*
X68114635Y-98498478D01*
X68176321Y-98560164D01*
X68268850Y-98591007D01*
X68423064Y-98591007D01*
X67466935Y-97943307D02*
X67775364Y-97943307D01*
X67806207Y-98251735D01*
X67775364Y-98220892D01*
X67713678Y-98190050D01*
X67559464Y-98190050D01*
X67497778Y-98220892D01*
X67466935Y-98251735D01*
X67436092Y-98313421D01*
X67436092Y-98467635D01*
X67466935Y-98529321D01*
X67497778Y-98560164D01*
X67559464Y-98591007D01*
X67713678Y-98591007D01*
X67775364Y-98560164D01*
X67806207Y-98529321D01*
X51293485Y-96165307D02*
X51293485Y-96689635D01*
X51262642Y-96751321D01*
X51231800Y-96782164D01*
X51170114Y-96813007D01*
X51046742Y-96813007D01*
X50985057Y-96782164D01*
X50954214Y-96751321D01*
X50923371Y-96689635D01*
X50923371Y-96165307D01*
X50676628Y-96165307D02*
X50275671Y-96165307D01*
X50491571Y-96412050D01*
X50399042Y-96412050D01*
X50337357Y-96442892D01*
X50306514Y-96473735D01*
X50275671Y-96535421D01*
X50275671Y-96689635D01*
X50306514Y-96751321D01*
X50337357Y-96782164D01*
X50399042Y-96813007D01*
X50584100Y-96813007D01*
X50645785Y-96782164D01*
X50676628Y-96751321D01*
X41379900Y-136297307D02*
X41379900Y-136759950D01*
X41410742Y-136852478D01*
X41472428Y-136914164D01*
X41564957Y-136945007D01*
X41626642Y-136945007D01*
X41133157Y-136297307D02*
X40732200Y-136297307D01*
X40948100Y-136544050D01*
X40855571Y-136544050D01*
X40793885Y-136574892D01*
X40763042Y-136605735D01*
X40732200Y-136667421D01*
X40732200Y-136821635D01*
X40763042Y-136883321D01*
X40793885Y-136914164D01*
X40855571Y-136945007D01*
X41040628Y-136945007D01*
X41102314Y-136914164D01*
X41133157Y-136883321D01*
X57643485Y-95530307D02*
X57643485Y-96054635D01*
X57612642Y-96116321D01*
X57581800Y-96147164D01*
X57520114Y-96178007D01*
X57396742Y-96178007D01*
X57335057Y-96147164D01*
X57304214Y-96116321D01*
X57273371Y-96054635D01*
X57273371Y-95530307D01*
X56995785Y-95591992D02*
X56964942Y-95561150D01*
X56903257Y-95530307D01*
X56749042Y-95530307D01*
X56687357Y-95561150D01*
X56656514Y-95591992D01*
X56625671Y-95653678D01*
X56625671Y-95715364D01*
X56656514Y-95807892D01*
X57026628Y-96178007D01*
X56625671Y-96178007D01*
X46462950Y-111418007D02*
X46678850Y-111109578D01*
X46833064Y-111418007D02*
X46833064Y-110770307D01*
X46586321Y-110770307D01*
X46524635Y-110801150D01*
X46493792Y-110831992D01*
X46462950Y-110893678D01*
X46462950Y-110986207D01*
X46493792Y-111047892D01*
X46524635Y-111078735D01*
X46586321Y-111109578D01*
X46833064Y-111109578D01*
X45846092Y-111418007D02*
X46216207Y-111418007D01*
X46031150Y-111418007D02*
X46031150Y-110770307D01*
X46092835Y-110862835D01*
X46154521Y-110924521D01*
X46216207Y-110955364D01*
X52177950Y-112688007D02*
X52393850Y-112379578D01*
X52548064Y-112688007D02*
X52548064Y-112040307D01*
X52301321Y-112040307D01*
X52239635Y-112071150D01*
X52208792Y-112101992D01*
X52177950Y-112163678D01*
X52177950Y-112256207D01*
X52208792Y-112317892D01*
X52239635Y-112348735D01*
X52301321Y-112379578D01*
X52548064Y-112379578D01*
X51931207Y-112101992D02*
X51900364Y-112071150D01*
X51838678Y-112040307D01*
X51684464Y-112040307D01*
X51622778Y-112071150D01*
X51591935Y-112101992D01*
X51561092Y-112163678D01*
X51561092Y-112225364D01*
X51591935Y-112317892D01*
X51962050Y-112688007D01*
X51561092Y-112688007D01*
X49103007Y-98952050D02*
X48794578Y-98736150D01*
X49103007Y-98581935D02*
X48455307Y-98581935D01*
X48455307Y-98828678D01*
X48486150Y-98890364D01*
X48516992Y-98921207D01*
X48578678Y-98952050D01*
X48671207Y-98952050D01*
X48732892Y-98921207D01*
X48763735Y-98890364D01*
X48794578Y-98828678D01*
X48794578Y-98581935D01*
X48455307Y-99167950D02*
X48455307Y-99568907D01*
X48702050Y-99353007D01*
X48702050Y-99445535D01*
X48732892Y-99507221D01*
X48763735Y-99538064D01*
X48825421Y-99568907D01*
X48979635Y-99568907D01*
X49041321Y-99538064D01*
X49072164Y-99507221D01*
X49103007Y-99445535D01*
X49103007Y-99260478D01*
X49072164Y-99198792D01*
X49041321Y-99167950D01*
X73005950Y-98591007D02*
X73221850Y-98282578D01*
X73376064Y-98591007D02*
X73376064Y-97943307D01*
X73129321Y-97943307D01*
X73067635Y-97974150D01*
X73036792Y-98004992D01*
X73005950Y-98066678D01*
X73005950Y-98159207D01*
X73036792Y-98220892D01*
X73067635Y-98251735D01*
X73129321Y-98282578D01*
X73376064Y-98282578D01*
X72450778Y-98159207D02*
X72450778Y-98591007D01*
X72604992Y-97912464D02*
X72759207Y-98375107D01*
X72358250Y-98375107D01*
X102655007Y-115208050D02*
X102346578Y-114992150D01*
X102655007Y-114837935D02*
X102007307Y-114837935D01*
X102007307Y-115084678D01*
X102038150Y-115146364D01*
X102068992Y-115177207D01*
X102130678Y-115208050D01*
X102223207Y-115208050D01*
X102284892Y-115177207D01*
X102315735Y-115146364D01*
X102346578Y-115084678D01*
X102346578Y-114837935D01*
X102007307Y-115763221D02*
X102007307Y-115639850D01*
X102038150Y-115578164D01*
X102068992Y-115547321D01*
X102161521Y-115485635D01*
X102284892Y-115454792D01*
X102531635Y-115454792D01*
X102593321Y-115485635D01*
X102624164Y-115516478D01*
X102655007Y-115578164D01*
X102655007Y-115701535D01*
X102624164Y-115763221D01*
X102593321Y-115794064D01*
X102531635Y-115824907D01*
X102377421Y-115824907D01*
X102315735Y-115794064D01*
X102284892Y-115763221D01*
X102254050Y-115701535D01*
X102254050Y-115578164D01*
X102284892Y-115516478D01*
X102315735Y-115485635D01*
X102377421Y-115454792D01*
X94949187Y-100355003D02*
X95167279Y-100573095D01*
X94861950Y-99962437D02*
X94949187Y-100355003D01*
X94556621Y-100267766D01*
X94622049Y-101118325D02*
X94883759Y-100856614D01*
X94752904Y-100987470D02*
X94294911Y-100529477D01*
X94403957Y-100551286D01*
X94491194Y-100551286D01*
X94556621Y-100529477D01*
X114593007Y-115143621D02*
X114593007Y-114835192D01*
X113945307Y-114835192D01*
X114562164Y-115328678D02*
X114593007Y-115421207D01*
X114593007Y-115575421D01*
X114562164Y-115637107D01*
X114531321Y-115667950D01*
X114469635Y-115698792D01*
X114407950Y-115698792D01*
X114346264Y-115667950D01*
X114315421Y-115637107D01*
X114284578Y-115575421D01*
X114253735Y-115452050D01*
X114222892Y-115390364D01*
X114192050Y-115359521D01*
X114130364Y-115328678D01*
X114068678Y-115328678D01*
X114006992Y-115359521D01*
X113976150Y-115390364D01*
X113945307Y-115452050D01*
X113945307Y-115606264D01*
X113976150Y-115698792D01*
X114593007Y-116315650D02*
X114593007Y-115945535D01*
X114593007Y-116130592D02*
X113945307Y-116130592D01*
X114037835Y-116068907D01*
X114099521Y-116007221D01*
X114130364Y-115945535D01*
D11*
X113736428Y-111369047D02*
X113736428Y-112130952D01*
X114117380Y-111750000D02*
X113355476Y-111750000D01*
D14*
X44172164Y-113361400D02*
X44203007Y-113453928D01*
X44203007Y-113608142D01*
X44172164Y-113669828D01*
X44141321Y-113700671D01*
X44079635Y-113731514D01*
X44017950Y-113731514D01*
X43956264Y-113700671D01*
X43925421Y-113669828D01*
X43894578Y-113608142D01*
X43863735Y-113484771D01*
X43832892Y-113423085D01*
X43802050Y-113392242D01*
X43740364Y-113361400D01*
X43678678Y-113361400D01*
X43616992Y-113392242D01*
X43586150Y-113423085D01*
X43555307Y-113484771D01*
X43555307Y-113638985D01*
X43586150Y-113731514D01*
X43555307Y-113947414D02*
X44203007Y-114101628D01*
X43740364Y-114225000D01*
X44203007Y-114348371D01*
X43555307Y-114502585D01*
X44203007Y-115088600D02*
X44203007Y-114718485D01*
X44203007Y-114903542D02*
X43555307Y-114903542D01*
X43647835Y-114841857D01*
X43709521Y-114780171D01*
X43740364Y-114718485D01*
X62510307Y-104281514D02*
X63034635Y-104281514D01*
X63096321Y-104312357D01*
X63127164Y-104343200D01*
X63158007Y-104404885D01*
X63158007Y-104528257D01*
X63127164Y-104589942D01*
X63096321Y-104620785D01*
X63034635Y-104651628D01*
X62510307Y-104651628D01*
X63158007Y-105299328D02*
X63158007Y-104929214D01*
X63158007Y-105114271D02*
X62510307Y-105114271D01*
X62602835Y-105052585D01*
X62664521Y-104990900D01*
X62695364Y-104929214D01*
X37983600Y-106082164D02*
X37891071Y-106113007D01*
X37736857Y-106113007D01*
X37675171Y-106082164D01*
X37644328Y-106051321D01*
X37613485Y-105989635D01*
X37613485Y-105927950D01*
X37644328Y-105866264D01*
X37675171Y-105835421D01*
X37736857Y-105804578D01*
X37860228Y-105773735D01*
X37921914Y-105742892D01*
X37952757Y-105712050D01*
X37983600Y-105650364D01*
X37983600Y-105588678D01*
X37952757Y-105526992D01*
X37921914Y-105496150D01*
X37860228Y-105465307D01*
X37706014Y-105465307D01*
X37613485Y-105496150D01*
X37397585Y-105465307D02*
X37243371Y-106113007D01*
X37120000Y-105650364D01*
X36996628Y-106113007D01*
X36842414Y-105465307D01*
X36657357Y-105465307D02*
X36225557Y-105465307D01*
X36503142Y-106113007D01*
X129423600Y-106082164D02*
X129331071Y-106113007D01*
X129176857Y-106113007D01*
X129115171Y-106082164D01*
X129084328Y-106051321D01*
X129053485Y-105989635D01*
X129053485Y-105927950D01*
X129084328Y-105866264D01*
X129115171Y-105835421D01*
X129176857Y-105804578D01*
X129300228Y-105773735D01*
X129361914Y-105742892D01*
X129392757Y-105712050D01*
X129423600Y-105650364D01*
X129423600Y-105588678D01*
X129392757Y-105526992D01*
X129361914Y-105496150D01*
X129300228Y-105465307D01*
X129146014Y-105465307D01*
X129053485Y-105496150D01*
X128837585Y-105465307D02*
X128683371Y-106113007D01*
X128560000Y-105650364D01*
X128436628Y-106113007D01*
X128282414Y-105465307D01*
X128097357Y-105465307D02*
X127696400Y-105465307D01*
X127912300Y-105712050D01*
X127819771Y-105712050D01*
X127758085Y-105742892D01*
X127727242Y-105773735D01*
X127696400Y-105835421D01*
X127696400Y-105989635D01*
X127727242Y-106051321D01*
X127758085Y-106082164D01*
X127819771Y-106113007D01*
X128004828Y-106113007D01*
X128066514Y-106082164D01*
X128097357Y-106051321D01*
M02*
