G04 #@! TF.GenerationSoftware,KiCad,Pcbnew,5.1.2-f72e74a~84~ubuntu18.04.1*
G04 #@! TF.CreationDate,2019-06-25T00:33:59+02:00*
G04 #@! TF.ProjectId,invaders,696e7661-6465-4727-932e-6b696361645f,rev?*
G04 #@! TF.SameCoordinates,Original*
G04 #@! TF.FileFunction,Soldermask,Top*
G04 #@! TF.FilePolarity,Negative*
%FSLAX46Y46*%
G04 Gerber Fmt 4.6, Leading zero omitted, Abs format (unit mm)*
G04 Created by KiCad (PCBNEW 5.1.2-f72e74a~84~ubuntu18.04.1) date 2019-06-25 00:33:59*
%MOMM*%
%LPD*%
G04 APERTURE LIST*
%ADD10C,0.065800*%
%ADD11C,0.100000*%
G04 APERTURE END LIST*
D10*
G36*
X78994000Y-150876000D02*
G01*
X78994000Y-151130000D01*
X78486000Y-151130000D01*
X78486000Y-150876000D01*
X78994000Y-150876000D01*
G37*
X78994000Y-150876000D02*
X78994000Y-151130000D01*
X78486000Y-151130000D01*
X78486000Y-150876000D01*
X78994000Y-150876000D01*
G36*
X78232000Y-151130000D02*
G01*
X77724000Y-151130000D01*
X77724000Y-151384000D01*
X77216000Y-151384000D01*
X77216000Y-151130000D01*
X77724000Y-151130000D01*
X77724000Y-150876000D01*
X77978000Y-150876000D01*
X77978000Y-150622000D01*
X77216000Y-150622000D01*
X77216000Y-150114000D01*
X77978000Y-150114000D01*
X77978000Y-150368000D01*
X78486000Y-150368000D01*
X78486000Y-150114000D01*
X78994000Y-150114000D01*
X78994000Y-150368000D01*
X79502000Y-150368000D01*
X79502000Y-150114000D01*
X78994000Y-150114000D01*
X78486000Y-150114000D01*
X77978000Y-150114000D01*
X77216000Y-150114000D01*
X77216000Y-149860000D01*
X77470000Y-149860000D01*
X77470000Y-149606000D01*
X78232000Y-149606000D01*
X78232000Y-149352000D01*
X79248000Y-149352000D01*
X79248000Y-149606000D01*
X80010000Y-149606000D01*
X80010000Y-149860000D01*
X80264000Y-149860000D01*
X80264000Y-150622000D01*
X79502000Y-150622000D01*
X79502000Y-150876000D01*
X79756000Y-150876000D01*
X79756000Y-151130000D01*
X80264000Y-151130000D01*
X80264000Y-151384000D01*
X79756000Y-151384000D01*
X79756000Y-151130000D01*
X79248000Y-151130000D01*
X79248000Y-150876000D01*
X78994000Y-150876000D01*
X78994000Y-150622000D01*
X78486000Y-150622000D01*
X78486000Y-150876000D01*
X78232000Y-150876000D01*
X78232000Y-151130000D01*
G37*
X78232000Y-151130000D02*
X77724000Y-151130000D01*
X77724000Y-151384000D01*
X77216000Y-151384000D01*
X77216000Y-151130000D01*
X77724000Y-151130000D01*
X77724000Y-150876000D01*
X77978000Y-150876000D01*
X77978000Y-150622000D01*
X77216000Y-150622000D01*
X77216000Y-150114000D01*
X77978000Y-150114000D01*
X77978000Y-150368000D01*
X78486000Y-150368000D01*
X78486000Y-150114000D01*
X78994000Y-150114000D01*
X78994000Y-150368000D01*
X79502000Y-150368000D01*
X79502000Y-150114000D01*
X78994000Y-150114000D01*
X78486000Y-150114000D01*
X77978000Y-150114000D01*
X77216000Y-150114000D01*
X77216000Y-149860000D01*
X77470000Y-149860000D01*
X77470000Y-149606000D01*
X78232000Y-149606000D01*
X78232000Y-149352000D01*
X79248000Y-149352000D01*
X79248000Y-149606000D01*
X80010000Y-149606000D01*
X80010000Y-149860000D01*
X80264000Y-149860000D01*
X80264000Y-150622000D01*
X79502000Y-150622000D01*
X79502000Y-150876000D01*
X79756000Y-150876000D01*
X79756000Y-151130000D01*
X80264000Y-151130000D01*
X80264000Y-151384000D01*
X79756000Y-151384000D01*
X79756000Y-151130000D01*
X79248000Y-151130000D01*
X79248000Y-150876000D01*
X78994000Y-150876000D01*
X78994000Y-150622000D01*
X78486000Y-150622000D01*
X78486000Y-150876000D01*
X78232000Y-150876000D01*
X78232000Y-151130000D01*
G36*
X83312000Y-150876000D02*
G01*
X83312000Y-151130000D01*
X83566000Y-151130000D01*
X83566000Y-151384000D01*
X83312000Y-151384000D01*
X83312000Y-151130000D01*
X83058000Y-151130000D01*
X83058000Y-150876000D01*
X83312000Y-150876000D01*
G37*
X83312000Y-150876000D02*
X83312000Y-151130000D01*
X83566000Y-151130000D01*
X83566000Y-151384000D01*
X83312000Y-151384000D01*
X83312000Y-151130000D01*
X83058000Y-151130000D01*
X83058000Y-150876000D01*
X83312000Y-150876000D01*
G36*
X83058000Y-151130000D02*
G01*
X83058000Y-151384000D01*
X82804000Y-151384000D01*
X82804000Y-151130000D01*
X83058000Y-151130000D01*
G37*
X83058000Y-151130000D02*
X83058000Y-151384000D01*
X82804000Y-151384000D01*
X82804000Y-151130000D01*
X83058000Y-151130000D01*
G36*
X82296000Y-151130000D02*
G01*
X82296000Y-151384000D01*
X82042000Y-151384000D01*
X82042000Y-151130000D01*
X82296000Y-151130000D01*
G37*
X82296000Y-151130000D02*
X82296000Y-151384000D01*
X82042000Y-151384000D01*
X82042000Y-151130000D01*
X82296000Y-151130000D01*
G36*
X82804000Y-150876000D02*
G01*
X82804000Y-151130000D01*
X82296000Y-151130000D01*
X82296000Y-150876000D01*
X82804000Y-150876000D01*
G37*
X82804000Y-150876000D02*
X82804000Y-151130000D01*
X82296000Y-151130000D01*
X82296000Y-150876000D01*
X82804000Y-150876000D01*
G36*
X82296000Y-150622000D02*
G01*
X82296000Y-150876000D01*
X82042000Y-150876000D01*
X82042000Y-151130000D01*
X81788000Y-151130000D01*
X81788000Y-151384000D01*
X81534000Y-151384000D01*
X81534000Y-151130000D01*
X81788000Y-151130000D01*
X81788000Y-150876000D01*
X82042000Y-150876000D01*
X82042000Y-150622000D01*
X81534000Y-150622000D01*
X81534000Y-150114000D01*
X81788000Y-150114000D01*
X82042000Y-150114000D01*
X82042000Y-150368000D01*
X82296000Y-150368000D01*
X82296000Y-150114000D01*
X82804000Y-150114000D01*
X82804000Y-150368000D01*
X83058000Y-150368000D01*
X83058000Y-150114000D01*
X82804000Y-150114000D01*
X82296000Y-150114000D01*
X82042000Y-150114000D01*
X81788000Y-150114000D01*
X81788000Y-149860000D01*
X82042000Y-149860000D01*
X82042000Y-149606000D01*
X82296000Y-149606000D01*
X82296000Y-149352000D01*
X82804000Y-149352000D01*
X82804000Y-149606000D01*
X83058000Y-149606000D01*
X83058000Y-149860000D01*
X83312000Y-149860000D01*
X83312000Y-150114000D01*
X83566000Y-150114000D01*
X83566000Y-150622000D01*
X83058000Y-150622000D01*
X83058000Y-150876000D01*
X82804000Y-150876000D01*
X82804000Y-150622000D01*
X82296000Y-150622000D01*
G37*
X82296000Y-150622000D02*
X82296000Y-150876000D01*
X82042000Y-150876000D01*
X82042000Y-151130000D01*
X81788000Y-151130000D01*
X81788000Y-151384000D01*
X81534000Y-151384000D01*
X81534000Y-151130000D01*
X81788000Y-151130000D01*
X81788000Y-150876000D01*
X82042000Y-150876000D01*
X82042000Y-150622000D01*
X81534000Y-150622000D01*
X81534000Y-150114000D01*
X81788000Y-150114000D01*
X82042000Y-150114000D01*
X82042000Y-150368000D01*
X82296000Y-150368000D01*
X82296000Y-150114000D01*
X82804000Y-150114000D01*
X82804000Y-150368000D01*
X83058000Y-150368000D01*
X83058000Y-150114000D01*
X82804000Y-150114000D01*
X82296000Y-150114000D01*
X82042000Y-150114000D01*
X81788000Y-150114000D01*
X81788000Y-149860000D01*
X82042000Y-149860000D01*
X82042000Y-149606000D01*
X82296000Y-149606000D01*
X82296000Y-149352000D01*
X82804000Y-149352000D01*
X82804000Y-149606000D01*
X83058000Y-149606000D01*
X83058000Y-149860000D01*
X83312000Y-149860000D01*
X83312000Y-150114000D01*
X83566000Y-150114000D01*
X83566000Y-150622000D01*
X83058000Y-150622000D01*
X83058000Y-150876000D01*
X82804000Y-150876000D01*
X82804000Y-150622000D01*
X82296000Y-150622000D01*
G36*
X85852000Y-151130000D02*
G01*
X86360000Y-151130000D01*
X86360000Y-151384000D01*
X85852000Y-151384000D01*
X85852000Y-151130000D01*
X85598000Y-151130000D01*
X85598000Y-150622000D01*
X85344000Y-150622000D01*
X85344000Y-151130000D01*
X85090000Y-151130000D01*
X85090000Y-150368000D01*
X85344000Y-150368000D01*
X85344000Y-150114000D01*
X85598000Y-150114000D01*
X85852000Y-150114000D01*
X85852000Y-150368000D01*
X86106000Y-150368000D01*
X86106000Y-150114000D01*
X86868000Y-150114000D01*
X86868000Y-150368000D01*
X87122000Y-150368000D01*
X87122000Y-150114000D01*
X86868000Y-150114000D01*
X86106000Y-150114000D01*
X85852000Y-150114000D01*
X85598000Y-150114000D01*
X85598000Y-149860000D01*
X85852000Y-149860000D01*
X85852000Y-149606000D01*
X85598000Y-149606000D01*
X85598000Y-149352000D01*
X85852000Y-149352000D01*
X85852000Y-149606000D01*
X86106000Y-149606000D01*
X86106000Y-149860000D01*
X86868000Y-149860000D01*
X86868000Y-149606000D01*
X87122000Y-149606000D01*
X87122000Y-149352000D01*
X87376000Y-149352000D01*
X87376000Y-149606000D01*
X87122000Y-149606000D01*
X87122000Y-149860000D01*
X87376000Y-149860000D01*
X87376000Y-150114000D01*
X87630000Y-150114000D01*
X87630000Y-150368000D01*
X87884000Y-150368000D01*
X87884000Y-151130000D01*
X87630000Y-151130000D01*
X87630000Y-150622000D01*
X87376000Y-150622000D01*
X87376000Y-151130000D01*
X87122000Y-151130000D01*
X87122000Y-151384000D01*
X86614000Y-151384000D01*
X86614000Y-151130000D01*
X87122000Y-151130000D01*
X87122000Y-150876000D01*
X85852000Y-150876000D01*
X85852000Y-151130000D01*
G37*
X85852000Y-151130000D02*
X86360000Y-151130000D01*
X86360000Y-151384000D01*
X85852000Y-151384000D01*
X85852000Y-151130000D01*
X85598000Y-151130000D01*
X85598000Y-150622000D01*
X85344000Y-150622000D01*
X85344000Y-151130000D01*
X85090000Y-151130000D01*
X85090000Y-150368000D01*
X85344000Y-150368000D01*
X85344000Y-150114000D01*
X85598000Y-150114000D01*
X85852000Y-150114000D01*
X85852000Y-150368000D01*
X86106000Y-150368000D01*
X86106000Y-150114000D01*
X86868000Y-150114000D01*
X86868000Y-150368000D01*
X87122000Y-150368000D01*
X87122000Y-150114000D01*
X86868000Y-150114000D01*
X86106000Y-150114000D01*
X85852000Y-150114000D01*
X85598000Y-150114000D01*
X85598000Y-149860000D01*
X85852000Y-149860000D01*
X85852000Y-149606000D01*
X85598000Y-149606000D01*
X85598000Y-149352000D01*
X85852000Y-149352000D01*
X85852000Y-149606000D01*
X86106000Y-149606000D01*
X86106000Y-149860000D01*
X86868000Y-149860000D01*
X86868000Y-149606000D01*
X87122000Y-149606000D01*
X87122000Y-149352000D01*
X87376000Y-149352000D01*
X87376000Y-149606000D01*
X87122000Y-149606000D01*
X87122000Y-149860000D01*
X87376000Y-149860000D01*
X87376000Y-150114000D01*
X87630000Y-150114000D01*
X87630000Y-150368000D01*
X87884000Y-150368000D01*
X87884000Y-151130000D01*
X87630000Y-151130000D01*
X87630000Y-150622000D01*
X87376000Y-150622000D01*
X87376000Y-151130000D01*
X87122000Y-151130000D01*
X87122000Y-151384000D01*
X86614000Y-151384000D01*
X86614000Y-151130000D01*
X87122000Y-151130000D01*
X87122000Y-150876000D01*
X85852000Y-150876000D01*
X85852000Y-151130000D01*
G36*
X87376000Y-148336000D02*
G01*
X87376000Y-148590000D01*
X87630000Y-148590000D01*
X87630000Y-148844000D01*
X87376000Y-148844000D01*
X87376000Y-148590000D01*
X87122000Y-148590000D01*
X87122000Y-148336000D01*
X87376000Y-148336000D01*
G37*
X87376000Y-148336000D02*
X87376000Y-148590000D01*
X87630000Y-148590000D01*
X87630000Y-148844000D01*
X87376000Y-148844000D01*
X87376000Y-148590000D01*
X87122000Y-148590000D01*
X87122000Y-148336000D01*
X87376000Y-148336000D01*
G36*
X87122000Y-148590000D02*
G01*
X87122000Y-148844000D01*
X86868000Y-148844000D01*
X86868000Y-148590000D01*
X87122000Y-148590000D01*
G37*
X87122000Y-148590000D02*
X87122000Y-148844000D01*
X86868000Y-148844000D01*
X86868000Y-148590000D01*
X87122000Y-148590000D01*
G36*
X86360000Y-148590000D02*
G01*
X86360000Y-148844000D01*
X86106000Y-148844000D01*
X86106000Y-148590000D01*
X86360000Y-148590000D01*
G37*
X86360000Y-148590000D02*
X86360000Y-148844000D01*
X86106000Y-148844000D01*
X86106000Y-148590000D01*
X86360000Y-148590000D01*
G36*
X86868000Y-148336000D02*
G01*
X86868000Y-148590000D01*
X86360000Y-148590000D01*
X86360000Y-148336000D01*
X86868000Y-148336000D01*
G37*
X86868000Y-148336000D02*
X86868000Y-148590000D01*
X86360000Y-148590000D01*
X86360000Y-148336000D01*
X86868000Y-148336000D01*
G36*
X86360000Y-148082000D02*
G01*
X86360000Y-148336000D01*
X86106000Y-148336000D01*
X86106000Y-148590000D01*
X85852000Y-148590000D01*
X85852000Y-148844000D01*
X85598000Y-148844000D01*
X85598000Y-148590000D01*
X85852000Y-148590000D01*
X85852000Y-148336000D01*
X86106000Y-148336000D01*
X86106000Y-148082000D01*
X85598000Y-148082000D01*
X85598000Y-147574000D01*
X85852000Y-147574000D01*
X86106000Y-147574000D01*
X86106000Y-147828000D01*
X86360000Y-147828000D01*
X86360000Y-147574000D01*
X86868000Y-147574000D01*
X86868000Y-147828000D01*
X87122000Y-147828000D01*
X87122000Y-147574000D01*
X86868000Y-147574000D01*
X86360000Y-147574000D01*
X86106000Y-147574000D01*
X85852000Y-147574000D01*
X85852000Y-147320000D01*
X86106000Y-147320000D01*
X86106000Y-147066000D01*
X86360000Y-147066000D01*
X86360000Y-146812000D01*
X86868000Y-146812000D01*
X86868000Y-147066000D01*
X87122000Y-147066000D01*
X87122000Y-147320000D01*
X87376000Y-147320000D01*
X87376000Y-147574000D01*
X87630000Y-147574000D01*
X87630000Y-148082000D01*
X87122000Y-148082000D01*
X87122000Y-148336000D01*
X86868000Y-148336000D01*
X86868000Y-148082000D01*
X86360000Y-148082000D01*
G37*
X86360000Y-148082000D02*
X86360000Y-148336000D01*
X86106000Y-148336000D01*
X86106000Y-148590000D01*
X85852000Y-148590000D01*
X85852000Y-148844000D01*
X85598000Y-148844000D01*
X85598000Y-148590000D01*
X85852000Y-148590000D01*
X85852000Y-148336000D01*
X86106000Y-148336000D01*
X86106000Y-148082000D01*
X85598000Y-148082000D01*
X85598000Y-147574000D01*
X85852000Y-147574000D01*
X86106000Y-147574000D01*
X86106000Y-147828000D01*
X86360000Y-147828000D01*
X86360000Y-147574000D01*
X86868000Y-147574000D01*
X86868000Y-147828000D01*
X87122000Y-147828000D01*
X87122000Y-147574000D01*
X86868000Y-147574000D01*
X86360000Y-147574000D01*
X86106000Y-147574000D01*
X85852000Y-147574000D01*
X85852000Y-147320000D01*
X86106000Y-147320000D01*
X86106000Y-147066000D01*
X86360000Y-147066000D01*
X86360000Y-146812000D01*
X86868000Y-146812000D01*
X86868000Y-147066000D01*
X87122000Y-147066000D01*
X87122000Y-147320000D01*
X87376000Y-147320000D01*
X87376000Y-147574000D01*
X87630000Y-147574000D01*
X87630000Y-148082000D01*
X87122000Y-148082000D01*
X87122000Y-148336000D01*
X86868000Y-148336000D01*
X86868000Y-148082000D01*
X86360000Y-148082000D01*
G36*
X82804000Y-148336000D02*
G01*
X82804000Y-148590000D01*
X82296000Y-148590000D01*
X82296000Y-148336000D01*
X82804000Y-148336000D01*
G37*
X82804000Y-148336000D02*
X82804000Y-148590000D01*
X82296000Y-148590000D01*
X82296000Y-148336000D01*
X82804000Y-148336000D01*
G36*
X82042000Y-148590000D02*
G01*
X81534000Y-148590000D01*
X81534000Y-148844000D01*
X81026000Y-148844000D01*
X81026000Y-148590000D01*
X81534000Y-148590000D01*
X81534000Y-148336000D01*
X81788000Y-148336000D01*
X81788000Y-148082000D01*
X81026000Y-148082000D01*
X81026000Y-147574000D01*
X81788000Y-147574000D01*
X81788000Y-147828000D01*
X82296000Y-147828000D01*
X82296000Y-147574000D01*
X82804000Y-147574000D01*
X82804000Y-147828000D01*
X83312000Y-147828000D01*
X83312000Y-147574000D01*
X82804000Y-147574000D01*
X82296000Y-147574000D01*
X81788000Y-147574000D01*
X81026000Y-147574000D01*
X81026000Y-147320000D01*
X81280000Y-147320000D01*
X81280000Y-147066000D01*
X82042000Y-147066000D01*
X82042000Y-146812000D01*
X83058000Y-146812000D01*
X83058000Y-147066000D01*
X83820000Y-147066000D01*
X83820000Y-147320000D01*
X84074000Y-147320000D01*
X84074000Y-148082000D01*
X83312000Y-148082000D01*
X83312000Y-148336000D01*
X83566000Y-148336000D01*
X83566000Y-148590000D01*
X84074000Y-148590000D01*
X84074000Y-148844000D01*
X83566000Y-148844000D01*
X83566000Y-148590000D01*
X83058000Y-148590000D01*
X83058000Y-148336000D01*
X82804000Y-148336000D01*
X82804000Y-148082000D01*
X82296000Y-148082000D01*
X82296000Y-148336000D01*
X82042000Y-148336000D01*
X82042000Y-148590000D01*
G37*
X82042000Y-148590000D02*
X81534000Y-148590000D01*
X81534000Y-148844000D01*
X81026000Y-148844000D01*
X81026000Y-148590000D01*
X81534000Y-148590000D01*
X81534000Y-148336000D01*
X81788000Y-148336000D01*
X81788000Y-148082000D01*
X81026000Y-148082000D01*
X81026000Y-147574000D01*
X81788000Y-147574000D01*
X81788000Y-147828000D01*
X82296000Y-147828000D01*
X82296000Y-147574000D01*
X82804000Y-147574000D01*
X82804000Y-147828000D01*
X83312000Y-147828000D01*
X83312000Y-147574000D01*
X82804000Y-147574000D01*
X82296000Y-147574000D01*
X81788000Y-147574000D01*
X81026000Y-147574000D01*
X81026000Y-147320000D01*
X81280000Y-147320000D01*
X81280000Y-147066000D01*
X82042000Y-147066000D01*
X82042000Y-146812000D01*
X83058000Y-146812000D01*
X83058000Y-147066000D01*
X83820000Y-147066000D01*
X83820000Y-147320000D01*
X84074000Y-147320000D01*
X84074000Y-148082000D01*
X83312000Y-148082000D01*
X83312000Y-148336000D01*
X83566000Y-148336000D01*
X83566000Y-148590000D01*
X84074000Y-148590000D01*
X84074000Y-148844000D01*
X83566000Y-148844000D01*
X83566000Y-148590000D01*
X83058000Y-148590000D01*
X83058000Y-148336000D01*
X82804000Y-148336000D01*
X82804000Y-148082000D01*
X82296000Y-148082000D01*
X82296000Y-148336000D01*
X82042000Y-148336000D01*
X82042000Y-148590000D01*
G36*
X77978000Y-148590000D02*
G01*
X78486000Y-148590000D01*
X78486000Y-148844000D01*
X77978000Y-148844000D01*
X77978000Y-148590000D01*
X77724000Y-148590000D01*
X77724000Y-148082000D01*
X77470000Y-148082000D01*
X77470000Y-148590000D01*
X77216000Y-148590000D01*
X77216000Y-147828000D01*
X77470000Y-147828000D01*
X77470000Y-147574000D01*
X77724000Y-147574000D01*
X77978000Y-147574000D01*
X77978000Y-147828000D01*
X78232000Y-147828000D01*
X78232000Y-147574000D01*
X78994000Y-147574000D01*
X78994000Y-147828000D01*
X79248000Y-147828000D01*
X79248000Y-147574000D01*
X78994000Y-147574000D01*
X78232000Y-147574000D01*
X77978000Y-147574000D01*
X77724000Y-147574000D01*
X77724000Y-147320000D01*
X77978000Y-147320000D01*
X77978000Y-147066000D01*
X77724000Y-147066000D01*
X77724000Y-146812000D01*
X77978000Y-146812000D01*
X77978000Y-147066000D01*
X78232000Y-147066000D01*
X78232000Y-147320000D01*
X78994000Y-147320000D01*
X78994000Y-147066000D01*
X79248000Y-147066000D01*
X79248000Y-146812000D01*
X79502000Y-146812000D01*
X79502000Y-147066000D01*
X79248000Y-147066000D01*
X79248000Y-147320000D01*
X79502000Y-147320000D01*
X79502000Y-147574000D01*
X79756000Y-147574000D01*
X79756000Y-147828000D01*
X80010000Y-147828000D01*
X80010000Y-148590000D01*
X79756000Y-148590000D01*
X79756000Y-148082000D01*
X79502000Y-148082000D01*
X79502000Y-148590000D01*
X79248000Y-148590000D01*
X79248000Y-148844000D01*
X78740000Y-148844000D01*
X78740000Y-148590000D01*
X79248000Y-148590000D01*
X79248000Y-148336000D01*
X77978000Y-148336000D01*
X77978000Y-148590000D01*
G37*
X77978000Y-148590000D02*
X78486000Y-148590000D01*
X78486000Y-148844000D01*
X77978000Y-148844000D01*
X77978000Y-148590000D01*
X77724000Y-148590000D01*
X77724000Y-148082000D01*
X77470000Y-148082000D01*
X77470000Y-148590000D01*
X77216000Y-148590000D01*
X77216000Y-147828000D01*
X77470000Y-147828000D01*
X77470000Y-147574000D01*
X77724000Y-147574000D01*
X77978000Y-147574000D01*
X77978000Y-147828000D01*
X78232000Y-147828000D01*
X78232000Y-147574000D01*
X78994000Y-147574000D01*
X78994000Y-147828000D01*
X79248000Y-147828000D01*
X79248000Y-147574000D01*
X78994000Y-147574000D01*
X78232000Y-147574000D01*
X77978000Y-147574000D01*
X77724000Y-147574000D01*
X77724000Y-147320000D01*
X77978000Y-147320000D01*
X77978000Y-147066000D01*
X77724000Y-147066000D01*
X77724000Y-146812000D01*
X77978000Y-146812000D01*
X77978000Y-147066000D01*
X78232000Y-147066000D01*
X78232000Y-147320000D01*
X78994000Y-147320000D01*
X78994000Y-147066000D01*
X79248000Y-147066000D01*
X79248000Y-146812000D01*
X79502000Y-146812000D01*
X79502000Y-147066000D01*
X79248000Y-147066000D01*
X79248000Y-147320000D01*
X79502000Y-147320000D01*
X79502000Y-147574000D01*
X79756000Y-147574000D01*
X79756000Y-147828000D01*
X80010000Y-147828000D01*
X80010000Y-148590000D01*
X79756000Y-148590000D01*
X79756000Y-148082000D01*
X79502000Y-148082000D01*
X79502000Y-148590000D01*
X79248000Y-148590000D01*
X79248000Y-148844000D01*
X78740000Y-148844000D01*
X78740000Y-148590000D01*
X79248000Y-148590000D01*
X79248000Y-148336000D01*
X77978000Y-148336000D01*
X77978000Y-148590000D01*
D11*
G36*
X54126506Y-158469581D02*
G01*
X54238528Y-158515982D01*
X54317740Y-158548793D01*
X54489846Y-158663791D01*
X54636209Y-158810154D01*
X54751207Y-158982260D01*
X54751207Y-158982261D01*
X54830419Y-159173494D01*
X54870800Y-159376504D01*
X54870800Y-159583496D01*
X54830419Y-159786506D01*
X54784018Y-159898528D01*
X54751207Y-159977740D01*
X54636209Y-160149846D01*
X54489846Y-160296209D01*
X54317740Y-160411207D01*
X54238528Y-160444018D01*
X54126506Y-160490419D01*
X53923496Y-160530800D01*
X53716504Y-160530800D01*
X53513494Y-160490419D01*
X53401472Y-160444018D01*
X53322260Y-160411207D01*
X53150154Y-160296209D01*
X53003791Y-160149846D01*
X52888793Y-159977740D01*
X52855982Y-159898528D01*
X52809581Y-159786506D01*
X52769200Y-159583496D01*
X52769200Y-159376504D01*
X52809581Y-159173494D01*
X52888793Y-158982261D01*
X52888793Y-158982260D01*
X53003791Y-158810154D01*
X53150154Y-158663791D01*
X53322260Y-158548793D01*
X53401472Y-158515982D01*
X53513494Y-158469581D01*
X53716504Y-158429200D01*
X53923496Y-158429200D01*
X54126506Y-158469581D01*
X54126506Y-158469581D01*
G37*
G36*
X48126506Y-158469581D02*
G01*
X48238528Y-158515982D01*
X48317740Y-158548793D01*
X48489846Y-158663791D01*
X48636209Y-158810154D01*
X48751207Y-158982260D01*
X48751207Y-158982261D01*
X48830419Y-159173494D01*
X48870800Y-159376504D01*
X48870800Y-159583496D01*
X48830419Y-159786506D01*
X48784018Y-159898528D01*
X48751207Y-159977740D01*
X48636209Y-160149846D01*
X48489846Y-160296209D01*
X48317740Y-160411207D01*
X48238528Y-160444018D01*
X48126506Y-160490419D01*
X47923496Y-160530800D01*
X47716504Y-160530800D01*
X47513494Y-160490419D01*
X47401472Y-160444018D01*
X47322260Y-160411207D01*
X47150154Y-160296209D01*
X47003791Y-160149846D01*
X46888793Y-159977740D01*
X46855982Y-159898528D01*
X46809581Y-159786506D01*
X46769200Y-159583496D01*
X46769200Y-159376504D01*
X46809581Y-159173494D01*
X46888793Y-158982261D01*
X46888793Y-158982260D01*
X47003791Y-158810154D01*
X47150154Y-158663791D01*
X47322260Y-158548793D01*
X47401472Y-158515982D01*
X47513494Y-158469581D01*
X47716504Y-158429200D01*
X47923496Y-158429200D01*
X48126506Y-158469581D01*
X48126506Y-158469581D01*
G37*
G36*
X52216732Y-156590739D02*
G01*
X52332754Y-156613817D01*
X52496689Y-156681721D01*
X52644227Y-156780303D01*
X52769697Y-156905773D01*
X52868279Y-157053311D01*
X52936183Y-157217246D01*
X52970800Y-157391279D01*
X52970800Y-157568721D01*
X52936183Y-157742754D01*
X52868279Y-157906689D01*
X52769697Y-158054227D01*
X52644227Y-158179697D01*
X52496689Y-158278279D01*
X52332754Y-158346183D01*
X52216732Y-158369261D01*
X52158722Y-158380800D01*
X51981278Y-158380800D01*
X51923268Y-158369261D01*
X51807246Y-158346183D01*
X51643311Y-158278279D01*
X51495773Y-158179697D01*
X51370303Y-158054227D01*
X51271721Y-157906689D01*
X51203817Y-157742754D01*
X51169200Y-157568721D01*
X51169200Y-157391279D01*
X51203817Y-157217246D01*
X51271721Y-157053311D01*
X51370303Y-156905773D01*
X51495773Y-156780303D01*
X51643311Y-156681721D01*
X51807246Y-156613817D01*
X51923268Y-156590739D01*
X51981278Y-156579200D01*
X52158722Y-156579200D01*
X52216732Y-156590739D01*
X52216732Y-156590739D01*
G37*
G36*
X136401584Y-152746865D02*
G01*
X136546534Y-152775697D01*
X136956154Y-152945367D01*
X137324802Y-153191689D01*
X137638311Y-153505198D01*
X137884633Y-153873846D01*
X138052154Y-154278279D01*
X138054303Y-154283467D01*
X138140800Y-154718314D01*
X138140800Y-155161686D01*
X138105172Y-155340800D01*
X138054303Y-155596534D01*
X137884633Y-156006154D01*
X137638311Y-156374802D01*
X137324802Y-156688311D01*
X136956154Y-156934633D01*
X136546534Y-157104303D01*
X136401584Y-157133135D01*
X136111686Y-157190800D01*
X135668314Y-157190800D01*
X135378416Y-157133135D01*
X135233466Y-157104303D01*
X134823846Y-156934633D01*
X134455198Y-156688311D01*
X134141689Y-156374802D01*
X133895367Y-156006154D01*
X133725697Y-155596534D01*
X133674828Y-155340800D01*
X133639200Y-155161686D01*
X133639200Y-154718314D01*
X133725697Y-154283467D01*
X133727846Y-154278279D01*
X133895367Y-153873846D01*
X134141689Y-153505198D01*
X134455198Y-153191689D01*
X134823846Y-152945367D01*
X135233466Y-152775697D01*
X135378416Y-152746865D01*
X135668314Y-152689200D01*
X136111686Y-152689200D01*
X136401584Y-152746865D01*
X136401584Y-152746865D01*
G37*
G36*
X29721584Y-152746865D02*
G01*
X29866534Y-152775697D01*
X30276154Y-152945367D01*
X30644802Y-153191689D01*
X30958311Y-153505198D01*
X31204633Y-153873846D01*
X31372154Y-154278279D01*
X31374303Y-154283467D01*
X31460800Y-154718314D01*
X31460800Y-155161686D01*
X31425172Y-155340800D01*
X31374303Y-155596534D01*
X31204633Y-156006154D01*
X30958311Y-156374802D01*
X30644802Y-156688311D01*
X30276154Y-156934633D01*
X29866534Y-157104303D01*
X29721584Y-157133135D01*
X29431686Y-157190800D01*
X28988314Y-157190800D01*
X28698416Y-157133135D01*
X28553466Y-157104303D01*
X28143846Y-156934633D01*
X27775198Y-156688311D01*
X27461689Y-156374802D01*
X27215367Y-156006154D01*
X27045697Y-155596534D01*
X26994828Y-155340800D01*
X26959200Y-155161686D01*
X26959200Y-154718314D01*
X27045697Y-154283467D01*
X27047846Y-154278279D01*
X27215367Y-153873846D01*
X27461689Y-153505198D01*
X27775198Y-153191689D01*
X28143846Y-152945367D01*
X28553466Y-152775697D01*
X28698416Y-152746865D01*
X28988314Y-152689200D01*
X29431686Y-152689200D01*
X29721584Y-152746865D01*
X29721584Y-152746865D01*
G37*
G36*
X52216732Y-152590739D02*
G01*
X52332754Y-152613817D01*
X52496689Y-152681721D01*
X52644227Y-152780303D01*
X52769697Y-152905773D01*
X52868279Y-153053311D01*
X52936183Y-153217246D01*
X52958507Y-153329475D01*
X52970800Y-153391278D01*
X52970800Y-153568722D01*
X52964316Y-153601321D01*
X52936183Y-153742754D01*
X52868279Y-153906689D01*
X52769697Y-154054227D01*
X52644227Y-154179697D01*
X52496689Y-154278279D01*
X52332754Y-154346183D01*
X52216732Y-154369261D01*
X52158722Y-154380800D01*
X51981278Y-154380800D01*
X51923268Y-154369261D01*
X51807246Y-154346183D01*
X51643311Y-154278279D01*
X51495773Y-154179697D01*
X51370303Y-154054227D01*
X51271721Y-153906689D01*
X51203817Y-153742754D01*
X51175684Y-153601321D01*
X51169200Y-153568722D01*
X51169200Y-153391278D01*
X51181493Y-153329475D01*
X51203817Y-153217246D01*
X51271721Y-153053311D01*
X51370303Y-152905773D01*
X51495773Y-152780303D01*
X51643311Y-152681721D01*
X51807246Y-152613817D01*
X51923268Y-152590739D01*
X51981278Y-152579200D01*
X52158722Y-152579200D01*
X52216732Y-152590739D01*
X52216732Y-152590739D01*
G37*
G36*
X52216732Y-148590739D02*
G01*
X52332754Y-148613817D01*
X52496689Y-148681721D01*
X52644227Y-148780303D01*
X52769697Y-148905773D01*
X52868279Y-149053311D01*
X52936183Y-149217246D01*
X52970800Y-149391279D01*
X52970800Y-149568721D01*
X52936183Y-149742754D01*
X52868279Y-149906689D01*
X52769697Y-150054227D01*
X52644227Y-150179697D01*
X52496689Y-150278279D01*
X52332754Y-150346183D01*
X52216732Y-150369261D01*
X52158722Y-150380800D01*
X51981278Y-150380800D01*
X51923268Y-150369261D01*
X51807246Y-150346183D01*
X51643311Y-150278279D01*
X51495773Y-150179697D01*
X51370303Y-150054227D01*
X51271721Y-149906689D01*
X51203817Y-149742754D01*
X51169200Y-149568721D01*
X51169200Y-149391279D01*
X51203817Y-149217246D01*
X51271721Y-149053311D01*
X51370303Y-148905773D01*
X51495773Y-148780303D01*
X51643311Y-148681721D01*
X51807246Y-148613817D01*
X51923268Y-148590739D01*
X51981278Y-148579200D01*
X52158722Y-148579200D01*
X52216732Y-148590739D01*
X52216732Y-148590739D01*
G37*
G36*
X48126506Y-146469581D02*
G01*
X48238528Y-146515982D01*
X48317740Y-146548793D01*
X48489846Y-146663791D01*
X48636209Y-146810154D01*
X48751207Y-146982260D01*
X48751207Y-146982261D01*
X48830419Y-147173494D01*
X48870800Y-147376504D01*
X48870800Y-147583496D01*
X48830419Y-147786506D01*
X48784018Y-147898528D01*
X48751207Y-147977740D01*
X48636209Y-148149846D01*
X48489846Y-148296209D01*
X48317740Y-148411207D01*
X48238528Y-148444018D01*
X48126506Y-148490419D01*
X47923496Y-148530800D01*
X47716504Y-148530800D01*
X47513494Y-148490419D01*
X47401472Y-148444018D01*
X47322260Y-148411207D01*
X47150154Y-148296209D01*
X47003791Y-148149846D01*
X46888793Y-147977740D01*
X46855982Y-147898528D01*
X46809581Y-147786506D01*
X46769200Y-147583496D01*
X46769200Y-147376504D01*
X46809581Y-147173494D01*
X46888793Y-146982261D01*
X46888793Y-146982260D01*
X47003791Y-146810154D01*
X47150154Y-146663791D01*
X47322260Y-146548793D01*
X47401472Y-146515982D01*
X47513494Y-146469581D01*
X47716504Y-146429200D01*
X47923496Y-146429200D01*
X48126506Y-146469581D01*
X48126506Y-146469581D01*
G37*
G36*
X54126506Y-146469581D02*
G01*
X54238528Y-146515982D01*
X54317740Y-146548793D01*
X54489846Y-146663791D01*
X54636209Y-146810154D01*
X54751207Y-146982260D01*
X54751207Y-146982261D01*
X54830419Y-147173494D01*
X54870800Y-147376504D01*
X54870800Y-147583496D01*
X54830419Y-147786506D01*
X54784018Y-147898528D01*
X54751207Y-147977740D01*
X54636209Y-148149846D01*
X54489846Y-148296209D01*
X54317740Y-148411207D01*
X54238528Y-148444018D01*
X54126506Y-148490419D01*
X53923496Y-148530800D01*
X53716504Y-148530800D01*
X53513494Y-148490419D01*
X53401472Y-148444018D01*
X53322260Y-148411207D01*
X53150154Y-148296209D01*
X53003791Y-148149846D01*
X52888793Y-147977740D01*
X52855982Y-147898528D01*
X52809581Y-147786506D01*
X52769200Y-147583496D01*
X52769200Y-147376504D01*
X52809581Y-147173494D01*
X52888793Y-146982261D01*
X52888793Y-146982260D01*
X53003791Y-146810154D01*
X53150154Y-146663791D01*
X53322260Y-146548793D01*
X53401472Y-146515982D01*
X53513494Y-146469581D01*
X53716504Y-146429200D01*
X53923496Y-146429200D01*
X54126506Y-146469581D01*
X54126506Y-146469581D01*
G37*
G36*
X117007273Y-141286403D02*
G01*
X117334997Y-141422151D01*
X117334999Y-141422152D01*
X117483472Y-141521359D01*
X117629942Y-141619227D01*
X117880773Y-141870058D01*
X118077849Y-142165003D01*
X118213597Y-142492727D01*
X118282800Y-142840635D01*
X118282800Y-143195365D01*
X118213597Y-143543273D01*
X118077849Y-143870997D01*
X118077848Y-143870999D01*
X117880772Y-144165943D01*
X117629943Y-144416772D01*
X117334999Y-144613848D01*
X117334998Y-144613849D01*
X117334997Y-144613849D01*
X117007273Y-144749597D01*
X116659365Y-144818800D01*
X116304635Y-144818800D01*
X115956727Y-144749597D01*
X115629003Y-144613849D01*
X115629002Y-144613849D01*
X115629001Y-144613848D01*
X115334057Y-144416772D01*
X115083228Y-144165943D01*
X114886152Y-143870999D01*
X114886151Y-143870997D01*
X114750403Y-143543273D01*
X114681200Y-143195365D01*
X114681200Y-142840635D01*
X114750403Y-142492727D01*
X114886151Y-142165003D01*
X115083227Y-141870058D01*
X115334058Y-141619227D01*
X115480528Y-141521359D01*
X115629001Y-141422152D01*
X115629003Y-141422151D01*
X115956727Y-141286403D01*
X116304635Y-141217200D01*
X116659365Y-141217200D01*
X117007273Y-141286403D01*
X117007273Y-141286403D01*
G37*
G36*
X49007273Y-141286403D02*
G01*
X49334997Y-141422151D01*
X49334999Y-141422152D01*
X49483472Y-141521359D01*
X49629942Y-141619227D01*
X49880773Y-141870058D01*
X50077849Y-142165003D01*
X50213597Y-142492727D01*
X50282800Y-142840635D01*
X50282800Y-143195365D01*
X50213597Y-143543273D01*
X50077849Y-143870997D01*
X50077848Y-143870999D01*
X49880772Y-144165943D01*
X49629943Y-144416772D01*
X49334999Y-144613848D01*
X49334998Y-144613849D01*
X49334997Y-144613849D01*
X49007273Y-144749597D01*
X48659365Y-144818800D01*
X48304635Y-144818800D01*
X47956727Y-144749597D01*
X47629003Y-144613849D01*
X47629002Y-144613849D01*
X47629001Y-144613848D01*
X47334057Y-144416772D01*
X47083228Y-144165943D01*
X46886152Y-143870999D01*
X46886151Y-143870997D01*
X46750403Y-143543273D01*
X46681200Y-143195365D01*
X46681200Y-142840635D01*
X46750403Y-142492727D01*
X46886151Y-142165003D01*
X47083227Y-141870058D01*
X47334058Y-141619227D01*
X47480528Y-141521359D01*
X47629001Y-141422152D01*
X47629003Y-141422151D01*
X47956727Y-141286403D01*
X48304635Y-141217200D01*
X48659365Y-141217200D01*
X49007273Y-141286403D01*
X49007273Y-141286403D01*
G37*
G36*
X124465263Y-141809957D02*
G01*
X124705634Y-141909522D01*
X124921961Y-142054067D01*
X125105933Y-142238039D01*
X125250478Y-142454366D01*
X125350043Y-142694737D01*
X125400800Y-142949913D01*
X125400800Y-143210087D01*
X125350043Y-143465263D01*
X125250478Y-143705634D01*
X125105933Y-143921961D01*
X124921961Y-144105933D01*
X124705634Y-144250478D01*
X124705633Y-144250479D01*
X124705632Y-144250479D01*
X124465263Y-144350043D01*
X124210089Y-144400800D01*
X123949911Y-144400800D01*
X123694737Y-144350043D01*
X123454368Y-144250479D01*
X123454367Y-144250479D01*
X123454366Y-144250478D01*
X123238039Y-144105933D01*
X123054067Y-143921961D01*
X122909522Y-143705634D01*
X122809957Y-143465263D01*
X122759200Y-143210087D01*
X122759200Y-142949913D01*
X122809957Y-142694737D01*
X122909522Y-142454366D01*
X123054067Y-142238039D01*
X123238039Y-142054067D01*
X123454366Y-141909522D01*
X123694737Y-141809957D01*
X123949911Y-141759200D01*
X124210089Y-141759200D01*
X124465263Y-141809957D01*
X124465263Y-141809957D01*
G37*
G36*
X63325273Y-138728403D02*
G01*
X63652997Y-138864151D01*
X63652999Y-138864152D01*
X63801472Y-138963359D01*
X63947942Y-139061227D01*
X64198773Y-139312058D01*
X64253186Y-139393493D01*
X64388835Y-139596505D01*
X64395849Y-139607003D01*
X64531597Y-139934727D01*
X64600800Y-140282635D01*
X64600800Y-140637365D01*
X64531597Y-140985273D01*
X64395849Y-141312997D01*
X64198773Y-141607942D01*
X63947942Y-141858773D01*
X63871992Y-141909521D01*
X63652999Y-142055848D01*
X63652998Y-142055849D01*
X63652997Y-142055849D01*
X63325273Y-142191597D01*
X62977365Y-142260800D01*
X62622635Y-142260800D01*
X62274727Y-142191597D01*
X61947003Y-142055849D01*
X61947002Y-142055849D01*
X61947001Y-142055848D01*
X61728008Y-141909521D01*
X61652058Y-141858773D01*
X61401227Y-141607942D01*
X61204151Y-141312997D01*
X61068403Y-140985273D01*
X60999200Y-140637365D01*
X60999200Y-140282635D01*
X61068403Y-139934727D01*
X61204151Y-139607003D01*
X61211166Y-139596505D01*
X61346814Y-139393493D01*
X61401227Y-139312058D01*
X61652058Y-139061227D01*
X61798528Y-138963359D01*
X61947001Y-138864152D01*
X61947003Y-138864151D01*
X62274727Y-138728403D01*
X62622635Y-138659200D01*
X62977365Y-138659200D01*
X63325273Y-138728403D01*
X63325273Y-138728403D01*
G37*
G36*
X102825273Y-138728403D02*
G01*
X103152997Y-138864151D01*
X103152999Y-138864152D01*
X103301472Y-138963359D01*
X103447942Y-139061227D01*
X103698773Y-139312058D01*
X103753186Y-139393493D01*
X103888835Y-139596505D01*
X103895849Y-139607003D01*
X104031597Y-139934727D01*
X104100800Y-140282635D01*
X104100800Y-140637365D01*
X104031597Y-140985273D01*
X103895849Y-141312997D01*
X103698773Y-141607942D01*
X103447942Y-141858773D01*
X103371992Y-141909521D01*
X103152999Y-142055848D01*
X103152998Y-142055849D01*
X103152997Y-142055849D01*
X102825273Y-142191597D01*
X102477365Y-142260800D01*
X102122635Y-142260800D01*
X101774727Y-142191597D01*
X101447003Y-142055849D01*
X101447002Y-142055849D01*
X101447001Y-142055848D01*
X101228008Y-141909521D01*
X101152058Y-141858773D01*
X100901227Y-141607942D01*
X100704151Y-141312997D01*
X100568403Y-140985273D01*
X100499200Y-140637365D01*
X100499200Y-140282635D01*
X100568403Y-139934727D01*
X100704151Y-139607003D01*
X100711166Y-139596505D01*
X100846814Y-139393493D01*
X100901227Y-139312058D01*
X101152058Y-139061227D01*
X101298528Y-138963359D01*
X101447001Y-138864152D01*
X101447003Y-138864151D01*
X101774727Y-138728403D01*
X102122635Y-138659200D01*
X102477365Y-138659200D01*
X102825273Y-138728403D01*
X102825273Y-138728403D01*
G37*
G36*
X29516506Y-138689581D02*
G01*
X29610230Y-138728403D01*
X29707740Y-138768793D01*
X29822737Y-138845632D01*
X29879845Y-138883790D01*
X30026210Y-139030155D01*
X30046972Y-139061228D01*
X30141207Y-139202260D01*
X30174018Y-139281472D01*
X30220419Y-139393494D01*
X30260800Y-139596504D01*
X30260800Y-139803496D01*
X30220419Y-140006506D01*
X30174018Y-140118528D01*
X30141207Y-140197740D01*
X30026209Y-140369846D01*
X29879846Y-140516209D01*
X29707740Y-140631207D01*
X29628528Y-140664018D01*
X29516506Y-140710419D01*
X29313496Y-140750800D01*
X29106504Y-140750800D01*
X28903494Y-140710419D01*
X28791472Y-140664018D01*
X28712260Y-140631207D01*
X28540154Y-140516209D01*
X28393791Y-140369846D01*
X28278793Y-140197740D01*
X28245982Y-140118528D01*
X28199581Y-140006506D01*
X28159200Y-139803496D01*
X28159200Y-139596504D01*
X28199581Y-139393494D01*
X28245982Y-139281472D01*
X28278793Y-139202260D01*
X28373028Y-139061228D01*
X28393790Y-139030155D01*
X28540155Y-138883790D01*
X28597263Y-138845632D01*
X28712260Y-138768793D01*
X28809770Y-138728403D01*
X28903494Y-138689581D01*
X29106504Y-138649200D01*
X29313496Y-138649200D01*
X29516506Y-138689581D01*
X29516506Y-138689581D01*
G37*
G36*
X34016506Y-138689581D02*
G01*
X34110230Y-138728403D01*
X34207740Y-138768793D01*
X34322737Y-138845632D01*
X34379845Y-138883790D01*
X34526210Y-139030155D01*
X34546972Y-139061228D01*
X34641207Y-139202260D01*
X34674018Y-139281472D01*
X34720419Y-139393494D01*
X34760800Y-139596504D01*
X34760800Y-139803496D01*
X34720419Y-140006506D01*
X34674018Y-140118528D01*
X34641207Y-140197740D01*
X34526209Y-140369846D01*
X34379846Y-140516209D01*
X34207740Y-140631207D01*
X34128528Y-140664018D01*
X34016506Y-140710419D01*
X33813496Y-140750800D01*
X33606504Y-140750800D01*
X33403494Y-140710419D01*
X33291472Y-140664018D01*
X33212260Y-140631207D01*
X33040154Y-140516209D01*
X32893791Y-140369846D01*
X32778793Y-140197740D01*
X32745982Y-140118528D01*
X32699581Y-140006506D01*
X32659200Y-139803496D01*
X32659200Y-139596504D01*
X32699581Y-139393494D01*
X32745982Y-139281472D01*
X32778793Y-139202260D01*
X32873028Y-139061228D01*
X32893790Y-139030155D01*
X33040155Y-138883790D01*
X33097263Y-138845632D01*
X33212260Y-138768793D01*
X33309770Y-138728403D01*
X33403494Y-138689581D01*
X33606504Y-138649200D01*
X33813496Y-138649200D01*
X34016506Y-138689581D01*
X34016506Y-138689581D01*
G37*
G36*
X131116506Y-138689581D02*
G01*
X131210230Y-138728403D01*
X131307740Y-138768793D01*
X131422737Y-138845632D01*
X131479845Y-138883790D01*
X131626210Y-139030155D01*
X131646972Y-139061228D01*
X131741207Y-139202260D01*
X131774018Y-139281472D01*
X131820419Y-139393494D01*
X131860800Y-139596504D01*
X131860800Y-139803496D01*
X131820419Y-140006506D01*
X131774018Y-140118528D01*
X131741207Y-140197740D01*
X131626209Y-140369846D01*
X131479846Y-140516209D01*
X131307740Y-140631207D01*
X131228528Y-140664018D01*
X131116506Y-140710419D01*
X130913496Y-140750800D01*
X130706504Y-140750800D01*
X130503494Y-140710419D01*
X130391472Y-140664018D01*
X130312260Y-140631207D01*
X130140154Y-140516209D01*
X129993791Y-140369846D01*
X129878793Y-140197740D01*
X129845982Y-140118528D01*
X129799581Y-140006506D01*
X129759200Y-139803496D01*
X129759200Y-139596504D01*
X129799581Y-139393494D01*
X129845982Y-139281472D01*
X129878793Y-139202260D01*
X129973028Y-139061228D01*
X129993790Y-139030155D01*
X130140155Y-138883790D01*
X130197263Y-138845632D01*
X130312260Y-138768793D01*
X130409770Y-138728403D01*
X130503494Y-138689581D01*
X130706504Y-138649200D01*
X130913496Y-138649200D01*
X131116506Y-138689581D01*
X131116506Y-138689581D01*
G37*
G36*
X135616506Y-138689581D02*
G01*
X135710230Y-138728403D01*
X135807740Y-138768793D01*
X135922737Y-138845632D01*
X135979845Y-138883790D01*
X136126210Y-139030155D01*
X136146972Y-139061228D01*
X136241207Y-139202260D01*
X136274018Y-139281472D01*
X136320419Y-139393494D01*
X136360800Y-139596504D01*
X136360800Y-139803496D01*
X136320419Y-140006506D01*
X136274018Y-140118528D01*
X136241207Y-140197740D01*
X136126209Y-140369846D01*
X135979846Y-140516209D01*
X135807740Y-140631207D01*
X135728528Y-140664018D01*
X135616506Y-140710419D01*
X135413496Y-140750800D01*
X135206504Y-140750800D01*
X135003494Y-140710419D01*
X134891472Y-140664018D01*
X134812260Y-140631207D01*
X134640154Y-140516209D01*
X134493791Y-140369846D01*
X134378793Y-140197740D01*
X134345982Y-140118528D01*
X134299581Y-140006506D01*
X134259200Y-139803496D01*
X134259200Y-139596504D01*
X134299581Y-139393494D01*
X134345982Y-139281472D01*
X134378793Y-139202260D01*
X134473028Y-139061228D01*
X134493790Y-139030155D01*
X134640155Y-138883790D01*
X134697263Y-138845632D01*
X134812260Y-138768793D01*
X134909770Y-138728403D01*
X135003494Y-138689581D01*
X135206504Y-138649200D01*
X135413496Y-138649200D01*
X135616506Y-138689581D01*
X135616506Y-138689581D01*
G37*
G36*
X40291579Y-137767617D02*
G01*
X40372333Y-137792114D01*
X40414258Y-137804832D01*
X40527313Y-137865261D01*
X40626412Y-137946588D01*
X40707739Y-138045687D01*
X40768168Y-138158742D01*
X40768169Y-138158745D01*
X40805383Y-138281421D01*
X40814800Y-138377037D01*
X40814800Y-138990963D01*
X40805383Y-139086579D01*
X40770291Y-139202260D01*
X40768168Y-139209258D01*
X40707739Y-139322313D01*
X40626412Y-139421411D01*
X40527312Y-139502739D01*
X40414257Y-139563168D01*
X40414254Y-139563169D01*
X40291578Y-139600383D01*
X40164000Y-139612948D01*
X40036421Y-139600383D01*
X39913745Y-139563169D01*
X39913742Y-139563168D01*
X39800687Y-139502739D01*
X39701589Y-139421412D01*
X39620261Y-139322312D01*
X39559832Y-139209257D01*
X39557709Y-139202260D01*
X39522617Y-139086578D01*
X39513200Y-138990962D01*
X39513200Y-138377037D01*
X39522617Y-138281421D01*
X39559831Y-138158745D01*
X39559831Y-138158744D01*
X39592132Y-138098313D01*
X39620262Y-138045686D01*
X39633656Y-138029366D01*
X39701589Y-137946588D01*
X39800688Y-137865261D01*
X39913743Y-137804832D01*
X39955668Y-137792114D01*
X40036422Y-137767617D01*
X40164000Y-137755052D01*
X40291579Y-137767617D01*
X40291579Y-137767617D01*
G37*
G36*
X42655110Y-137762602D02*
G01*
X42692184Y-137773849D01*
X42726357Y-137792114D01*
X42756307Y-137816693D01*
X42780886Y-137846643D01*
X42799151Y-137880816D01*
X42810398Y-137917890D01*
X42814800Y-137962590D01*
X42814800Y-139405410D01*
X42810398Y-139450110D01*
X42799151Y-139487184D01*
X42780886Y-139521357D01*
X42756307Y-139551307D01*
X42726357Y-139575886D01*
X42692184Y-139594151D01*
X42655110Y-139605398D01*
X42610410Y-139609800D01*
X41717590Y-139609800D01*
X41672890Y-139605398D01*
X41635816Y-139594151D01*
X41601643Y-139575886D01*
X41571693Y-139551307D01*
X41547114Y-139521357D01*
X41528849Y-139487184D01*
X41517602Y-139450110D01*
X41513200Y-139405410D01*
X41513200Y-137962590D01*
X41517602Y-137917890D01*
X41528849Y-137880816D01*
X41547114Y-137846643D01*
X41571693Y-137816693D01*
X41601643Y-137792114D01*
X41635816Y-137773849D01*
X41672890Y-137762602D01*
X41717590Y-137758200D01*
X42610410Y-137758200D01*
X42655110Y-137762602D01*
X42655110Y-137762602D01*
G37*
G36*
X59470800Y-138210800D02*
G01*
X57369200Y-138210800D01*
X57369200Y-136109200D01*
X59470800Y-136109200D01*
X59470800Y-138210800D01*
X59470800Y-138210800D01*
G37*
G36*
X143236506Y-133609581D02*
G01*
X143348528Y-133655982D01*
X143427740Y-133688793D01*
X143599846Y-133803791D01*
X143746209Y-133950154D01*
X143861207Y-134122260D01*
X143861207Y-134122261D01*
X143940419Y-134313494D01*
X143980800Y-134516504D01*
X143980800Y-134723496D01*
X143940419Y-134926506D01*
X143939304Y-134929197D01*
X143861207Y-135117740D01*
X143746209Y-135289846D01*
X143599846Y-135436209D01*
X143427740Y-135551207D01*
X143348528Y-135584018D01*
X143236506Y-135630419D01*
X143033496Y-135670800D01*
X142826504Y-135670800D01*
X142623494Y-135630419D01*
X142511472Y-135584018D01*
X142432260Y-135551207D01*
X142260154Y-135436209D01*
X142113791Y-135289846D01*
X141998793Y-135117740D01*
X141920696Y-134929197D01*
X141919581Y-134926506D01*
X141879200Y-134723496D01*
X141879200Y-134516504D01*
X141919581Y-134313494D01*
X141998793Y-134122261D01*
X141998793Y-134122260D01*
X142113791Y-133950154D01*
X142260154Y-133803791D01*
X142432260Y-133688793D01*
X142511472Y-133655982D01*
X142623494Y-133609581D01*
X142826504Y-133569200D01*
X143033496Y-133569200D01*
X143236506Y-133609581D01*
X143236506Y-133609581D01*
G37*
G36*
X21896506Y-133609581D02*
G01*
X22008528Y-133655982D01*
X22087740Y-133688793D01*
X22259846Y-133803791D01*
X22406209Y-133950154D01*
X22521207Y-134122260D01*
X22521207Y-134122261D01*
X22600419Y-134313494D01*
X22640800Y-134516504D01*
X22640800Y-134723496D01*
X22600419Y-134926506D01*
X22599304Y-134929197D01*
X22521207Y-135117740D01*
X22406209Y-135289846D01*
X22259846Y-135436209D01*
X22087740Y-135551207D01*
X22008528Y-135584018D01*
X21896506Y-135630419D01*
X21693496Y-135670800D01*
X21486504Y-135670800D01*
X21283494Y-135630419D01*
X21171472Y-135584018D01*
X21092260Y-135551207D01*
X20920154Y-135436209D01*
X20773791Y-135289846D01*
X20658793Y-135117740D01*
X20580696Y-134929197D01*
X20579581Y-134926506D01*
X20539200Y-134723496D01*
X20539200Y-134516504D01*
X20579581Y-134313494D01*
X20658793Y-134122261D01*
X20658793Y-134122260D01*
X20773791Y-133950154D01*
X20920154Y-133803791D01*
X21092260Y-133688793D01*
X21171472Y-133655982D01*
X21283494Y-133609581D01*
X21486504Y-133569200D01*
X21693496Y-133569200D01*
X21896506Y-133609581D01*
X21896506Y-133609581D01*
G37*
G36*
X26396506Y-133609581D02*
G01*
X26508528Y-133655982D01*
X26587740Y-133688793D01*
X26759846Y-133803791D01*
X26906209Y-133950154D01*
X27021207Y-134122260D01*
X27021207Y-134122261D01*
X27100419Y-134313494D01*
X27140800Y-134516504D01*
X27140800Y-134723496D01*
X27100419Y-134926506D01*
X27099304Y-134929197D01*
X27021207Y-135117740D01*
X26906209Y-135289846D01*
X26759846Y-135436209D01*
X26587740Y-135551207D01*
X26508528Y-135584018D01*
X26396506Y-135630419D01*
X26193496Y-135670800D01*
X25986504Y-135670800D01*
X25783494Y-135630419D01*
X25671472Y-135584018D01*
X25592260Y-135551207D01*
X25420154Y-135436209D01*
X25273791Y-135289846D01*
X25158793Y-135117740D01*
X25080696Y-134929197D01*
X25079581Y-134926506D01*
X25039200Y-134723496D01*
X25039200Y-134516504D01*
X25079581Y-134313494D01*
X25158793Y-134122261D01*
X25158793Y-134122260D01*
X25273791Y-133950154D01*
X25420154Y-133803791D01*
X25592260Y-133688793D01*
X25671472Y-133655982D01*
X25783494Y-133609581D01*
X25986504Y-133569200D01*
X26193496Y-133569200D01*
X26396506Y-133609581D01*
X26396506Y-133609581D01*
G37*
G36*
X37136506Y-133609581D02*
G01*
X37248528Y-133655982D01*
X37327740Y-133688793D01*
X37499846Y-133803791D01*
X37646209Y-133950154D01*
X37761207Y-134122260D01*
X37761207Y-134122261D01*
X37840419Y-134313494D01*
X37880800Y-134516504D01*
X37880800Y-134723496D01*
X37840419Y-134926506D01*
X37839304Y-134929197D01*
X37761207Y-135117740D01*
X37646209Y-135289846D01*
X37499846Y-135436209D01*
X37327740Y-135551207D01*
X37248528Y-135584018D01*
X37136506Y-135630419D01*
X36933496Y-135670800D01*
X36726504Y-135670800D01*
X36523494Y-135630419D01*
X36411472Y-135584018D01*
X36332260Y-135551207D01*
X36160154Y-135436209D01*
X36013791Y-135289846D01*
X35898793Y-135117740D01*
X35820696Y-134929197D01*
X35819581Y-134926506D01*
X35779200Y-134723496D01*
X35779200Y-134516504D01*
X35819581Y-134313494D01*
X35898793Y-134122261D01*
X35898793Y-134122260D01*
X36013791Y-133950154D01*
X36160154Y-133803791D01*
X36332260Y-133688793D01*
X36411472Y-133655982D01*
X36523494Y-133609581D01*
X36726504Y-133569200D01*
X36933496Y-133569200D01*
X37136506Y-133609581D01*
X37136506Y-133609581D01*
G37*
G36*
X41636506Y-133609581D02*
G01*
X41748528Y-133655982D01*
X41827740Y-133688793D01*
X41999846Y-133803791D01*
X42146209Y-133950154D01*
X42261207Y-134122260D01*
X42261207Y-134122261D01*
X42340419Y-134313494D01*
X42380800Y-134516504D01*
X42380800Y-134723496D01*
X42340419Y-134926506D01*
X42339304Y-134929197D01*
X42261207Y-135117740D01*
X42146209Y-135289846D01*
X41999846Y-135436209D01*
X41827740Y-135551207D01*
X41748528Y-135584018D01*
X41636506Y-135630419D01*
X41433496Y-135670800D01*
X41226504Y-135670800D01*
X41023494Y-135630419D01*
X40911472Y-135584018D01*
X40832260Y-135551207D01*
X40660154Y-135436209D01*
X40513791Y-135289846D01*
X40398793Y-135117740D01*
X40320696Y-134929197D01*
X40319581Y-134926506D01*
X40279200Y-134723496D01*
X40279200Y-134516504D01*
X40319581Y-134313494D01*
X40398793Y-134122261D01*
X40398793Y-134122260D01*
X40513791Y-133950154D01*
X40660154Y-133803791D01*
X40832260Y-133688793D01*
X40911472Y-133655982D01*
X41023494Y-133609581D01*
X41226504Y-133569200D01*
X41433496Y-133569200D01*
X41636506Y-133609581D01*
X41636506Y-133609581D01*
G37*
G36*
X138736506Y-133609581D02*
G01*
X138848528Y-133655982D01*
X138927740Y-133688793D01*
X139099846Y-133803791D01*
X139246209Y-133950154D01*
X139361207Y-134122260D01*
X139361207Y-134122261D01*
X139440419Y-134313494D01*
X139480800Y-134516504D01*
X139480800Y-134723496D01*
X139440419Y-134926506D01*
X139439304Y-134929197D01*
X139361207Y-135117740D01*
X139246209Y-135289846D01*
X139099846Y-135436209D01*
X138927740Y-135551207D01*
X138848528Y-135584018D01*
X138736506Y-135630419D01*
X138533496Y-135670800D01*
X138326504Y-135670800D01*
X138123494Y-135630419D01*
X138011472Y-135584018D01*
X137932260Y-135551207D01*
X137760154Y-135436209D01*
X137613791Y-135289846D01*
X137498793Y-135117740D01*
X137420696Y-134929197D01*
X137419581Y-134926506D01*
X137379200Y-134723496D01*
X137379200Y-134516504D01*
X137419581Y-134313494D01*
X137498793Y-134122261D01*
X137498793Y-134122260D01*
X137613791Y-133950154D01*
X137760154Y-133803791D01*
X137932260Y-133688793D01*
X138011472Y-133655982D01*
X138123494Y-133609581D01*
X138326504Y-133569200D01*
X138533496Y-133569200D01*
X138736506Y-133609581D01*
X138736506Y-133609581D01*
G37*
G36*
X97553273Y-131466003D02*
G01*
X97880997Y-131601751D01*
X97880999Y-131601752D01*
X98029472Y-131700959D01*
X98160936Y-131788800D01*
X98175943Y-131798828D01*
X98426772Y-132049657D01*
X98573195Y-132268793D01*
X98623849Y-132344603D01*
X98759597Y-132672327D01*
X98828800Y-133020235D01*
X98828800Y-133374965D01*
X98759597Y-133722873D01*
X98623849Y-134050597D01*
X98490078Y-134250800D01*
X98426772Y-134345543D01*
X98175943Y-134596372D01*
X97880999Y-134793448D01*
X97880998Y-134793449D01*
X97880997Y-134793449D01*
X97553273Y-134929197D01*
X97205365Y-134998400D01*
X96850635Y-134998400D01*
X96502727Y-134929197D01*
X96175003Y-134793449D01*
X96175002Y-134793449D01*
X96175001Y-134793448D01*
X95880057Y-134596372D01*
X95629228Y-134345543D01*
X95565923Y-134250800D01*
X95432151Y-134050597D01*
X95296403Y-133722873D01*
X95227200Y-133374965D01*
X95227200Y-133020235D01*
X95296403Y-132672327D01*
X95432151Y-132344603D01*
X95482806Y-132268793D01*
X95629228Y-132049657D01*
X95880057Y-131798828D01*
X95895065Y-131788800D01*
X96026528Y-131700959D01*
X96175001Y-131601752D01*
X96175003Y-131601751D01*
X96502727Y-131466003D01*
X96850635Y-131396800D01*
X97205365Y-131396800D01*
X97553273Y-131466003D01*
X97553273Y-131466003D01*
G37*
G36*
X29516506Y-132189581D02*
G01*
X29628528Y-132235982D01*
X29707740Y-132268793D01*
X29879846Y-132383791D01*
X30026209Y-132530154D01*
X30141207Y-132702260D01*
X30141207Y-132702261D01*
X30220419Y-132893494D01*
X30260800Y-133096504D01*
X30260800Y-133303496D01*
X30220419Y-133506506D01*
X30194450Y-133569200D01*
X30141207Y-133697740D01*
X30026209Y-133869846D01*
X29879846Y-134016209D01*
X29707740Y-134131207D01*
X29628528Y-134164018D01*
X29516506Y-134210419D01*
X29313496Y-134250800D01*
X29106504Y-134250800D01*
X28903494Y-134210419D01*
X28791472Y-134164018D01*
X28712260Y-134131207D01*
X28540154Y-134016209D01*
X28393791Y-133869846D01*
X28278793Y-133697740D01*
X28225550Y-133569200D01*
X28199581Y-133506506D01*
X28159200Y-133303496D01*
X28159200Y-133096504D01*
X28199581Y-132893494D01*
X28278793Y-132702261D01*
X28278793Y-132702260D01*
X28393791Y-132530154D01*
X28540154Y-132383791D01*
X28712260Y-132268793D01*
X28791472Y-132235982D01*
X28903494Y-132189581D01*
X29106504Y-132149200D01*
X29313496Y-132149200D01*
X29516506Y-132189581D01*
X29516506Y-132189581D01*
G37*
G36*
X135616506Y-132189581D02*
G01*
X135728528Y-132235982D01*
X135807740Y-132268793D01*
X135979846Y-132383791D01*
X136126209Y-132530154D01*
X136241207Y-132702260D01*
X136241207Y-132702261D01*
X136320419Y-132893494D01*
X136360800Y-133096504D01*
X136360800Y-133303496D01*
X136320419Y-133506506D01*
X136294450Y-133569200D01*
X136241207Y-133697740D01*
X136126209Y-133869846D01*
X135979846Y-134016209D01*
X135807740Y-134131207D01*
X135728528Y-134164018D01*
X135616506Y-134210419D01*
X135413496Y-134250800D01*
X135206504Y-134250800D01*
X135003494Y-134210419D01*
X134891472Y-134164018D01*
X134812260Y-134131207D01*
X134640154Y-134016209D01*
X134493791Y-133869846D01*
X134378793Y-133697740D01*
X134325550Y-133569200D01*
X134299581Y-133506506D01*
X134259200Y-133303496D01*
X134259200Y-133096504D01*
X134299581Y-132893494D01*
X134378793Y-132702261D01*
X134378793Y-132702260D01*
X134493791Y-132530154D01*
X134640154Y-132383791D01*
X134812260Y-132268793D01*
X134891472Y-132235982D01*
X135003494Y-132189581D01*
X135206504Y-132149200D01*
X135413496Y-132149200D01*
X135616506Y-132189581D01*
X135616506Y-132189581D01*
G37*
G36*
X131116506Y-132189581D02*
G01*
X131228528Y-132235982D01*
X131307740Y-132268793D01*
X131479846Y-132383791D01*
X131626209Y-132530154D01*
X131741207Y-132702260D01*
X131741207Y-132702261D01*
X131820419Y-132893494D01*
X131860800Y-133096504D01*
X131860800Y-133303496D01*
X131820419Y-133506506D01*
X131794450Y-133569200D01*
X131741207Y-133697740D01*
X131626209Y-133869846D01*
X131479846Y-134016209D01*
X131307740Y-134131207D01*
X131228528Y-134164018D01*
X131116506Y-134210419D01*
X130913496Y-134250800D01*
X130706504Y-134250800D01*
X130503494Y-134210419D01*
X130391472Y-134164018D01*
X130312260Y-134131207D01*
X130140154Y-134016209D01*
X129993791Y-133869846D01*
X129878793Y-133697740D01*
X129825550Y-133569200D01*
X129799581Y-133506506D01*
X129759200Y-133303496D01*
X129759200Y-133096504D01*
X129799581Y-132893494D01*
X129878793Y-132702261D01*
X129878793Y-132702260D01*
X129993791Y-132530154D01*
X130140154Y-132383791D01*
X130312260Y-132268793D01*
X130391472Y-132235982D01*
X130503494Y-132189581D01*
X130706504Y-132149200D01*
X130913496Y-132149200D01*
X131116506Y-132189581D01*
X131116506Y-132189581D01*
G37*
G36*
X34016506Y-132189581D02*
G01*
X34128528Y-132235982D01*
X34207740Y-132268793D01*
X34379846Y-132383791D01*
X34526209Y-132530154D01*
X34641207Y-132702260D01*
X34641207Y-132702261D01*
X34720419Y-132893494D01*
X34760800Y-133096504D01*
X34760800Y-133303496D01*
X34720419Y-133506506D01*
X34694450Y-133569200D01*
X34641207Y-133697740D01*
X34526209Y-133869846D01*
X34379846Y-134016209D01*
X34207740Y-134131207D01*
X34128528Y-134164018D01*
X34016506Y-134210419D01*
X33813496Y-134250800D01*
X33606504Y-134250800D01*
X33403494Y-134210419D01*
X33291472Y-134164018D01*
X33212260Y-134131207D01*
X33040154Y-134016209D01*
X32893791Y-133869846D01*
X32778793Y-133697740D01*
X32725550Y-133569200D01*
X32699581Y-133506506D01*
X32659200Y-133303496D01*
X32659200Y-133096504D01*
X32699581Y-132893494D01*
X32778793Y-132702261D01*
X32778793Y-132702260D01*
X32893791Y-132530154D01*
X33040154Y-132383791D01*
X33212260Y-132268793D01*
X33291472Y-132235982D01*
X33403494Y-132189581D01*
X33606504Y-132149200D01*
X33813496Y-132149200D01*
X34016506Y-132189581D01*
X34016506Y-132189581D01*
G37*
G36*
X63850800Y-133058800D02*
G01*
X61749200Y-133058800D01*
X61749200Y-131757200D01*
X63850800Y-131757200D01*
X63850800Y-133058800D01*
X63850800Y-133058800D01*
G37*
G36*
X50032800Y-131788800D02*
G01*
X47931200Y-131788800D01*
X47931200Y-130487200D01*
X50032800Y-130487200D01*
X50032800Y-131788800D01*
X50032800Y-131788800D01*
G37*
G36*
X34016506Y-128529581D02*
G01*
X34128528Y-128575982D01*
X34207740Y-128608793D01*
X34379846Y-128723791D01*
X34526209Y-128870154D01*
X34641207Y-129042260D01*
X34674018Y-129121472D01*
X34720419Y-129233494D01*
X34760800Y-129436504D01*
X34760800Y-129643496D01*
X34720419Y-129846506D01*
X34674018Y-129958528D01*
X34641207Y-130037740D01*
X34526209Y-130209846D01*
X34379846Y-130356209D01*
X34207740Y-130471207D01*
X34169129Y-130487200D01*
X34016506Y-130550419D01*
X33813496Y-130590800D01*
X33606504Y-130590800D01*
X33403494Y-130550419D01*
X33250871Y-130487200D01*
X33212260Y-130471207D01*
X33040154Y-130356209D01*
X32893791Y-130209846D01*
X32778793Y-130037740D01*
X32745982Y-129958528D01*
X32699581Y-129846506D01*
X32659200Y-129643496D01*
X32659200Y-129436504D01*
X32699581Y-129233494D01*
X32745982Y-129121472D01*
X32778793Y-129042260D01*
X32893791Y-128870154D01*
X33040154Y-128723791D01*
X33212260Y-128608793D01*
X33291472Y-128575982D01*
X33403494Y-128529581D01*
X33606504Y-128489200D01*
X33813496Y-128489200D01*
X34016506Y-128529581D01*
X34016506Y-128529581D01*
G37*
G36*
X29516506Y-128529581D02*
G01*
X29628528Y-128575982D01*
X29707740Y-128608793D01*
X29879846Y-128723791D01*
X30026209Y-128870154D01*
X30141207Y-129042260D01*
X30174018Y-129121472D01*
X30220419Y-129233494D01*
X30260800Y-129436504D01*
X30260800Y-129643496D01*
X30220419Y-129846506D01*
X30174018Y-129958528D01*
X30141207Y-130037740D01*
X30026209Y-130209846D01*
X29879846Y-130356209D01*
X29707740Y-130471207D01*
X29669129Y-130487200D01*
X29516506Y-130550419D01*
X29313496Y-130590800D01*
X29106504Y-130590800D01*
X28903494Y-130550419D01*
X28750871Y-130487200D01*
X28712260Y-130471207D01*
X28540154Y-130356209D01*
X28393791Y-130209846D01*
X28278793Y-130037740D01*
X28245982Y-129958528D01*
X28199581Y-129846506D01*
X28159200Y-129643496D01*
X28159200Y-129436504D01*
X28199581Y-129233494D01*
X28245982Y-129121472D01*
X28278793Y-129042260D01*
X28393791Y-128870154D01*
X28540154Y-128723791D01*
X28712260Y-128608793D01*
X28791472Y-128575982D01*
X28903494Y-128529581D01*
X29106504Y-128489200D01*
X29313496Y-128489200D01*
X29516506Y-128529581D01*
X29516506Y-128529581D01*
G37*
G36*
X63279771Y-129221909D02*
G01*
X63327579Y-129226617D01*
X63450255Y-129263831D01*
X63450258Y-129263832D01*
X63563313Y-129324261D01*
X63662412Y-129405588D01*
X63743739Y-129504687D01*
X63804168Y-129617742D01*
X63804169Y-129617745D01*
X63841383Y-129740421D01*
X63853948Y-129868000D01*
X63841383Y-129995579D01*
X63822948Y-130056349D01*
X63804168Y-130118258D01*
X63743739Y-130231313D01*
X63662412Y-130330412D01*
X63563313Y-130411739D01*
X63450258Y-130472168D01*
X63450255Y-130472169D01*
X63327579Y-130509383D01*
X63279771Y-130514091D01*
X63231965Y-130518800D01*
X62368035Y-130518800D01*
X62320229Y-130514091D01*
X62272421Y-130509383D01*
X62149745Y-130472169D01*
X62149742Y-130472168D01*
X62036687Y-130411739D01*
X61937588Y-130330412D01*
X61856261Y-130231313D01*
X61795832Y-130118258D01*
X61777052Y-130056349D01*
X61758617Y-129995579D01*
X61746052Y-129868000D01*
X61758617Y-129740421D01*
X61795831Y-129617745D01*
X61795832Y-129617742D01*
X61856261Y-129504687D01*
X61937588Y-129405588D01*
X62036687Y-129324261D01*
X62149742Y-129263832D01*
X62149745Y-129263831D01*
X62272421Y-129226617D01*
X62320229Y-129221909D01*
X62368035Y-129217200D01*
X63231965Y-129217200D01*
X63279771Y-129221909D01*
X63279771Y-129221909D01*
G37*
G36*
X67581273Y-126728903D02*
G01*
X67908997Y-126864651D01*
X67908999Y-126864652D01*
X67910401Y-126865589D01*
X68203942Y-127061727D01*
X68454773Y-127312558D01*
X68651849Y-127607503D01*
X68787597Y-127935227D01*
X68856800Y-128283135D01*
X68856800Y-128637865D01*
X68787597Y-128985773D01*
X68651849Y-129313497D01*
X68524101Y-129504686D01*
X68454772Y-129608443D01*
X68203943Y-129859272D01*
X67908999Y-130056348D01*
X67908998Y-130056349D01*
X67908997Y-130056349D01*
X67581273Y-130192097D01*
X67233365Y-130261300D01*
X66878635Y-130261300D01*
X66530727Y-130192097D01*
X66203003Y-130056349D01*
X66203002Y-130056349D01*
X66203001Y-130056348D01*
X65908057Y-129859272D01*
X65657228Y-129608443D01*
X65587900Y-129504686D01*
X65460151Y-129313497D01*
X65324403Y-128985773D01*
X65255200Y-128637865D01*
X65255200Y-128283135D01*
X65324403Y-127935227D01*
X65460151Y-127607503D01*
X65657227Y-127312558D01*
X65908058Y-127061727D01*
X66201599Y-126865589D01*
X66203001Y-126864652D01*
X66203003Y-126864651D01*
X66530727Y-126728903D01*
X66878635Y-126659700D01*
X67233365Y-126659700D01*
X67581273Y-126728903D01*
X67581273Y-126728903D01*
G37*
G36*
X49461771Y-127951909D02*
G01*
X49509579Y-127956617D01*
X49632255Y-127993831D01*
X49632258Y-127993832D01*
X49745313Y-128054261D01*
X49844412Y-128135588D01*
X49925739Y-128234687D01*
X49986168Y-128347742D01*
X49986169Y-128347745D01*
X50023383Y-128470421D01*
X50035948Y-128598000D01*
X50023383Y-128725579D01*
X50003887Y-128789846D01*
X49986168Y-128848258D01*
X49925739Y-128961313D01*
X49844412Y-129060412D01*
X49745313Y-129141739D01*
X49632258Y-129202168D01*
X49632255Y-129202169D01*
X49509579Y-129239383D01*
X49461771Y-129244091D01*
X49413965Y-129248800D01*
X48550035Y-129248800D01*
X48502229Y-129244091D01*
X48454421Y-129239383D01*
X48331745Y-129202169D01*
X48331742Y-129202168D01*
X48218687Y-129141739D01*
X48119588Y-129060412D01*
X48038261Y-128961313D01*
X47977832Y-128848258D01*
X47960113Y-128789846D01*
X47940617Y-128725579D01*
X47928052Y-128598000D01*
X47940617Y-128470421D01*
X47977831Y-128347745D01*
X47977832Y-128347742D01*
X48038261Y-128234687D01*
X48119588Y-128135588D01*
X48218687Y-128054261D01*
X48331742Y-127993832D01*
X48331745Y-127993831D01*
X48454421Y-127956617D01*
X48502229Y-127951909D01*
X48550035Y-127947200D01*
X49413965Y-127947200D01*
X49461771Y-127951909D01*
X49461771Y-127951909D01*
G37*
G36*
X26396506Y-127109581D02*
G01*
X26508528Y-127155982D01*
X26587740Y-127188793D01*
X26759846Y-127303791D01*
X26906209Y-127450154D01*
X27021207Y-127622260D01*
X27021207Y-127622261D01*
X27100419Y-127813494D01*
X27140800Y-128016504D01*
X27140800Y-128223496D01*
X27100419Y-128426506D01*
X27074450Y-128489200D01*
X27021207Y-128617740D01*
X26950346Y-128723790D01*
X26906210Y-128789845D01*
X26759845Y-128936210D01*
X26722274Y-128961314D01*
X26587740Y-129051207D01*
X26508528Y-129084018D01*
X26396506Y-129130419D01*
X26193496Y-129170800D01*
X25986504Y-129170800D01*
X25783494Y-129130419D01*
X25671472Y-129084018D01*
X25592260Y-129051207D01*
X25457726Y-128961314D01*
X25420155Y-128936210D01*
X25273790Y-128789845D01*
X25229654Y-128723790D01*
X25158793Y-128617740D01*
X25105550Y-128489200D01*
X25079581Y-128426506D01*
X25039200Y-128223496D01*
X25039200Y-128016504D01*
X25079581Y-127813494D01*
X25158793Y-127622261D01*
X25158793Y-127622260D01*
X25273791Y-127450154D01*
X25420154Y-127303791D01*
X25592260Y-127188793D01*
X25671472Y-127155982D01*
X25783494Y-127109581D01*
X25986504Y-127069200D01*
X26193496Y-127069200D01*
X26396506Y-127109581D01*
X26396506Y-127109581D01*
G37*
G36*
X41636506Y-127109581D02*
G01*
X41748528Y-127155982D01*
X41827740Y-127188793D01*
X41999846Y-127303791D01*
X42146209Y-127450154D01*
X42261207Y-127622260D01*
X42261207Y-127622261D01*
X42340419Y-127813494D01*
X42380800Y-128016504D01*
X42380800Y-128223496D01*
X42340419Y-128426506D01*
X42314450Y-128489200D01*
X42261207Y-128617740D01*
X42190346Y-128723790D01*
X42146210Y-128789845D01*
X41999845Y-128936210D01*
X41962274Y-128961314D01*
X41827740Y-129051207D01*
X41748528Y-129084018D01*
X41636506Y-129130419D01*
X41433496Y-129170800D01*
X41226504Y-129170800D01*
X41023494Y-129130419D01*
X40911472Y-129084018D01*
X40832260Y-129051207D01*
X40697726Y-128961314D01*
X40660155Y-128936210D01*
X40513790Y-128789845D01*
X40469654Y-128723790D01*
X40398793Y-128617740D01*
X40345550Y-128489200D01*
X40319581Y-128426506D01*
X40279200Y-128223496D01*
X40279200Y-128016504D01*
X40319581Y-127813494D01*
X40398793Y-127622261D01*
X40398793Y-127622260D01*
X40513791Y-127450154D01*
X40660154Y-127303791D01*
X40832260Y-127188793D01*
X40911472Y-127155982D01*
X41023494Y-127109581D01*
X41226504Y-127069200D01*
X41433496Y-127069200D01*
X41636506Y-127109581D01*
X41636506Y-127109581D01*
G37*
G36*
X143236506Y-127109581D02*
G01*
X143348528Y-127155982D01*
X143427740Y-127188793D01*
X143599846Y-127303791D01*
X143746209Y-127450154D01*
X143861207Y-127622260D01*
X143861207Y-127622261D01*
X143940419Y-127813494D01*
X143980800Y-128016504D01*
X143980800Y-128223496D01*
X143940419Y-128426506D01*
X143914450Y-128489200D01*
X143861207Y-128617740D01*
X143790346Y-128723790D01*
X143746210Y-128789845D01*
X143599845Y-128936210D01*
X143562274Y-128961314D01*
X143427740Y-129051207D01*
X143348528Y-129084018D01*
X143236506Y-129130419D01*
X143033496Y-129170800D01*
X142826504Y-129170800D01*
X142623494Y-129130419D01*
X142511472Y-129084018D01*
X142432260Y-129051207D01*
X142297726Y-128961314D01*
X142260155Y-128936210D01*
X142113790Y-128789845D01*
X142069654Y-128723790D01*
X141998793Y-128617740D01*
X141945550Y-128489200D01*
X141919581Y-128426506D01*
X141879200Y-128223496D01*
X141879200Y-128016504D01*
X141919581Y-127813494D01*
X141998793Y-127622261D01*
X141998793Y-127622260D01*
X142113791Y-127450154D01*
X142260154Y-127303791D01*
X142432260Y-127188793D01*
X142511472Y-127155982D01*
X142623494Y-127109581D01*
X142826504Y-127069200D01*
X143033496Y-127069200D01*
X143236506Y-127109581D01*
X143236506Y-127109581D01*
G37*
G36*
X138736506Y-127109581D02*
G01*
X138848528Y-127155982D01*
X138927740Y-127188793D01*
X139099846Y-127303791D01*
X139246209Y-127450154D01*
X139361207Y-127622260D01*
X139361207Y-127622261D01*
X139440419Y-127813494D01*
X139480800Y-128016504D01*
X139480800Y-128223496D01*
X139440419Y-128426506D01*
X139414450Y-128489200D01*
X139361207Y-128617740D01*
X139290346Y-128723790D01*
X139246210Y-128789845D01*
X139099845Y-128936210D01*
X139062274Y-128961314D01*
X138927740Y-129051207D01*
X138848528Y-129084018D01*
X138736506Y-129130419D01*
X138533496Y-129170800D01*
X138326504Y-129170800D01*
X138123494Y-129130419D01*
X138011472Y-129084018D01*
X137932260Y-129051207D01*
X137797726Y-128961314D01*
X137760155Y-128936210D01*
X137613790Y-128789845D01*
X137569654Y-128723790D01*
X137498793Y-128617740D01*
X137445550Y-128489200D01*
X137419581Y-128426506D01*
X137379200Y-128223496D01*
X137379200Y-128016504D01*
X137419581Y-127813494D01*
X137498793Y-127622261D01*
X137498793Y-127622260D01*
X137613791Y-127450154D01*
X137760154Y-127303791D01*
X137932260Y-127188793D01*
X138011472Y-127155982D01*
X138123494Y-127109581D01*
X138326504Y-127069200D01*
X138533496Y-127069200D01*
X138736506Y-127109581D01*
X138736506Y-127109581D01*
G37*
G36*
X21896506Y-127109581D02*
G01*
X22008528Y-127155982D01*
X22087740Y-127188793D01*
X22259846Y-127303791D01*
X22406209Y-127450154D01*
X22521207Y-127622260D01*
X22521207Y-127622261D01*
X22600419Y-127813494D01*
X22640800Y-128016504D01*
X22640800Y-128223496D01*
X22600419Y-128426506D01*
X22574450Y-128489200D01*
X22521207Y-128617740D01*
X22450346Y-128723790D01*
X22406210Y-128789845D01*
X22259845Y-128936210D01*
X22222274Y-128961314D01*
X22087740Y-129051207D01*
X22008528Y-129084018D01*
X21896506Y-129130419D01*
X21693496Y-129170800D01*
X21486504Y-129170800D01*
X21283494Y-129130419D01*
X21171472Y-129084018D01*
X21092260Y-129051207D01*
X20957726Y-128961314D01*
X20920155Y-128936210D01*
X20773790Y-128789845D01*
X20729654Y-128723790D01*
X20658793Y-128617740D01*
X20605550Y-128489200D01*
X20579581Y-128426506D01*
X20539200Y-128223496D01*
X20539200Y-128016504D01*
X20579581Y-127813494D01*
X20658793Y-127622261D01*
X20658793Y-127622260D01*
X20773791Y-127450154D01*
X20920154Y-127303791D01*
X21092260Y-127188793D01*
X21171472Y-127155982D01*
X21283494Y-127109581D01*
X21486504Y-127069200D01*
X21693496Y-127069200D01*
X21896506Y-127109581D01*
X21896506Y-127109581D01*
G37*
G36*
X37136506Y-127109581D02*
G01*
X37248528Y-127155982D01*
X37327740Y-127188793D01*
X37499846Y-127303791D01*
X37646209Y-127450154D01*
X37761207Y-127622260D01*
X37761207Y-127622261D01*
X37840419Y-127813494D01*
X37880800Y-128016504D01*
X37880800Y-128223496D01*
X37840419Y-128426506D01*
X37814450Y-128489200D01*
X37761207Y-128617740D01*
X37690346Y-128723790D01*
X37646210Y-128789845D01*
X37499845Y-128936210D01*
X37462274Y-128961314D01*
X37327740Y-129051207D01*
X37248528Y-129084018D01*
X37136506Y-129130419D01*
X36933496Y-129170800D01*
X36726504Y-129170800D01*
X36523494Y-129130419D01*
X36411472Y-129084018D01*
X36332260Y-129051207D01*
X36197726Y-128961314D01*
X36160155Y-128936210D01*
X36013790Y-128789845D01*
X35969654Y-128723790D01*
X35898793Y-128617740D01*
X35845550Y-128489200D01*
X35819581Y-128426506D01*
X35779200Y-128223496D01*
X35779200Y-128016504D01*
X35819581Y-127813494D01*
X35898793Y-127622261D01*
X35898793Y-127622260D01*
X36013791Y-127450154D01*
X36160154Y-127303791D01*
X36332260Y-127188793D01*
X36411472Y-127155982D01*
X36523494Y-127109581D01*
X36726504Y-127069200D01*
X36933496Y-127069200D01*
X37136506Y-127109581D01*
X37136506Y-127109581D01*
G37*
G36*
X63279771Y-126681908D02*
G01*
X63327579Y-126686617D01*
X63450255Y-126723831D01*
X63450258Y-126723832D01*
X63563313Y-126784261D01*
X63662412Y-126865588D01*
X63743739Y-126964687D01*
X63804168Y-127077742D01*
X63804169Y-127077745D01*
X63841383Y-127200421D01*
X63853948Y-127328000D01*
X63841383Y-127455579D01*
X63804169Y-127578255D01*
X63804168Y-127578258D01*
X63743739Y-127691313D01*
X63662412Y-127790412D01*
X63563313Y-127871739D01*
X63450258Y-127932168D01*
X63450255Y-127932169D01*
X63327579Y-127969383D01*
X63279771Y-127974091D01*
X63231965Y-127978800D01*
X62368035Y-127978800D01*
X62320229Y-127974091D01*
X62272421Y-127969383D01*
X62149745Y-127932169D01*
X62149742Y-127932168D01*
X62036687Y-127871739D01*
X61937588Y-127790412D01*
X61856261Y-127691313D01*
X61795832Y-127578258D01*
X61795831Y-127578255D01*
X61758617Y-127455579D01*
X61746052Y-127328000D01*
X61758617Y-127200421D01*
X61795831Y-127077745D01*
X61795832Y-127077742D01*
X61856261Y-126964687D01*
X61937588Y-126865588D01*
X62036687Y-126784261D01*
X62149742Y-126723832D01*
X62149745Y-126723831D01*
X62272421Y-126686617D01*
X62320229Y-126681908D01*
X62368035Y-126677200D01*
X63231965Y-126677200D01*
X63279771Y-126681908D01*
X63279771Y-126681908D01*
G37*
G36*
X49461771Y-125411909D02*
G01*
X49509579Y-125416617D01*
X49632255Y-125453831D01*
X49632258Y-125453832D01*
X49745313Y-125514261D01*
X49844412Y-125595588D01*
X49925739Y-125694687D01*
X49986168Y-125807742D01*
X49986169Y-125807745D01*
X50023383Y-125930421D01*
X50035948Y-126058000D01*
X50023383Y-126185579D01*
X49986169Y-126308255D01*
X49986168Y-126308258D01*
X49925739Y-126421313D01*
X49844412Y-126520412D01*
X49745313Y-126601739D01*
X49632258Y-126662168D01*
X49632255Y-126662169D01*
X49509579Y-126699383D01*
X49461771Y-126704092D01*
X49413965Y-126708800D01*
X48550035Y-126708800D01*
X48502229Y-126704092D01*
X48454421Y-126699383D01*
X48331745Y-126662169D01*
X48331742Y-126662168D01*
X48218687Y-126601739D01*
X48119588Y-126520412D01*
X48038261Y-126421313D01*
X47977832Y-126308258D01*
X47977831Y-126308255D01*
X47940617Y-126185579D01*
X47928052Y-126058000D01*
X47940617Y-125930421D01*
X47977831Y-125807745D01*
X47977832Y-125807742D01*
X48038261Y-125694687D01*
X48119588Y-125595588D01*
X48218687Y-125514261D01*
X48331742Y-125453832D01*
X48331745Y-125453831D01*
X48454421Y-125416617D01*
X48502229Y-125411909D01*
X48550035Y-125407200D01*
X49413965Y-125407200D01*
X49461771Y-125411909D01*
X49461771Y-125411909D01*
G37*
G36*
X129892800Y-126530800D02*
G01*
X128267200Y-126530800D01*
X128267200Y-122629200D01*
X129892800Y-122629200D01*
X129892800Y-126530800D01*
X129892800Y-126530800D01*
G37*
G36*
X131892800Y-126530800D02*
G01*
X130267200Y-126530800D01*
X130267200Y-122629200D01*
X131892800Y-122629200D01*
X131892800Y-126530800D01*
X131892800Y-126530800D01*
G37*
G36*
X135892800Y-126530800D02*
G01*
X134267200Y-126530800D01*
X134267200Y-122629200D01*
X135892800Y-122629200D01*
X135892800Y-126530800D01*
X135892800Y-126530800D01*
G37*
G36*
X133892800Y-126530800D02*
G01*
X132267200Y-126530800D01*
X132267200Y-122629200D01*
X133892800Y-122629200D01*
X133892800Y-126530800D01*
X133892800Y-126530800D01*
G37*
G36*
X58726506Y-123449581D02*
G01*
X58838528Y-123495982D01*
X58917740Y-123528793D01*
X59089846Y-123643791D01*
X59236209Y-123790154D01*
X59351207Y-123962260D01*
X59384018Y-124041472D01*
X59430419Y-124153494D01*
X59470800Y-124356504D01*
X59470800Y-124563496D01*
X59430419Y-124766506D01*
X59384018Y-124878528D01*
X59351207Y-124957740D01*
X59236209Y-125129846D01*
X59089846Y-125276209D01*
X58917740Y-125391207D01*
X58838528Y-125424018D01*
X58726506Y-125470419D01*
X58523496Y-125510800D01*
X58316504Y-125510800D01*
X58113494Y-125470419D01*
X58001472Y-125424018D01*
X57922260Y-125391207D01*
X57750154Y-125276209D01*
X57603791Y-125129846D01*
X57488793Y-124957740D01*
X57455982Y-124878528D01*
X57409581Y-124766506D01*
X57369200Y-124563496D01*
X57369200Y-124356504D01*
X57409581Y-124153494D01*
X57455982Y-124041472D01*
X57488793Y-123962260D01*
X57603791Y-123790154D01*
X57750154Y-123643791D01*
X57922260Y-123528793D01*
X58001472Y-123495982D01*
X58113494Y-123449581D01*
X58316504Y-123409200D01*
X58523496Y-123409200D01*
X58726506Y-123449581D01*
X58726506Y-123449581D01*
G37*
G36*
X63279771Y-124141909D02*
G01*
X63327579Y-124146617D01*
X63450255Y-124183831D01*
X63450258Y-124183832D01*
X63563313Y-124244261D01*
X63662412Y-124325588D01*
X63743739Y-124424687D01*
X63804168Y-124537742D01*
X63804169Y-124537745D01*
X63841383Y-124660421D01*
X63853948Y-124788000D01*
X63841383Y-124915579D01*
X63828593Y-124957740D01*
X63804168Y-125038258D01*
X63743739Y-125151313D01*
X63662412Y-125250412D01*
X63563313Y-125331739D01*
X63450258Y-125392168D01*
X63450255Y-125392169D01*
X63327579Y-125429383D01*
X63279771Y-125434091D01*
X63231965Y-125438800D01*
X62368035Y-125438800D01*
X62320229Y-125434091D01*
X62272421Y-125429383D01*
X62149745Y-125392169D01*
X62149742Y-125392168D01*
X62036687Y-125331739D01*
X61937588Y-125250412D01*
X61856261Y-125151313D01*
X61795832Y-125038258D01*
X61771407Y-124957740D01*
X61758617Y-124915579D01*
X61746052Y-124788000D01*
X61758617Y-124660421D01*
X61795831Y-124537745D01*
X61795832Y-124537742D01*
X61856261Y-124424687D01*
X61937588Y-124325588D01*
X62036687Y-124244261D01*
X62149742Y-124183832D01*
X62149745Y-124183831D01*
X62272421Y-124146617D01*
X62320229Y-124141909D01*
X62368035Y-124137200D01*
X63231965Y-124137200D01*
X63279771Y-124141909D01*
X63279771Y-124141909D01*
G37*
G36*
X49461771Y-122871909D02*
G01*
X49509579Y-122876617D01*
X49632255Y-122913831D01*
X49632258Y-122913832D01*
X49745313Y-122974261D01*
X49844412Y-123055588D01*
X49925739Y-123154687D01*
X49986168Y-123267742D01*
X49986169Y-123267745D01*
X50023383Y-123390421D01*
X50035948Y-123518000D01*
X50023383Y-123645579D01*
X50003887Y-123709846D01*
X49986168Y-123768258D01*
X49925739Y-123881313D01*
X49844412Y-123980412D01*
X49745313Y-124061739D01*
X49632258Y-124122168D01*
X49632255Y-124122169D01*
X49509579Y-124159383D01*
X49461771Y-124164091D01*
X49413965Y-124168800D01*
X48550035Y-124168800D01*
X48502229Y-124164091D01*
X48454421Y-124159383D01*
X48331745Y-124122169D01*
X48331742Y-124122168D01*
X48218687Y-124061739D01*
X48119588Y-123980412D01*
X48038261Y-123881313D01*
X47977832Y-123768258D01*
X47960113Y-123709846D01*
X47940617Y-123645579D01*
X47928052Y-123518000D01*
X47940617Y-123390421D01*
X47977831Y-123267745D01*
X47977832Y-123267742D01*
X48038261Y-123154687D01*
X48119588Y-123055588D01*
X48218687Y-122974261D01*
X48331742Y-122913832D01*
X48331745Y-122913831D01*
X48454421Y-122876617D01*
X48502229Y-122871909D01*
X48550035Y-122867200D01*
X49413965Y-122867200D01*
X49461771Y-122871909D01*
X49461771Y-122871909D01*
G37*
G36*
X29516506Y-122029581D02*
G01*
X29628528Y-122075982D01*
X29707740Y-122108793D01*
X29879846Y-122223791D01*
X30026209Y-122370154D01*
X30141207Y-122542260D01*
X30141207Y-122542261D01*
X30220419Y-122733494D01*
X30260800Y-122936504D01*
X30260800Y-123143496D01*
X30220419Y-123346506D01*
X30189164Y-123421961D01*
X30141207Y-123537740D01*
X30070346Y-123643790D01*
X30026210Y-123709845D01*
X29879845Y-123856210D01*
X29842274Y-123881314D01*
X29707740Y-123971207D01*
X29628528Y-124004018D01*
X29516506Y-124050419D01*
X29313496Y-124090800D01*
X29106504Y-124090800D01*
X28903494Y-124050419D01*
X28791472Y-124004018D01*
X28712260Y-123971207D01*
X28577726Y-123881314D01*
X28540155Y-123856210D01*
X28393790Y-123709845D01*
X28349654Y-123643790D01*
X28278793Y-123537740D01*
X28230836Y-123421961D01*
X28199581Y-123346506D01*
X28159200Y-123143496D01*
X28159200Y-122936504D01*
X28199581Y-122733494D01*
X28278793Y-122542261D01*
X28278793Y-122542260D01*
X28393791Y-122370154D01*
X28540154Y-122223791D01*
X28712260Y-122108793D01*
X28791472Y-122075982D01*
X28903494Y-122029581D01*
X29106504Y-121989200D01*
X29313496Y-121989200D01*
X29516506Y-122029581D01*
X29516506Y-122029581D01*
G37*
G36*
X34016506Y-122029581D02*
G01*
X34128528Y-122075982D01*
X34207740Y-122108793D01*
X34379846Y-122223791D01*
X34526209Y-122370154D01*
X34641207Y-122542260D01*
X34641207Y-122542261D01*
X34720419Y-122733494D01*
X34760800Y-122936504D01*
X34760800Y-123143496D01*
X34720419Y-123346506D01*
X34689164Y-123421961D01*
X34641207Y-123537740D01*
X34570346Y-123643790D01*
X34526210Y-123709845D01*
X34379845Y-123856210D01*
X34342274Y-123881314D01*
X34207740Y-123971207D01*
X34128528Y-124004018D01*
X34016506Y-124050419D01*
X33813496Y-124090800D01*
X33606504Y-124090800D01*
X33403494Y-124050419D01*
X33291472Y-124004018D01*
X33212260Y-123971207D01*
X33077726Y-123881314D01*
X33040155Y-123856210D01*
X32893790Y-123709845D01*
X32849654Y-123643790D01*
X32778793Y-123537740D01*
X32730836Y-123421961D01*
X32699581Y-123346506D01*
X32659200Y-123143496D01*
X32659200Y-122936504D01*
X32699581Y-122733494D01*
X32778793Y-122542261D01*
X32778793Y-122542260D01*
X32893791Y-122370154D01*
X33040154Y-122223791D01*
X33212260Y-122108793D01*
X33291472Y-122075982D01*
X33403494Y-122029581D01*
X33606504Y-121989200D01*
X33813496Y-121989200D01*
X34016506Y-122029581D01*
X34016506Y-122029581D01*
G37*
G36*
X123965263Y-121309957D02*
G01*
X124040966Y-121341314D01*
X124205634Y-121409522D01*
X124421961Y-121554067D01*
X124605933Y-121738039D01*
X124703919Y-121884686D01*
X124750479Y-121954368D01*
X124850043Y-122194737D01*
X124900800Y-122449911D01*
X124900800Y-122710089D01*
X124850043Y-122965263D01*
X124771582Y-123154686D01*
X124750478Y-123205634D01*
X124605933Y-123421961D01*
X124421961Y-123605933D01*
X124205634Y-123750478D01*
X124205633Y-123750479D01*
X124205632Y-123750479D01*
X123965263Y-123850043D01*
X123710089Y-123900800D01*
X123449911Y-123900800D01*
X123194737Y-123850043D01*
X122954368Y-123750479D01*
X122954367Y-123750479D01*
X122954366Y-123750478D01*
X122738039Y-123605933D01*
X122554067Y-123421961D01*
X122409522Y-123205634D01*
X122388419Y-123154686D01*
X122309957Y-122965263D01*
X122259200Y-122710089D01*
X122259200Y-122449911D01*
X122309957Y-122194737D01*
X122409521Y-121954368D01*
X122456081Y-121884686D01*
X122554067Y-121738039D01*
X122738039Y-121554067D01*
X122954366Y-121409522D01*
X123119035Y-121341314D01*
X123194737Y-121309957D01*
X123449911Y-121259200D01*
X123710089Y-121259200D01*
X123965263Y-121309957D01*
X123965263Y-121309957D01*
G37*
G36*
X63279771Y-121601909D02*
G01*
X63327579Y-121606617D01*
X63450255Y-121643831D01*
X63450258Y-121643832D01*
X63563313Y-121704261D01*
X63662412Y-121785588D01*
X63743739Y-121884687D01*
X63804168Y-121997742D01*
X63804169Y-121997745D01*
X63841383Y-122120421D01*
X63853948Y-122248000D01*
X63841383Y-122375579D01*
X63804169Y-122498255D01*
X63804168Y-122498258D01*
X63743739Y-122611313D01*
X63662412Y-122710412D01*
X63563313Y-122791739D01*
X63450258Y-122852168D01*
X63450255Y-122852169D01*
X63327579Y-122889383D01*
X63279771Y-122894092D01*
X63231965Y-122898800D01*
X62368035Y-122898800D01*
X62320229Y-122894092D01*
X62272421Y-122889383D01*
X62149745Y-122852169D01*
X62149742Y-122852168D01*
X62036687Y-122791739D01*
X61937588Y-122710412D01*
X61856261Y-122611313D01*
X61795832Y-122498258D01*
X61795831Y-122498255D01*
X61758617Y-122375579D01*
X61746052Y-122248000D01*
X61758617Y-122120421D01*
X61795831Y-121997745D01*
X61795832Y-121997742D01*
X61856261Y-121884687D01*
X61937588Y-121785588D01*
X62036687Y-121704261D01*
X62149742Y-121643832D01*
X62149745Y-121643831D01*
X62272421Y-121606617D01*
X62320229Y-121601909D01*
X62368035Y-121597200D01*
X63231965Y-121597200D01*
X63279771Y-121601909D01*
X63279771Y-121601909D01*
G37*
G36*
X49461771Y-120331909D02*
G01*
X49509579Y-120336617D01*
X49621004Y-120370418D01*
X49632258Y-120373832D01*
X49745313Y-120434261D01*
X49844412Y-120515588D01*
X49925739Y-120614687D01*
X49986168Y-120727742D01*
X49986169Y-120727745D01*
X50023383Y-120850421D01*
X50035948Y-120978000D01*
X50023383Y-121105579D01*
X49986169Y-121228255D01*
X49986168Y-121228258D01*
X49925739Y-121341313D01*
X49844412Y-121440412D01*
X49745313Y-121521739D01*
X49632258Y-121582168D01*
X49632255Y-121582169D01*
X49509579Y-121619383D01*
X49461771Y-121624092D01*
X49413965Y-121628800D01*
X48550035Y-121628800D01*
X48502229Y-121624092D01*
X48454421Y-121619383D01*
X48331745Y-121582169D01*
X48331742Y-121582168D01*
X48218687Y-121521739D01*
X48119588Y-121440412D01*
X48038261Y-121341313D01*
X47977832Y-121228258D01*
X47977831Y-121228255D01*
X47940617Y-121105579D01*
X47928052Y-120978000D01*
X47940617Y-120850421D01*
X47977831Y-120727745D01*
X47977832Y-120727742D01*
X48038261Y-120614687D01*
X48119588Y-120515588D01*
X48218687Y-120434261D01*
X48331742Y-120373832D01*
X48342996Y-120370418D01*
X48454421Y-120336617D01*
X48502229Y-120331909D01*
X48550035Y-120327200D01*
X49413965Y-120327200D01*
X49461771Y-120331909D01*
X49461771Y-120331909D01*
G37*
G36*
X116511506Y-118349581D02*
G01*
X116623528Y-118395982D01*
X116702740Y-118428793D01*
X116874846Y-118543791D01*
X117021209Y-118690154D01*
X117136207Y-118862260D01*
X117152010Y-118900412D01*
X117215419Y-119053494D01*
X117255800Y-119256504D01*
X117255800Y-119463496D01*
X117215419Y-119666506D01*
X117198231Y-119708000D01*
X117136207Y-119857740D01*
X117021209Y-120029846D01*
X116874846Y-120176209D01*
X116702740Y-120291207D01*
X116652135Y-120312168D01*
X116511506Y-120370419D01*
X116308496Y-120410800D01*
X116101504Y-120410800D01*
X115898494Y-120370419D01*
X115757865Y-120312168D01*
X115707260Y-120291207D01*
X115535154Y-120176209D01*
X115388791Y-120029846D01*
X115273793Y-119857740D01*
X115211769Y-119708000D01*
X115194581Y-119666506D01*
X115154200Y-119463496D01*
X115154200Y-119256504D01*
X115194581Y-119053494D01*
X115257990Y-118900412D01*
X115273793Y-118862260D01*
X115388791Y-118690154D01*
X115535154Y-118543791D01*
X115707260Y-118428793D01*
X115786472Y-118395982D01*
X115898494Y-118349581D01*
X116101504Y-118309200D01*
X116308496Y-118309200D01*
X116511506Y-118349581D01*
X116511506Y-118349581D01*
G37*
G36*
X63279771Y-119061909D02*
G01*
X63327579Y-119066617D01*
X63450255Y-119103831D01*
X63450258Y-119103832D01*
X63563313Y-119164261D01*
X63662412Y-119245588D01*
X63743739Y-119344687D01*
X63804168Y-119457742D01*
X63804169Y-119457745D01*
X63841383Y-119580421D01*
X63853948Y-119708000D01*
X63841383Y-119835579D01*
X63834660Y-119857740D01*
X63804168Y-119958258D01*
X63743739Y-120071313D01*
X63662412Y-120170412D01*
X63563313Y-120251739D01*
X63450258Y-120312168D01*
X63450255Y-120312169D01*
X63327579Y-120349383D01*
X63279771Y-120354091D01*
X63231965Y-120358800D01*
X62368035Y-120358800D01*
X62320229Y-120354091D01*
X62272421Y-120349383D01*
X62149745Y-120312169D01*
X62149742Y-120312168D01*
X62036687Y-120251739D01*
X61937588Y-120170412D01*
X61856261Y-120071313D01*
X61795832Y-119958258D01*
X61765340Y-119857740D01*
X61758617Y-119835579D01*
X61746052Y-119708000D01*
X61758617Y-119580421D01*
X61795831Y-119457745D01*
X61795832Y-119457742D01*
X61856261Y-119344687D01*
X61937588Y-119245588D01*
X62036687Y-119164261D01*
X62149742Y-119103832D01*
X62149745Y-119103831D01*
X62272421Y-119066617D01*
X62320229Y-119061909D01*
X62368035Y-119057200D01*
X63231965Y-119057200D01*
X63279771Y-119061909D01*
X63279771Y-119061909D01*
G37*
G36*
X49461771Y-117791908D02*
G01*
X49509579Y-117796617D01*
X49632255Y-117833831D01*
X49632258Y-117833832D01*
X49745313Y-117894261D01*
X49844412Y-117975588D01*
X49925739Y-118074687D01*
X49986168Y-118187742D01*
X49986169Y-118187745D01*
X50023383Y-118310421D01*
X50035948Y-118438000D01*
X50023383Y-118565579D01*
X49986169Y-118688255D01*
X49986168Y-118688258D01*
X49925739Y-118801313D01*
X49844412Y-118900412D01*
X49745313Y-118981739D01*
X49632258Y-119042168D01*
X49632255Y-119042169D01*
X49509579Y-119079383D01*
X49461771Y-119084091D01*
X49413965Y-119088800D01*
X48550035Y-119088800D01*
X48502229Y-119084091D01*
X48454421Y-119079383D01*
X48331745Y-119042169D01*
X48331742Y-119042168D01*
X48218687Y-118981739D01*
X48119588Y-118900412D01*
X48038261Y-118801313D01*
X47977832Y-118688258D01*
X47977831Y-118688255D01*
X47940617Y-118565579D01*
X47928052Y-118438000D01*
X47940617Y-118310421D01*
X47977831Y-118187745D01*
X47977832Y-118187742D01*
X48038261Y-118074687D01*
X48119588Y-117975588D01*
X48218687Y-117894261D01*
X48331742Y-117833832D01*
X48331745Y-117833831D01*
X48454421Y-117796617D01*
X48502229Y-117791908D01*
X48550035Y-117787200D01*
X49413965Y-117787200D01*
X49461771Y-117791908D01*
X49461771Y-117791908D01*
G37*
G36*
X37716506Y-116464581D02*
G01*
X37828528Y-116510982D01*
X37907740Y-116543793D01*
X37937730Y-116563832D01*
X38079845Y-116658790D01*
X38226210Y-116805155D01*
X38264368Y-116862263D01*
X38341207Y-116977260D01*
X38341207Y-116977261D01*
X38420419Y-117168494D01*
X38460800Y-117371504D01*
X38460800Y-117578496D01*
X38420419Y-117781506D01*
X38374018Y-117893528D01*
X38341207Y-117972740D01*
X38339303Y-117975589D01*
X38226210Y-118144845D01*
X38079845Y-118291210D01*
X38022737Y-118329368D01*
X37907740Y-118406207D01*
X37853212Y-118428793D01*
X37716506Y-118485419D01*
X37513496Y-118525800D01*
X37306504Y-118525800D01*
X37103494Y-118485419D01*
X36966788Y-118428793D01*
X36912260Y-118406207D01*
X36797263Y-118329368D01*
X36740155Y-118291210D01*
X36593790Y-118144845D01*
X36480697Y-117975589D01*
X36478793Y-117972740D01*
X36445982Y-117893528D01*
X36399581Y-117781506D01*
X36359200Y-117578496D01*
X36359200Y-117371504D01*
X36399581Y-117168494D01*
X36478793Y-116977261D01*
X36478793Y-116977260D01*
X36555632Y-116862263D01*
X36593790Y-116805155D01*
X36740155Y-116658790D01*
X36882270Y-116563832D01*
X36912260Y-116543793D01*
X36991472Y-116510982D01*
X37103494Y-116464581D01*
X37306504Y-116424200D01*
X37513496Y-116424200D01*
X37716506Y-116464581D01*
X37716506Y-116464581D01*
G37*
G36*
X42216506Y-116464581D02*
G01*
X42328528Y-116510982D01*
X42407740Y-116543793D01*
X42437730Y-116563832D01*
X42579845Y-116658790D01*
X42726210Y-116805155D01*
X42764368Y-116862263D01*
X42841207Y-116977260D01*
X42841207Y-116977261D01*
X42920419Y-117168494D01*
X42960800Y-117371504D01*
X42960800Y-117578496D01*
X42920419Y-117781506D01*
X42874018Y-117893528D01*
X42841207Y-117972740D01*
X42839303Y-117975589D01*
X42726210Y-118144845D01*
X42579845Y-118291210D01*
X42522737Y-118329368D01*
X42407740Y-118406207D01*
X42353212Y-118428793D01*
X42216506Y-118485419D01*
X42013496Y-118525800D01*
X41806504Y-118525800D01*
X41603494Y-118485419D01*
X41466788Y-118428793D01*
X41412260Y-118406207D01*
X41297263Y-118329368D01*
X41240155Y-118291210D01*
X41093790Y-118144845D01*
X40980697Y-117975589D01*
X40978793Y-117972740D01*
X40945982Y-117893528D01*
X40899581Y-117781506D01*
X40859200Y-117578496D01*
X40859200Y-117371504D01*
X40899581Y-117168494D01*
X40978793Y-116977261D01*
X40978793Y-116977260D01*
X41055632Y-116862263D01*
X41093790Y-116805155D01*
X41240155Y-116658790D01*
X41382270Y-116563832D01*
X41412260Y-116543793D01*
X41491472Y-116510982D01*
X41603494Y-116464581D01*
X41806504Y-116424200D01*
X42013496Y-116424200D01*
X42216506Y-116464581D01*
X42216506Y-116464581D01*
G37*
G36*
X63279771Y-116521908D02*
G01*
X63327579Y-116526617D01*
X63450255Y-116563831D01*
X63450258Y-116563832D01*
X63563313Y-116624261D01*
X63662412Y-116705588D01*
X63743739Y-116804687D01*
X63804168Y-116917742D01*
X63804169Y-116917745D01*
X63841383Y-117040421D01*
X63853948Y-117168000D01*
X63841383Y-117295579D01*
X63804169Y-117418255D01*
X63804168Y-117418258D01*
X63743739Y-117531313D01*
X63662412Y-117630412D01*
X63563313Y-117711739D01*
X63450258Y-117772168D01*
X63450255Y-117772169D01*
X63327579Y-117809383D01*
X63279771Y-117814092D01*
X63231965Y-117818800D01*
X62368035Y-117818800D01*
X62320229Y-117814092D01*
X62272421Y-117809383D01*
X62149745Y-117772169D01*
X62149742Y-117772168D01*
X62036687Y-117711739D01*
X61937588Y-117630412D01*
X61856261Y-117531313D01*
X61795832Y-117418258D01*
X61795831Y-117418255D01*
X61758617Y-117295579D01*
X61746052Y-117168000D01*
X61758617Y-117040421D01*
X61795831Y-116917745D01*
X61795832Y-116917742D01*
X61856261Y-116804687D01*
X61937588Y-116705588D01*
X62036687Y-116624261D01*
X62149742Y-116563832D01*
X62149745Y-116563831D01*
X62272421Y-116526617D01*
X62320229Y-116521908D01*
X62368035Y-116517200D01*
X63231965Y-116517200D01*
X63279771Y-116521908D01*
X63279771Y-116521908D01*
G37*
G36*
X79626820Y-117740800D02*
G01*
X77825220Y-117740800D01*
X77825220Y-115939200D01*
X79626820Y-115939200D01*
X79626820Y-117740800D01*
X79626820Y-117740800D01*
G37*
G36*
X81354382Y-115943545D02*
G01*
X81442608Y-115952234D01*
X81612409Y-116003743D01*
X81612412Y-116003744D01*
X81768898Y-116087388D01*
X81906064Y-116199956D01*
X82018632Y-116337122D01*
X82102276Y-116493608D01*
X82102277Y-116493611D01*
X82153786Y-116663412D01*
X82171178Y-116840000D01*
X82153786Y-117016588D01*
X82107855Y-117168000D01*
X82102276Y-117186392D01*
X82018632Y-117342878D01*
X81906064Y-117480044D01*
X81768898Y-117592612D01*
X81612412Y-117676256D01*
X81612409Y-117676257D01*
X81442608Y-117727766D01*
X81354382Y-117736455D01*
X81310270Y-117740800D01*
X81221770Y-117740800D01*
X81177658Y-117736455D01*
X81089432Y-117727766D01*
X80919631Y-117676257D01*
X80919628Y-117676256D01*
X80763142Y-117592612D01*
X80625976Y-117480044D01*
X80513408Y-117342878D01*
X80429764Y-117186392D01*
X80424185Y-117168000D01*
X80378254Y-117016588D01*
X80360862Y-116840000D01*
X80378254Y-116663412D01*
X80429763Y-116493611D01*
X80429764Y-116493608D01*
X80513408Y-116337122D01*
X80625976Y-116199956D01*
X80763142Y-116087388D01*
X80919628Y-116003744D01*
X80919631Y-116003743D01*
X81089432Y-115952234D01*
X81177658Y-115943545D01*
X81221770Y-115939200D01*
X81310270Y-115939200D01*
X81354382Y-115943545D01*
X81354382Y-115943545D01*
G37*
G36*
X86434382Y-115943545D02*
G01*
X86522608Y-115952234D01*
X86692409Y-116003743D01*
X86692412Y-116003744D01*
X86848898Y-116087388D01*
X86986064Y-116199956D01*
X87098632Y-116337122D01*
X87182276Y-116493608D01*
X87182277Y-116493611D01*
X87233786Y-116663412D01*
X87251178Y-116840000D01*
X87233786Y-117016588D01*
X87187855Y-117168000D01*
X87182276Y-117186392D01*
X87098632Y-117342878D01*
X86986064Y-117480044D01*
X86848898Y-117592612D01*
X86692412Y-117676256D01*
X86692409Y-117676257D01*
X86522608Y-117727766D01*
X86434382Y-117736455D01*
X86390270Y-117740800D01*
X86301770Y-117740800D01*
X86257658Y-117736455D01*
X86169432Y-117727766D01*
X85999631Y-117676257D01*
X85999628Y-117676256D01*
X85843142Y-117592612D01*
X85705976Y-117480044D01*
X85593408Y-117342878D01*
X85509764Y-117186392D01*
X85504185Y-117168000D01*
X85458254Y-117016588D01*
X85440862Y-116840000D01*
X85458254Y-116663412D01*
X85509763Y-116493611D01*
X85509764Y-116493608D01*
X85593408Y-116337122D01*
X85705976Y-116199956D01*
X85843142Y-116087388D01*
X85999628Y-116003744D01*
X85999631Y-116003743D01*
X86169432Y-115952234D01*
X86257658Y-115943545D01*
X86301770Y-115939200D01*
X86390270Y-115939200D01*
X86434382Y-115943545D01*
X86434382Y-115943545D01*
G37*
G36*
X83894382Y-115943545D02*
G01*
X83982608Y-115952234D01*
X84152409Y-116003743D01*
X84152412Y-116003744D01*
X84308898Y-116087388D01*
X84446064Y-116199956D01*
X84558632Y-116337122D01*
X84642276Y-116493608D01*
X84642277Y-116493611D01*
X84693786Y-116663412D01*
X84711178Y-116840000D01*
X84693786Y-117016588D01*
X84647855Y-117168000D01*
X84642276Y-117186392D01*
X84558632Y-117342878D01*
X84446064Y-117480044D01*
X84308898Y-117592612D01*
X84152412Y-117676256D01*
X84152409Y-117676257D01*
X83982608Y-117727766D01*
X83894382Y-117736455D01*
X83850270Y-117740800D01*
X83761770Y-117740800D01*
X83717658Y-117736455D01*
X83629432Y-117727766D01*
X83459631Y-117676257D01*
X83459628Y-117676256D01*
X83303142Y-117592612D01*
X83165976Y-117480044D01*
X83053408Y-117342878D01*
X82969764Y-117186392D01*
X82964185Y-117168000D01*
X82918254Y-117016588D01*
X82900862Y-116840000D01*
X82918254Y-116663412D01*
X82969763Y-116493611D01*
X82969764Y-116493608D01*
X83053408Y-116337122D01*
X83165976Y-116199956D01*
X83303142Y-116087388D01*
X83459628Y-116003744D01*
X83459631Y-116003743D01*
X83629432Y-115952234D01*
X83717658Y-115943545D01*
X83761770Y-115939200D01*
X83850270Y-115939200D01*
X83894382Y-115943545D01*
X83894382Y-115943545D01*
G37*
G36*
X49461771Y-115251908D02*
G01*
X49509579Y-115256617D01*
X49632255Y-115293831D01*
X49632258Y-115293832D01*
X49745313Y-115354261D01*
X49844412Y-115435588D01*
X49925739Y-115534687D01*
X49986168Y-115647742D01*
X49986169Y-115647745D01*
X50023383Y-115770421D01*
X50035948Y-115898000D01*
X50023383Y-116025579D01*
X49986169Y-116148255D01*
X49986168Y-116148258D01*
X49925739Y-116261313D01*
X49844412Y-116360412D01*
X49745313Y-116441739D01*
X49632258Y-116502168D01*
X49632255Y-116502169D01*
X49509579Y-116539383D01*
X49464802Y-116543793D01*
X49413965Y-116548800D01*
X48550035Y-116548800D01*
X48499198Y-116543793D01*
X48454421Y-116539383D01*
X48331745Y-116502169D01*
X48331742Y-116502168D01*
X48218687Y-116441739D01*
X48119588Y-116360412D01*
X48038261Y-116261313D01*
X47977832Y-116148258D01*
X47977831Y-116148255D01*
X47940617Y-116025579D01*
X47928052Y-115898000D01*
X47940617Y-115770421D01*
X47977831Y-115647745D01*
X47977832Y-115647742D01*
X48038261Y-115534687D01*
X48119588Y-115435588D01*
X48218687Y-115354261D01*
X48331742Y-115293832D01*
X48331745Y-115293831D01*
X48454421Y-115256617D01*
X48502229Y-115251908D01*
X48550035Y-115247200D01*
X49413965Y-115247200D01*
X49461771Y-115251908D01*
X49461771Y-115251908D01*
G37*
G36*
X117255800Y-112810800D02*
G01*
X115154200Y-112810800D01*
X115154200Y-110709200D01*
X117255800Y-110709200D01*
X117255800Y-112810800D01*
X117255800Y-112810800D01*
G37*
G36*
X80176787Y-110921510D02*
G01*
X80337162Y-110970160D01*
X80484965Y-111049162D01*
X80614517Y-111155483D01*
X80720838Y-111285035D01*
X80799840Y-111432838D01*
X80848490Y-111593213D01*
X80864916Y-111760000D01*
X80848490Y-111926787D01*
X80799840Y-112087162D01*
X80720838Y-112234965D01*
X80614517Y-112364517D01*
X80484965Y-112470838D01*
X80337162Y-112549840D01*
X80176787Y-112598490D01*
X80051794Y-112610800D01*
X79968206Y-112610800D01*
X79843213Y-112598490D01*
X79682838Y-112549840D01*
X79535035Y-112470838D01*
X79405483Y-112364517D01*
X79299162Y-112234965D01*
X79220160Y-112087162D01*
X79171510Y-111926787D01*
X79155084Y-111760000D01*
X79171510Y-111593213D01*
X79220160Y-111432838D01*
X79299162Y-111285035D01*
X79405483Y-111155483D01*
X79535035Y-111049162D01*
X79682838Y-110970160D01*
X79843213Y-110921510D01*
X79968206Y-110909200D01*
X80051794Y-110909200D01*
X80176787Y-110921510D01*
X80176787Y-110921510D01*
G37*
G36*
X77636787Y-110921510D02*
G01*
X77797162Y-110970160D01*
X77944965Y-111049162D01*
X78074517Y-111155483D01*
X78180838Y-111285035D01*
X78259840Y-111432838D01*
X78308490Y-111593213D01*
X78324916Y-111760000D01*
X78308490Y-111926787D01*
X78259840Y-112087162D01*
X78180838Y-112234965D01*
X78074517Y-112364517D01*
X77944965Y-112470838D01*
X77797162Y-112549840D01*
X77636787Y-112598490D01*
X77511794Y-112610800D01*
X77428206Y-112610800D01*
X77303213Y-112598490D01*
X77142838Y-112549840D01*
X76995035Y-112470838D01*
X76865483Y-112364517D01*
X76759162Y-112234965D01*
X76680160Y-112087162D01*
X76631510Y-111926787D01*
X76615084Y-111760000D01*
X76631510Y-111593213D01*
X76680160Y-111432838D01*
X76759162Y-111285035D01*
X76865483Y-111155483D01*
X76995035Y-111049162D01*
X77142838Y-110970160D01*
X77303213Y-110921510D01*
X77428206Y-110909200D01*
X77511794Y-110909200D01*
X77636787Y-110921510D01*
X77636787Y-110921510D01*
G37*
G36*
X82716787Y-110921510D02*
G01*
X82877162Y-110970160D01*
X83024965Y-111049162D01*
X83154517Y-111155483D01*
X83260838Y-111285035D01*
X83339840Y-111432838D01*
X83388490Y-111593213D01*
X83404916Y-111760000D01*
X83388490Y-111926787D01*
X83339840Y-112087162D01*
X83260838Y-112234965D01*
X83154517Y-112364517D01*
X83024965Y-112470838D01*
X82877162Y-112549840D01*
X82716787Y-112598490D01*
X82591794Y-112610800D01*
X82508206Y-112610800D01*
X82383213Y-112598490D01*
X82222838Y-112549840D01*
X82075035Y-112470838D01*
X81945483Y-112364517D01*
X81839162Y-112234965D01*
X81760160Y-112087162D01*
X81711510Y-111926787D01*
X81695084Y-111760000D01*
X81711510Y-111593213D01*
X81760160Y-111432838D01*
X81839162Y-111285035D01*
X81945483Y-111155483D01*
X82075035Y-111049162D01*
X82222838Y-110970160D01*
X82383213Y-110921510D01*
X82508206Y-110909200D01*
X82591794Y-110909200D01*
X82716787Y-110921510D01*
X82716787Y-110921510D01*
G37*
G36*
X85256787Y-110921510D02*
G01*
X85417162Y-110970160D01*
X85564965Y-111049162D01*
X85694517Y-111155483D01*
X85800838Y-111285035D01*
X85879840Y-111432838D01*
X85928490Y-111593213D01*
X85944916Y-111760000D01*
X85928490Y-111926787D01*
X85879840Y-112087162D01*
X85800838Y-112234965D01*
X85694517Y-112364517D01*
X85564965Y-112470838D01*
X85417162Y-112549840D01*
X85256787Y-112598490D01*
X85131794Y-112610800D01*
X85048206Y-112610800D01*
X84923213Y-112598490D01*
X84762838Y-112549840D01*
X84615035Y-112470838D01*
X84485483Y-112364517D01*
X84379162Y-112234965D01*
X84300160Y-112087162D01*
X84251510Y-111926787D01*
X84235084Y-111760000D01*
X84251510Y-111593213D01*
X84300160Y-111432838D01*
X84379162Y-111285035D01*
X84485483Y-111155483D01*
X84615035Y-111049162D01*
X84762838Y-110970160D01*
X84923213Y-110921510D01*
X85048206Y-110909200D01*
X85131794Y-110909200D01*
X85256787Y-110921510D01*
X85256787Y-110921510D01*
G37*
G36*
X87796787Y-110921510D02*
G01*
X87957162Y-110970160D01*
X88104965Y-111049162D01*
X88234517Y-111155483D01*
X88340838Y-111285035D01*
X88419840Y-111432838D01*
X88468490Y-111593213D01*
X88484916Y-111760000D01*
X88468490Y-111926787D01*
X88419840Y-112087162D01*
X88340838Y-112234965D01*
X88234517Y-112364517D01*
X88104965Y-112470838D01*
X87957162Y-112549840D01*
X87796787Y-112598490D01*
X87671794Y-112610800D01*
X87588206Y-112610800D01*
X87463213Y-112598490D01*
X87302838Y-112549840D01*
X87155035Y-112470838D01*
X87025483Y-112364517D01*
X86919162Y-112234965D01*
X86840160Y-112087162D01*
X86791510Y-111926787D01*
X86775084Y-111760000D01*
X86791510Y-111593213D01*
X86840160Y-111432838D01*
X86919162Y-111285035D01*
X87025483Y-111155483D01*
X87155035Y-111049162D01*
X87302838Y-110970160D01*
X87463213Y-110921510D01*
X87588206Y-110909200D01*
X87671794Y-110909200D01*
X87796787Y-110921510D01*
X87796787Y-110921510D01*
G37*
G36*
X90336787Y-110921510D02*
G01*
X90497162Y-110970160D01*
X90644965Y-111049162D01*
X90774517Y-111155483D01*
X90880838Y-111285035D01*
X90959840Y-111432838D01*
X91008490Y-111593213D01*
X91024916Y-111760000D01*
X91008490Y-111926787D01*
X90959840Y-112087162D01*
X90880838Y-112234965D01*
X90774517Y-112364517D01*
X90644965Y-112470838D01*
X90497162Y-112549840D01*
X90336787Y-112598490D01*
X90211794Y-112610800D01*
X90128206Y-112610800D01*
X90003213Y-112598490D01*
X89842838Y-112549840D01*
X89695035Y-112470838D01*
X89565483Y-112364517D01*
X89459162Y-112234965D01*
X89380160Y-112087162D01*
X89331510Y-111926787D01*
X89315084Y-111760000D01*
X89331510Y-111593213D01*
X89380160Y-111432838D01*
X89459162Y-111285035D01*
X89565483Y-111155483D01*
X89695035Y-111049162D01*
X89842838Y-110970160D01*
X90003213Y-110921510D01*
X90128206Y-110909200D01*
X90211794Y-110909200D01*
X90336787Y-110921510D01*
X90336787Y-110921510D01*
G37*
G36*
X92876787Y-110921510D02*
G01*
X93037162Y-110970160D01*
X93184965Y-111049162D01*
X93314517Y-111155483D01*
X93420838Y-111285035D01*
X93499840Y-111432838D01*
X93548490Y-111593213D01*
X93564916Y-111760000D01*
X93548490Y-111926787D01*
X93499840Y-112087162D01*
X93420838Y-112234965D01*
X93314517Y-112364517D01*
X93184965Y-112470838D01*
X93037162Y-112549840D01*
X92876787Y-112598490D01*
X92751794Y-112610800D01*
X92668206Y-112610800D01*
X92543213Y-112598490D01*
X92382838Y-112549840D01*
X92235035Y-112470838D01*
X92105483Y-112364517D01*
X91999162Y-112234965D01*
X91920160Y-112087162D01*
X91871510Y-111926787D01*
X91855084Y-111760000D01*
X91871510Y-111593213D01*
X91920160Y-111432838D01*
X91999162Y-111285035D01*
X92105483Y-111155483D01*
X92235035Y-111049162D01*
X92382838Y-110970160D01*
X92543213Y-110921510D01*
X92668206Y-110909200D01*
X92751794Y-110909200D01*
X92876787Y-110921510D01*
X92876787Y-110921510D01*
G37*
G36*
X95416787Y-110921510D02*
G01*
X95577162Y-110970160D01*
X95724965Y-111049162D01*
X95854517Y-111155483D01*
X95960838Y-111285035D01*
X96039840Y-111432838D01*
X96088490Y-111593213D01*
X96104916Y-111760000D01*
X96088490Y-111926787D01*
X96039840Y-112087162D01*
X95960838Y-112234965D01*
X95854517Y-112364517D01*
X95724965Y-112470838D01*
X95577162Y-112549840D01*
X95416787Y-112598490D01*
X95291794Y-112610800D01*
X95208206Y-112610800D01*
X95083213Y-112598490D01*
X94922838Y-112549840D01*
X94775035Y-112470838D01*
X94645483Y-112364517D01*
X94539162Y-112234965D01*
X94460160Y-112087162D01*
X94411510Y-111926787D01*
X94395084Y-111760000D01*
X94411510Y-111593213D01*
X94460160Y-111432838D01*
X94539162Y-111285035D01*
X94645483Y-111155483D01*
X94775035Y-111049162D01*
X94922838Y-110970160D01*
X95083213Y-110921510D01*
X95208206Y-110909200D01*
X95291794Y-110909200D01*
X95416787Y-110921510D01*
X95416787Y-110921510D01*
G37*
G36*
X97956787Y-110921510D02*
G01*
X98117162Y-110970160D01*
X98264965Y-111049162D01*
X98394517Y-111155483D01*
X98500838Y-111285035D01*
X98579840Y-111432838D01*
X98628490Y-111593213D01*
X98644916Y-111760000D01*
X98628490Y-111926787D01*
X98579840Y-112087162D01*
X98500838Y-112234965D01*
X98394517Y-112364517D01*
X98264965Y-112470838D01*
X98117162Y-112549840D01*
X97956787Y-112598490D01*
X97831794Y-112610800D01*
X97748206Y-112610800D01*
X97623213Y-112598490D01*
X97462838Y-112549840D01*
X97315035Y-112470838D01*
X97185483Y-112364517D01*
X97079162Y-112234965D01*
X97000160Y-112087162D01*
X96951510Y-111926787D01*
X96935084Y-111760000D01*
X96951510Y-111593213D01*
X97000160Y-111432838D01*
X97079162Y-111285035D01*
X97185483Y-111155483D01*
X97315035Y-111049162D01*
X97462838Y-110970160D01*
X97623213Y-110921510D01*
X97748206Y-110909200D01*
X97831794Y-110909200D01*
X97956787Y-110921510D01*
X97956787Y-110921510D01*
G37*
G36*
X75096787Y-110921510D02*
G01*
X75257162Y-110970160D01*
X75404965Y-111049162D01*
X75534517Y-111155483D01*
X75640838Y-111285035D01*
X75719840Y-111432838D01*
X75768490Y-111593213D01*
X75784916Y-111760000D01*
X75768490Y-111926787D01*
X75719840Y-112087162D01*
X75640838Y-112234965D01*
X75534517Y-112364517D01*
X75404965Y-112470838D01*
X75257162Y-112549840D01*
X75096787Y-112598490D01*
X74971794Y-112610800D01*
X74888206Y-112610800D01*
X74763213Y-112598490D01*
X74602838Y-112549840D01*
X74455035Y-112470838D01*
X74325483Y-112364517D01*
X74219162Y-112234965D01*
X74140160Y-112087162D01*
X74091510Y-111926787D01*
X74075084Y-111760000D01*
X74091510Y-111593213D01*
X74140160Y-111432838D01*
X74219162Y-111285035D01*
X74325483Y-111155483D01*
X74455035Y-111049162D01*
X74602838Y-110970160D01*
X74763213Y-110921510D01*
X74888206Y-110909200D01*
X74971794Y-110909200D01*
X75096787Y-110921510D01*
X75096787Y-110921510D01*
G37*
G36*
X72556787Y-110921510D02*
G01*
X72717162Y-110970160D01*
X72864965Y-111049162D01*
X72994517Y-111155483D01*
X73100838Y-111285035D01*
X73179840Y-111432838D01*
X73228490Y-111593213D01*
X73244916Y-111760000D01*
X73228490Y-111926787D01*
X73179840Y-112087162D01*
X73100838Y-112234965D01*
X72994517Y-112364517D01*
X72864965Y-112470838D01*
X72717162Y-112549840D01*
X72556787Y-112598490D01*
X72431794Y-112610800D01*
X72348206Y-112610800D01*
X72223213Y-112598490D01*
X72062838Y-112549840D01*
X71915035Y-112470838D01*
X71785483Y-112364517D01*
X71679162Y-112234965D01*
X71600160Y-112087162D01*
X71551510Y-111926787D01*
X71535084Y-111760000D01*
X71551510Y-111593213D01*
X71600160Y-111432838D01*
X71679162Y-111285035D01*
X71785483Y-111155483D01*
X71915035Y-111049162D01*
X72062838Y-110970160D01*
X72223213Y-110921510D01*
X72348206Y-110909200D01*
X72431794Y-110909200D01*
X72556787Y-110921510D01*
X72556787Y-110921510D01*
G37*
G36*
X70016787Y-110921510D02*
G01*
X70177162Y-110970160D01*
X70324965Y-111049162D01*
X70454517Y-111155483D01*
X70560838Y-111285035D01*
X70639840Y-111432838D01*
X70688490Y-111593213D01*
X70704916Y-111760000D01*
X70688490Y-111926787D01*
X70639840Y-112087162D01*
X70560838Y-112234965D01*
X70454517Y-112364517D01*
X70324965Y-112470838D01*
X70177162Y-112549840D01*
X70016787Y-112598490D01*
X69891794Y-112610800D01*
X69808206Y-112610800D01*
X69683213Y-112598490D01*
X69522838Y-112549840D01*
X69375035Y-112470838D01*
X69245483Y-112364517D01*
X69139162Y-112234965D01*
X69060160Y-112087162D01*
X69011510Y-111926787D01*
X68995084Y-111760000D01*
X69011510Y-111593213D01*
X69060160Y-111432838D01*
X69139162Y-111285035D01*
X69245483Y-111155483D01*
X69375035Y-111049162D01*
X69522838Y-110970160D01*
X69683213Y-110921510D01*
X69808206Y-110909200D01*
X69891794Y-110909200D01*
X70016787Y-110921510D01*
X70016787Y-110921510D01*
G37*
G36*
X67476787Y-110921510D02*
G01*
X67637162Y-110970160D01*
X67784965Y-111049162D01*
X67914517Y-111155483D01*
X68020838Y-111285035D01*
X68099840Y-111432838D01*
X68148490Y-111593213D01*
X68164916Y-111760000D01*
X68148490Y-111926787D01*
X68099840Y-112087162D01*
X68020838Y-112234965D01*
X67914517Y-112364517D01*
X67784965Y-112470838D01*
X67637162Y-112549840D01*
X67476787Y-112598490D01*
X67351794Y-112610800D01*
X67268206Y-112610800D01*
X67143213Y-112598490D01*
X66982838Y-112549840D01*
X66835035Y-112470838D01*
X66705483Y-112364517D01*
X66599162Y-112234965D01*
X66520160Y-112087162D01*
X66471510Y-111926787D01*
X66455084Y-111760000D01*
X66471510Y-111593213D01*
X66520160Y-111432838D01*
X66599162Y-111285035D01*
X66705483Y-111155483D01*
X66835035Y-111049162D01*
X66982838Y-110970160D01*
X67143213Y-110921510D01*
X67268206Y-110909200D01*
X67351794Y-110909200D01*
X67476787Y-110921510D01*
X67476787Y-110921510D01*
G37*
G36*
X64936787Y-110921510D02*
G01*
X65097162Y-110970160D01*
X65244965Y-111049162D01*
X65374517Y-111155483D01*
X65480838Y-111285035D01*
X65559840Y-111432838D01*
X65608490Y-111593213D01*
X65624916Y-111760000D01*
X65608490Y-111926787D01*
X65559840Y-112087162D01*
X65480838Y-112234965D01*
X65374517Y-112364517D01*
X65244965Y-112470838D01*
X65097162Y-112549840D01*
X64936787Y-112598490D01*
X64811794Y-112610800D01*
X64728206Y-112610800D01*
X64603213Y-112598490D01*
X64442838Y-112549840D01*
X64295035Y-112470838D01*
X64165483Y-112364517D01*
X64059162Y-112234965D01*
X63980160Y-112087162D01*
X63931510Y-111926787D01*
X63915084Y-111760000D01*
X63931510Y-111593213D01*
X63980160Y-111432838D01*
X64059162Y-111285035D01*
X64165483Y-111155483D01*
X64295035Y-111049162D01*
X64442838Y-110970160D01*
X64603213Y-110921510D01*
X64728206Y-110909200D01*
X64811794Y-110909200D01*
X64936787Y-110921510D01*
X64936787Y-110921510D01*
G37*
G36*
X42216506Y-109964581D02*
G01*
X42328528Y-110010982D01*
X42407740Y-110043793D01*
X42522737Y-110120632D01*
X42579845Y-110158790D01*
X42726210Y-110305155D01*
X42727373Y-110306896D01*
X42841207Y-110477260D01*
X42841207Y-110477261D01*
X42920419Y-110668494D01*
X42960800Y-110871504D01*
X42960800Y-111078496D01*
X42920419Y-111281506D01*
X42918957Y-111285035D01*
X42841207Y-111472740D01*
X42726209Y-111644846D01*
X42579846Y-111791209D01*
X42407740Y-111906207D01*
X42358055Y-111926787D01*
X42216506Y-111985419D01*
X42013496Y-112025800D01*
X41806504Y-112025800D01*
X41603494Y-111985419D01*
X41461945Y-111926787D01*
X41412260Y-111906207D01*
X41240154Y-111791209D01*
X41093791Y-111644846D01*
X40978793Y-111472740D01*
X40901043Y-111285035D01*
X40899581Y-111281506D01*
X40859200Y-111078496D01*
X40859200Y-110871504D01*
X40899581Y-110668494D01*
X40978793Y-110477261D01*
X40978793Y-110477260D01*
X41092627Y-110306896D01*
X41093790Y-110305155D01*
X41240155Y-110158790D01*
X41297263Y-110120632D01*
X41412260Y-110043793D01*
X41491472Y-110010982D01*
X41603494Y-109964581D01*
X41806504Y-109924200D01*
X42013496Y-109924200D01*
X42216506Y-109964581D01*
X42216506Y-109964581D01*
G37*
G36*
X37716506Y-109964581D02*
G01*
X37828528Y-110010982D01*
X37907740Y-110043793D01*
X38022737Y-110120632D01*
X38079845Y-110158790D01*
X38226210Y-110305155D01*
X38227373Y-110306896D01*
X38341207Y-110477260D01*
X38341207Y-110477261D01*
X38420419Y-110668494D01*
X38460800Y-110871504D01*
X38460800Y-111078496D01*
X38420419Y-111281506D01*
X38418957Y-111285035D01*
X38341207Y-111472740D01*
X38226209Y-111644846D01*
X38079846Y-111791209D01*
X37907740Y-111906207D01*
X37858055Y-111926787D01*
X37716506Y-111985419D01*
X37513496Y-112025800D01*
X37306504Y-112025800D01*
X37103494Y-111985419D01*
X36961945Y-111926787D01*
X36912260Y-111906207D01*
X36740154Y-111791209D01*
X36593791Y-111644846D01*
X36478793Y-111472740D01*
X36401043Y-111285035D01*
X36399581Y-111281506D01*
X36359200Y-111078496D01*
X36359200Y-110871504D01*
X36399581Y-110668494D01*
X36478793Y-110477261D01*
X36478793Y-110477260D01*
X36592627Y-110306896D01*
X36593790Y-110305155D01*
X36740155Y-110158790D01*
X36797263Y-110120632D01*
X36912260Y-110043793D01*
X36991472Y-110010982D01*
X37103494Y-109964581D01*
X37306504Y-109924200D01*
X37513496Y-109924200D01*
X37716506Y-109964581D01*
X37716506Y-109964581D01*
G37*
G36*
X106895800Y-111975800D02*
G01*
X105194200Y-111975800D01*
X105194200Y-110274200D01*
X106895800Y-110274200D01*
X106895800Y-111975800D01*
X106895800Y-111975800D01*
G37*
G36*
X108793169Y-110306895D02*
G01*
X108948005Y-110371031D01*
X109087354Y-110464140D01*
X109205860Y-110582646D01*
X109298969Y-110721995D01*
X109363105Y-110876831D01*
X109395800Y-111041203D01*
X109395800Y-111208797D01*
X109363105Y-111373169D01*
X109298969Y-111528005D01*
X109205860Y-111667354D01*
X109087354Y-111785860D01*
X108948005Y-111878969D01*
X108793169Y-111943105D01*
X108628797Y-111975800D01*
X108461203Y-111975800D01*
X108296831Y-111943105D01*
X108141995Y-111878969D01*
X108002646Y-111785860D01*
X107884140Y-111667354D01*
X107791031Y-111528005D01*
X107726895Y-111373169D01*
X107694200Y-111208797D01*
X107694200Y-111041203D01*
X107726895Y-110876831D01*
X107791031Y-110721995D01*
X107884140Y-110582646D01*
X108002646Y-110464140D01*
X108141995Y-110371031D01*
X108296831Y-110306895D01*
X108461203Y-110274200D01*
X108628797Y-110274200D01*
X108793169Y-110306895D01*
X108793169Y-110306895D01*
G37*
G36*
X102825273Y-106728403D02*
G01*
X103152997Y-106864151D01*
X103152999Y-106864152D01*
X103179194Y-106881655D01*
X103447942Y-107061227D01*
X103698773Y-107312058D01*
X103711910Y-107331719D01*
X103894856Y-107605516D01*
X103895849Y-107607003D01*
X104031597Y-107934727D01*
X104100800Y-108282635D01*
X104100800Y-108637365D01*
X104031597Y-108985273D01*
X103895849Y-109312997D01*
X103698773Y-109607942D01*
X103447942Y-109858773D01*
X103301472Y-109956641D01*
X103152999Y-110055848D01*
X103152998Y-110055849D01*
X103152997Y-110055849D01*
X102825273Y-110191597D01*
X102477365Y-110260800D01*
X102122635Y-110260800D01*
X101774727Y-110191597D01*
X101447003Y-110055849D01*
X101447002Y-110055849D01*
X101447001Y-110055848D01*
X101298528Y-109956641D01*
X101152058Y-109858773D01*
X100901227Y-109607942D01*
X100704151Y-109312997D01*
X100568403Y-108985273D01*
X100499200Y-108637365D01*
X100499200Y-108282635D01*
X100568403Y-107934727D01*
X100704151Y-107607003D01*
X100705145Y-107605516D01*
X100888090Y-107331719D01*
X100901227Y-107312058D01*
X101152058Y-107061227D01*
X101420806Y-106881655D01*
X101447001Y-106864152D01*
X101447003Y-106864151D01*
X101774727Y-106728403D01*
X102122635Y-106659200D01*
X102477365Y-106659200D01*
X102825273Y-106728403D01*
X102825273Y-106728403D01*
G37*
G36*
X63325273Y-106728403D02*
G01*
X63652997Y-106864151D01*
X63652999Y-106864152D01*
X63679194Y-106881655D01*
X63947942Y-107061227D01*
X64198773Y-107312058D01*
X64211910Y-107331719D01*
X64394856Y-107605516D01*
X64395849Y-107607003D01*
X64531597Y-107934727D01*
X64600800Y-108282635D01*
X64600800Y-108637365D01*
X64531597Y-108985273D01*
X64395849Y-109312997D01*
X64198773Y-109607942D01*
X63947942Y-109858773D01*
X63801472Y-109956641D01*
X63652999Y-110055848D01*
X63652998Y-110055849D01*
X63652997Y-110055849D01*
X63325273Y-110191597D01*
X62977365Y-110260800D01*
X62622635Y-110260800D01*
X62274727Y-110191597D01*
X61947003Y-110055849D01*
X61947002Y-110055849D01*
X61947001Y-110055848D01*
X61798528Y-109956641D01*
X61652058Y-109858773D01*
X61401227Y-109607942D01*
X61204151Y-109312997D01*
X61068403Y-108985273D01*
X60999200Y-108637365D01*
X60999200Y-108282635D01*
X61068403Y-107934727D01*
X61204151Y-107607003D01*
X61205145Y-107605516D01*
X61388090Y-107331719D01*
X61401227Y-107312058D01*
X61652058Y-107061227D01*
X61920806Y-106881655D01*
X61947001Y-106864152D01*
X61947003Y-106864151D01*
X62274727Y-106728403D01*
X62622635Y-106659200D01*
X62977365Y-106659200D01*
X63325273Y-106728403D01*
X63325273Y-106728403D01*
G37*
G36*
X53855800Y-109100800D02*
G01*
X51554200Y-109100800D01*
X51554200Y-106799200D01*
X53855800Y-106799200D01*
X53855800Y-109100800D01*
X53855800Y-109100800D01*
G37*
G36*
X45197888Y-106804750D02*
G01*
X45310596Y-106815851D01*
X45527523Y-106881655D01*
X45527525Y-106881656D01*
X45727439Y-106988512D01*
X45727440Y-106988513D01*
X45727444Y-106988515D01*
X45902676Y-107132324D01*
X46046485Y-107307556D01*
X46046487Y-107307560D01*
X46046488Y-107307561D01*
X46153344Y-107507475D01*
X46153345Y-107507477D01*
X46219149Y-107724404D01*
X46241368Y-107950000D01*
X46219149Y-108175596D01*
X46153345Y-108392523D01*
X46046485Y-108592444D01*
X45902676Y-108767676D01*
X45727444Y-108911485D01*
X45727440Y-108911487D01*
X45727439Y-108911488D01*
X45527525Y-109018344D01*
X45527523Y-109018345D01*
X45310596Y-109084149D01*
X45197888Y-109095250D01*
X45141535Y-109100800D01*
X45028465Y-109100800D01*
X44972112Y-109095250D01*
X44859404Y-109084149D01*
X44642477Y-109018345D01*
X44642475Y-109018344D01*
X44442561Y-108911488D01*
X44442560Y-108911487D01*
X44442556Y-108911485D01*
X44267324Y-108767676D01*
X44123515Y-108592444D01*
X44016655Y-108392523D01*
X43950851Y-108175596D01*
X43928632Y-107950000D01*
X43950851Y-107724404D01*
X44016655Y-107507477D01*
X44016656Y-107507475D01*
X44123512Y-107307561D01*
X44123513Y-107307560D01*
X44123515Y-107307556D01*
X44267324Y-107132324D01*
X44442556Y-106988515D01*
X44442560Y-106988513D01*
X44442561Y-106988512D01*
X44642475Y-106881656D01*
X44642477Y-106881655D01*
X44859404Y-106815851D01*
X44972112Y-106804750D01*
X45028465Y-106799200D01*
X45141535Y-106799200D01*
X45197888Y-106804750D01*
X45197888Y-106804750D01*
G37*
G36*
X40870200Y-105557402D02*
G01*
X40941091Y-105571503D01*
X41024071Y-105605875D01*
X41141423Y-105654483D01*
X41141424Y-105654484D01*
X41321719Y-105774953D01*
X41475047Y-105928281D01*
X41475048Y-105928283D01*
X41595517Y-106108577D01*
X41644125Y-106225929D01*
X41678497Y-106308909D01*
X41720800Y-106521581D01*
X41720800Y-106738419D01*
X41678497Y-106951091D01*
X41662995Y-106988515D01*
X41595517Y-107151423D01*
X41595516Y-107151424D01*
X41475047Y-107331719D01*
X41321719Y-107485047D01*
X41288153Y-107507475D01*
X41141423Y-107605517D01*
X41024071Y-107654125D01*
X40941091Y-107688497D01*
X40870200Y-107702598D01*
X40728421Y-107730800D01*
X40511579Y-107730800D01*
X40369800Y-107702598D01*
X40298909Y-107688497D01*
X40215929Y-107654125D01*
X40098577Y-107605517D01*
X39951847Y-107507475D01*
X39918281Y-107485047D01*
X39764953Y-107331719D01*
X39644484Y-107151424D01*
X39644483Y-107151423D01*
X39577005Y-106988515D01*
X39561503Y-106951091D01*
X39519200Y-106738419D01*
X39519200Y-106521581D01*
X39561503Y-106308909D01*
X39595875Y-106225929D01*
X39644483Y-106108577D01*
X39764952Y-105928283D01*
X39764953Y-105928281D01*
X39918281Y-105774953D01*
X40098576Y-105654484D01*
X40098577Y-105654483D01*
X40215929Y-105605875D01*
X40298909Y-105571503D01*
X40369800Y-105557402D01*
X40511579Y-105529200D01*
X40728421Y-105529200D01*
X40870200Y-105557402D01*
X40870200Y-105557402D01*
G37*
G36*
X33860200Y-105557402D02*
G01*
X33931091Y-105571503D01*
X34014071Y-105605875D01*
X34131423Y-105654483D01*
X34131424Y-105654484D01*
X34311719Y-105774953D01*
X34465047Y-105928281D01*
X34465048Y-105928283D01*
X34585517Y-106108577D01*
X34634125Y-106225929D01*
X34668497Y-106308909D01*
X34710800Y-106521581D01*
X34710800Y-106738419D01*
X34668497Y-106951091D01*
X34652995Y-106988515D01*
X34585517Y-107151423D01*
X34585516Y-107151424D01*
X34465047Y-107331719D01*
X34311719Y-107485047D01*
X34278153Y-107507475D01*
X34131423Y-107605517D01*
X34014071Y-107654125D01*
X33931091Y-107688497D01*
X33860200Y-107702598D01*
X33718421Y-107730800D01*
X33501579Y-107730800D01*
X33359800Y-107702598D01*
X33288909Y-107688497D01*
X33205929Y-107654125D01*
X33088577Y-107605517D01*
X32941847Y-107507475D01*
X32908281Y-107485047D01*
X32754953Y-107331719D01*
X32634484Y-107151424D01*
X32634483Y-107151423D01*
X32567005Y-106988515D01*
X32551503Y-106951091D01*
X32509200Y-106738419D01*
X32509200Y-106521581D01*
X32551503Y-106308909D01*
X32585875Y-106225929D01*
X32634483Y-106108577D01*
X32754952Y-105928283D01*
X32754953Y-105928281D01*
X32908281Y-105774953D01*
X33088576Y-105654484D01*
X33088577Y-105654483D01*
X33205929Y-105605875D01*
X33288909Y-105571503D01*
X33359800Y-105557402D01*
X33501579Y-105529200D01*
X33718421Y-105529200D01*
X33860200Y-105557402D01*
X33860200Y-105557402D01*
G37*
G36*
X132310200Y-105557402D02*
G01*
X132381091Y-105571503D01*
X132464071Y-105605875D01*
X132581423Y-105654483D01*
X132581424Y-105654484D01*
X132761719Y-105774953D01*
X132915047Y-105928281D01*
X132915048Y-105928283D01*
X133035517Y-106108577D01*
X133084125Y-106225929D01*
X133118497Y-106308909D01*
X133160800Y-106521581D01*
X133160800Y-106738419D01*
X133118497Y-106951091D01*
X133102995Y-106988515D01*
X133035517Y-107151423D01*
X133035516Y-107151424D01*
X132915047Y-107331719D01*
X132761719Y-107485047D01*
X132728153Y-107507475D01*
X132581423Y-107605517D01*
X132464071Y-107654125D01*
X132381091Y-107688497D01*
X132310200Y-107702598D01*
X132168421Y-107730800D01*
X131951579Y-107730800D01*
X131809800Y-107702598D01*
X131738909Y-107688497D01*
X131655929Y-107654125D01*
X131538577Y-107605517D01*
X131391847Y-107507475D01*
X131358281Y-107485047D01*
X131204953Y-107331719D01*
X131084484Y-107151424D01*
X131084483Y-107151423D01*
X131017005Y-106988515D01*
X131001503Y-106951091D01*
X130959200Y-106738419D01*
X130959200Y-106521581D01*
X131001503Y-106308909D01*
X131035875Y-106225929D01*
X131084483Y-106108577D01*
X131204952Y-105928283D01*
X131204953Y-105928281D01*
X131358281Y-105774953D01*
X131538576Y-105654484D01*
X131538577Y-105654483D01*
X131655929Y-105605875D01*
X131738909Y-105571503D01*
X131809800Y-105557402D01*
X131951579Y-105529200D01*
X132168421Y-105529200D01*
X132310200Y-105557402D01*
X132310200Y-105557402D01*
G37*
G36*
X125300200Y-105557402D02*
G01*
X125371091Y-105571503D01*
X125454071Y-105605875D01*
X125571423Y-105654483D01*
X125571424Y-105654484D01*
X125751719Y-105774953D01*
X125905047Y-105928281D01*
X125905048Y-105928283D01*
X126025517Y-106108577D01*
X126074125Y-106225929D01*
X126108497Y-106308909D01*
X126150800Y-106521581D01*
X126150800Y-106738419D01*
X126108497Y-106951091D01*
X126092995Y-106988515D01*
X126025517Y-107151423D01*
X126025516Y-107151424D01*
X125905047Y-107331719D01*
X125751719Y-107485047D01*
X125718153Y-107507475D01*
X125571423Y-107605517D01*
X125454071Y-107654125D01*
X125371091Y-107688497D01*
X125300200Y-107702598D01*
X125158421Y-107730800D01*
X124941579Y-107730800D01*
X124799800Y-107702598D01*
X124728909Y-107688497D01*
X124645929Y-107654125D01*
X124528577Y-107605517D01*
X124381847Y-107507475D01*
X124348281Y-107485047D01*
X124194953Y-107331719D01*
X124074484Y-107151424D01*
X124074483Y-107151423D01*
X124007005Y-106988515D01*
X123991503Y-106951091D01*
X123949200Y-106738419D01*
X123949200Y-106521581D01*
X123991503Y-106308909D01*
X124025875Y-106225929D01*
X124074483Y-106108577D01*
X124194952Y-105928283D01*
X124194953Y-105928281D01*
X124348281Y-105774953D01*
X124528576Y-105654484D01*
X124528577Y-105654483D01*
X124645929Y-105605875D01*
X124728909Y-105571503D01*
X124799800Y-105557402D01*
X124941579Y-105529200D01*
X125158421Y-105529200D01*
X125300200Y-105557402D01*
X125300200Y-105557402D01*
G37*
G36*
X49007273Y-102286403D02*
G01*
X49334997Y-102422151D01*
X49334999Y-102422152D01*
X49483472Y-102521359D01*
X49629942Y-102619227D01*
X49880773Y-102870058D01*
X50077849Y-103165003D01*
X50213597Y-103492727D01*
X50282800Y-103840635D01*
X50282800Y-104195365D01*
X50213597Y-104543273D01*
X50086199Y-104850838D01*
X50077848Y-104870999D01*
X49880772Y-105165943D01*
X49629943Y-105416772D01*
X49334999Y-105613848D01*
X49334998Y-105613849D01*
X49334997Y-105613849D01*
X49007273Y-105749597D01*
X48659365Y-105818800D01*
X48304635Y-105818800D01*
X47956727Y-105749597D01*
X47629003Y-105613849D01*
X47629002Y-105613849D01*
X47629001Y-105613848D01*
X47334057Y-105416772D01*
X47083228Y-105165943D01*
X46886152Y-104870999D01*
X46877801Y-104850838D01*
X46750403Y-104543273D01*
X46681200Y-104195365D01*
X46681200Y-103840635D01*
X46750403Y-103492727D01*
X46886151Y-103165003D01*
X47083227Y-102870058D01*
X47334058Y-102619227D01*
X47480528Y-102521359D01*
X47629001Y-102422152D01*
X47629003Y-102422151D01*
X47956727Y-102286403D01*
X48304635Y-102217200D01*
X48659365Y-102217200D01*
X49007273Y-102286403D01*
X49007273Y-102286403D01*
G37*
G36*
X117007273Y-102286403D02*
G01*
X117334997Y-102422151D01*
X117334999Y-102422152D01*
X117483472Y-102521359D01*
X117629942Y-102619227D01*
X117880773Y-102870058D01*
X118077849Y-103165003D01*
X118213597Y-103492727D01*
X118282800Y-103840635D01*
X118282800Y-104195365D01*
X118213597Y-104543273D01*
X118086199Y-104850838D01*
X118077848Y-104870999D01*
X117880772Y-105165943D01*
X117629943Y-105416772D01*
X117334999Y-105613848D01*
X117334998Y-105613849D01*
X117334997Y-105613849D01*
X117007273Y-105749597D01*
X116659365Y-105818800D01*
X116304635Y-105818800D01*
X115956727Y-105749597D01*
X115629003Y-105613849D01*
X115629002Y-105613849D01*
X115629001Y-105613848D01*
X115334057Y-105416772D01*
X115083228Y-105165943D01*
X114886152Y-104870999D01*
X114877801Y-104850838D01*
X114750403Y-104543273D01*
X114681200Y-104195365D01*
X114681200Y-103840635D01*
X114750403Y-103492727D01*
X114886151Y-103165003D01*
X115083227Y-102870058D01*
X115334058Y-102619227D01*
X115480528Y-102521359D01*
X115629001Y-102422152D01*
X115629003Y-102422151D01*
X115956727Y-102286403D01*
X116304635Y-102217200D01*
X116659365Y-102217200D01*
X117007273Y-102286403D01*
X117007273Y-102286403D01*
G37*
G36*
X126520425Y-103237919D02*
G01*
X126580046Y-103249778D01*
X126748531Y-103319566D01*
X126900163Y-103420884D01*
X127029116Y-103549837D01*
X127130434Y-103701469D01*
X127200222Y-103869954D01*
X127200222Y-103869955D01*
X127235800Y-104048815D01*
X127235800Y-104231185D01*
X127212081Y-104350425D01*
X127200222Y-104410046D01*
X127130434Y-104578531D01*
X127029116Y-104730163D01*
X126900163Y-104859116D01*
X126748531Y-104960434D01*
X126580046Y-105030222D01*
X126520425Y-105042081D01*
X126401185Y-105065800D01*
X126218815Y-105065800D01*
X126099575Y-105042081D01*
X126039954Y-105030222D01*
X125871469Y-104960434D01*
X125719837Y-104859116D01*
X125590884Y-104730163D01*
X125489566Y-104578531D01*
X125419778Y-104410046D01*
X125407919Y-104350425D01*
X125384200Y-104231185D01*
X125384200Y-104048815D01*
X125419778Y-103869955D01*
X125419778Y-103869954D01*
X125489566Y-103701469D01*
X125590884Y-103549837D01*
X125719837Y-103420884D01*
X125871469Y-103319566D01*
X126039954Y-103249778D01*
X126099575Y-103237919D01*
X126218815Y-103214200D01*
X126401185Y-103214200D01*
X126520425Y-103237919D01*
X126520425Y-103237919D01*
G37*
G36*
X131020425Y-103237919D02*
G01*
X131080046Y-103249778D01*
X131248531Y-103319566D01*
X131400163Y-103420884D01*
X131529116Y-103549837D01*
X131630434Y-103701469D01*
X131700222Y-103869954D01*
X131700222Y-103869955D01*
X131735800Y-104048815D01*
X131735800Y-104231185D01*
X131712081Y-104350425D01*
X131700222Y-104410046D01*
X131630434Y-104578531D01*
X131529116Y-104730163D01*
X131400163Y-104859116D01*
X131248531Y-104960434D01*
X131080046Y-105030222D01*
X131020425Y-105042081D01*
X130901185Y-105065800D01*
X130718815Y-105065800D01*
X130599575Y-105042081D01*
X130539954Y-105030222D01*
X130371469Y-104960434D01*
X130219837Y-104859116D01*
X130090884Y-104730163D01*
X129989566Y-104578531D01*
X129919778Y-104410046D01*
X129907919Y-104350425D01*
X129884200Y-104231185D01*
X129884200Y-104048815D01*
X129919778Y-103869955D01*
X129919778Y-103869954D01*
X129989566Y-103701469D01*
X130090884Y-103549837D01*
X130219837Y-103420884D01*
X130371469Y-103319566D01*
X130539954Y-103249778D01*
X130599575Y-103237919D01*
X130718815Y-103214200D01*
X130901185Y-103214200D01*
X131020425Y-103237919D01*
X131020425Y-103237919D01*
G37*
G36*
X35080425Y-103237919D02*
G01*
X35140046Y-103249778D01*
X35308531Y-103319566D01*
X35460163Y-103420884D01*
X35589116Y-103549837D01*
X35690434Y-103701469D01*
X35760222Y-103869954D01*
X35760222Y-103869955D01*
X35795800Y-104048815D01*
X35795800Y-104231185D01*
X35772081Y-104350425D01*
X35760222Y-104410046D01*
X35690434Y-104578531D01*
X35589116Y-104730163D01*
X35460163Y-104859116D01*
X35308531Y-104960434D01*
X35140046Y-105030222D01*
X35080425Y-105042081D01*
X34961185Y-105065800D01*
X34778815Y-105065800D01*
X34659575Y-105042081D01*
X34599954Y-105030222D01*
X34431469Y-104960434D01*
X34279837Y-104859116D01*
X34150884Y-104730163D01*
X34049566Y-104578531D01*
X33979778Y-104410046D01*
X33967919Y-104350425D01*
X33944200Y-104231185D01*
X33944200Y-104048815D01*
X33979778Y-103869955D01*
X33979778Y-103869954D01*
X34049566Y-103701469D01*
X34150884Y-103549837D01*
X34279837Y-103420884D01*
X34431469Y-103319566D01*
X34599954Y-103249778D01*
X34659575Y-103237919D01*
X34778815Y-103214200D01*
X34961185Y-103214200D01*
X35080425Y-103237919D01*
X35080425Y-103237919D01*
G37*
G36*
X39580425Y-103237919D02*
G01*
X39640046Y-103249778D01*
X39808531Y-103319566D01*
X39960163Y-103420884D01*
X40089116Y-103549837D01*
X40190434Y-103701469D01*
X40260222Y-103869954D01*
X40260222Y-103869955D01*
X40295800Y-104048815D01*
X40295800Y-104231185D01*
X40272081Y-104350425D01*
X40260222Y-104410046D01*
X40190434Y-104578531D01*
X40089116Y-104730163D01*
X39960163Y-104859116D01*
X39808531Y-104960434D01*
X39640046Y-105030222D01*
X39580425Y-105042081D01*
X39461185Y-105065800D01*
X39278815Y-105065800D01*
X39159575Y-105042081D01*
X39099954Y-105030222D01*
X38931469Y-104960434D01*
X38779837Y-104859116D01*
X38650884Y-104730163D01*
X38549566Y-104578531D01*
X38479778Y-104410046D01*
X38467919Y-104350425D01*
X38444200Y-104231185D01*
X38444200Y-104048815D01*
X38479778Y-103869955D01*
X38479778Y-103869954D01*
X38549566Y-103701469D01*
X38650884Y-103549837D01*
X38779837Y-103420884D01*
X38931469Y-103319566D01*
X39099954Y-103249778D01*
X39159575Y-103237919D01*
X39278815Y-103214200D01*
X39461185Y-103214200D01*
X39580425Y-103237919D01*
X39580425Y-103237919D01*
G37*
G36*
X67476787Y-103301510D02*
G01*
X67637162Y-103350160D01*
X67784965Y-103429162D01*
X67914517Y-103535483D01*
X68020838Y-103665035D01*
X68099840Y-103812838D01*
X68148490Y-103973213D01*
X68164916Y-104140000D01*
X68148490Y-104306787D01*
X68099840Y-104467162D01*
X68020838Y-104614965D01*
X67914517Y-104744517D01*
X67784965Y-104850838D01*
X67637162Y-104929840D01*
X67476787Y-104978490D01*
X67351794Y-104990800D01*
X67268206Y-104990800D01*
X67143213Y-104978490D01*
X66982838Y-104929840D01*
X66835035Y-104850838D01*
X66705483Y-104744517D01*
X66599162Y-104614965D01*
X66520160Y-104467162D01*
X66471510Y-104306787D01*
X66455084Y-104140000D01*
X66471510Y-103973213D01*
X66520160Y-103812838D01*
X66599162Y-103665035D01*
X66705483Y-103535483D01*
X66835035Y-103429162D01*
X66982838Y-103350160D01*
X67143213Y-103301510D01*
X67268206Y-103289200D01*
X67351794Y-103289200D01*
X67476787Y-103301510D01*
X67476787Y-103301510D01*
G37*
G36*
X87796787Y-103301510D02*
G01*
X87957162Y-103350160D01*
X88104965Y-103429162D01*
X88234517Y-103535483D01*
X88340838Y-103665035D01*
X88419840Y-103812838D01*
X88468490Y-103973213D01*
X88484916Y-104140000D01*
X88468490Y-104306787D01*
X88419840Y-104467162D01*
X88340838Y-104614965D01*
X88234517Y-104744517D01*
X88104965Y-104850838D01*
X87957162Y-104929840D01*
X87796787Y-104978490D01*
X87671794Y-104990800D01*
X87588206Y-104990800D01*
X87463213Y-104978490D01*
X87302838Y-104929840D01*
X87155035Y-104850838D01*
X87025483Y-104744517D01*
X86919162Y-104614965D01*
X86840160Y-104467162D01*
X86791510Y-104306787D01*
X86775084Y-104140000D01*
X86791510Y-103973213D01*
X86840160Y-103812838D01*
X86919162Y-103665035D01*
X87025483Y-103535483D01*
X87155035Y-103429162D01*
X87302838Y-103350160D01*
X87463213Y-103301510D01*
X87588206Y-103289200D01*
X87671794Y-103289200D01*
X87796787Y-103301510D01*
X87796787Y-103301510D01*
G37*
G36*
X90336787Y-103301510D02*
G01*
X90497162Y-103350160D01*
X90644965Y-103429162D01*
X90774517Y-103535483D01*
X90880838Y-103665035D01*
X90959840Y-103812838D01*
X91008490Y-103973213D01*
X91024916Y-104140000D01*
X91008490Y-104306787D01*
X90959840Y-104467162D01*
X90880838Y-104614965D01*
X90774517Y-104744517D01*
X90644965Y-104850838D01*
X90497162Y-104929840D01*
X90336787Y-104978490D01*
X90211794Y-104990800D01*
X90128206Y-104990800D01*
X90003213Y-104978490D01*
X89842838Y-104929840D01*
X89695035Y-104850838D01*
X89565483Y-104744517D01*
X89459162Y-104614965D01*
X89380160Y-104467162D01*
X89331510Y-104306787D01*
X89315084Y-104140000D01*
X89331510Y-103973213D01*
X89380160Y-103812838D01*
X89459162Y-103665035D01*
X89565483Y-103535483D01*
X89695035Y-103429162D01*
X89842838Y-103350160D01*
X90003213Y-103301510D01*
X90128206Y-103289200D01*
X90211794Y-103289200D01*
X90336787Y-103301510D01*
X90336787Y-103301510D01*
G37*
G36*
X85256787Y-103301510D02*
G01*
X85417162Y-103350160D01*
X85564965Y-103429162D01*
X85694517Y-103535483D01*
X85800838Y-103665035D01*
X85879840Y-103812838D01*
X85928490Y-103973213D01*
X85944916Y-104140000D01*
X85928490Y-104306787D01*
X85879840Y-104467162D01*
X85800838Y-104614965D01*
X85694517Y-104744517D01*
X85564965Y-104850838D01*
X85417162Y-104929840D01*
X85256787Y-104978490D01*
X85131794Y-104990800D01*
X85048206Y-104990800D01*
X84923213Y-104978490D01*
X84762838Y-104929840D01*
X84615035Y-104850838D01*
X84485483Y-104744517D01*
X84379162Y-104614965D01*
X84300160Y-104467162D01*
X84251510Y-104306787D01*
X84235084Y-104140000D01*
X84251510Y-103973213D01*
X84300160Y-103812838D01*
X84379162Y-103665035D01*
X84485483Y-103535483D01*
X84615035Y-103429162D01*
X84762838Y-103350160D01*
X84923213Y-103301510D01*
X85048206Y-103289200D01*
X85131794Y-103289200D01*
X85256787Y-103301510D01*
X85256787Y-103301510D01*
G37*
G36*
X92876787Y-103301510D02*
G01*
X93037162Y-103350160D01*
X93184965Y-103429162D01*
X93314517Y-103535483D01*
X93420838Y-103665035D01*
X93499840Y-103812838D01*
X93548490Y-103973213D01*
X93564916Y-104140000D01*
X93548490Y-104306787D01*
X93499840Y-104467162D01*
X93420838Y-104614965D01*
X93314517Y-104744517D01*
X93184965Y-104850838D01*
X93037162Y-104929840D01*
X92876787Y-104978490D01*
X92751794Y-104990800D01*
X92668206Y-104990800D01*
X92543213Y-104978490D01*
X92382838Y-104929840D01*
X92235035Y-104850838D01*
X92105483Y-104744517D01*
X91999162Y-104614965D01*
X91920160Y-104467162D01*
X91871510Y-104306787D01*
X91855084Y-104140000D01*
X91871510Y-103973213D01*
X91920160Y-103812838D01*
X91999162Y-103665035D01*
X92105483Y-103535483D01*
X92235035Y-103429162D01*
X92382838Y-103350160D01*
X92543213Y-103301510D01*
X92668206Y-103289200D01*
X92751794Y-103289200D01*
X92876787Y-103301510D01*
X92876787Y-103301510D01*
G37*
G36*
X82716787Y-103301510D02*
G01*
X82877162Y-103350160D01*
X83024965Y-103429162D01*
X83154517Y-103535483D01*
X83260838Y-103665035D01*
X83339840Y-103812838D01*
X83388490Y-103973213D01*
X83404916Y-104140000D01*
X83388490Y-104306787D01*
X83339840Y-104467162D01*
X83260838Y-104614965D01*
X83154517Y-104744517D01*
X83024965Y-104850838D01*
X82877162Y-104929840D01*
X82716787Y-104978490D01*
X82591794Y-104990800D01*
X82508206Y-104990800D01*
X82383213Y-104978490D01*
X82222838Y-104929840D01*
X82075035Y-104850838D01*
X81945483Y-104744517D01*
X81839162Y-104614965D01*
X81760160Y-104467162D01*
X81711510Y-104306787D01*
X81695084Y-104140000D01*
X81711510Y-103973213D01*
X81760160Y-103812838D01*
X81839162Y-103665035D01*
X81945483Y-103535483D01*
X82075035Y-103429162D01*
X82222838Y-103350160D01*
X82383213Y-103301510D01*
X82508206Y-103289200D01*
X82591794Y-103289200D01*
X82716787Y-103301510D01*
X82716787Y-103301510D01*
G37*
G36*
X95416787Y-103301510D02*
G01*
X95577162Y-103350160D01*
X95724965Y-103429162D01*
X95854517Y-103535483D01*
X95960838Y-103665035D01*
X96039840Y-103812838D01*
X96088490Y-103973213D01*
X96104916Y-104140000D01*
X96088490Y-104306787D01*
X96039840Y-104467162D01*
X95960838Y-104614965D01*
X95854517Y-104744517D01*
X95724965Y-104850838D01*
X95577162Y-104929840D01*
X95416787Y-104978490D01*
X95291794Y-104990800D01*
X95208206Y-104990800D01*
X95083213Y-104978490D01*
X94922838Y-104929840D01*
X94775035Y-104850838D01*
X94645483Y-104744517D01*
X94539162Y-104614965D01*
X94460160Y-104467162D01*
X94411510Y-104306787D01*
X94395084Y-104140000D01*
X94411510Y-103973213D01*
X94460160Y-103812838D01*
X94539162Y-103665035D01*
X94645483Y-103535483D01*
X94775035Y-103429162D01*
X94922838Y-103350160D01*
X95083213Y-103301510D01*
X95208206Y-103289200D01*
X95291794Y-103289200D01*
X95416787Y-103301510D01*
X95416787Y-103301510D01*
G37*
G36*
X80176787Y-103301510D02*
G01*
X80337162Y-103350160D01*
X80484965Y-103429162D01*
X80614517Y-103535483D01*
X80720838Y-103665035D01*
X80799840Y-103812838D01*
X80848490Y-103973213D01*
X80864916Y-104140000D01*
X80848490Y-104306787D01*
X80799840Y-104467162D01*
X80720838Y-104614965D01*
X80614517Y-104744517D01*
X80484965Y-104850838D01*
X80337162Y-104929840D01*
X80176787Y-104978490D01*
X80051794Y-104990800D01*
X79968206Y-104990800D01*
X79843213Y-104978490D01*
X79682838Y-104929840D01*
X79535035Y-104850838D01*
X79405483Y-104744517D01*
X79299162Y-104614965D01*
X79220160Y-104467162D01*
X79171510Y-104306787D01*
X79155084Y-104140000D01*
X79171510Y-103973213D01*
X79220160Y-103812838D01*
X79299162Y-103665035D01*
X79405483Y-103535483D01*
X79535035Y-103429162D01*
X79682838Y-103350160D01*
X79843213Y-103301510D01*
X79968206Y-103289200D01*
X80051794Y-103289200D01*
X80176787Y-103301510D01*
X80176787Y-103301510D01*
G37*
G36*
X97956787Y-103301510D02*
G01*
X98117162Y-103350160D01*
X98264965Y-103429162D01*
X98394517Y-103535483D01*
X98500838Y-103665035D01*
X98579840Y-103812838D01*
X98628490Y-103973213D01*
X98644916Y-104140000D01*
X98628490Y-104306787D01*
X98579840Y-104467162D01*
X98500838Y-104614965D01*
X98394517Y-104744517D01*
X98264965Y-104850838D01*
X98117162Y-104929840D01*
X97956787Y-104978490D01*
X97831794Y-104990800D01*
X97748206Y-104990800D01*
X97623213Y-104978490D01*
X97462838Y-104929840D01*
X97315035Y-104850838D01*
X97185483Y-104744517D01*
X97079162Y-104614965D01*
X97000160Y-104467162D01*
X96951510Y-104306787D01*
X96935084Y-104140000D01*
X96951510Y-103973213D01*
X97000160Y-103812838D01*
X97079162Y-103665035D01*
X97185483Y-103535483D01*
X97315035Y-103429162D01*
X97462838Y-103350160D01*
X97623213Y-103301510D01*
X97748206Y-103289200D01*
X97831794Y-103289200D01*
X97956787Y-103301510D01*
X97956787Y-103301510D01*
G37*
G36*
X77636787Y-103301510D02*
G01*
X77797162Y-103350160D01*
X77944965Y-103429162D01*
X78074517Y-103535483D01*
X78180838Y-103665035D01*
X78259840Y-103812838D01*
X78308490Y-103973213D01*
X78324916Y-104140000D01*
X78308490Y-104306787D01*
X78259840Y-104467162D01*
X78180838Y-104614965D01*
X78074517Y-104744517D01*
X77944965Y-104850838D01*
X77797162Y-104929840D01*
X77636787Y-104978490D01*
X77511794Y-104990800D01*
X77428206Y-104990800D01*
X77303213Y-104978490D01*
X77142838Y-104929840D01*
X76995035Y-104850838D01*
X76865483Y-104744517D01*
X76759162Y-104614965D01*
X76680160Y-104467162D01*
X76631510Y-104306787D01*
X76615084Y-104140000D01*
X76631510Y-103973213D01*
X76680160Y-103812838D01*
X76759162Y-103665035D01*
X76865483Y-103535483D01*
X76995035Y-103429162D01*
X77142838Y-103350160D01*
X77303213Y-103301510D01*
X77428206Y-103289200D01*
X77511794Y-103289200D01*
X77636787Y-103301510D01*
X77636787Y-103301510D01*
G37*
G36*
X75096787Y-103301510D02*
G01*
X75257162Y-103350160D01*
X75404965Y-103429162D01*
X75534517Y-103535483D01*
X75640838Y-103665035D01*
X75719840Y-103812838D01*
X75768490Y-103973213D01*
X75784916Y-104140000D01*
X75768490Y-104306787D01*
X75719840Y-104467162D01*
X75640838Y-104614965D01*
X75534517Y-104744517D01*
X75404965Y-104850838D01*
X75257162Y-104929840D01*
X75096787Y-104978490D01*
X74971794Y-104990800D01*
X74888206Y-104990800D01*
X74763213Y-104978490D01*
X74602838Y-104929840D01*
X74455035Y-104850838D01*
X74325483Y-104744517D01*
X74219162Y-104614965D01*
X74140160Y-104467162D01*
X74091510Y-104306787D01*
X74075084Y-104140000D01*
X74091510Y-103973213D01*
X74140160Y-103812838D01*
X74219162Y-103665035D01*
X74325483Y-103535483D01*
X74455035Y-103429162D01*
X74602838Y-103350160D01*
X74763213Y-103301510D01*
X74888206Y-103289200D01*
X74971794Y-103289200D01*
X75096787Y-103301510D01*
X75096787Y-103301510D01*
G37*
G36*
X72556787Y-103301510D02*
G01*
X72717162Y-103350160D01*
X72864965Y-103429162D01*
X72994517Y-103535483D01*
X73100838Y-103665035D01*
X73179840Y-103812838D01*
X73228490Y-103973213D01*
X73244916Y-104140000D01*
X73228490Y-104306787D01*
X73179840Y-104467162D01*
X73100838Y-104614965D01*
X72994517Y-104744517D01*
X72864965Y-104850838D01*
X72717162Y-104929840D01*
X72556787Y-104978490D01*
X72431794Y-104990800D01*
X72348206Y-104990800D01*
X72223213Y-104978490D01*
X72062838Y-104929840D01*
X71915035Y-104850838D01*
X71785483Y-104744517D01*
X71679162Y-104614965D01*
X71600160Y-104467162D01*
X71551510Y-104306787D01*
X71535084Y-104140000D01*
X71551510Y-103973213D01*
X71600160Y-103812838D01*
X71679162Y-103665035D01*
X71785483Y-103535483D01*
X71915035Y-103429162D01*
X72062838Y-103350160D01*
X72223213Y-103301510D01*
X72348206Y-103289200D01*
X72431794Y-103289200D01*
X72556787Y-103301510D01*
X72556787Y-103301510D01*
G37*
G36*
X70016787Y-103301510D02*
G01*
X70177162Y-103350160D01*
X70324965Y-103429162D01*
X70454517Y-103535483D01*
X70560838Y-103665035D01*
X70639840Y-103812838D01*
X70688490Y-103973213D01*
X70704916Y-104140000D01*
X70688490Y-104306787D01*
X70639840Y-104467162D01*
X70560838Y-104614965D01*
X70454517Y-104744517D01*
X70324965Y-104850838D01*
X70177162Y-104929840D01*
X70016787Y-104978490D01*
X69891794Y-104990800D01*
X69808206Y-104990800D01*
X69683213Y-104978490D01*
X69522838Y-104929840D01*
X69375035Y-104850838D01*
X69245483Y-104744517D01*
X69139162Y-104614965D01*
X69060160Y-104467162D01*
X69011510Y-104306787D01*
X68995084Y-104140000D01*
X69011510Y-103973213D01*
X69060160Y-103812838D01*
X69139162Y-103665035D01*
X69245483Y-103535483D01*
X69375035Y-103429162D01*
X69522838Y-103350160D01*
X69683213Y-103301510D01*
X69808206Y-103289200D01*
X69891794Y-103289200D01*
X70016787Y-103301510D01*
X70016787Y-103301510D01*
G37*
G36*
X65620800Y-104990800D02*
G01*
X63919200Y-104990800D01*
X63919200Y-103289200D01*
X65620800Y-103289200D01*
X65620800Y-104990800D01*
X65620800Y-104990800D01*
G37*
G36*
X92108585Y-97527974D02*
G01*
X92254321Y-97588340D01*
X92385480Y-97675978D01*
X92497022Y-97787520D01*
X92584660Y-97918679D01*
X92645026Y-98064415D01*
X92675800Y-98219128D01*
X92675800Y-98376872D01*
X92645026Y-98531585D01*
X92584660Y-98677321D01*
X92497022Y-98808480D01*
X92385480Y-98920022D01*
X92254321Y-99007660D01*
X92254320Y-99007661D01*
X92254319Y-99007661D01*
X92108585Y-99068026D01*
X91953873Y-99098800D01*
X91796127Y-99098800D01*
X91641415Y-99068026D01*
X91495681Y-99007661D01*
X91495680Y-99007661D01*
X91495679Y-99007660D01*
X91364520Y-98920022D01*
X91252978Y-98808480D01*
X91165340Y-98677321D01*
X91104974Y-98531585D01*
X91074200Y-98376872D01*
X91074200Y-98219128D01*
X91104974Y-98064415D01*
X91165340Y-97918679D01*
X91252978Y-97787520D01*
X91364520Y-97675978D01*
X91495679Y-97588340D01*
X91641415Y-97527974D01*
X91796127Y-97497200D01*
X91953873Y-97497200D01*
X92108585Y-97527974D01*
X92108585Y-97527974D01*
G37*
G36*
X87228585Y-97527974D02*
G01*
X87374321Y-97588340D01*
X87505480Y-97675978D01*
X87617022Y-97787520D01*
X87704660Y-97918679D01*
X87765026Y-98064415D01*
X87795800Y-98219128D01*
X87795800Y-98376872D01*
X87765026Y-98531585D01*
X87704660Y-98677321D01*
X87617022Y-98808480D01*
X87505480Y-98920022D01*
X87374321Y-99007660D01*
X87374320Y-99007661D01*
X87374319Y-99007661D01*
X87228585Y-99068026D01*
X87073873Y-99098800D01*
X86916127Y-99098800D01*
X86761415Y-99068026D01*
X86615681Y-99007661D01*
X86615680Y-99007661D01*
X86615679Y-99007660D01*
X86484520Y-98920022D01*
X86372978Y-98808480D01*
X86285340Y-98677321D01*
X86224974Y-98531585D01*
X86194200Y-98376872D01*
X86194200Y-98219128D01*
X86224974Y-98064415D01*
X86285340Y-97918679D01*
X86372978Y-97787520D01*
X86484520Y-97675978D01*
X86615679Y-97588340D01*
X86761415Y-97527974D01*
X86916127Y-97497200D01*
X87073873Y-97497200D01*
X87228585Y-97527974D01*
X87228585Y-97527974D01*
G37*
G36*
X61357271Y-93023908D02*
G01*
X61405079Y-93028617D01*
X61527755Y-93065831D01*
X61527758Y-93065832D01*
X61640813Y-93126261D01*
X61739912Y-93207588D01*
X61821239Y-93306687D01*
X61881668Y-93419742D01*
X61881669Y-93419745D01*
X61918883Y-93542421D01*
X61931448Y-93670000D01*
X61918883Y-93797579D01*
X61881669Y-93920255D01*
X61881668Y-93920258D01*
X61821239Y-94033313D01*
X61739912Y-94132412D01*
X61640813Y-94213739D01*
X61527758Y-94274168D01*
X61527755Y-94274169D01*
X61405079Y-94311383D01*
X61357271Y-94316092D01*
X61309465Y-94320800D01*
X60545535Y-94320800D01*
X60497729Y-94316092D01*
X60449921Y-94311383D01*
X60327245Y-94274169D01*
X60327242Y-94274168D01*
X60214187Y-94213739D01*
X60115088Y-94132412D01*
X60033761Y-94033313D01*
X59973332Y-93920258D01*
X59973331Y-93920255D01*
X59936117Y-93797579D01*
X59923552Y-93670000D01*
X59936117Y-93542421D01*
X59973331Y-93419745D01*
X59973332Y-93419742D01*
X60033761Y-93306687D01*
X60115088Y-93207588D01*
X60214187Y-93126261D01*
X60327242Y-93065832D01*
X60327245Y-93065831D01*
X60449921Y-93028617D01*
X60497729Y-93023908D01*
X60545535Y-93019200D01*
X61309465Y-93019200D01*
X61357271Y-93023908D01*
X61357271Y-93023908D01*
G37*
G36*
X58378852Y-91909107D02*
G01*
X58453793Y-91924013D01*
X58495145Y-91941142D01*
X58594979Y-91982494D01*
X58722043Y-92067396D01*
X58830104Y-92175457D01*
X58915006Y-92302521D01*
X58973487Y-92443708D01*
X59003300Y-92593589D01*
X59003300Y-92746411D01*
X58973487Y-92896292D01*
X58915006Y-93037479D01*
X58830104Y-93164543D01*
X58722043Y-93272604D01*
X58594979Y-93357506D01*
X58495145Y-93398858D01*
X58453793Y-93415987D01*
X58378852Y-93430893D01*
X58303911Y-93445800D01*
X58151089Y-93445800D01*
X58076148Y-93430893D01*
X58001207Y-93415987D01*
X57959855Y-93398858D01*
X57860021Y-93357506D01*
X57732957Y-93272604D01*
X57624896Y-93164543D01*
X57539994Y-93037479D01*
X57481513Y-92896292D01*
X57451700Y-92746411D01*
X57451700Y-92593589D01*
X57481513Y-92443708D01*
X57539994Y-92302521D01*
X57624896Y-92175457D01*
X57732957Y-92067396D01*
X57860021Y-91982494D01*
X57959855Y-91941142D01*
X58001207Y-91924013D01*
X58076148Y-91909107D01*
X58151089Y-91894200D01*
X58303911Y-91894200D01*
X58378852Y-91909107D01*
X58378852Y-91909107D01*
G37*
G36*
X105498362Y-90543545D02*
G01*
X105586588Y-90552234D01*
X105756389Y-90603743D01*
X105756392Y-90603744D01*
X105912878Y-90687388D01*
X106050044Y-90799956D01*
X106162612Y-90937122D01*
X106246256Y-91093608D01*
X106246257Y-91093611D01*
X106297766Y-91263412D01*
X106315158Y-91440000D01*
X106297766Y-91616588D01*
X106246257Y-91786389D01*
X106246256Y-91786392D01*
X106162612Y-91942878D01*
X106050044Y-92080044D01*
X105912878Y-92192612D01*
X105756392Y-92276256D01*
X105756389Y-92276257D01*
X105586588Y-92327766D01*
X105498362Y-92336455D01*
X105454250Y-92340800D01*
X105365750Y-92340800D01*
X105321638Y-92336455D01*
X105233412Y-92327766D01*
X105063611Y-92276257D01*
X105063608Y-92276256D01*
X104907122Y-92192612D01*
X104769956Y-92080044D01*
X104657388Y-91942878D01*
X104573744Y-91786392D01*
X104573743Y-91786389D01*
X104522234Y-91616588D01*
X104504842Y-91440000D01*
X104522234Y-91263412D01*
X104573743Y-91093611D01*
X104573744Y-91093608D01*
X104657388Y-90937122D01*
X104769956Y-90799956D01*
X104907122Y-90687388D01*
X105063608Y-90603744D01*
X105063611Y-90603743D01*
X105233412Y-90552234D01*
X105321638Y-90543545D01*
X105365750Y-90539200D01*
X105454250Y-90539200D01*
X105498362Y-90543545D01*
X105498362Y-90543545D01*
G37*
G36*
X102958362Y-90543545D02*
G01*
X103046588Y-90552234D01*
X103216389Y-90603743D01*
X103216392Y-90603744D01*
X103372878Y-90687388D01*
X103510044Y-90799956D01*
X103622612Y-90937122D01*
X103706256Y-91093608D01*
X103706257Y-91093611D01*
X103757766Y-91263412D01*
X103775158Y-91440000D01*
X103757766Y-91616588D01*
X103706257Y-91786389D01*
X103706256Y-91786392D01*
X103622612Y-91942878D01*
X103510044Y-92080044D01*
X103372878Y-92192612D01*
X103216392Y-92276256D01*
X103216389Y-92276257D01*
X103046588Y-92327766D01*
X102958362Y-92336455D01*
X102914250Y-92340800D01*
X102825750Y-92340800D01*
X102781638Y-92336455D01*
X102693412Y-92327766D01*
X102523611Y-92276257D01*
X102523608Y-92276256D01*
X102367122Y-92192612D01*
X102229956Y-92080044D01*
X102117388Y-91942878D01*
X102033744Y-91786392D01*
X102033743Y-91786389D01*
X101982234Y-91616588D01*
X101964842Y-91440000D01*
X101982234Y-91263412D01*
X102033743Y-91093611D01*
X102033744Y-91093608D01*
X102117388Y-90937122D01*
X102229956Y-90799956D01*
X102367122Y-90687388D01*
X102523608Y-90603744D01*
X102523611Y-90603743D01*
X102693412Y-90552234D01*
X102781638Y-90543545D01*
X102825750Y-90539200D01*
X102914250Y-90539200D01*
X102958362Y-90543545D01*
X102958362Y-90543545D01*
G37*
G36*
X105498362Y-88003545D02*
G01*
X105586588Y-88012234D01*
X105756389Y-88063743D01*
X105756392Y-88063744D01*
X105912878Y-88147388D01*
X106050044Y-88259956D01*
X106162612Y-88397122D01*
X106246256Y-88553608D01*
X106246257Y-88553611D01*
X106297766Y-88723412D01*
X106315158Y-88900000D01*
X106297766Y-89076588D01*
X106246257Y-89246389D01*
X106246256Y-89246392D01*
X106162612Y-89402878D01*
X106050044Y-89540044D01*
X105912878Y-89652612D01*
X105756392Y-89736256D01*
X105756389Y-89736257D01*
X105586588Y-89787766D01*
X105498362Y-89796455D01*
X105454250Y-89800800D01*
X105365750Y-89800800D01*
X105321638Y-89796455D01*
X105233412Y-89787766D01*
X105063611Y-89736257D01*
X105063608Y-89736256D01*
X104907122Y-89652612D01*
X104769956Y-89540044D01*
X104657388Y-89402878D01*
X104573744Y-89246392D01*
X104573743Y-89246389D01*
X104522234Y-89076588D01*
X104504842Y-88900000D01*
X104522234Y-88723412D01*
X104573743Y-88553611D01*
X104573744Y-88553608D01*
X104657388Y-88397122D01*
X104769956Y-88259956D01*
X104907122Y-88147388D01*
X105063608Y-88063744D01*
X105063611Y-88063743D01*
X105233412Y-88012234D01*
X105321638Y-88003545D01*
X105365750Y-87999200D01*
X105454250Y-87999200D01*
X105498362Y-88003545D01*
X105498362Y-88003545D01*
G37*
G36*
X102958362Y-88003545D02*
G01*
X103046588Y-88012234D01*
X103216389Y-88063743D01*
X103216392Y-88063744D01*
X103372878Y-88147388D01*
X103510044Y-88259956D01*
X103622612Y-88397122D01*
X103706256Y-88553608D01*
X103706257Y-88553611D01*
X103757766Y-88723412D01*
X103775158Y-88900000D01*
X103757766Y-89076588D01*
X103706257Y-89246389D01*
X103706256Y-89246392D01*
X103622612Y-89402878D01*
X103510044Y-89540044D01*
X103372878Y-89652612D01*
X103216392Y-89736256D01*
X103216389Y-89736257D01*
X103046588Y-89787766D01*
X102958362Y-89796455D01*
X102914250Y-89800800D01*
X102825750Y-89800800D01*
X102781638Y-89796455D01*
X102693412Y-89787766D01*
X102523611Y-89736257D01*
X102523608Y-89736256D01*
X102367122Y-89652612D01*
X102229956Y-89540044D01*
X102117388Y-89402878D01*
X102033744Y-89246392D01*
X102033743Y-89246389D01*
X101982234Y-89076588D01*
X101964842Y-88900000D01*
X101982234Y-88723412D01*
X102033743Y-88553611D01*
X102033744Y-88553608D01*
X102117388Y-88397122D01*
X102229956Y-88259956D01*
X102367122Y-88147388D01*
X102523608Y-88063744D01*
X102523611Y-88063743D01*
X102693412Y-88012234D01*
X102781638Y-88003545D01*
X102825750Y-87999200D01*
X102914250Y-87999200D01*
X102958362Y-88003545D01*
X102958362Y-88003545D01*
G37*
G36*
X58378852Y-86909107D02*
G01*
X58453793Y-86924013D01*
X58495145Y-86941142D01*
X58594979Y-86982494D01*
X58722043Y-87067396D01*
X58830104Y-87175457D01*
X58915006Y-87302521D01*
X58973487Y-87443708D01*
X59003300Y-87593589D01*
X59003300Y-87746411D01*
X58973487Y-87896292D01*
X58915006Y-88037479D01*
X58830104Y-88164543D01*
X58722043Y-88272604D01*
X58594979Y-88357506D01*
X58495145Y-88398858D01*
X58453793Y-88415987D01*
X58378851Y-88430894D01*
X58303911Y-88445800D01*
X58151089Y-88445800D01*
X58076149Y-88430894D01*
X58001207Y-88415987D01*
X57959855Y-88398858D01*
X57860021Y-88357506D01*
X57732957Y-88272604D01*
X57624896Y-88164543D01*
X57539994Y-88037479D01*
X57481513Y-87896292D01*
X57451700Y-87746411D01*
X57451700Y-87593589D01*
X57481513Y-87443708D01*
X57539994Y-87302521D01*
X57624896Y-87175457D01*
X57732957Y-87067396D01*
X57860021Y-86982494D01*
X57959855Y-86941142D01*
X58001207Y-86924013D01*
X58076148Y-86909107D01*
X58151089Y-86894200D01*
X58303911Y-86894200D01*
X58378852Y-86909107D01*
X58378852Y-86909107D01*
G37*
G36*
X61357271Y-86023908D02*
G01*
X61405079Y-86028617D01*
X61527755Y-86065831D01*
X61527758Y-86065832D01*
X61640813Y-86126261D01*
X61739912Y-86207588D01*
X61821239Y-86306687D01*
X61881668Y-86419742D01*
X61881669Y-86419745D01*
X61918883Y-86542421D01*
X61931448Y-86670000D01*
X61918883Y-86797579D01*
X61899074Y-86862878D01*
X61881668Y-86920258D01*
X61821239Y-87033313D01*
X61739912Y-87132412D01*
X61640813Y-87213739D01*
X61527758Y-87274168D01*
X61527755Y-87274169D01*
X61405079Y-87311383D01*
X61357271Y-87316092D01*
X61309465Y-87320800D01*
X60545535Y-87320800D01*
X60497729Y-87316092D01*
X60449921Y-87311383D01*
X60327245Y-87274169D01*
X60327242Y-87274168D01*
X60214187Y-87213739D01*
X60115088Y-87132412D01*
X60033761Y-87033313D01*
X59973332Y-86920258D01*
X59955926Y-86862878D01*
X59936117Y-86797579D01*
X59923552Y-86670000D01*
X59936117Y-86542421D01*
X59973331Y-86419745D01*
X59973332Y-86419742D01*
X60033761Y-86306687D01*
X60115088Y-86207588D01*
X60214187Y-86126261D01*
X60327242Y-86065832D01*
X60327245Y-86065831D01*
X60449921Y-86028617D01*
X60497729Y-86023908D01*
X60545535Y-86019200D01*
X61309465Y-86019200D01*
X61357271Y-86023908D01*
X61357271Y-86023908D01*
G37*
G36*
X102958362Y-85463545D02*
G01*
X103046588Y-85472234D01*
X103216389Y-85523743D01*
X103216392Y-85523744D01*
X103372878Y-85607388D01*
X103510044Y-85719956D01*
X103622612Y-85857122D01*
X103706256Y-86013608D01*
X103706257Y-86013611D01*
X103757766Y-86183412D01*
X103775158Y-86360000D01*
X103757766Y-86536588D01*
X103706257Y-86706389D01*
X103706256Y-86706392D01*
X103622612Y-86862878D01*
X103510044Y-87000044D01*
X103372878Y-87112612D01*
X103216392Y-87196256D01*
X103216389Y-87196257D01*
X103046588Y-87247766D01*
X102958362Y-87256455D01*
X102914250Y-87260800D01*
X102825750Y-87260800D01*
X102781638Y-87256455D01*
X102693412Y-87247766D01*
X102523611Y-87196257D01*
X102523608Y-87196256D01*
X102367122Y-87112612D01*
X102229956Y-87000044D01*
X102117388Y-86862878D01*
X102033744Y-86706392D01*
X102033743Y-86706389D01*
X101982234Y-86536588D01*
X101964842Y-86360000D01*
X101982234Y-86183412D01*
X102033743Y-86013611D01*
X102033744Y-86013608D01*
X102117388Y-85857122D01*
X102229956Y-85719956D01*
X102367122Y-85607388D01*
X102523608Y-85523744D01*
X102523611Y-85523743D01*
X102693412Y-85472234D01*
X102781638Y-85463545D01*
X102825750Y-85459200D01*
X102914250Y-85459200D01*
X102958362Y-85463545D01*
X102958362Y-85463545D01*
G37*
G36*
X106310800Y-87260800D02*
G01*
X104509200Y-87260800D01*
X104509200Y-85459200D01*
X106310800Y-85459200D01*
X106310800Y-87260800D01*
X106310800Y-87260800D01*
G37*
G36*
X53273030Y-83758954D02*
G01*
X53307933Y-83769543D01*
X53340107Y-83786740D01*
X53373071Y-83813792D01*
X54179850Y-84620571D01*
X54206902Y-84653535D01*
X54224099Y-84685709D01*
X54234688Y-84720612D01*
X54238263Y-84756916D01*
X54234688Y-84793220D01*
X54224099Y-84828123D01*
X54206902Y-84860297D01*
X54179850Y-84893261D01*
X53143261Y-85929850D01*
X53110297Y-85956902D01*
X53078123Y-85974099D01*
X53043220Y-85984688D01*
X53006916Y-85988263D01*
X52970612Y-85984688D01*
X52935709Y-85974099D01*
X52903535Y-85956902D01*
X52870571Y-85929850D01*
X52063792Y-85123071D01*
X52036740Y-85090107D01*
X52019543Y-85057933D01*
X52008954Y-85023030D01*
X52005379Y-84986726D01*
X52008954Y-84950422D01*
X52019543Y-84915519D01*
X52036740Y-84883345D01*
X52063792Y-84850381D01*
X53100381Y-83813792D01*
X53133345Y-83786740D01*
X53165519Y-83769543D01*
X53200422Y-83758954D01*
X53236726Y-83755379D01*
X53273030Y-83758954D01*
X53273030Y-83758954D01*
G37*
G36*
X111899578Y-83758954D02*
G01*
X111934481Y-83769543D01*
X111966655Y-83786740D01*
X111999619Y-83813792D01*
X113036208Y-84850381D01*
X113063260Y-84883345D01*
X113080457Y-84915519D01*
X113091046Y-84950422D01*
X113094621Y-84986726D01*
X113091046Y-85023030D01*
X113080457Y-85057933D01*
X113063260Y-85090107D01*
X113036208Y-85123071D01*
X112229429Y-85929850D01*
X112196465Y-85956902D01*
X112164291Y-85974099D01*
X112129388Y-85984688D01*
X112093084Y-85988263D01*
X112056780Y-85984688D01*
X112021877Y-85974099D01*
X111989703Y-85956902D01*
X111956739Y-85929850D01*
X110920150Y-84893261D01*
X110893098Y-84860297D01*
X110875901Y-84828123D01*
X110865312Y-84793220D01*
X110861737Y-84756916D01*
X110865312Y-84720612D01*
X110875901Y-84685709D01*
X110893098Y-84653535D01*
X110920150Y-84620571D01*
X111726929Y-83813792D01*
X111759893Y-83786740D01*
X111792067Y-83769543D01*
X111826970Y-83758954D01*
X111863274Y-83755379D01*
X111899578Y-83758954D01*
X111899578Y-83758954D01*
G37*
G36*
X51169388Y-81655312D02*
G01*
X51204291Y-81665901D01*
X51236465Y-81683098D01*
X51269429Y-81710150D01*
X52076208Y-82516929D01*
X52103260Y-82549893D01*
X52120457Y-82582067D01*
X52131046Y-82616970D01*
X52134621Y-82653274D01*
X52131046Y-82689578D01*
X52120457Y-82724481D01*
X52103260Y-82756655D01*
X52076208Y-82789619D01*
X51039619Y-83826208D01*
X51006655Y-83853260D01*
X50974481Y-83870457D01*
X50939578Y-83881046D01*
X50903274Y-83884621D01*
X50866970Y-83881046D01*
X50832067Y-83870457D01*
X50799893Y-83853260D01*
X50766929Y-83826208D01*
X49960150Y-83019429D01*
X49933098Y-82986465D01*
X49915901Y-82954291D01*
X49905312Y-82919388D01*
X49901737Y-82883084D01*
X49905312Y-82846780D01*
X49915901Y-82811877D01*
X49933098Y-82779703D01*
X49960150Y-82746739D01*
X50996739Y-81710150D01*
X51029703Y-81683098D01*
X51061877Y-81665901D01*
X51096780Y-81655312D01*
X51133084Y-81651737D01*
X51169388Y-81655312D01*
X51169388Y-81655312D01*
G37*
G36*
X114003220Y-81655312D02*
G01*
X114038123Y-81665901D01*
X114070297Y-81683098D01*
X114103261Y-81710150D01*
X115139850Y-82746739D01*
X115166902Y-82779703D01*
X115184099Y-82811877D01*
X115194688Y-82846780D01*
X115198263Y-82883084D01*
X115194688Y-82919388D01*
X115184099Y-82954291D01*
X115166902Y-82986465D01*
X115139850Y-83019429D01*
X114333071Y-83826208D01*
X114300107Y-83853260D01*
X114267933Y-83870457D01*
X114233030Y-83881046D01*
X114196726Y-83884621D01*
X114160422Y-83881046D01*
X114125519Y-83870457D01*
X114093345Y-83853260D01*
X114060381Y-83826208D01*
X113023792Y-82789619D01*
X112996740Y-82756655D01*
X112979543Y-82724481D01*
X112968954Y-82689578D01*
X112965379Y-82653274D01*
X112968954Y-82616970D01*
X112979543Y-82582067D01*
X112996740Y-82549893D01*
X113023792Y-82516929D01*
X113830571Y-81710150D01*
X113863535Y-81683098D01*
X113895709Y-81665901D01*
X113930612Y-81655312D01*
X113966916Y-81651737D01*
X114003220Y-81655312D01*
X114003220Y-81655312D01*
G37*
G36*
X118621584Y-76546865D02*
G01*
X118766534Y-76575697D01*
X119176154Y-76745367D01*
X119544802Y-76991689D01*
X119858311Y-77305198D01*
X120104633Y-77673846D01*
X120222611Y-77958671D01*
X120274303Y-78083467D01*
X120360800Y-78518314D01*
X120360800Y-78961686D01*
X120325172Y-79140800D01*
X120274303Y-79396534D01*
X120104633Y-79806154D01*
X119858311Y-80174802D01*
X119544802Y-80488311D01*
X119176154Y-80734633D01*
X118766534Y-80904303D01*
X118621584Y-80933135D01*
X118331686Y-80990800D01*
X117888314Y-80990800D01*
X117598416Y-80933135D01*
X117453466Y-80904303D01*
X117043846Y-80734633D01*
X116675198Y-80488311D01*
X116361689Y-80174802D01*
X116115367Y-79806154D01*
X115945697Y-79396534D01*
X115894828Y-79140800D01*
X115859200Y-78961686D01*
X115859200Y-78518314D01*
X115945697Y-78083467D01*
X115997389Y-77958671D01*
X116115367Y-77673846D01*
X116361689Y-77305198D01*
X116675198Y-76991689D01*
X117043846Y-76745367D01*
X117453466Y-76575697D01*
X117598416Y-76546865D01*
X117888314Y-76489200D01*
X118331686Y-76489200D01*
X118621584Y-76546865D01*
X118621584Y-76546865D01*
G37*
G36*
X47501584Y-76546865D02*
G01*
X47646534Y-76575697D01*
X48056154Y-76745367D01*
X48424802Y-76991689D01*
X48738311Y-77305198D01*
X48984633Y-77673846D01*
X49102611Y-77958671D01*
X49154303Y-78083467D01*
X49240800Y-78518314D01*
X49240800Y-78961686D01*
X49205172Y-79140800D01*
X49154303Y-79396534D01*
X48984633Y-79806154D01*
X48738311Y-80174802D01*
X48424802Y-80488311D01*
X48056154Y-80734633D01*
X47646534Y-80904303D01*
X47501584Y-80933135D01*
X47211686Y-80990800D01*
X46768314Y-80990800D01*
X46478416Y-80933135D01*
X46333466Y-80904303D01*
X45923846Y-80734633D01*
X45555198Y-80488311D01*
X45241689Y-80174802D01*
X44995367Y-79806154D01*
X44825697Y-79396534D01*
X44774828Y-79140800D01*
X44739200Y-78961686D01*
X44739200Y-78518314D01*
X44825697Y-78083467D01*
X44877389Y-77958671D01*
X44995367Y-77673846D01*
X45241689Y-77305198D01*
X45555198Y-76991689D01*
X45923846Y-76745367D01*
X46333466Y-76575697D01*
X46478416Y-76546865D01*
X46768314Y-76489200D01*
X47211686Y-76489200D01*
X47501584Y-76546865D01*
X47501584Y-76546865D01*
G37*
M02*
